<?xml version="1.0" encoding="utf-8"?>
<!-- Generator: Adobe Illustrator 21.1.0, SVG Export Plug-In . SVG Version: 6.00 Build 0)  -->
<svg version="1.1" id="Layer_1" xmlns="http://www.w3.org/2000/svg" xmlns:xlink="http://www.w3.org/1999/xlink" x="0px" y="0px"
	 viewBox="0 0 44 50" xml:space="preserve">
<style type="text/css">
	.st0{fill:#040000;}
</style>
<g>
	<path class="st0" d="M33.1,30c-2.4,0-4.2,0.9-6,2.4L17.5,27c0.3-0.9,0.6-2.1,0.6-3s-0.3-2.1-0.6-3l9.6-5.4c1.8,1.5,3.6,2.4,6,2.4
		c5.1,0,9-3.9,9-9s-3.9-9-9-9s-9,3.9-9,9v1.5l-10.5,5.7c-1.2-0.6-2.7-1.2-4.5-1.2c-4.8,0-9,3.9-9,9c0,4.8,4.2,9,9,9
		c1.8,0,3.3-0.6,4.5-1.2L24,37.5V39c0,5.1,3.9,9,9,9s9-3.9,9-9C42.1,33.9,38.2,30,33.1,30L33.1,30z"/>
</g>
</svg>
