<?xml version="1.0" encoding="utf-8"?>
<!-- Generator: Adobe Illustrator 16.0.3, SVG Export Plug-In . SVG Version: 6.00 Build 0)  -->
<!DOCTYPE svg PUBLIC "-//W3C//DTD SVG 1.1//EN" "http://www.w3.org/Graphics/SVG/1.1/DTD/svg11.dtd">
<svg version="1.1" id="mo_x5F_zoom_1_" xmlns="http://www.w3.org/2000/svg" xmlns:xlink="http://www.w3.org/1999/xlink" x="0px"
	 y="0px" viewBox="0 0 51 47" enable-background="new 0 0 51 47" xml:space="preserve">
<g>
	<g id="Rectangle_88_copy">
		<g>
			<polygon fill-rule="evenodd" clip-rule="evenodd" points="30.782,19.19 23.066,19.19 23.066,11.496 19.268,11.496 19.268,19.19 
				11.553,19.19 11.553,22.977 19.268,22.977 19.268,30.672 23.066,30.672 23.066,22.977 30.782,22.977 			"/>
		</g>
	</g>
	<g id="Rounded_Rectangle_11">
		<g>
			<path fill-rule="evenodd" clip-rule="evenodd" d="M49.41,42.578L39.069,32.265c2.037-3.242,3.234-7.063,3.234-11.172
				C42.304,9.444,32.831,0,21.151,0C9.47,0,0,9.444,0,21.093c0,11.649,9.47,21.092,21.151,21.092c6.101,0,11.583-2.591,15.445-6.713
				l9.971,9.942c0.785,0.782,2.057,0.782,2.844,0S50.197,43.36,49.41,42.578z M21.157,38.348c-9.556,0-17.302-7.727-17.302-17.257
				c0-9.529,7.746-17.256,17.302-17.256s17.301,7.727,17.301,17.256C38.458,30.621,30.713,38.348,21.157,38.348z"/>
		</g>
	</g>
</g>
</svg>
