<?xml version="1.0" encoding="utf-8"?>
<!-- Generator: Adobe Illustrator 16.0.0, SVG Export Plug-In . SVG Version: 6.00 Build 0)  -->
<!DOCTYPE svg PUBLIC "-//W3C//DTD SVG 1.1//EN" "http://www.w3.org/Graphics/SVG/1.1/DTD/svg11.dtd">
<svg version="1.1" id="레이어_1" xmlns="http://www.w3.org/2000/svg" xmlns:xlink="http://www.w3.org/1999/xlink" x="0px"
	 y="0px" viewBox="0 0 114 111" enable-background="new 0 0 114 111" xml:space="preserve">
<g>
	<g>
		<path fill-rule="evenodd" clip-rule="evenodd" fill="#FFFFFF" d="M83.554,7.436C56.914-7.89,22.85,1.205,7.469,27.75
			c-15.381,26.546-6.253,60.488,20.387,75.814s60.704,6.23,76.084-20.314c0.018,0.004-8.053-4.076-8.074-4.066
			c-13.061,22.459-41.87,30.182-64.431,17.203C8.875,83.407,1.146,54.663,14.171,32.183C27.196,9.703,56.042,2.001,78.603,14.979
			c9.664,5.56,16.592,14.018,20.348,23.631l8.43-3.769C102.903,23.696,94.796,13.904,83.554,7.436z M111.79,53.703l2.213-21.821
			l-6.623,2.96c-0.033,0.028-8.424,3.774-8.43,3.769l-5.277,2.359L111.79,53.703z M47.175,76.999l26.092-19v-2L47.175,37V76.999z"/>
	</g>
</g>
</svg>
