<?xml version="1.0" encoding="utf-8"?>
<!-- Generator: Adobe Illustrator 16.0.3, SVG Export Plug-In . SVG Version: 6.00 Build 0)  -->
<!DOCTYPE svg PUBLIC "-//W3C//DTD SVG 1.1//EN" "http://www.w3.org/Graphics/SVG/1.1/DTD/svg11.dtd">
<svg version="1.1" id="레이어_1" xmlns="http://www.w3.org/2000/svg" xmlns:xlink="http://www.w3.org/1999/xlink" x="0px"
	 y="0px" viewBox="0 0 97 97" enable-background="new 0 0 96 96" xml:space="preserve">
<g>
	<g>
		<path fill="none" stroke="#fff" stroke-width="1.5" stroke-miterlimit="10" d="M69.157,70.068c0,0-0.741,9.641-6.714,13.715
			c-3.061,2.092-2.482,10.646-2.549,12.525"/>
		<path fill="none" stroke="#fff" stroke-width="1.5" stroke-miterlimit="10" d="M40.671,70.041V40.922
			c0-2.141,1.734-3.875,3.875-3.875c2.139,0,3.873,1.733,3.873,3.875v20.381"/>
		<path fill="none" stroke="#fff" stroke-width="1.5" stroke-miterlimit="10" d="M48.425,63.199V54.58
			c0-1.908,1.549-3.454,3.457-3.454c1.905,0,3.453,1.546,3.453,3.454v9.559"/>
		<path fill="none" stroke="#fff" stroke-width="1.5" stroke-miterlimit="10" d="M55.335,64.139V56.97
			c0-1.907,1.55-3.454,3.456-3.454s3.456,1.547,3.456,3.454v8.001"/>
		<path fill="none" stroke="#fff" stroke-width="1.5" stroke-miterlimit="10" d="M69.157,70.068V58.465
			c0-1.908-1.549-3.455-3.458-3.455c-1.904,0-3.452,1.547-3.452,3.455v5.98"/>
		<path fill="none" stroke="#fff" stroke-width="1.5" stroke-miterlimit="10" d="M40.671,59.006h-2.894
			c-3.898,0-4.231,3.164-4.231,7.066V79.24c0,0,0.976,2.986,2.639,3.891c3.17,1.727,4.205,5.611,4.271,7.445v5.732"/>
	</g>
	<path fill="none" stroke="#fff" stroke-width="1.5" stroke-miterlimit="10" d="M28.456,90.844
		C12.188,83.419,0.884,67.01,0.884,47.96C0.884,21.938,21.979,0.844,48,0.844c26.021,0,47.116,21.095,47.116,47.117
		c0,17.032-9.037,31.954-22.578,40.231"/>
	<path fill="none" stroke="#fff" stroke-width="1.5" stroke-miterlimit="10" d="M25.788,66.892
		C21.456,61.803,18.841,55.206,18.841,48c0-16.104,13.056-29.159,29.159-29.159c16.104,0,29.159,13.055,29.159,29.159
		c0,4.695-1.109,9.131-3.081,13.061"/>
</g>
</svg>
