<?xml version="1.0" encoding="utf-8"?>
<!-- Generator: Adobe Illustrator 16.0.0, SVG Export Plug-In . SVG Version: 6.00 Build 0)  -->
<!DOCTYPE svg PUBLIC "-//W3C//DTD SVG 1.1//EN" "http://www.w3.org/Graphics/SVG/1.1/DTD/svg11.dtd">
<svg version="1.1" xmlns="http://www.w3.org/2000/svg" xmlns:xlink="http://www.w3.org/1999/xlink" x="0px" y="0px" viewBox="0 0 227 222" enable-background="new 0 0 227 222" xml:space="preserve">
<g id="레이어_2">
</g>
<g id="레이어_1">
	<g>
		<g>
			<path fill="#FFFFFF" d="M156.551,192.04c-44.959,25.958-102.448,10.554-128.406-34.406
				C2.188,112.675,17.592,55.185,62.551,29.228c44.96-25.958,102.376-10.512,128.406,34.406c0.043,0.019,16.123-8.14,16.09-8.134
				c-30.652-53.09-98.54-71.281-151.629-40.629C2.327,45.523-15.863,113.409,14.789,166.5s98.539,71.28,151.629,40.629
				c22.408-12.938,38.561-32.521,47.486-54.813l-16.803-7.538C189.617,164.006,175.811,180.922,156.551,192.04z M222.689,114.596
				l-36.105,25.464l10.518,4.718c0.012-0.012,16.734,7.481,16.803,7.538l13.197,5.921L222.689,114.596z M195.918,72
				c-6.627,0-12,5.373-12,12s5.373,12,12,12s12-5.373,12-12S202.545,72,195.918,72z M195.715,89.49c-3.316,0-6.002-2.682-6.002-5.99
				s2.686-5.99,6.002-5.99c3.314,0,6.002,2.682,6.002,5.99S199.029,89.49,195.715,89.49z"/>
		</g>
	</g>
	<g>
		<path fill="#FFFFFF" d="M75.507,116.543c2.942,3.463,4.414,7.789,4.414,12.983c0,4.096-0.909,7.718-2.726,10.859
			c-1.817,3.147-4.4,5.584-7.746,7.314c-3.347,1.731-7.241,2.597-11.684,2.597c-3.462,0-6.924-0.507-10.385-1.515
			c-3.462-1.01-6.375-2.35-8.742-4.025l3.895-8.479c2.539,1.441,5.136,2.55,7.79,3.332c2.653,0.776,5.135,1.167,7.442,1.167
			c3.691,0,6.548-0.981,8.568-2.942c2.02-1.962,3.029-4.73,3.029-8.308c0-3.348-0.967-5.971-2.899-7.876
			c-1.935-1.904-4.602-2.855-8.005-2.855c-1.789,0-3.665,0.229-5.625,0.691l-3.981-5.105l17.828-18.868h-26.57v-9h37.82v9
			l-14.365,14.887C68.583,111.034,72.564,113.084,75.507,116.543z"/>
		<path fill="#FFFFFF" d="M120.198,111.697c2.827,1.674,5.006,4.024,6.534,7.054c1.53,3.029,2.296,6.534,2.296,10.516
			c0,4.153-0.866,7.833-2.599,11.034c-1.729,3.201-4.169,5.669-7.313,7.399c-3.144,1.731-6.794,2.597-10.949,2.597
			c-4.27,0-8.005-0.894-11.206-2.683c-3.203-1.788-5.684-4.33-7.443-7.617c-1.762-3.289-2.64-7.096-2.64-11.423
			c0-4.848,0.894-9.361,2.682-13.546c1.789-4.182,4.875-8.927,9.261-14.236l12.809-15.405l8.048,6.231l-12.896,14.713
			c-1.5,1.731-2.596,3.029-3.289,3.895c2.193-0.692,4.501-1.039,6.924-1.039C114.111,109.187,117.371,110.024,120.198,111.697z
			 M115.786,138.18c1.845-2.077,2.768-4.963,2.768-8.653c0-3.81-0.979-6.78-2.941-8.916c-1.961-2.132-4.673-3.2-8.135-3.2
			c-2.828,0-5.596,0.634-8.31,1.902c-1.269,2.713-1.903,5.771-1.903,9.174c0,4.04,0.965,7.185,2.899,9.434
			c1.934,2.25,4.601,3.375,8.005,3.375C111.401,141.295,113.939,140.258,115.786,138.18z"/>
		<path fill="#FFFFFF" d="M140.703,142.422c-3.607-5.251-5.409-13.444-5.409-24.58c0-11.193,1.787-19.399,5.365-24.622
			c3.577-5.222,9.029-7.833,16.354-7.833c7.386,0,12.884,2.611,16.49,7.833c3.605,5.223,5.406,13.428,5.406,24.622
			c0,11.136-1.801,19.329-5.406,24.58c-3.606,5.25-9.075,7.875-16.401,7.875C149.774,150.297,144.309,147.672,140.703,142.422z
			 M165.67,135.541c1.787-3.722,2.684-9.619,2.684-17.699c0-8.077-0.908-13.977-2.728-17.698c-1.817-3.722-4.687-5.582-8.612-5.582
			c-3.864,0-6.69,1.86-8.479,5.582c-1.789,3.721-2.682,9.621-2.682,17.698c0,8.08,0.893,13.978,2.682,17.699
			s4.644,5.584,8.568,5.584C161.025,141.125,163.883,139.263,165.67,135.541z"/>
	</g>
</g>
</svg>
