<?xml version="1.0" encoding="utf-8"?>
<!-- Generator: Adobe Illustrator 16.0.3, SVG Export Plug-In . SVG Version: 6.00 Build 0)  -->
<!DOCTYPE svg PUBLIC "-//W3C//DTD SVG 1.1//EN" "http://www.w3.org/Graphics/SVG/1.1/DTD/svg11.dtd">
<svg version="1.1" id="Layer_1" xmlns="http://www.w3.org/2000/svg" xmlns:xlink="http://www.w3.org/1999/xlink" x="0px" y="0px"
	 viewBox="14 14 20 20" enable-background="new 14 14 20 20" xml:space="preserve" preserveAspectRatio="XMinYMin meet">
<path fill="#0077c8" d="M14,17.347l0,5.212c0,0.001,0,0.002,0,0.004v0.009c0,0.152,0.077,0.282,0.188,0.369l10.855,10.856
	c0.017,0.023,0.026,0.049,0.047,0.068c0.093,0.094,0.217,0.137,0.34,0.134c0.123,0.003,0.246-0.04,0.34-0.134
	c0.021-0.02,0.029-0.045,0.046-0.068l7.982-7.981c0.022-0.016,0.048-0.025,0.068-0.046c0.094-0.094,0.137-0.218,0.134-0.341
	c0.003-0.122-0.04-0.246-0.134-0.34c-0.021-0.021-0.046-0.03-0.068-0.046L22.942,14.188C22.854,14.077,22.725,14,22.572,14h-0.01
	c-0.001,0-0.002,0-0.003,0h-1.918h-1.02h-2.274c-0.001,0-0.002,0-0.004,0l-0.009,0c-0.153,0-0.283,0.076-0.37,0.188l-2.776,2.776
	C14.077,17.052,14,17.182,14,17.334l0,0.009C14,17.345,14,17.346,14,17.347z M18.261,18.261c0.604-0.605,1.584-0.605,2.188,0
	c0.604,0.604,0.604,1.584,0,2.189c-0.604,0.604-1.584,0.604-2.188,0C17.657,19.845,17.656,18.865,18.261,18.261z"/>
</svg>
