<?xml version="1.0" encoding="utf-8"?>
<!-- Generator: Adobe Illustrator 16.0.0, SVG Export Plug-In . SVG Version: 6.00 Build 0)  -->
<!DOCTYPE svg PUBLIC "-//W3C//DTD SVG 1.1//EN" "http://www.w3.org/Graphics/SVG/1.1/DTD/svg11.dtd">
<svg version="1.1" xmlns="http://www.w3.org/2000/svg" xmlns:xlink="http://www.w3.org/1999/xlink" viewBox="0 0 22 36" xml:space="preserve" preserveAspectRatio="XMaxYMax meet">
<g>
	<path fill="#040000" d="M2.51,0.89c0.41,0,0.82,0.153,1.132,0.458l14.981,15.544c0.313,0.306,0.469,0.707,0.469,1.107
		c0,0.32-0.156,0.801-0.469,1.106L3.642,34.651c-0.313,0.306-0.723,0.458-1.132,0.458s-0.819-0.152-1.132-0.458
		c-0.625-0.611-0.625-1.604,0.001-2.215l13.848-14.438L1.378,3.563c-0.625-0.611-0.626-1.604,0-2.215C1.69,1.042,2.1,0.89,2.51,0.89
		 M2.51,0c-0.67,0-1.301,0.255-1.775,0.719C0.261,1.183,0,1.799,0,2.456s0.261,1.273,0.736,1.736L13.98,17.999L0.715,31.827
		C0.261,32.271,0,32.888,0,33.545c0,0.655,0.26,1.272,0.734,1.734C1.209,35.744,1.84,36,2.51,36c0.67,0,1.301-0.256,1.775-0.721
		l14.999-15.563C19.738,19.271,20,18.655,20,18c0-0.656-0.262-1.272-0.734-1.736L4.303,0.738C3.811,0.255,3.18,0,2.51,0L2.51,0z"/>
</g>
</svg>
