<?xml version="1.0" encoding="utf-8"?>
<!-- Generator: Adobe Illustrator 16.0.3, SVG Export Plug-In . SVG Version: 6.00 Build 0)  -->
<!DOCTYPE svg PUBLIC "-//W3C//DTD SVG 1.1//EN" "http://www.w3.org/Graphics/SVG/1.1/DTD/svg11.dtd">
<svg version="1.1" xmlns="http://www.w3.org/2000/svg" xmlns:xlink="http://www.w3.org/1999/xlink" x="0px" y="0px" viewBox="0 0 101 101" enable-background="new 0 0 101 101" xml:space="preserve">
<g id="Ellipse_11_xA0_이미지_1_">
</g>
<g id="Rectangle_89_1_" enable-background="new    ">
	<g opacity="0.5">
		<path d="M50,99.25C22.843,99.25,0.75,77.156,0.75,50C0.75,22.843,22.843,0.75,50,0.75c27.156,0,49.25,22.093,49.25,49.25
			C99.25,77.156,77.156,99.25,50,99.25z"/>
		<path fill="#FFFFFF" d="M50,1.5c26.743,0,48.5,21.757,48.5,48.5S76.743,98.5,50,98.5S1.5,76.743,1.5,50S23.257,1.5,50,1.5 M50,0
			C22.386,0,0,22.386,0,50s22.386,50,50,50s50-22.386,50-50S77.614,0,50,0L50,0z"/>
	</g>
	<g id="Rectangle_89">
		<g>
			<polygon fill="#FFFFFF" points="40.997,28.013 40.997,71.986 68.999,49.999 			"/>
		</g>
	</g>
	<g id="Rectangle_89_3_">
		<g>
			<polygon fill="#FFFFFF" points="40.997,28.013 40.997,71.986 68.999,49.999 			"/>
		</g>
	</g>
</g>
</svg>
