<?xml version="1.0" encoding="utf-8"?>
<!-- Generator: Adobe Illustrator 16.0.0, SVG Export Plug-In . SVG Version: 6.00 Build 0)  -->
<!DOCTYPE svg PUBLIC "-//W3C//DTD SVG 1.1//EN" "http://www.w3.org/Graphics/SVG/1.1/DTD/svg11.dtd">
<svg version="1.1" xmlns="http://www.w3.org/2000/svg" xmlns:xlink="http://www.w3.org/1999/xlink" viewBox="0 0 22 36" xml:space="preserve" preserveAspectRatio="XMaxYMax meet">
<g>
	<path fill="#040000" d="M17.49,35.11c-0.41,0-0.82-0.153-1.133-0.458L1.377,19.107C1.064,18.801,0.908,18.401,0.908,18
		c0-0.32,0.156-0.801,0.469-1.106l14.98-15.545c0.313-0.306,0.723-0.458,1.133-0.458s0.819,0.152,1.133,0.458
		c0.625,0.611,0.624,1.604-0.002,2.215L4.773,18.001l13.848,14.437c0.626,0.61,0.626,1.604,0,2.215
		C18.31,34.957,17.899,35.11,17.49,35.11 M17.49,36c0.67,0,1.301-0.256,1.774-0.719C19.739,34.817,20,34.201,20,33.544
		s-0.262-1.273-0.736-1.736L6.02,18.001L19.284,4.173C19.738,3.729,20,3.112,20,2.455c0-0.655-0.26-1.272-0.734-1.734
		C18.791,0.256,18.16,0,17.49,0s-1.301,0.256-1.775,0.721L0.717,16.283C0.262,16.729,0,17.345,0,18c0,0.656,0.262,1.271,0.734,1.736
		l14.962,15.525C16.189,35.744,16.819,36,17.49,36L17.49,36z"/>
</g>
</svg>
