<?xml version="1.0" encoding="utf-8"?>
<!-- Generator: Adobe Illustrator 16.0.0, SVG Export Plug-In . SVG Version: 6.00 Build 0)  -->
<!DOCTYPE svg PUBLIC "-//W3C//DTD SVG 1.1//EN" "http://www.w3.org/Graphics/SVG/1.1/DTD/svg11.dtd">
<svg version="1.1" xmlns="http://www.w3.org/2000/svg" xmlns:xlink="http://www.w3.org/1999/xlink" viewBox="0 0 20 18" enable-background="new 0 0 20 18" xml:space="preserve">
<g>
	<path fill="#060001" d="M19.213,16.201c0,0.993-0.805,1.799-1.799,1.799s-1.8-0.806-1.8-1.799c0-0.994,0.806-1.802,1.8-1.802
		S19.213,15.207,19.213,16.201"/>
	<path fill="#060001" d="M6.838,16.201C6.838,17.194,6.034,18,5.04,18S3.24,17.194,3.24,16.201c0-0.994,0.805-1.802,1.799-1.802
		S6.838,15.207,6.838,16.201"/>
	<path fill="#040000" d="M17.472,2.53v2.527v2.46v2.594L5.056,10.11V7.516V5.055V2.527V2.503C5.056,1.121,3.935,0,2.553,0H2.529H0
		v2.526h2.529v7.583c0,1.396,1.131,2.527,2.527,2.527l12.416,0.002c1.396,0,2.528-1.131,2.528-2.527V2.53H17.472z"/>
</g>
</svg>
