<?xml version="1.0" encoding="utf-8"?>
<!-- Generator: Adobe Illustrator 21.1.0, SVG Export Plug-In . SVG Version: 6.00 Build 0)  -->
<svg version="1.1" id="레이어_1" xmlns="http://www.w3.org/2000/svg" xmlns:xlink="http://www.w3.org/1999/xlink" x="0px"
	 y="0px" viewBox="0 0 56 56" style="enable-background:new 0 0 56 56;" xml:space="preserve">
<style type="text/css">
	.st0{fill:#1428a0;}
</style>
<path class="st0" d="M28,0C12.5,0,0,12.3,0,28s12.5,28,28,28c15.5,0,28-12.5,28-28S43.5,0,28,0z M30.8,41c0.2,1,0.7,2.3,1.7,3.5
	c0,0-5.6,0-8.5-3.7c-5.7-1.7-9.9-7.1-9.9-13.4c0-7.7,6.3-13.9,13.9-13.9c7.7,0,13.9,6.3,13.9,13.9C41.9,34.2,37.2,39.8,30.8,41z"/>
<g>
	<path class="st0" d="M30.6,32.1h-5l-0.9,2.8h-4l5.6-15.3h3.5l5.7,15.3h-4L30.6,32.1z M26.4,29.3h3.3L28.2,24L26.4,29.3z"/>
</g>
</svg>
