<?xml version="1.0" encoding="utf-8"?>
<!-- Generator: Adobe Illustrator 21.1.0, SVG Export Plug-In . SVG Version: 6.00 Build 0)  -->
<svg version="1.1" id="레이어_1" xmlns="http://www.w3.org/2000/svg" xmlns:xlink="http://www.w3.org/1999/xlink" x="0px"
	 y="0px" viewBox="0 0 32 32" style="enable-background:new 0 0 32 32;" xml:space="preserve">
<g>
	<g>
		<path d="M26,0c0.2,0,0.5,0.1,0.7,0.2l4.5,4c0,0,0.1,0.1,0.1,0.1c2.9,2.9-2.5,11.2-9.2,17.9C16.1,28,9.9,32,6.5,32
			c-0.9,0-1.7-0.3-2.2-0.8l-4-4.5C0.1,26.5,0,26.2,0,25.9c0-0.3,0.1-0.5,0.3-0.7l7-6c0.3-0.3,0.8-0.3,1.2-0.1l4.3,2.6l8.9-8.9
			l-2.6-4.3c-0.2-0.4-0.2-0.8,0.1-1.2l6-7C25.4,0.1,25.6,0,26,0C25.9,0,26,0,26,0z M6.5,30c2.4,0,8-3.2,14.1-9.2
			C27.9,13.5,31,6.9,29.8,5.7l-3.7-3.3l-4.9,5.7l2.7,4.4c0.2,0.4,0.2,0.9-0.1,1.2l-10,10c-0.3,0.3-0.8,0.4-1.2,0.1l-4.4-2.7
			l-5.7,4.9l3.2,3.7C5.9,30,6.3,30,6.5,30z"/>
	</g>
</g>
</svg>
