<?xml version="1.0" encoding="utf-8"?>
<!-- Generator: Adobe Illustrator 21.1.0, SVG Export Plug-In . SVG Version: 6.00 Build 0)  -->
<svg version="1.1" id="레이어_1" xmlns="http://www.w3.org/2000/svg" xmlns:xlink="http://www.w3.org/1999/xlink" x="0px"
	 y="0px" viewBox="0 -1 31 58" xml:space="preserve">
<style type="text/css">
	.st0{fill-rule:evenodd;clip-rule:evenodd;}
</style>
<g>
	<g>
		<path class="st0" d="M26,0H4C1.8,0,0,1.8,0,4v48c0,2.2,1.8,4,4,4h22c2.2,0,4-1.8,4-4V4C30,1.8,28.2,0,26,0z M28,52
			c0,1.1-0.9,2-2,2H4c-1.1,0-2-0.9-2-2v-2h26V52z M28,48H2V8h26V48z M28,6H2V4c0-1.1,0.9-2,2-2h22c1.1,0,2,0.9,2,2V6z M13,53h4
			c0.6,0,1-0.4,1-1s-0.4-1-1-1h-4c-0.6,0-1,0.4-1,1S12.4,53,13,53z"/>
	</g>
</g>
</svg>
