<?xml version="1.0" encoding="utf-8"?>
<!-- Generator: Adobe Illustrator 22.0.1, SVG Export Plug-In . SVG Version: 6.00 Build 0)  -->
<svg version="1.1" id="레이어_1" xmlns="http://www.w3.org/2000/svg" xmlns:xlink="http://www.w3.org/1999/xlink" x="0px"
	 y="0px" viewBox="0 0 122 122" style="enable-background:new 0 0 122 122;" xml:space="preserve">
<style type="text/css">
	.st0{fill-rule:evenodd;clip-rule:evenodd;fill:#FFFFFF;}
</style>
<g>
	<path class="st0" d="M58.7,41.9l-4.4-5.1c-1.2-1.2-3.2-1.2-4.4,0c-1.2,1.2-1.2,3.2,0,4.4l5.6,4c1.5,1,2.7,1.8,3.9,0.6
		c0.2-0.2,0.4-0.4,0.5-0.6c0.4-0.5,0.4-1.3-0.1-2C59.4,42.7,59.1,42.3,58.7,41.9z"/>
	<path class="st0" d="M38.5,50.2v7.1c0,0.9,0.7,1.6,1.6,1.6h18.8V48.6H40.1C39.2,48.6,38.5,49.3,38.5,50.2z"/>
	<path class="st0" d="M41.7,84c0,0.9,0.7,1.6,1.6,1.6h15.7V60.4H41.7V84z"/>
	<path class="st0" d="M62.6,45.6c1.2,1.2,2.4,0.6,3.9-0.6l5-3.1c1.2-1.2,1.2-3.2,0-4.5c-1.2-1.2-3.2-1.2-4.5,0l-3.9,4.2
		c-0.4,0.4-0.8,0.9-1,1.4c-0.4,0.7-0.4,1.5,0,1.9C62.3,45.2,62.4,45.4,62.6,45.6z"/>
	<path class="st0" d="M80.9,48.6H62.1v10.2h18.8c0.9,0,1.6-0.7,1.6-1.6v-7.1C82.5,49.3,81.8,48.6,80.9,48.6z"/>
	<path class="st0" d="M62.1,85.5h15.7c0.9,0,1.6-0.7,1.6-1.6V60.4H62.1V85.5z"/>
	<path class="st0" d="M60,0C26.9,0,0,26.9,0,60c0,33.1,26.9,60,60,60c33.1,0,60-26.9,60-60C120,26.9,93.1,0,60,0z M84.1,57.3
		c0,1.7-1.4,3.1-3.1,3.1V84c0,1.7-1.4,3.1-3.1,3.1H43.2c-1.7,0-3.1-1.4-3.1-3.1V60.4c-1.7,0-3.1-1.4-3.1-3.1v-7.1
		c0-1.7,1.4-3.1,3.1-3.1h13.7l-6.2-4.8c-1.8-1.8-1.8-4.8,0-6.7l1.1-1.1c1.8-1.8,4.8-1.8,6.7,0l5.5,6.2c0,0,0-0.1,0.1-0.1l5-5.3
		c1.8-1.9,4.8-1.9,6.7,0l1.1,1.1c1.9,1.9,1.9,4.9,0,6.7l-5.8,4h12.9c1.7,0,3.1,1.4,3.1,3.1V57.3z"/>
</g>
</svg>
