<?xml version="1.0" encoding="utf-8"?>
<!-- Generator: Adobe Illustrator 21.1.0, SVG Export Plug-In . SVG Version: 6.00 Build 0)  -->
<svg version="1.1" id="레이어_1" xmlns="http://www.w3.org/2000/svg" xmlns:xlink="http://www.w3.org/1999/xlink" viewBox="-1 0 76 50" xml:space="preserve">
<style type="text/css">
	.st0{fill-rule:evenodd;clip-rule:evenodd;}
</style>
<path class="st0" d="M66,40.1l4.7-0.2l-2.2-4.1l-1,1.7l-14.6-8.4l-0.5,0.8L67,38.3L66,40.1z M47,28L47,28L47,28l4-3.8l-1.4-1.4
	L48,24.2V19h-2v5.2l-1.5-1.5l-1.4,1.4L47,28z M74,0H0v44h19.3L17,48h1h1h1l2.3-4H52l3,4h1h1h1l-3-4h19V0z M72,42H2V2h70V42z
	 M7.2,6.6L21.5,15l0.5-0.8L7.7,5.8l1-1.7L4,4.2l2.2,4.1L7.2,6.6z"/>
<g>
	<path d="M28.9,22.5l1.9-2v-1.2h-5.1v1.2h3.6l-2.4,2.6l0.5,0.7c0.3-0.1,0.5-0.1,0.8-0.1c0.5,0,0.8,0.1,1.1,0.4s0.4,0.6,0.4,1.1
		c0,0.5-0.1,0.9-0.4,1.1s-0.7,0.4-1.2,0.4c-0.3,0-0.6-0.1-1-0.2s-0.7-0.3-1.1-0.5l-0.5,1.1c0.3,0.2,0.7,0.4,1.2,0.5s0.9,0.2,1.4,0.2
		c0.6,0,1.1-0.1,1.6-0.4s0.8-0.6,1-1s0.4-0.9,0.4-1.5c0-0.7-0.2-1.3-0.6-1.8S29.6,22.6,28.9,22.5z"/>
	<path d="M36.1,24.1c0.5-0.5,0.8-1,1-1.4s0.3-0.8,0.3-1.2c0-0.5-0.1-0.9-0.3-1.2s-0.5-0.6-0.9-0.8s-0.8-0.3-1.4-0.3
		c-0.5,0-0.9,0.1-1.4,0.2s-0.9,0.4-1.3,0.6l0.6,1.1c0.3-0.2,0.6-0.4,1-0.5s0.7-0.2,1-0.2c0.4,0,0.7,0.1,1,0.3s0.4,0.5,0.4,0.8
		c0,0.2-0.1,0.5-0.2,0.7s-0.4,0.6-0.8,1l-2.8,3.3v1.2h5.3v-1.2h-3.6L36.1,24.1z"/>
	<path d="M40.2,19h-1.3c0,0.3,0.1,0.6,0.1,0.8c0,0.4-0.1,0.7-0.2,1s-0.3,0.6-0.6,0.8l0.5,0.6c0.5-0.4,0.9-0.8,1.1-1.2
		s0.4-0.8,0.4-1.3C40.2,19.6,40.2,19.3,40.2,19z"/>
</g>
</svg>
