<?xml version="1.0" encoding="utf-8"?>
<!-- Generator: Adobe Illustrator 21.1.0, SVG Export Plug-In . SVG Version: 6.00 Build 0)  -->
<svg version="1.1" id="레이어_1" xmlns="http://www.w3.org/2000/svg" xmlns:xlink="http://www.w3.org/1999/xlink" x="0px"
	 y="0px" viewBox="0 0 47 48" style="enable-background:new 0 0 47 48;" xml:space="preserve">
<style type="text/css">
	.st0{fill-rule:evenodd;clip-rule:evenodd;}
</style>
<g>
	<g>
		<path class="st0" d="M14,0H2C0.9,0,0,0.9,0,2v44c0,1.1,0.9,2,2,2h12c1.1,0,2-0.9,2-2V2C16,0.9,15.1,0,14,0z M14,45
			c0,0.6-0.4,1-1,1H3c-0.6,0-1-0.4-1-1v-3h8v-2H2v-2h5v-2H2v-2h8v-2H2v-2h5v-2H2v-2h8v-2H2v-2h5v-2H2v-2h8v-2H2v-2h5v-2H2v-2h8V8H2
			V6h5V4H2V3c0-0.6,0.4-1,1-1h10c0.6,0,1,0.4,1,1V45z M18,48c0,0,25.1,0,27,0s2-2,2-2V0L18,48z M22,46l1.4-2.3l3.9,2.3
			C24.3,46,22,46,22,46z M45,45c0,0,0,1-1,1H27.6l1-1.6l-4.1-2.5l1-1.7l2.5,1.5l1-1.7l-2.5-1.5l1-1.7l4.1,2.5l1-1.7l-4.1-2.5l1-1.7
			l2.5,1.5l1-1.7l-2.5-1.5l1-1.7l4.1,2.5l1-1.7l-4.1-2.5l1-1.7l2.5,1.5l1-1.7l-2.5-1.5l1-1.7l4.2,2.5l1-1.7l-4.2-2.5l1-1.7l2.6,1.5
			l1-1.7l-2.6-1.5l1-1.7l4.2,2.5l1-1.6V45z M45,17l-4.1-2.5L45,7.6V17z M40.6,37.4c-2.2,0-4,1.8-4,4s1.8,4,4,4s4-1.8,4-4
			S42.8,37.4,40.6,37.4z M40.6,43.4c-1.1,0-2-0.9-2-2s0.9-2,2-2s2,0.9,2,2S41.7,43.4,40.6,43.4z"/>
	</g>
</g>
</svg>
