<?xml version="1.0" encoding="utf-8"?>
<!-- Generator: Adobe Illustrator 21.1.0, SVG Export Plug-In . SVG Version: 6.00 Build 0)  -->
<svg version="1.1" id="레이어_1" xmlns="http://www.w3.org/2000/svg" xmlns:xlink="http://www.w3.org/1999/xlink" x="0px"
	 y="0px" viewBox="0 0 122 122" style="enable-background:new 0 0 122 122;" xml:space="preserve">
<style type="text/css">
	.st0{fill-rule:evenodd;clip-rule:evenodd;fill:#FFFFFF;}
</style>
<g>
	<circle class="st0" cx="60" cy="57" r="8"/>
	<path class="st0" d="M60,38c-10.5,0-19,8.5-19,18.9C41,68.8,60,82,60,82s19-13.3,19-25.2C79,46.4,70.5,38,60,38z M60,67
		c-5.5,0-10-4.5-10-10c0-5.5,4.5-10,10-10c5.5,0,10,4.5,10,10C70,62.5,65.5,67,60,67z"/>
	<path class="st0" d="M60,0C26.9,0,0,26.9,0,60c0,33.1,26.9,60,60,60c33.1,0,60-26.9,60-60C120,26.9,93.1,0,60,0z M60,84
		c0,0-21-14.5-21-27.4C39,45.2,48.4,36,60,36c11.6,0,21,9.2,21,20.6C81,69.5,60,84,60,84z"/>
</g>
</svg>
