<?xml version="1.0" encoding="utf-8"?>
<!-- Generator: Adobe Illustrator 21.1.0, SVG Export Plug-In . SVG Version: 6.00 Build 0)  -->
<svg version="1.1" id="레이어_1" xmlns="http://www.w3.org/2000/svg" xmlns:xlink="http://www.w3.org/1999/xlink" x="0px"
	 y="0px" viewBox="0 0 122 122" style="enable-background:new 0 0 122 122;" xml:space="preserve">
<style type="text/css">
	.st0{fill:#FFFFFF;}
</style>
<g>
	<path class="st0" d="M67,38H44c-0.6,0-1,0.4-1,1v42c0,0.6,0.4,1,1,1h32c0.6,0,1-0.4,1-1V48l-10,0L67,38z M69,74H51v-2h18V74z
		 M69,66H51v-2h18V66z M69,58H51v-2h18V58z"/>
	<polygon class="st0" points="69.1,46 77.2,46 71.5,40.3 69,37.9 	"/>
	<path class="st0" d="M60,0C26.9,0,0,26.9,0,60c0,33.1,26.9,60,60,60c33.1,0,60-26.9,60-60C120,26.9,93.1,0,60,0z M79,46v36
		c0,1.1-0.9,2-2,2H43c-1.1,0-2-0.9-2-2V38c0-0.4,0.1-0.8,0.3-1.1c0.1-0.1,0.2-0.2,0.2-0.3c0.2-0.2,0.4-0.3,0.6-0.4
		c0.2-0.1,0.5-0.2,0.8-0.2h26l1,0l9,9L79,46z"/>
</g>
</svg>
