<?xml version="1.0" encoding="utf-8"?>
<!-- Generator: Adobe Illustrator 16.0.0, SVG Export Plug-In . SVG Version: 6.00 Build 0)  -->
<!DOCTYPE svg PUBLIC "-//W3C//DTD SVG 1.1//EN" "http://www.w3.org/Graphics/SVG/1.1/DTD/svg11.dtd">
<svg version="1.1" xmlns="http://www.w3.org/2000/svg" xmlns:xlink="http://www.w3.org/1999/xlink" viewBox="0 0 50 50" enable-background="new 0 0 50 50" xml:space="preserve">
<g id="레이어_1">
	<g>
		<g>
			<path d="M24,3c11.579,0,21,9.42,21,21c0,11.579-9.421,21-21,21C12.42,45,3,35.579,3,24C3,12.42,12.42,3,24,3 M24,0
				C10.745,0,0,10.745,0,24c0,13.254,10.745,24,24,24s24-10.746,24-24C48,10.745,37.255,0,24,0L24,0z"/>
		</g>
		<path fill="none" stroke="#000000" stroke-width="3" stroke-miterlimit="10" d="M35,27c0,6.075-4.925,11-11,11s-11-4.925-11-11H35
			z"/>
		<g>
			<g>
				<path d="M15,14c-1.657,0-3,1.343-3,3s1.343,3,3,3s3-1.343,3-3S16.657,14,15,14L15,14z"/>
			</g>
			<g>
				<path d="M33,14c-1.656,0-3,1.343-3,3s1.344,3,3,3s3-1.343,3-3S34.656,14,33,14L33,14z"/>
			</g>
		</g>
	</g>
</g>
</svg>
