<?xml version="1.0" encoding="utf-8"?>
<!-- Generator: Adobe Illustrator 16.0.0, SVG Export Plug-In . SVG Version: 6.00 Build 0)  -->
<!DOCTYPE svg PUBLIC "-//W3C//DTD SVG 1.1//EN" "http://www.w3.org/Graphics/SVG/1.1/DTD/svg11.dtd">
<svg version="1.1" xmlns="http://www.w3.org/2000/svg" xmlns:xlink="http://www.w3.org/1999/xlink" viewBox="0 0 50 50" enable-background="new 0 0 50 50" xml:space="preserve">
<g id="레이어_5">
	<g>
		<g>
			<path fill="#595959" d="M24,2c12.131,0,22,9.869,22,22s-9.869,22-22,22S2,36.131,2,24S11.869,2,24,2 M24,0
				C10.745,0,0,10.745,0,24c0,13.254,10.745,24,24,24s24-10.746,24-24C48,10.745,37.255,0,24,0L24,0z"/>
		</g>
		<line fill="none" stroke="#595959" stroke-width="2" stroke-miterlimit="10" x1="15" y1="31" x2="33" y2="31"/>
		<polyline fill="none" stroke="#595959" stroke-width="2" stroke-miterlimit="10" points="13,14 18,17 13,20 		"/>
		<polyline fill="none" stroke="#595959" stroke-width="2" stroke-miterlimit="10" points="35,14 30,17 35,20 		"/>
	</g>
</g>
</svg>
