<?xml version="1.0" encoding="utf-8"?>
<!-- Generator: Adobe Illustrator 22.0.1, SVG Export Plug-In . SVG Version: 6.00 Build 0)  -->
<svg version="1.1" xmlns="http://www.w3.org/2000/svg" xmlns:xlink="http://www.w3.org/1999/xlink" viewBox="0 0 16 16.2">
<path id="XMLID_75_" d="M10.4,16.2c-2.2,0-5.6-0.7-6.5-1.3c-0.2-0.1-0.3-0.3-0.3-0.6V7.4c0-0.2,0.1-0.4,0.3-0.6c0.1,0,1.3-1,2.6-1.7
	c1.6-0.9,2.7-2.1,3-2.9c0.3-1,0.8-2.3,2.2-2.3c0.7,0,1.2,0.4,1.5,1.1c0.6,1.4,0,3.3-1.1,4.8c0.7,0.2,1.6,0.4,2.1,0.5
	c1,0.3,1.6,1,1.7,1.9c0.1,0.9-0.3,1.8-1.2,2.5c-0.7,1.8-1.9,4.8-2.7,5.2C11.7,16.1,11.1,16.2,10.4,16.2z M5.1,13.9
	c1.3,0.6,5.4,1.1,6.2,0.8c0.4-0.4,1.4-2.7,2.2-4.7c0.1-0.1,0.1-0.3,0.3-0.3c0.6-0.4,0.9-0.8,0.8-1.2c0-0.3-0.3-0.6-0.8-0.7
	c-0.9-0.3-3.1-0.8-3.1-0.8c-0.2-0.1-0.4-0.2-0.5-0.5c-0.1-0.2,0-0.5,0.2-0.7c1.6-1.7,1.9-3.5,1.6-4.2c-0.1-0.2-0.2-0.2-0.2-0.2
	c-0.3,0-0.5,0.2-0.9,1.3c-0.4,1.2-1.9,2.7-3.6,3.7C6.3,6.8,5.5,7.4,5.1,7.8V13.9z M2.3,14.3v-7c0-0.6-0.5-1.1-1.1-1.1
	C0.5,6.2,0,6.7,0,7.3v7c0,0.6,0.5,1.1,1.1,1.1C1.8,15.5,2.3,15,2.3,14.3z"/>
</svg>
