<?xml version="1.0" encoding="utf-8"?>
<!-- Generator: Adobe Illustrator 22.0.1, SVG Export Plug-In . SVG Version: 6.00 Build 0)  -->
<svg version="1.1" id="레이어_1" xmlns="http://www.w3.org/2000/svg" xmlns:xlink="http://www.w3.org/1999/xlink" x="0px"
	 y="0px" viewBox="0 0 122 122" style="enable-background:new 0 0 122 122;" xml:space="preserve">
<style type="text/css">
	.st0{fill:#FFFFFF;}
</style>
<g>
	<path class="st0" d="M77.8,79.6l0-24.7H71v23.5c0,0.6-0.5,1.1-1.1,1.1h-18c-0.6,0-1.1-0.5-1.1-1.1V54.9H44v24.7
		c0,0.6-0.5,1.1-1.1,1.1c-1.5,0-2.8,1-3.2,2.3h16.5h9.5h16.5c-0.5-1.3-1.7-2.3-3.2-2.3C78.3,80.7,77.8,80.2,77.8,79.6z"/>
	<polygon class="st0" points="68.8,48.2 60.9,44.2 53,48.2 	"/>
	<path class="st0" d="M53,54.9v22.4h15.8V54.9H53z M65.8,70.4c-0.2,0.5-0.6,1-1,1.4c-0.4,0.4-1,0.7-1.6,1c-0.6,0.2-1.3,0.4-2.1,0.4
		c-1.3,0-2.4-0.2-3.3-0.7c-0.9-0.5-1.7-1.2-2.3-2l1.8-1.3c0.5,0.7,1,1.2,1.6,1.6c0.6,0.4,1.3,0.5,2.1,0.5c0.9,0,1.6-0.2,2.2-0.7
		c0.6-0.5,0.8-1.1,0.8-1.8c0-0.4-0.1-0.8-0.3-1c-0.2-0.3-0.5-0.5-0.8-0.7c-0.3-0.2-0.7-0.4-1.1-0.5c-0.4-0.2-0.9-0.3-1.3-0.4
		c-0.5-0.2-1-0.3-1.6-0.6c-0.5-0.2-1-0.5-1.4-0.8c-0.4-0.3-0.8-0.7-1-1.2c-0.3-0.5-0.4-1-0.4-1.7c0-0.6,0.1-1.1,0.4-1.6
		c0.2-0.5,0.6-0.9,1-1.3c0.4-0.4,0.9-0.6,1.5-0.9c0.6-0.2,1.2-0.3,1.9-0.3c1.1,0,2.1,0.2,2.9,0.7c0.8,0.4,1.4,1,2,1.8l-1.7,1.2
		c-0.7-1.2-1.8-1.8-3.2-1.8c-0.8,0-1.5,0.2-2,0.6c-0.5,0.4-0.8,1-0.8,1.6c0,0.4,0.1,0.7,0.3,1c0.2,0.3,0.5,0.5,0.8,0.7
		c0.3,0.2,0.7,0.4,1.1,0.5c0.4,0.1,0.9,0.3,1.3,0.4c0.5,0.2,1.1,0.4,1.6,0.6c0.5,0.2,1,0.5,1.4,0.8c0.4,0.3,0.8,0.7,1,1.2
		c0.3,0.5,0.4,1.1,0.4,1.8C66.2,69.3,66,69.9,65.8,70.4z"/>
	<path class="st0" d="M39.5,50v2.7h42.8V50L60.9,39.2L39.5,50z M61.4,42l12.5,6.3c0.5,0.2,0.7,0.7,0.6,1.2c-0.1,0.5-0.6,0.8-1.1,0.8
		h-25c-0.5,0-1-0.4-1.1-0.8c-0.1-0.5,0.1-1,0.6-1.2L60.4,42C60.7,41.9,61.1,41.9,61.4,42z"/>
	<path class="st0" d="M60,0C26.9,0,0,26.9,0,60s26.9,60,60,60c33.1,0,60-26.9,60-60S93.1,0,60,0z M84.5,53.8c0,0.6-0.5,1.1-1.1,1.1
		H80v23.7c2.6,0.5,4.5,2.8,4.5,5.5c0,0.6-0.5,1.1-1.1,1.1H65.6v0h-9.5H38.4c-0.6,0-1.1-0.5-1.1-1.1c0-2.7,1.9-5,4.5-5.5l0-23.7h-3.4
		c-0.6,0-1.1-0.5-1.1-1.1v-4.5c0-0.4,0.2-0.8,0.6-1L60.4,37c0.3-0.2,0.7-0.2,1,0l22.5,11.4c0.4,0.2,0.6,0.6,0.6,1L84.5,53.8
		L84.5,53.8z"/>
</g>
</svg>
