<?xml version="1.0" encoding="utf-8"?>
<!-- Generator: Adobe Illustrator 21.1.0, SVG Export Plug-In . SVG Version: 6.00 Build 0)  -->
<svg version="1.1" id="레이어_1" xmlns="http://www.w3.org/2000/svg" xmlns:xlink="http://www.w3.org/1999/xlink" x="0px"
	 y="0px" viewBox="0 0 56 56" style="enable-background:new 0 0 56 56;" xml:space="preserve">
<style type="text/css">
	.st0{fill:#333333;}
</style>
<path class="st0" d="M28,0C12.5,0,0,12.3,0,28s12.5,28,28,28c15.5,0,28-12.5,28-28S43.5,0,28,0z M25.2,7.5c4.9,0,8.7,3.8,8.7,8.7
	c0,0.5,0,1.2-0.2,1.7H32c0-0.5,0.2-1.2,0.2-1.7c0-3.8-3.1-7-7-7c-3.8,0-7,3.1-7,7c0,0.5,0,1.2,0.2,1.7h-1.7
	c-0.2-0.5-0.2-1.2-0.2-1.7C16.5,11.3,20.3,7.5,25.2,7.5z M44.2,37.2v8.7h-1.7v-8.7c0,0,0-1.7-1.7-1.7S39,37.2,39,37.2v3.5h-1.7v-7
	c0,0,0-1.7-1.7-1.7s-1.7,1.7-1.7,1.7v3.5H32v-7c0,0,0-1.7-1.7-1.7c-1.7,0-1.7,1.7-1.7,1.7v7h-1.7V21.6c0,0,0-1.7-1.7-1.7
	s-1.7,1.7-1.7,1.7V43l-6.6-6.6c0,0-1.2-1.2-2.4,0c-1.2,1.2,0,2.4,0,2.4l7.4,7.4l-0.1,2.3L13,40c0,0-2.6-2.4,0-5s4.9,0,4.9,0l3.7,3.7
	V21.4c0,0-0.2-3.5,3.5-3.5s3.5,3.5,3.5,3.5V27c0.3-0.2,1-0.3,1.7-0.3c3.7,0,3.5,3.5,3.5,3.5v0.3c0.3-0.2,1-0.3,1.7-0.3
	c3.7,0,3.5,3.5,3.5,3.5v0.3c0.3-0.2,1-0.3,1.7-0.3C44.3,33.6,44.2,37,44.2,37.2z"/>
</svg>
