<?xml version="1.0" encoding="utf-8"?>
<!-- Generator: Adobe Illustrator 21.1.0, SVG Export Plug-In . SVG Version: 6.00 Build 0)  -->
<svg version="1.1" id="레이어_1" xmlns="http://www.w3.org/2000/svg" xmlns:xlink="http://www.w3.org/1999/xlink" x="0px"
	 y="0px" viewBox="0 0 50 64" style="enable-background:new 0 0 50 64;" xml:space="preserve">
<g>
	<path d="M43.3,21.2c-0.4-0.1-0.7-0.1-1,0.2L38.7,25l-3.1-1.1c-0.6-0.2-1.1-0.7-1.3-1.3l-1.1-3.1l3.6-3.6c0.2-0.3,0.3-0.6,0.2-1
		c-0.1-0.4-0.4-0.6-0.8-0.7c-3-0.6-6.1,0.3-8.3,2.5c-2.7,2.7-3.4,6.8-1.9,10.3l-0.3,0.3l-0.8-0.8c-1.7-1.6-4.3-1.8-6.2-0.5l-5-5
		l1.4-2.8L8,14l-2.6,2.9L9.6,24l2.8-1.4l5,5c-1.3,1.9-1.2,4.5,0.5,6.2l0.4,0.4l-9.9,9c-0.8,0.8-1.3,2-1.3,3.2c0,1.3,0.5,2.4,1.4,3.3
		c0.9,0.9,2.1,1.4,3.3,1.4s2.3-0.4,3.2-1.3l9-9.9l8.2,8.2c1.9,1.9,5,1.9,7-0.1s2-5.1,0.1-7l-8.6-8.6L31,32c1.2,0.5,2.4,0.8,3.7,0.8
		c2.5,0,4.8-0.9,6.8-2.5c2.1-2.2,3.1-5.3,2.5-8.3C43.9,21.6,43.7,21.3,43.3,21.2z M12.2,21l-2.1,0.7l-2.8-4.2l1.4-1.4l4.2,2.8
		L12.2,21z M13.5,48.3c-1,1-2.7,1-3.7,0C9.3,47.8,9,47.1,9,46.4c-0.1-0.7,0.2-1.3,0.7-1.8l10-9l2.9,2.8L13.5,48.3z M38,42.7
		c0.9,0.8,0.7,2.7-0.4,3.8c-1,1-3,1.2-3.8,0.4L19.6,32.6c-1.4-1.4-1.7-3.1-0.3-4.5c1.3-1.4,2.8-1.4,4.5,0.3L38,42.7z M39.9,28.6
		c-2.3,2.3-5.8,2.8-8.7,1.2C30.5,29.3,30,30,30,30l-0.8,0.9L27,28.7l0.8-0.7c0.3-0.3,0.4-0.8,0.2-1.2c-1.5-2.9-1-6.4,1.3-8.7
		c1.2-1.2,2.7-1.9,4.4-2.1l-2.4,2.4c-0.2,0.3-0.3,0.6-0.2,1l1.3,3.7c0.4,1.2,1.3,2.1,2.5,2.5l3.7,1.3c0.4,0.1,0.7,0.1,1-0.2l2.4-2.5
		C41.8,25.8,41.1,27.4,39.9,28.6z"/>
	<path d="M48,0H2C0.9,0,0,0.9,0,2v60c0,1.1,0.9,2,2,2h46c1.1,0,2-0.9,2-2V2C50,0.9,49.1,0,48,0z M48,61c0,0.6-0.4,1-1,1H3
		c-0.6,0-1-0.4-1-1V3c0-0.6,0.4-1,1-1h44c0.6,0,1,0.4,1,1V61z"/>
</g>
</svg>
