<?xml version="1.0" encoding="utf-8"?>
<!-- Generator: Adobe Illustrator 22.0.1, SVG Export Plug-In . SVG Version: 6.00 Build 0)  -->
<svg version="1.1" id="레이어_1" xmlns="http://www.w3.org/2000/svg" xmlns:xlink="http://www.w3.org/1999/xlink" x="0px"
	 y="0px" viewBox="0 0 122 122" style="enable-background:new 0 0 122 122;" xml:space="preserve">
<style type="text/css">
	.st0{fill-rule:evenodd;clip-rule:evenodd;fill:#FFFFFF;}
</style>
<g>
	<path class="st0" d="M81.2,71.5c-0.4-0.4-0.7-0.7-1.1-1.1c-0.7-0.7-1.5-1.5-2.2-2.2l0,0l0,0c-0.2-0.2-0.4-0.3-0.6-0.4
		c-0.5-0.3-1-0.4-1.5-0.4c-0.1,0-0.1,0-0.2,0c-0.2,0-0.3,0-0.6,0.1c-0.5,0.1-0.9,0.2-1.4,0.3c-1,0.2-1.9,0.5-2.9,0.7l0,0l0,0
		c-0.2,0.1-0.4,0.2-0.6,0.3c-0.2,0.1-0.4,0.2-0.5,0.4l0,0l0,0c-0.1,0.1-0.2,0.2-0.2,0.3l0,0l0,0c-0.2,0.2-0.3,0.4-0.4,0.6
		c-0.1,0.2-0.2,0.4-0.2,0.6l0,0l0,0c-0.1,0.5-0.2,0.9-0.4,1.4c-0.2,1-0.5,1.9-0.7,2.9l0,0l0,0c0,0.2-0.1,0.5,0,0.7
		c0,0.6,0.2,1.1,0.5,1.6c0.1,0.1,0.2,0.3,0.4,0.4c0.4,0.4,0.7,0.7,1.1,1.1c0.7,0.7,1.5,1.5,2.2,2.2l0,0l0,0c0.2,0.2,0.4,0.3,0.6,0.4
		c0.5,0.3,1,0.4,1.5,0.4c0.1,0,0.1,0,0.2,0c0.2,0,0.4,0,0.5-0.1l0,0l0,0c0.5-0.1,0.9-0.2,1.4-0.3c1-0.2,1.9-0.5,2.9-0.7l0,0l0,0
		c0.2-0.1,0.4-0.2,0.6-0.3c0.5-0.3,0.9-0.7,1.2-1.2c0.1-0.2,0.2-0.5,0.3-0.8c0.1-0.5,0.2-0.9,0.3-1.4c0.2-1,0.5-2,0.7-3l0,0l0,0
		c0-0.2,0.1-0.5,0-0.7c0-0.6-0.2-1.2-0.5-1.6C81.4,71.8,81.3,71.6,81.2,71.5z M80.6,74c-0.3,1.4-0.7,2.9-1,4.3
		c0,0.1-0.1,0.3-0.2,0.4c-0.1,0.3-0.4,0.5-0.6,0.6c-0.1,0.1-0.2,0.1-0.3,0.1c-1.4,0.4-2.9,0.7-4.3,1c-0.1,0-0.2,0-0.3,0
		c0,0-0.1,0-0.1,0c-0.3,0-0.6-0.1-0.8-0.2c-0.1-0.1-0.2-0.1-0.3-0.2c-1.1-1.1-2.2-2.2-3.3-3.3c-0.1-0.1-0.1-0.1-0.2-0.2
		c-0.2-0.3-0.3-0.5-0.3-0.9c0-0.1,0-0.3,0-0.4c0.3-1.4,0.7-2.9,1-4.3c0-0.1,0.1-0.2,0.1-0.3c0.1-0.1,0.1-0.2,0.2-0.3
		c0.1-0.1,0.1-0.1,0.2-0.2c0.1-0.1,0.2-0.2,0.3-0.2s0.2-0.1,0.3-0.1c1.4-0.4,2.9-0.7,4.3-1c0.1,0,0.2,0,0.3,0c0,0,0.1,0,0.1,0
		c0.3,0,0.6,0.1,0.8,0.2c0.1,0.1,0.2,0.1,0.3,0.2c1.1,1.1,2.2,2.2,3.3,3.3c0.1,0.1,0.1,0.1,0.2,0.2c0.2,0.3,0.3,0.5,0.3,0.9
		C80.6,73.7,80.6,73.9,80.6,74z"/>
	<path class="st0" d="M68.6,66.1c0-0.3,0-0.6-0.1-0.9c-0.1-0.4-0.3-0.8-0.5-1.1c-0.1-0.2-0.2-0.3-0.3-0.4l0,0l0,0L57.1,53.1l0,0l0,0
		c-0.2-0.2-0.4-0.4-0.7-0.5c-0.5-0.3-1-0.4-1.5-0.4c-0.3,0-0.6,0.1-0.9,0.2c-0.3,0.1-0.5,0.2-0.8,0.4l0,0l0,0
		C53,52.9,53,52.9,52.9,53l0,0l0,0c-0.3,0.3-0.4,0.6-0.5,0.9c-0.3,0.8-0.2,1.7,0.2,2.4c0.1,0.2,0.3,0.4,0.5,0.7l0,0l0,0l10.5,10.5
		l0,0l0,0l0,0c0.1,0.1,0.1,0.1,0.2,0.2c0.2,0.2,0.5,0.3,0.8,0.5c0.3,0.1,0.7,0.2,1,0.2c0.1,0,0.1,0,0.2,0c0.3,0,0.5,0,0.8-0.1
		C67.7,68.2,68.5,67.2,68.6,66.1z M66.2,67.1c-0.1,0-0.2,0-0.4,0c0,0-0.1,0-0.1,0c-0.2,0-0.4-0.1-0.5-0.1c-0.1-0.1-0.3-0.1-0.4-0.2
		c-0.1-0.1-0.1-0.1-0.1-0.1L54.2,56.1c-0.1-0.1-0.2-0.2-0.3-0.4c-0.2-0.4-0.3-0.8-0.1-1.2c0.1-0.2,0.1-0.3,0.3-0.4
		c0.1-0.1,0.1-0.1,0.1-0.1c0.1-0.1,0.2-0.2,0.4-0.2c0.1,0,0.3-0.1,0.4-0.1c0.3,0,0.5,0.1,0.8,0.2c0.1,0.1,0.3,0.2,0.4,0.3l10.5,10.5
		c0.1,0.1,0.1,0.1,0.2,0.2c0.1,0.2,0.2,0.4,0.3,0.6c0,0.1,0,0.3,0,0.4C67.1,66.5,66.7,66.9,66.2,67.1z"/>
	<path class="st0" d="M85.2,68.5c-1.3-2.1-3.2-3.8-5.5-4.8c-0.9-0.4-1.9-0.7-3-0.9c-0.7-0.1-1.3-0.2-2-0.2c-0.5,0-0.9,0-1.4,0.1
		c-0.5,0.1-1,0.1-1.5,0.3c-0.1,0-0.1,0-0.2,0.1L57,48.3l0,0c0.1-0.5,0.2-1,0.3-1.5c0.2-1.2,0.1-2.4-0.1-3.6
		c-0.2-1.2-0.6-2.4-1.2-3.5c-0.9-1.8-2.3-3.4-3.9-4.5c-0.9-0.6-1.9-1.2-3-1.5c-1.3-0.4-2.6-0.7-4-0.7c-0.1,0-0.3,0-0.4,0
		c-1.2,0-2.4,0.3-3.6,0.7c-0.2,0.1-0.4,0.2-0.6,0.2c-0.1,0-0.2,0.1-0.3,0.1c-0.1,0-0.2,0.1-0.3,0.1c-0.1,0-0.1,0.1-0.2,0.1
		c0,0-0.1,0.1-0.1,0.1c-0.1,0.1-0.2,0.2-0.2,0.3c-0.2,0.4-0.3,0.9-0.2,1.3c0,0.1,0.1,0.2,0.2,0.4c0,0.1,0.1,0.1,0.1,0.2l0.1,0.1
		l6.4,6.4l-0.5,2.4L43.1,46l-6.4-6.4c0,0-0.1-0.1-0.1-0.1c-0.2-0.1-0.3-0.2-0.5-0.3c-0.2,0-0.3-0.1-0.5-0.1c-0.4,0-0.9,0.2-1.2,0.5
		c-0.1,0.1-0.2,0.2-0.2,0.3c-0.1,0.1-0.1,0.2-0.1,0.3l0,0.1c-0.2,0.4-0.3,0.8-0.4,1.2c-0.3,0.9-0.5,1.8-0.5,2.8
		c-0.1,1.4,0,2.7,0.4,4.1c0.3,1.2,0.8,2.3,1.5,3.4c1.1,1.7,2.6,3.1,4.3,4.1c1.2,0.7,2.5,1.1,3.8,1.4c0.7,0.1,1.5,0.2,2.2,0.2
		c0.5,0,0.9,0,1.4-0.1c0.5-0.1,1-0.1,1.5-0.3c0.1,0,0.1,0,0.2-0.1L63,71.7l0,0c-0.1,0.5-0.2,1-0.3,1.5c-0.2,1.3-0.1,2.5,0.1,3.8
		c0.2,1,0.5,2.1,1,3c1,2.2,2.7,4.1,4.8,5.3c0.9,0.5,1.9,0.9,2.9,1.2c1.1,0.3,2.2,0.5,3.3,0.5c0.2,0,0.5,0,0.7,0
		c1.4-0.1,2.7-0.4,4-0.9c1.4-0.6,2.7-1.4,3.8-2.5c1.1-1.1,2-2.4,2.7-3.9c0.6-1.4,0.9-2.8,1-4.3c0.1-1.4-0.1-2.7-0.5-4.1
		C86.2,70.3,85.8,69.4,85.2,68.5z M85.5,75.3c-0.1,1.3-0.4,2.6-0.9,3.8c-0.5,1.3-1.4,2.4-2.3,3.4c-1,0.9-2.1,1.7-3.3,2.2
		c-1.1,0.5-2.3,0.7-3.5,0.8c-0.2,0-0.4,0-0.6,0c-1,0-2-0.1-2.9-0.4c-0.9-0.2-1.7-0.6-2.5-1.1c-1.8-1.1-3.3-2.7-4.2-4.6
		c-0.4-0.8-0.7-1.7-0.9-2.7c-0.2-1.1-0.2-2.2-0.1-3.3c0.1-0.4,0.1-0.8,0.2-1.3l0.2-0.8l-0.6-0.6L49.3,55.9l-0.6-0.6l-0.8,0.2l-0.1,0
		l0,0c-0.5,0.1-0.9,0.2-1.3,0.2c-0.4,0-0.8,0.1-1.2,0.1c-0.6,0-1.3-0.1-1.9-0.2c-1.2-0.2-2.3-0.6-3.3-1.2c-1.5-0.9-2.8-2.1-3.8-3.6
		c-0.6-0.9-1-1.9-1.3-3c-0.3-1.2-0.4-2.4-0.3-3.6c0.1-0.8,0.2-1.7,0.5-2.4c0.1-0.3,0.2-0.7,0.4-1l0-0.1l0,0c0,0,0,0,0.1-0.1
		c0,0,0.1,0,0.1,0c0,0,0,0,0,0c0,0,0,0,0,0c0,0,0,0,0,0l0,0l0,0l6.3,6.3l0.6,0.6l0.8-0.2l2.4-0.5l0.9-0.2l0.2-0.9l0.5-2.4l0.2-0.8
		L47.1,42l-6.3-6.3l0,0l0,0c0,0,0-0.1,0-0.1l0,0l0,0l0,0l0,0c0,0,0.1,0,0.1,0c0.1,0,0.2-0.1,0.3-0.1c0.2-0.1,0.4-0.1,0.6-0.2
		c1-0.3,2.1-0.5,3.1-0.6c0.1,0,0.2,0,0.3,0c1.2,0,2.4,0.2,3.5,0.6c0.9,0.3,1.8,0.8,2.6,1.3c1.5,1,2.6,2.4,3.4,4c0.5,1,0.8,2,1,3.1
		c0.2,1,0.2,2.1,0,3.1c-0.1,0.4-0.1,0.8-0.3,1.3l-0.2,0.8l0.6,0.6l14.7,14.7l0.6,0.6l0.8-0.2l0.1,0l0.1,0c0.5-0.1,0.9-0.2,1.3-0.2
		c0.4,0,0.8-0.1,1.2-0.1c0.6,0,1.2,0,1.7,0.1c0.9,0.1,1.8,0.4,2.6,0.8c2,0.9,3.7,2.4,4.8,4.2c0.5,0.8,0.8,1.6,1.1,2.5
		C85.4,72.9,85.5,74.1,85.5,75.3z"/>
	<path class="st0" d="M60,0C26.9,0,0,26.9,0,60c0,33.1,26.9,60,60,60c33.1,0,60-26.9,60-60C120,26.9,93.1,0,60,0z M60,118
		C28,118,2,92,2,60C2,28,28,2,60,2c32,0,58,26,58,58C118,92,92,118,60,118z"/>
</g>
</svg>
