<?xml version="1.0" encoding="utf-8"?>
<!-- Generator: Adobe Illustrator 22.0.1, SVG Export Plug-In . SVG Version: 6.00 Build 0)  -->
<svg version="1.1" xmlns="http://www.w3.org/2000/svg" xmlns:xlink="http://www.w3.org/1999/xlink" viewBox="0 0 16 16.2" fill="#fff">
<path id="XMLID_1_" d="M12,0.3c0.9,0.5,2,3.4,2.7,5.2C15.7,6.2,16.1,7.1,16,8c-0.1,0.9-0.8,1.6-1.7,1.9c-0.5,0.2-1.4,0.4-2.1,0.5
	c1.1,1.5,1.7,3.4,1.1,4.8c-0.3,0.7-0.9,1.1-1.5,1.1c-1.4,0-1.9-1.3-2.2-2.3c-0.3-0.8-1.4-2-3-2.9C5.2,10.3,4,9.4,3.9,9.3
	C3.8,9.2,3.7,9,3.7,8.8V1.9c0-0.2,0.1-0.4,0.3-0.6C4.8,0.7,8.2,0,10.4,0C11.1,0,11.7,0.1,12,0.3z M5.1,8.4c0.4,0.3,1.3,0.9,2.1,1.4
	c1.7,1,3.2,2.4,3.6,3.7c0.4,1.1,0.5,1.3,0.9,1.3c0.1,0,0.2,0,0.2-0.2c0.3-0.7,0-2.5-1.6-4.2c-0.2-0.2-0.2-0.4-0.2-0.7
	c0.1-0.2,0.3-0.4,0.5-0.5c0,0,2.2-0.5,3.1-0.8c0.4-0.1,0.7-0.4,0.8-0.7c0.1-0.4-0.2-0.8-0.8-1.2c-0.1-0.1-0.2-0.2-0.3-0.3
	c-0.7-2-1.8-4.3-2.2-4.7c-0.8-0.3-4.9,0.3-6.2,0.8V8.4z M1.1,0.7C0.5,0.7,0,1.2,0,1.8v7C0,9.5,0.5,10,1.1,10c0.6,0,1.1-0.5,1.1-1.1
	v-7C2.3,1.2,1.8,0.7,1.1,0.7z"/>
</svg>
