<?xml version="1.0" encoding="utf-8"?>
<!-- Generator: Adobe Illustrator 21.1.0, SVG Export Plug-In . SVG Version: 6.00 Build 0)  -->
<svg version="1.1" id="레이어_1" xmlns="http://www.w3.org/2000/svg" xmlns:xlink="http://www.w3.org/1999/xlink" x="0px"
	 y="0px" viewBox="0 0 60 72" style="enable-background:new 0 0 60 72;" xml:space="preserve">
<style type="text/css">
	.st0{fill:none}
</style>
<g>
	<path class="st0" d="M50,12H10v27h40V12z M31.5,17l-0.4,12h-2.2l-0.4-12H31.5z M31.3,33.8c-0.3,0.3-0.8,0.5-1.3,0.5s-1-0.2-1.3-0.5
		s-0.5-0.7-0.5-1.3c0-0.5,0.2-1,0.5-1.3s0.8-0.5,1.3-0.5s1,0.2,1.3,0.5s0.5,0.7,0.5,1.3C31.8,33,31.6,33.5,31.3,33.8z"/>
	<path class="st0" d="M54.2,2H6C3.8,2,2,3.8,2,6v22v20v18l0,0c0,1,0.4,1.9,1,2.6c0.3,0.3,0.6,0.6,0.9,0.8c0.3,0.2,0.7,0.4,1.1,0.5
		c0.3,0,0.6,0.1,0.8,0.1c0.1,0,0.1,0,0.2,0h2h44h1h1c2.2,0,4-1.8,4-4V6C58,3.8,56.4,2,54.2,2z M52,62H8v-2h44V62z M52,56H8v-2h44V56
		z M52,50H8v-2h44V50z M52,41H8V10h44V41z"/>
	<path class="st0" d="M60,66L60,66L60,66z"/>
	<path d="M60,66L60,66V6c0-3.3-2.5-6-5.8-6H6C2.7,0,0,2.7,0,6v60l0,0c0,1.2,0.4,2.4,1,3.3c0.5,0.8,1.2,1.4,2,1.9
		c0.4,0.2,0.7,0.4,1.2,0.5c0.3,0.1,0.7,0.2,1,0.2C5.5,72,5.7,72,6,72h2h44l0,0h2C57.3,72,60,69.3,60,66L60,66L60,66z M54,70h-1h-1H8
		H6c-0.1,0-0.1,0-0.2,0c-0.3,0-0.5,0-0.8-0.1c-0.4-0.1-0.8-0.3-1.1-0.5c-0.4-0.2-0.7-0.5-0.9-0.8C2.4,67.9,2,67,2,66l0,0V48V28V6
		c0-2.2,1.8-4,4-4h48.2C56.4,2,58,3.8,58,6v60C58,68.2,56.2,70,54,70z"/>
	<rect x="8" y="60" width="44" height="2"/>
	<path d="M8,41h44V10H8V41z M10,12h40v27H10V12z"/>
	<rect x="8" y="54" width="44" height="2"/>
	<rect x="8" y="48" width="44" height="2"/>
	<line class="st0" x1="60" y1="65.9" x2="60" y2="66"/>
	<path d="M30,30.8c-0.6,0-1,0.2-1.3,0.5s-0.5,0.7-0.5,1.3c0,0.5,0.2,0.9,0.5,1.3s0.8,0.5,1.3,0.5s1-0.2,1.3-0.5s0.5-0.7,0.5-1.3
		c0-0.5-0.2-0.9-0.5-1.3S30.6,30.8,30,30.8z"/>
	<polygon points="31.1,29 31.5,17 28.4,17 28.9,29 	"/>
</g>
</svg>
