<?xml version="1.0" encoding="utf-8"?>
<!-- Generator: Adobe Illustrator 22.0.1, SVG Export Plug-In . SVG Version: 6.00 Build 0)  -->
<svg version="1.1" id="레이어_1" xmlns="http://www.w3.org/2000/svg" xmlns:xlink="http://www.w3.org/1999/xlink" x="0px"
	 y="0px" viewBox="0 0 122 122" style="enable-background:new 0 0 122 122;" xml:space="preserve">
<style type="text/css">
	.st0{fill:#FFFFFF;}
</style>
<g>
	<g>
		<path class="st0" d="M60,0C26.9,0,0,26.9,0,60s26.9,60,60,60c33.1,0,60-26.9,60-60S93.1,0,60,0z M60,118C28,118,2,92,2,60
			S28,2,60,2c32,0,58,26,58,58S92,118,60,118z"/>
	</g>
</g>
<g>
	<path class="st0" d="M73.9,48.6c0.1-0.5-0.1-1-0.6-1.2L60.8,41c-0.3-0.2-0.7-0.2-1,0l-12.5,6.3c-0.5,0.2-0.7,0.7-0.6,1.2
		c0.1,0.5,0.6,0.8,1.1,0.8h25C73.3,49.4,73.8,49.1,73.9,48.6z M52.4,47.2l7.9-4l7.9,4H52.4z"/>
	<path class="st0" d="M65,84.2h17.8c0.6,0,1.1-0.5,1.1-1.1c0-2.7-1.9-5-4.5-5.5V53.9h3.4c0.6,0,1.1-0.5,1.1-1.1v-4.5
		c0-0.4-0.2-0.8-0.6-1L60.8,35.9c-0.3-0.2-0.7-0.2-1,0L37.3,47.3c-0.4,0.2-0.6,0.6-0.6,1v4.5c0,0.6,0.5,1.1,1.1,1.1h3.4l0,23.7
		c-2.6,0.5-4.5,2.8-4.5,5.5c0,0.6,0.5,1.1,1.1,1.1h17.8L65,84.2L65,84.2z M55.6,82H39.1c0.5-1.3,1.7-2.3,3.2-2.3
		c0.6,0,1.1-0.5,1.1-1.1V53.9h6.8v23.5c0,0.6,0.5,1.1,1.1,1.1h18c0.6,0,1.1-0.5,1.1-1.1V53.9h6.8l0,24.7c0,0.6,0.5,1.1,1.1,1.1
		c1.5,0,2.8,1,3.2,2.3H65H55.6z M68.2,76.3H52.4V53.9h15.8V76.3z M38.9,49l21.4-10.8L81.7,49v2.7H38.9V49z"/>
</g>
<g>
	<path class="st0" d="M60.4,72.2c-1.3,0-2.4-0.2-3.3-0.7c-0.9-0.5-1.7-1.2-2.3-2l1.8-1.3c0.5,0.7,1,1.2,1.6,1.6
		c0.6,0.4,1.3,0.5,2.1,0.5c0.9,0,1.6-0.2,2.2-0.7c0.6-0.5,0.8-1.1,0.8-1.8c0-0.4-0.1-0.8-0.3-1.1c-0.2-0.3-0.5-0.5-0.8-0.7
		c-0.3-0.2-0.7-0.4-1.1-0.5c-0.4-0.2-0.9-0.3-1.3-0.4c-0.5-0.2-1-0.3-1.6-0.6c-0.5-0.2-1-0.5-1.4-0.8c-0.4-0.3-0.8-0.7-1-1.2
		c-0.3-0.5-0.4-1-0.4-1.7c0-0.6,0.1-1.1,0.4-1.6c0.2-0.5,0.6-0.9,1-1.3c0.4-0.4,0.9-0.6,1.5-0.9c0.6-0.2,1.2-0.3,1.9-0.3
		c1.1,0,2.1,0.2,2.9,0.7c0.8,0.4,1.4,1,2,1.8l-1.7,1.2c-0.7-1.2-1.8-1.8-3.2-1.8c-0.8,0-1.5,0.2-2,0.6c-0.5,0.4-0.8,1-0.8,1.6
		c0,0.4,0.1,0.7,0.3,1c0.2,0.3,0.5,0.5,0.8,0.7c0.3,0.2,0.7,0.4,1.1,0.5c0.4,0.1,0.9,0.3,1.3,0.4c0.5,0.2,1.1,0.4,1.6,0.6
		c0.5,0.2,1,0.5,1.4,0.8c0.4,0.3,0.8,0.7,1,1.2c0.3,0.5,0.4,1.1,0.4,1.8c0,0.6-0.1,1.1-0.4,1.7c-0.2,0.5-0.6,1-1,1.4
		c-0.4,0.4-1,0.7-1.6,1C61.9,72,61.2,72.2,60.4,72.2z"/>
</g>
</svg>
