<?xml version="1.0" encoding="utf-8"?>
<!-- Generator: Adobe Illustrator 22.0.1, SVG Export Plug-In . SVG Version: 6.00 Build 0)  -->
<svg version="1.1" id="레이어_1" xmlns="http://www.w3.org/2000/svg" xmlns:xlink="http://www.w3.org/1999/xlink" x="0px"
	 y="0px" viewBox="0 0 122 122" style="enable-background:new 0 0 122 122;" xml:space="preserve">
<style type="text/css">
	.st0{fill-rule:evenodd;clip-rule:evenodd;fill:#FFFFFF;}
</style>
<g>
	<g>
		<g>
			<path class="st0" d="M60,0C26.9,0,0,26.9,0,60c0,33.1,26.9,60,60,60c33.1,0,60-26.9,60-60C120,26.9,93.1,0,60,0z M60,118
				C28,118,2,92,2,60C2,28,28,2,60,2c32,0,58,26,58,58C118,92,92,118,60,118z"/>
		</g>
	</g>
	<path class="st0" d="M80.9,60.4V84c0,1.7-1.4,3.1-3.1,3.1H43.2c-1.7,0-3.1-1.4-3.1-3.1V60.4c-1.7,0-3.1-1.4-3.1-3.1v-7.1
		c0-1.7,1.4-3.1,3.1-3.1h13.7l-6.2-4.8c-1.8-1.8-1.8-4.8,0-6.7l1.1-1.1c1.8-1.8,4.8-1.8,6.7,0l5.5,6.2c0,0,0-0.1,0.1-0.1l5-5.3
		c1.8-1.9,4.8-1.9,6.7,0l1.1,1.1c1.9,1.9,1.9,4.9,0,6.7l-5.8,4h12.9c1.7,0,3.1,1.4,3.1,3.1v7.1C84.1,59,82.6,60.4,80.9,60.4z
		 M62.1,85.5h15.7c0.9,0,1.6-0.7,1.6-1.6V60.4H62.1V85.5z M41.7,84c0,0.9,0.7,1.6,1.6,1.6h15.7V60.4H41.7V84z M40.1,48.6
		c-0.9,0-1.6,0.7-1.6,1.6v7.1c0,0.9,0.7,1.6,1.6,1.6l0,0h18.8V48.6H40.1z M58.7,41.9l-4.4-5.1c-1.2-1.2-3.2-1.2-4.4,0
		s-1.2,3.2,0,4.4l5.6,4c1.5,1,2.7,1.8,3.9,0.6c0.2-0.2,0.4-0.4,0.5-0.6c0.4-0.5,0.4-1.3-0.1-2C59.4,42.7,59.1,42.3,58.7,41.9z
		 M71.5,37.5c-1.2-1.2-3.2-1.2-4.5,0l-3.9,4.2c-0.4,0.4-0.8,0.9-1,1.4c-0.4,0.7-0.4,1.5,0,1.9c0.1,0.2,0.2,0.4,0.5,0.6
		c1.2,1.2,2.4,0.6,3.9-0.6l5-3.1C72.8,40.7,72.8,38.7,71.5,37.5z M82.5,50.2c0-0.9-0.7-1.6-1.6-1.6H62.1v10.2h18.8l0,0
		c0.9,0,1.6-0.7,1.6-1.6V50.2z"/>
</g>
</svg>
