<?xml version="1.0" encoding="utf-8"?>
<!-- Generator: Adobe Illustrator 21.1.0, SVG Export Plug-In . SVG Version: 6.00 Build 0)  -->
<svg version="1.1" id="레이어_1" xmlns="http://www.w3.org/2000/svg" xmlns:xlink="http://www.w3.org/1999/xlink" x="0px"
	 y="0px" viewBox="0 0 60 56" style="enable-background:new 0 0 60 56;" xml:space="preserve">
<style type="text/css">
	.st0{fill-rule:evenodd;clip-rule:evenodd;}
</style>
<path class="st0" d="M60,41.6L58.6,43l-9.4-9.4c-2,1.5-4.5,2.4-7.2,2.4c-6.6,0-12-5.4-12-12s5.4-12,12-12s12,5.4,12,12
	c0,3.2-1.3,6.1-3.3,8.3L60,41.6z M52,24c0-5.5-4.5-10-10-10s-10,4.5-10,10s4.5,10,10,10S52,29.5,52,24z M29,41H10v-2h19V41z M18,36
	V19.8l-6.1,6.1l-1.4-1.4L19,16l0,0l0,0l8.6,8.6L26.1,26L20,19.9V36H18z M36,4c0-1.1-0.9-2-2-2H4C2.9,2,2,2.9,2,4v48c0,1.1,0.9,2,2,2
	h30c1.1,0,2-0.9,2-2V40h2v12c0,2.2-1.8,4-4,4H4c-2.2,0-4-1.8-4-4V4c0-2.2,1.8-4,4-4h30c2.2,0,4,1.8,4,4v4h-2V4z"/>
</svg>
