<?xml version="1.0" encoding="utf-8"?>
<!-- Generator: Adobe Illustrator 21.1.0, SVG Export Plug-In . SVG Version: 6.00 Build 0)  -->
<svg version="1.1" id="레이어_1" xmlns="http://www.w3.org/2000/svg" xmlns:xlink="http://www.w3.org/1999/xlink" viewBox="0 0 32 32" style="enable-background:new 0 0 32 32;" xml:space="preserve">
<g>
	<g>
		<path d="M29,27H3c-1.7,0-3-1.3-3-3V8c0-1.7,1.3-3,3-3h26c1.7,0,3,1.3,3,3v16C32,25.7,30.7,27,29,27z M3,7C2.4,7,2,7.4,2,8v16
			c0,0.6,0.4,1,1,1h26c0.6,0,1-0.4,1-1V8c0-0.6-0.4-1-1-1H3z"/>
	</g>
	<g>
		<path d="M16,20c-0.2,0-0.5-0.1-0.7-0.2l-14-12c-0.4-0.4-0.5-1-0.1-1.4c0.4-0.4,1-0.5,1.4-0.1L16,17.7L29.3,6.2
			c0.4-0.4,1-0.3,1.4,0.1c0.4,0.4,0.3,1-0.1,1.4l-14,12C16.5,19.9,16.2,20,16,20z"/>
	</g>
</g>
</svg>
