<?xml version="1.0" encoding="utf-8"?>
<!-- Generator: Adobe Illustrator 21.1.0, SVG Export Plug-In . SVG Version: 6.00 Build 0)  -->
<svg version="1.1" id="레이어_1" xmlns="http://www.w3.org/2000/svg" xmlns:xlink="http://www.w3.org/1999/xlink" x="0px"
	 y="0px" viewBox="0 0 25.6 25.6" style="enable-background:new 0 0 25.6 25.6;" xml:space="preserve">
<style type="text/css">
	.st0{fill-rule:evenodd;clip-rule:evenodd;}
</style>
<g>
	<path class="st0" d="M12.8,0C5.7,0,0,5.7,0,12.8c0,7.1,5.7,12.8,12.8,12.8c7.1,0,12.8-5.7,12.8-12.8C25.6,5.7,19.9,0,12.8,0L12.8,0
		z M12.8,24C6.6,24,1.6,19,1.6,12.8s5-11.2,11.2-11.2S24,6.6,24,12.8S19,24,12.8,24L12.8,24z M13.6,4.9H12l0,8.8l5.5,4.7l1-1.4
		l-4.9-4.2V4.9z M13.6,4.9"/>
</g>
</svg>
