<?xml version="1.0" encoding="utf-8"?>
<!-- Generator: Adobe Illustrator 21.1.0, SVG Export Plug-In . SVG Version: 6.00 Build 0)  -->
<svg version="1.1" id="레이어_1" xmlns="http://www.w3.org/2000/svg" xmlns:xlink="http://www.w3.org/1999/xlink" x="0px"
	 y="0px" viewBox="0 0 72 72" style="enable-background:new 0 0 72 72;" xml:space="preserve">
<g>
	<g>
		<path d="M71.7,16.8c-0.1-0.4-0.4-0.8-0.8-0.9c-0.4-0.1-0.9,0-1.2,0.3L61,24.8l-11.5-2.4L47.1,11l8.3-8.7c0.3-0.3,0.4-0.8,0.3-1.2
			c-0.1-0.4-0.5-0.7-0.9-0.8C48.2-0.8,42,1.2,37.2,6c-6.1,6.1-7.7,15.3-4.1,23L2.9,55.4c0,0,0,0,0,0c0,0,0,0,0,0
			C1,57.3,0,59.7,0,62.3c0,2.6,1,5,2.8,6.8C4.7,71,7.1,72,9.7,72c0,0,0,0,0,0c2.6,0,5-1,6.8-2.8c0,0,0,0,0,0c0,0,0,0,0,0l26.3-30.3
			c2.8,1.3,5.8,2,8.7,2c5.3,0,10.5-2.1,14.4-6C70.7,30.1,72.8,23.4,71.7,16.8z M64.3,33.1c-5.6,5.6-14.1,6.9-21.2,3.2
			c0,0-0.1,0-0.1,0c-0.1,0-0.1-0.1-0.2-0.1c-0.1,0-0.2,0-0.2,0c-0.1,0-0.1,0-0.2,0c-0.1,0-0.2,0-0.2,0.1c-0.1,0-0.1,0.1-0.2,0.1
			c-0.1,0-0.1,0.1-0.2,0.1c0,0-0.1,0-0.1,0.1L14.8,67.5c-1.4,1.4-3.2,2.1-5.1,2.1c0,0,0,0,0,0c-1.9,0-3.8-0.8-5.1-2.1
			c-1.4-1.4-2.1-3.2-2.1-5.1c0-1.9,0.8-3.8,2.1-5.1l30.9-27c0,0,0-0.1,0.1-0.1c0.1-0.1,0.1-0.1,0.1-0.2c0-0.1,0.1-0.1,0.1-0.2
			c0-0.1,0-0.1,0.1-0.2c0-0.1,0-0.1,0-0.2c0-0.1,0-0.1,0-0.2c0-0.1,0-0.2-0.1-0.2c0,0,0-0.1,0-0.1c-3.7-7-2.4-15.5,3.2-21.1
			C42.5,4,47.1,2.2,52,2.4l-7.1,7.5c-0.3,0.3-0.4,0.8-0.3,1.2l2.9,13.4l13.4,2.9c0.4,0.1,0.9,0,1.2-0.3l7.4-7.4
			C69.8,24.6,67.9,29.5,64.3,33.1z"/>
	</g>
</g>
</svg>
