<?xml version="1.0" encoding="utf-8"?>
<!-- Generator: Adobe Illustrator 16.0.0, SVG Export Plug-In . SVG Version: 6.00 Build 0)  -->
<!DOCTYPE svg PUBLIC "-//W3C//DTD SVG 1.1 Tiny//EN" "http://www.w3.org/Graphics/SVG/1.1/DTD/svg11-tiny.dtd">
<svg version="1.1" baseProfile="tiny" id="Isolation_Mode"
	 xmlns="http://www.w3.org/2000/svg" xmlns:xlink="http://www.w3.org/1999/xlink" x="0px" y="0px" width="30px" height="29px"
	 viewBox="0 0 30 29" xml:space="preserve">
<path id="Stroke-1" fill="none" stroke="#000000" stroke-width="1.5" stroke-linecap="round" stroke-linejoin="round" d="
	M20.037,14.337v6l2.696,4.267H0.75l2.532-4.267v-7.432c0-4.58,3.747-8.328,8.327-8.328h0.1c1.189,0,2.323,0.253,3.349,0.708"/>
<path id="Stroke-3" fill="none" stroke="#000000" stroke-width="1.5" d="M14.389,24.677c0,1.462-1.185,2.647-2.647,2.647
	s-2.647-1.186-2.647-2.647"/>
<path id="Stroke-5" fill="none" stroke="#000000" stroke-width="1.5" d="M9.701,4.83V4.084c0-1.123,0.918-2.041,2.041-2.041l0,0
	c1.122,0,2.041,0.918,2.041,2.041V4.83"/>
<path id="Fill-7" fill="#1020A2" d="M29.504,6.716c0,3.709-3.007,6.716-6.716,6.716s-6.716-3.007-6.716-6.716S19.079,0,22.788,0
	S29.504,3.007,29.504,6.716"/>
</svg>
