<?xml version="1.0" encoding="utf-8"?>
<!-- Generator: Adobe Illustrator 21.1.0, SVG Export Plug-In . SVG Version: 6.00 Build 0)  -->
<svg version="1.1" id="레이어_1" xmlns="http://www.w3.org/2000/svg" xmlns:xlink="http://www.w3.org/1999/xlink" x="0px"
	 y="0px" viewBox="0 0 57.6 72" style="enable-background:new 0 0 57.6 72;" xml:space="preserve">
<style type="text/css">
	.st0{fill-rule:evenodd;clip-rule:evenodd;}
</style>
<path class="st0" d="M57.5,27c-0.1,3.3-1.4,35-28.3,44.9c0,0,0,0,0,0c-0.1,0-0.3,0.1-0.4,0.1c-0.1,0-0.3,0-0.4-0.1c0,0,0,0,0,0
	C1.5,62,0.1,30.3,0.1,27C0,26.9,0,26.9,0,26.8V12c0-1.3,1.1-2.4,2.4-2.4H8c0,0,0,0,0,0c0,0,0,0,0,0c14.2,0,19.4-8.7,19.7-9
	c0.2-0.4,0.6-0.6,1-0.6h0.1c0.4,0,0.8,0.2,1,0.6c0.2,0.4,5.5,9,19.7,9c0,0,0,0,0,0c0,0,0,0,0,0h5.6c1.3,0,2.4,1.1,2.4,2.4v14.7
	C57.6,26.9,57.6,26.9,57.5,27z M55.2,12h-5.6c0,0,0,0,0,0c0,0,0,0,0,0C37.3,12,31,6,28.8,3.2C26.6,6,20.3,12,8,12c0,0,0,0,0,0
	c0,0,0,0,0,0H2.4v14.5c0,0.1,0.1,0.2,0.1,0.3c0,0.3,0.1,32.8,26.3,42.8c26.3-10,26.3-42.4,26.3-42.8c0-0.1,0-0.2,0.1-0.3V12z
	 M18.1,38.2l1.7-1.7l6.8,6.8l14.9-14.9l1.7,1.7L26.5,46.7L18.1,38.2z"/>
</svg>
