<?xml version="1.0" encoding="utf-8"?>
<!-- Generator: Adobe Illustrator 21.1.0, SVG Export Plug-In . SVG Version: 6.00 Build 0)  -->
<svg version="1.1" id="레이어_1" xmlns="http://www.w3.org/2000/svg" xmlns:xlink="http://www.w3.org/1999/xlink" x="0px"
	 y="0px" fill="#fff" viewBox="0 0 128 127.8" style="enable-background:new 0 0 128 127.8;" xml:space="preserve">
<g>
	<g>
		<path d="M31.4,64.5C24.5,64.5,19,70,19,76.9c0,6.8,5.6,12.4,12.4,12.4c6.8,0,12.4-5.6,12.4-12.4C43.7,70,38.2,64.5,31.4,64.5z
			 M31.4,87.2c-5.7,0-10.3-4.6-10.3-10.3c0-5.7,4.6-10.3,10.3-10.3c5.7,0,10.3,4.6,10.3,10.3C41.7,82.6,37,87.2,31.4,87.2z
			 M62.4,72.9c0-0.5-0.4-1-0.9-1l-7.3-1c-0.6-2.1-1.4-4.1-2.5-6l4.4-5.9c0.3-0.4,0.3-1-0.1-1.4l-5.5-5.5c-0.4-0.4-0.9-0.4-1.4-0.1
			l-5.9,4.5c-1.9-1.1-3.8-1.9-5.9-2.4l-1.1-7.4c-0.1-0.5-0.5-0.9-1-0.9c0,0,0,0,0,0l-7.8,0c-0.5,0-1,0.4-1,0.9l-0.9,7.4
			c-2.1,0.5-4.1,1.4-6,2.5l-5.9-4.5c-0.4-0.3-1-0.3-1.4,0.1l-5.5,5.5c-0.4,0.4-0.4,1-0.1,1.4l4.5,5.8c-1.1,1.9-2,3.9-2.5,6l-7.3,1.1
			c-0.5,0.1-0.9,0.5-0.9,1l0,7.8c0,0.5,0.4,1,0.9,1l7.2,0.9c0.5,2.1,1.4,4.1,2.5,6l-4.3,5.9c-0.3,0.4-0.3,1,0.1,1.3l5.5,5.5
			c0.4,0.4,0.9,0.4,1.3,0.1l5.9-4.4c1.9,1.1,3.8,1.9,5.9,2.4l1.1,7.3c0.1,0.5,0.5,0.9,1,0.9h0l7.8,0c0.5,0,1-0.4,1-0.9l1-7.3
			c2.1-0.5,4.1-1.4,5.9-2.5l5.9,4.4c0.4,0.3,1,0.3,1.3-0.1l5.5-5.5c0.4-0.4,0.4-0.9,0.1-1.4l-4.4-5.8c1.1-1.9,1.9-3.8,2.4-5.9
			l7.3-1.1c0.5-0.1,0.9-0.5,0.9-1L62.4,72.9z M53.3,80.9c-0.4,0.1-0.8,0.4-0.8,0.8c-0.5,2.3-1.4,4.5-2.7,6.6
			c-0.2,0.4-0.2,0.8,0.1,1.2l4.3,5.7l-4.2,4.3l-5.8-4.3c-0.3-0.3-0.8-0.3-1.2,0c-2,1.3-4.3,2.2-6.6,2.7c-0.4,0.1-0.7,0.4-0.8,0.9
			l-0.9,7.1l-6,0l-1.1-7.1c-0.1-0.4-0.4-0.8-0.8-0.9c-2.3-0.5-4.5-1.4-6.6-2.7C20,95.1,19.8,95,19.6,95c-0.2,0-0.4,0.1-0.6,0.2
			l-5.7,4.3L9,95.3l4.2-5.8c0.2-0.3,0.3-0.8,0-1.2c-1.3-2.1-2.2-4.3-2.8-6.7c-0.1-0.4-0.4-0.7-0.9-0.8l-7-0.9l0-6l7.1-1.1
			c0.4-0.1,0.8-0.4,0.9-0.8c0.5-2.4,1.5-4.6,2.8-6.7c0.2-0.4,0.2-0.8-0.1-1.2l-4.4-5.6l4.2-4.3l5.7,4.4c0.3,0.3,0.8,0.3,1.2,0.1
			c2.1-1.3,4.3-2.2,6.7-2.8c0.4-0.1,0.7-0.4,0.8-0.9l0.9-7.2l6,0l1,7.2c0.1,0.4,0.4,0.8,0.8,0.9c2.3,0.5,4.5,1.4,6.6,2.7
			c0.4,0.2,0.8,0.2,1.2-0.1l5.8-4.4l4.3,4.2l-4.3,5.7c-0.3,0.3-0.3,0.8,0,1.2c1.3,2.1,2.3,4.3,2.8,6.7c0.1,0.4,0.4,0.7,0.9,0.8
			l7.1,0.9l0,6L53.3,80.9z"/>
	</g>
</g>
<g>
	<g>
		<path d="M51.3,28.6c-3-1.5-6.8-0.3-8.3,2.7c-1.5,3-0.3,6.8,2.7,8.3c3,1.5,6.8,0.3,8.3-2.7C55.6,33.8,54.4,30.1,51.3,28.6z
			 M52.2,35.9c-1,2-3.5,2.8-5.6,1.8c-2-1-2.8-3.5-1.8-5.6c1-2,3.5-2.8,5.6-1.8C52.4,31.4,53.2,33.9,52.2,35.9z M64.8,30.8L63.6,27
			c-0.2-0.5-0.7-0.8-1.2-0.7l-3.5,0.6c-0.5-0.8-1.1-1.5-1.8-2.1l1.2-3.3c0.2-0.5,0-1-0.5-1.3l-3.7-1.9c-0.5-0.2-1-0.1-1.3,0.3
			l-2,2.9c-0.9-0.2-1.9-0.2-2.8-0.2l-1.5-3.1c-0.2-0.5-0.8-0.7-1.3-0.5L41.4,19c-0.5,0.2-0.8,0.7-0.7,1.2l0.7,3.4
			c-0.8,0.5-1.5,1.1-2.2,1.8L36,24.2c-0.5-0.2-1,0-1.3,0.5l-1.9,3.7c-0.2,0.5-0.1,1,0.3,1.3l2.8,1.9c-0.2,0.9-0.3,1.9-0.2,2.8
			l-3.1,1.6c-0.5,0.2-0.7,0.8-0.5,1.2l1.3,3.8c0.2,0.5,0.7,0.8,1.2,0.7l3.4-0.6c0.5,0.8,1.1,1.5,1.8,2.1l-1.2,3.3
			c-0.2,0.5,0,1,0.5,1.3l3.7,1.9c0.5,0.2,1,0.1,1.3-0.3l2-2.9c0.9,0.2,1.9,0.2,2.8,0.2l1.6,3.1c0.2,0.5,0.8,0.7,1.2,0.5l3.8-1.3
			c0.5-0.2,0.8-0.7,0.7-1.2l-0.6-3.4c0.8-0.5,1.5-1.1,2.1-1.8l3.3,1.2c0.5,0.2,1,0,1.3-0.5l1.9-3.7c0.2-0.5,0.1-1-0.3-1.3l-2.9-2
			c0.2-0.9,0.2-1.9,0.2-2.8l3.1-1.5C64.8,31.8,65,31.3,64.8,30.8z M59.6,32c-0.4,0.2-0.6,0.6-0.6,1c0.1,1.2,0,2.4-0.3,3.6
			c-0.1,0.4,0.1,0.9,0.4,1.1l2.7,1.8l-1,2.1l-3.1-1.1c-0.4-0.1-0.9,0-1.1,0.3c-0.8,0.9-1.6,1.7-2.7,2.3c-0.4,0.2-0.6,0.6-0.5,1.1
			l0.6,3.2L52,48.1l-1.5-2.9c-0.2-0.4-0.6-0.6-1-0.6c-1.2,0.1-2.4,0-3.5-0.3c-0.4-0.1-0.9,0.1-1.1,0.4L43,47.5l-2.1-1l1.1-3.1
			c0.1-0.4,0-0.9-0.3-1.1c-0.9-0.8-1.7-1.6-2.3-2.7c-0.2-0.4-0.6-0.6-1.1-0.5l-3.2,0.6l-0.7-2.1l2.9-1.5c0.4-0.2,0.6-0.6,0.6-1
			c-0.1-1.2,0-2.4,0.3-3.6c0.1-0.4-0.1-0.9-0.4-1.1l-2.7-1.8l1-2.1l3,1.1c0.4,0.1,0.9,0,1.1-0.3c0.8-0.9,1.7-1.7,2.7-2.3
			c0.4-0.2,0.6-0.7,0.5-1.1l-0.6-3.2L45,20l1.4,3c0.2,0.4,0.6,0.6,1,0.6c1.2-0.1,2.4,0,3.6,0.3c0.4,0.1,0.9-0.1,1.1-0.4l1.9-2.7
			l2.1,1L55,24.8c-0.1,0.4,0,0.9,0.3,1.1c0.9,0.7,1.7,1.6,2.3,2.6c0.2,0.4,0.6,0.6,1.1,0.5l3.3-0.6l0.7,2.1L59.6,32z"/>
	</g>
</g>
<g>
	<path d="M115.5,101.5c-1.2,0-2.4,0.3-3,0.6v-0.6c0,0,0.3-6.1-6-6.1c-1.2,0-2.4,0.3-3,0.6v-0.6c0,0,0.3-6.1-6-6.1
		c-1.2,0-2.4,0.3-3,0.6l0-9.8c0,0,0.3-6.1-6-6.1c-6.3,0-6,6.1-6,6.1l0,30.2l-6.3-6.4c0,0-3.9-4.6-8.4,0c-4.5,4.6,0,8.8,0,8.8
		l14.7,14.9l0.2-4l-12.9-13.1c0,0-2.1-2.1,0-4.3c2.1-2.1,4.2,0,4.2,0L85.4,118l0-37.5c0,0,0-3,3-3c3,0,3,3,3,3l0,27.4h3V95.7
		c0,0,0-3,3-3c3,0,3,3,3,3v12.2h3v-6.1c0,0,0-3,3-3c3,0,3,3,3,3l0,12.2h3v-6.1c0,0,0-3,3-3c3,0,3,3,3,3v15.2h3v-15.2
		C121.5,107.6,121.8,101.5,115.5,101.5z"/>
	<path d="M125.9,0H2.1H0v2.1v9.3v2.1v38.2h2.1V13.4h123.9v89.8h2.1V13.4v-2.1V2.1V0H125.9z M125.9,11.4H2.1V2.1h123.9V11.4z"/>
	<polygon points="2.1,102.2 0,102.2 0,118.7 2.1,118.7 59.9,118.7 59.9,116.6 2.1,116.6 	"/>
	<path d="M107.5,88.9c4.2-4.3,6.8-10.2,6.8-16.7c0-13.1-10.6-23.7-23.7-23.7S66.8,59.1,66.8,72.3c0,6.5,2.6,12.4,6.8,16.7l1.5-1.5
		c-3.8-3.9-6.2-9.3-6.2-15.2c0-12,9.7-21.7,21.7-21.7s21.7,9.7,21.7,21.7c0,5.9-2.4,11.3-6.2,15.2L107.5,88.9z"/>
	<path d="M100.9,82.3c2.5-2.6,4.1-6.2,4.1-10.1c0-8-6.5-14.5-14.5-14.5s-14.5,6.5-14.5,14.5c0,3.9,1.6,7.5,4.1,10.1l1.5-1.5
		c-2.2-2.2-3.5-5.3-3.5-8.6c0-6.8,5.5-12.4,12.4-12.4c6.8,0,12.4,5.5,12.4,12.4c0,3.4-1.3,6.4-3.5,8.6L100.9,82.3z"/>
</g>
</svg>
