<?xml version="1.0" encoding="utf-8"?>
<!-- Generator: Adobe Illustrator 16.0.0, SVG Export Plug-In . SVG Version: 6.00 Build 0)  -->
<!DOCTYPE svg PUBLIC "-//W3C//DTD SVG 1.1//EN" "http://www.w3.org/Graphics/SVG/1.1/DTD/svg11.dtd">
<svg version="1.1" xmlns="http://www.w3.org/2000/svg" xmlns:xlink="http://www.w3.org/1999/xlink" viewBox="0 0 50 50" enable-background="new 0 0 50 50" xml:space="preserve">
<g id="레이어_1">
	<g>
		<g>
			<path fill="#595959" d="M24,2c12.131,0,22,9.869,22,22s-9.869,22-22,22S2,36.131,2,24S11.869,2,24,2 M24,0
				C10.745,0,0,10.745,0,24c0,13.254,10.745,24,24,24s24-10.746,24-24C48,10.745,37.255,0,24,0L24,0z"/>
		</g>
		<path fill="none" stroke="#595959" stroke-width="2" stroke-miterlimit="10" d="M35,27c0,6.075-4.925,11-11,11s-11-4.925-11-11H35
			z"/>
		<g>
			<g>
				<path fill="#595959" d="M15,16c0.551,0,1,0.449,1,1s-0.449,1-1,1s-1-0.449-1-1S14.449,16,15,16 M15,14c-1.657,0-3,1.343-3,3
					s1.343,3,3,3s3-1.343,3-3S16.657,14,15,14L15,14z"/>
			</g>
			<g>
				<path fill="#595959" d="M33,16c0.552,0,1,0.449,1,1s-0.448,1-1,1s-1-0.449-1-1S32.448,16,33,16 M33,14c-1.656,0-3,1.343-3,3
					s1.344,3,3,3s3-1.343,3-3S34.656,14,33,14L33,14z"/>
			</g>
		</g>
	</g>
</g>
</svg>
