<?xml version="1.0" encoding="utf-8"?>
<!-- Generator: Adobe Illustrator 21.1.0, SVG Export Plug-In . SVG Version: 6.00 Build 0)  -->
<svg version="1.1" id="레이어_1" xmlns="http://www.w3.org/2000/svg" xmlns:xlink="http://www.w3.org/1999/xlink" viewBox="-1 -1 95 57" xml:space="preserve">
<style type="text/css">
	.st0{fill-rule:evenodd;clip-rule:evenodd;}
</style>
<path class="st0" d="M38,32l-4,3.8l1.4,1.4l1.5-1.5V41h2v-5.2l1.6,1.5l1.4-1.4L38,32z M8.1,20.6l-4.6,0.2L5.7,25l1-1.7l9.1,5.4
	l0.5-0.8l-9.1-5.4L8.1,20.6z M83,19h-5v11h5V19z M81,28h-1v-7h1V28z M60,0v56h32V0H60z M75,54H62V2h13V54z M90,54H77V2h13V54z M0,52
	h11.3L9,56h1h1h1l2.3-4H44l3,4h1h1h1l-3-4h11V18H0V52z M2,20h54v30H2V20z M74,19h-5v11h5V19z M72,28h-1v-7h1V28z M51.8,46.4
	l-9.1-5.3l-0.5,0.8l9.1,5.3l-1,1.8l4.7-0.2l-2.2-4.1L51.8,46.4z"/>
<g>
	<path d="M20.1,35.7l1.9-2v-1.2h-5.1v1.2h3.6l-2.4,2.6l0.5,0.7c0.3-0.1,0.5-0.1,0.8-0.1c0.5,0,0.8,0.1,1.1,0.4s0.4,0.6,0.4,1.1
		c0,0.5-0.1,0.9-0.4,1.1s-0.7,0.4-1.2,0.4c-0.3,0-0.6-0.1-1-0.2s-0.7-0.3-1.1-0.5l-0.5,1.1c0.3,0.2,0.7,0.4,1.2,0.5s0.9,0.2,1.4,0.2
		c0.6,0,1.1-0.1,1.6-0.4s0.8-0.6,1-1s0.4-0.9,0.4-1.5c0-0.7-0.2-1.3-0.6-1.8S20.8,35.8,20.1,35.7z"/>
	<path d="M27.3,37.2c0.5-0.5,0.8-1,1-1.4s0.3-0.8,0.3-1.2c0-0.5-0.1-0.9-0.3-1.2s-0.5-0.6-0.9-0.8s-0.8-0.3-1.4-0.3
		c-0.5,0-0.9,0.1-1.4,0.2s-0.9,0.4-1.3,0.6l0.6,1.1c0.3-0.2,0.6-0.4,1-0.5s0.7-0.2,1-0.2c0.4,0,0.7,0.1,1,0.3s0.4,0.5,0.4,0.8
		c0,0.2-0.1,0.5-0.2,0.7s-0.4,0.6-0.8,1l-2.8,3.3V41h5.3v-1.2h-3.6L27.3,37.2z"/>
	<path d="M31.4,32.2h-1.3c0,0.3,0.1,0.6,0.1,0.8c0,0.4-0.1,0.7-0.2,1s-0.3,0.6-0.6,0.8l0.5,0.6c0.5-0.4,0.9-0.8,1.1-1.2
		s0.4-0.8,0.4-1.3C31.5,32.7,31.4,32.5,31.4,32.2z"/>
</g>
</svg>
