<?xml version="1.0" encoding="utf-8"?>
<!-- Generator: Adobe Illustrator 21.1.0, SVG Export Plug-In . SVG Version: 6.00 Build 0)  -->
<svg version="1.1" id="레이어_1" xmlns="http://www.w3.org/2000/svg" xmlns:xlink="http://www.w3.org/1999/xlink" x="0px"
	 y="0px" viewBox="0 0 78.2 56" style="enable-background:new 0 0 78.2 56;" xml:space="preserve">
<style type="text/css">
	.st0{fill-rule:evenodd;clip-rule:evenodd;}
</style>
<path class="st0" d="M78.1,8c-0.5,2-12.3,46-12.3,46s-0.5,2-2.5,2c-2.1,0-31,0-31,0s-2,0-1.5-2s4.8-18,4.8-18h2l-4.6,17
	c0,0-0.3,1,0.7,1s29,0,29,0s1-0.1,1.3-1c0.3-0.9,11.8-44,11.8-44s0.2-1-0.7-1s-29,0-29,0s-1,0-1.3,1c-0.3,1-2.4,9-2.4,9h-2l2.7-10
	c0,0,0.3-2,2.5-2s31,0,31,0S78.7,6,78.1,8z M28.4,40c0,0-18.9,0-21,0s-2.3-2-2.3-2S0.3,4,0,2s1.7-2,1.7-2s18.8,0,21,0S25,2,25,2
	l1.4,10h-2c0,0-1.1-8-1.3-9C23,2,22,2,22,2S4,2,3,2S2.2,3,2.2,3s4.6,33.1,4.8,34c0.1,0.9,1.1,1,1.1,1s17.9,0,19,0s0.9-1,0.9-1l-1-7
	h2c0,0,0.8,6,1.1,8C30.4,40,28.4,40,28.4,40z"/>
<path class="st0" d="M37.7,19.2l8,9.3l-11.6,4.7l1.6-4.7c-11.8-0.7-13-8.8-12-11c0.4,5,10.3,7.8,13,7L37.7,19.2L37.7,19.2z"/>
</svg>
