<?xml version="1.0" encoding="utf-8"?>
<!-- Generator: Adobe Illustrator 21.1.0, SVG Export Plug-In . SVG Version: 6.00 Build 0)  -->
<svg version="1.1" id="레이어_1" xmlns="http://www.w3.org/2000/svg" xmlns:xlink="http://www.w3.org/1999/xlink" x="0px"
	 y="0px" viewBox="0 0 122 122" style="enable-background:new 0 0 122 122;" xml:space="preserve">
<style type="text/css">
	.st0{fill-rule:evenodd;clip-rule:evenodd;fill:#FFFFFF;}
</style>
<g>
	<path class="st0" d="M69.5,56c0,0,0-17,0-17c0-0.6-0.4-1-1-1h-18c-0.6,0-1,0.4-1,1v17l0,0l-10,0l16.9,17.8c0.8,0.8,1.5,1.8,3.1,1.8
		c1.6,0,2.3-1,3.1-1.8L80.5,56L69.5,56L69.5,56z"/>
	<path class="st0" d="M60,0C26.9,0,0,26.9,0,60c0,33.1,26.9,60,60,60c33.1,0,60-26.9,60-60C120,26.9,93.1,0,60,0z M81.5,84h-43v-2
		h43V84z M82.6,57.1c-3.8,4.3-19.1,19-19.1,19c-1,1-2,2-4,2c-2,0-3-1-4-2c0,0-14.1-14.6-18-18.9c-0.6-0.7-1-1.1-1-1.1
		c0-1.1-0.1-2,1-2h10V38c0-1.1,0.9-2,2-2h20c1.1,0,2,0.9,2,2v16h10c1.1,0,2,0.9,2,2C83.5,56,83.2,56.4,82.6,57.1z"/>
</g>
</svg>
