<?xml version="1.0" encoding="utf-8"?>
<!-- Generator: Adobe Illustrator 21.1.0, SVG Export Plug-In . SVG Version: 6.00 Build 0)  -->
<svg version="1.1" id="레이어_1" xmlns="http://www.w3.org/2000/svg" xmlns:xlink="http://www.w3.org/1999/xlink" x="0px"
	 y="0px" viewBox="0 0 56 56" style="enable-background:new 0 0 56 56;" xml:space="preserve">
<style type="text/css">
	.st0{fill:#1428a0;}
</style>
<path class="st0" d="M28,0C12.5,0,0,12.3,0,28s12.5,28,28,28c15.5,0,28-12.5,28-28S43.5,0,28,0z M44,28v8.8l-8.8-6.2v2.8
	c0,2-1.6,3.6-3.6,3.6h-16c-2,0-3.6-1.6-3.6-3.6V22.8c0-2,1.6-3.6,3.6-3.6h16c2,0,3.6,1.6,3.6,3.6v2.8l8.8-6.4V28z"/>
</svg>
