<?xml version="1.0" encoding="utf-8"?>
<!-- Generator: Adobe Illustrator 22.0.1, SVG Export Plug-In . SVG Version: 6.00 Build 0)  -->
<svg version="1.1" id="Layer_1" xmlns="http://www.w3.org/2000/svg" xmlns:xlink="http://www.w3.org/1999/xlink" x="0px" y="0px"
	 viewBox="0 0 122 122" style="enable-background:new 0 0 122 122;" xml:space="preserve">
<style type="text/css">
	.st0{fill:#FFFFFF;}
</style>
<g>
	<path class="st0" d="M56,78.2V90l4-4l4,4V78.2c-1.2,0.7-2.5,1.1-4,1.1C58.6,79.2,57.2,78.9,56,78.2z"/>
	<path class="st0" d="M60,65c-3.5,0-6.3,2.8-6.3,6.3c0,3.5,2.8,6.3,6.3,6.3c3.5,0,6.3-2.8,6.3-6.3C66.3,67.8,63.5,65,60,65z"/>
	<path class="st0" d="M60,63.4c4.4,0,7.9,3.5,7.9,7.9c0,1.8-0.6,3.4-1.6,4.7h14.3c0.9,0,1.6-0.7,1.6-1.6V44.4c0-0.9-0.7-1.6-1.6-1.6
		H39.4c-0.9,0-1.6,0.7-1.6,1.6v30.1c0,0.9,0.7,1.6,1.6,1.6h14.3c-1-1.3-1.6-3-1.6-4.7C52.1,67,55.6,63.4,60,63.4z M77.7,52.5
		c0,0,1.5,0,1.9,0.8c0,0,0.2,0.3,0.1,1.2h-1.6v-0.6c0,0,0-0.4-0.4-0.4c0,0-0.4,0-0.4,0.3V57c0,0,0,0.4,0.5,0.4c0,0,0.4,0,0.4-0.4V56
		h-0.3v-0.8h1.9V57c0,0,0,0.5-0.1,0.7c0,0-0.1,0.3-0.4,0.5c0,0-0.3,0.3-1.3,0.4c0,0-2.3,0.2-2.3-1.4v-3
		C75.7,54.1,75.5,52.5,77.7,52.5z M69.5,52.4h2.1l1.5,3.7h0l0-3.7h1.7v6.2h-1.9l-1.7-3.7h0l0,3.7h-1.7V52.4z M64.2,57v-4.6h1.8
		l0,4.6c0,0.5,0.5,0.5,0.5,0.5c0.5,0,0.4-0.5,0.4-0.5v-4.6h1.7v4.7c0,1.6-2.1,1.6-2.1,1.6C64,58.6,64.2,57,64.2,57z M58.9,56.6h1.7
		v0.5c0,0.4,0.4,0.4,0.4,0.4c0.5,0,0.5-0.4,0.5-0.4c0.1-0.4-0.4-0.7-0.4-0.7c-0.5-0.2-1.3-0.6-1.3-0.6c-0.4-0.2-0.6-0.5-0.6-0.5
		C59,54.9,59,54.4,59,54.4V54c0-0.6,0.2-0.8,0.2-0.8c0.5-0.8,2.1-0.7,2.1-0.7c2.1,0.1,1.9,1.2,1.9,1.2l0,0.8h-1.6v-0.6
		c0-0.4-0.5-0.4-0.5-0.4c-0.4,0-0.4,0.2-0.4,0.2c-0.2,0.3,0.1,0.6,0.1,0.6c0.2,0.2,1,0.5,1,0.5c0.3,0.1,0.7,0.4,0.7,0.4
		c0.8,0.5,0.8,1.4,0.8,1.4v0.6c-0.1,1.5-2.2,1.4-2.2,1.4c-2.2,0-2.2-1.4-2.2-1.4V56.6z M44.7,56.7v0.6c-0.1,1.5-2.3,1.4-2.3,1.4
		c-2.3,0-2.2-1.4-2.2-1.4v-0.7H42V57c0,0.4,0.4,0.4,0.4,0.4c0.5,0,0.5-0.4,0.5-0.4c0.1-0.4-0.4-0.7-0.4-0.7
		c-0.5-0.2-1.3-0.6-1.3-0.6c-0.4-0.2-0.6-0.5-0.6-0.5c-0.3-0.3-0.3-0.9-0.3-0.9v-0.5c0-0.6,0.2-0.8,0.2-0.8c0,0,0,0,0,0
		c0.4-0.6,1.7-0.7,1.7-0.7c0.2,0,0.4,0,0.4,0c2.1,0.1,1.9,1.3,1.9,1.3l0,0.8h-1.6v-0.6c0-0.4-0.5-0.4-0.5-0.4
		c-0.4,0-0.4,0.2-0.4,0.2c-0.2,0.3,0.1,0.6,0.1,0.6c0.2,0.2,1,0.5,1,0.5c0.3,0.1,0.7,0.4,0.7,0.4C44.7,55.8,44.7,56.7,44.7,56.7z
		 M48.6,58.6L48,54h-0.1l-0.6,4.7h-1.7l1-6.2h2.7l1,6.2H48.6z M51.3,52.4H54l0.5,3.4h0.1l0.5-3.4h2.6l0.2,6.2h-1.6l0-4.5h-0.1
		l-0.8,4.5h-1.7l-0.8-4.5h-0.1l0,4.5h-1.6L51.3,52.4z"/>
	<path class="st0" d="M83.7,38.1H36.2c-1.7,0-3.2,1.4-3.2,3.2v36.4c0,1.7,1.4,3.2,3.2,3.2h18.2v-3.2h-15c-1.7,0-3.2-1.4-3.2-3.2
		V44.4c0-1.7,1.4-3.2,3.2-3.2h41.2c1.7,0,3.2,1.4,3.2,3.2v30.1c0,1.7-1.4,3.2-3.2,3.2h-15v3.2h18.2c1.7,0,3.2-1.4,3.2-3.2V41.2
		C86.9,39.5,85.5,38.1,83.7,38.1z"/>
	<path class="st0" d="M60,0C26.9,0,0,26.9,0,60s26.9,60,60,60s60-26.9,60-60S93.1,0,60,0z M88.5,77.7c0,2.6-2.1,4.8-4.8,4.8H65.5
		v11.1L60,88l-5.5,5.5V82.4H36.2c-2.6,0-4.8-2.1-4.8-4.8V41.2c0-2.6,2.1-4.7,4.8-4.7h47.5c2.6,0,4.8,2.1,4.8,4.7V77.7z"/>
</g>
</svg>
