<?xml version="1.0" encoding="utf-8"?>
<!-- Generator: Adobe Illustrator 22.0.1, SVG Export Plug-In . SVG Version: 6.00 Build 0)  -->
<svg version="1.1" id="Layer_1" xmlns="http://www.w3.org/2000/svg" xmlns:xlink="http://www.w3.org/1999/xlink" x="0px" y="0px"
	 viewBox="0 0 122 122" style="enable-background:new 0 0 122 122;" xml:space="preserve">
<style type="text/css">
	.st0{fill:#FFFFFF;}
</style>
<g>
	<path class="st0" d="M60,0C26.9,0,0,26.9,0,60c0,33.1,26.9,60,60,60c33.1,0,60-26.9,60-60C120,26.9,93.1,0,60,0z M60,118
		C28,118,2,92,2,60C2,28,28,2,60,2c32,0,58,26,58,58C118,92,92,118,60,118z"/>
	<path class="st0" d="M75.7,57.1c0,1.5,2.3,1.4,2.3,1.4c1-0.1,1.3-0.4,1.3-0.4c0.3-0.2,0.4-0.5,0.4-0.5c0.1-0.2,0.1-0.7,0.1-0.7
		v-1.7h-1.9V56h0.3v0.9c0,0.4-0.4,0.4-0.4,0.4c-0.5,0-0.5-0.4-0.5-0.4v-3.1c0-0.3,0.4-0.3,0.4-0.3c0.4,0,0.4,0.4,0.4,0.4v0.6h1.6
		c0.1-0.9-0.1-1.2-0.1-1.2c-0.4-0.8-1.9-0.8-1.9-0.8c-2.3,0-2,1.6-2,1.6V57.1z"/>
	<polygon class="st0" points="52.8,54.1 52.9,54.1 53.7,58.6 55.4,58.6 56.2,54.1 56.3,54.1 56.4,58.6 57.9,58.6 57.8,52.4 
		55.1,52.4 54.6,55.8 54.5,55.8 54,52.4 51.3,52.4 51.2,58.6 52.8,58.6 	"/>
	<polygon class="st0" points="71.2,54.9 71.2,54.9 72.9,58.6 74.8,58.6 74.8,52.4 73.1,52.4 73.1,56.1 73.1,56.1 71.6,52.4 
		69.5,52.4 69.5,58.6 71.2,58.6 	"/>
	<path class="st0" d="M83.8,36.5H36.3c-2.6,0-4.8,2.1-4.8,4.7v36.4c0,2.6,2.1,4.8,4.8,4.8h18.2v11.1L60,88l5.5,5.5V82.4h18.2
		c2.6,0,4.8-2.1,4.8-4.8V41.2C88.5,38.6,86.4,36.5,83.8,36.5z M64,90l-4-4l-4,4V78.2c1.2,0.7,2.5,1.1,4,1.1c1.4,0,2.8-0.4,4-1.1V90z
		 M60,77.7c-3.5,0-6.3-2.8-6.3-6.3c0-3.5,2.8-6.3,6.3-6.3c3.5,0,6.3,2.8,6.3,6.3C66.3,74.8,63.5,77.7,60,77.7z M53.7,76.1H39.4
		c-0.9,0-1.6-0.7-1.6-1.6V44.4c0-0.9,0.7-1.6,1.6-1.6h41.2c0.9,0,1.6,0.7,1.6,1.6v30.1c0,0.9-0.7,1.6-1.6,1.6H66.3
		c1-1.3,1.6-3,1.6-4.7c0-4.4-3.5-7.9-7.9-7.9c-4.4,0-7.9,3.5-7.9,7.9C52.1,73.1,52.7,74.8,53.7,76.1z M86.9,77.7
		c0,1.7-1.4,3.2-3.2,3.2H65.5v-3.2h15c1.7,0,3.2-1.4,3.2-3.2V44.4c0-1.7-1.4-3.2-3.2-3.2H39.4c-1.7,0-3.2,1.4-3.2,3.2v30.1
		c0,1.7,1.4,3.2,3.2,3.2h15v3.2H36.3c-1.7,0-3.2-1.4-3.2-3.2V41.2c0-1.7,1.4-3.2,3.2-3.2h47.5c1.7,0,3.2,1.4,3.2,3.2V77.7z"/>
	<polygon class="st0" points="46.6,52.4 45.5,58.6 47.2,58.6 47.8,54 48,54 48.6,58.6 50.3,58.6 49.2,52.4 	"/>
	<path class="st0" d="M66.5,58.6c0,0,2.1,0,2.1-1.6v-4.7h-1.7V57c0,0,0,0.5-0.4,0.5c0,0-0.5,0-0.5-0.5l0-4.6h-1.8V57
		C64.2,57,64,58.6,66.5,58.6z"/>
	<path class="st0" d="M43.9,55.3c0,0-0.4-0.3-0.7-0.4c0,0-0.9-0.4-1-0.5c0,0-0.3-0.3-0.1-0.6c0,0,0.1-0.2,0.4-0.2c0,0,0.5,0,0.5,0.4
		v0.6h1.6l0-0.8c0,0,0.1-1.2-1.9-1.3c0,0-0.2,0-0.4,0c0,0-1.2,0.1-1.7,0.7c0,0,0,0,0,0c0,0-0.2,0.2-0.2,0.8v0.5c0,0,0,0.5,0.3,0.9
		c0,0,0.2,0.2,0.6,0.5c0,0,0.8,0.4,1.3,0.6c0,0,0.5,0.3,0.4,0.7c0,0,0,0.4-0.5,0.4c0,0-0.4,0-0.4-0.4v-0.5h-1.8v0.7
		c0,0,0,1.4,2.2,1.4c0,0,2.2,0,2.3-1.4v-0.6C44.7,56.7,44.7,55.8,43.9,55.3z"/>
	<path class="st0" d="M61.1,58.7c0,0,2.1,0,2.2-1.4v-0.6c0,0,0.1-0.9-0.8-1.4c0,0-0.4-0.3-0.7-0.4c0,0-0.9-0.4-1-0.5
		c0,0-0.3-0.3-0.1-0.6c0,0,0.1-0.2,0.4-0.2c0,0,0.5,0,0.5,0.4v0.6h1.6l0-0.8c0,0,0.1-1.2-1.9-1.2c0,0-1.6-0.1-2.1,0.7
		c0,0-0.2,0.2-0.2,0.8v0.5c0,0,0,0.5,0.3,0.9c0,0,0.2,0.2,0.6,0.5c0,0,0.8,0.4,1.3,0.6c0,0,0.5,0.3,0.4,0.7c0,0,0,0.4-0.5,0.4
		c0,0-0.4,0-0.4-0.4v-0.5h-1.7v0.7C58.9,57.3,58.8,58.7,61.1,58.7z"/>
</g>
</svg>
