<?xml version="1.0" encoding="utf-8"?>
<!-- Generator: Adobe Illustrator 21.1.0, SVG Export Plug-In . SVG Version: 6.00 Build 0)  -->
<svg version="1.1" id="레이어_1" xmlns="http://www.w3.org/2000/svg" xmlns:xlink="http://www.w3.org/1999/xlink" x="0px"
	 y="0px" viewBox="0 0 38 48" style="enable-background:new 0 0 38 48;" xml:space="preserve">
<style type="text/css">
	.st0{fill-rule:evenodd;clip-rule:evenodd;}
</style>
<path class="st0" d="M36,48H2c-1.1,0-2-0.9-2-2V2c0-1.1,0.9-2,2-2h34c1.1,0,2,0.9,2,2v44C38,47.1,37.1,48,36,48z M36,3
	c0-0.6-0.4-1-1-1H3C2.4,2,2,2.4,2,3v42c0,0.6,0.4,1,1,1h32c0.6,0,1-0.4,1-1V3z M29,35.9V38h-2v-2h-2v2h-2v-2h-2v2h-2v-2h-2v2h-2v-2
	h-2v2h-2v-2h-1c-2.2,0-4-1.8-4-4V14c0-2.2,1.8-4,4-4h18c2.2,0,4,1.8,4,4v18C32,33.9,30.7,35.4,29,35.9z M30,14c0-1.1-0.9-2-2-2H10
	c-1.1,0-2,0.9-2,2v18c0,1.1,0.9,2,2,2h18c1.1,0,2-0.9,2-2V14z M27,18h-2c-0.6,0-1-0.4-1-1v-2c0-0.6,0.4-1,1-1h2c0.6,0,1,0.4,1,1v2
	C28,17.6,27.6,18,27,18z M24,26c0,1.1-0.9,2-2,2h-6c-1.1,0-2-0.9-2-2v-6c0-1.1,0.9-2,2-2h6c1.1,0,2,0.9,2,2V26z M22,21
	c0-0.6-0.4-1-1-1h-4c-0.6,0-1,0.4-1,1v4c0,0.6,0.4,1,1,1h4c0.6,0,1-0.4,1-1V21z"/>
</svg>
