<?xml version="1.0" encoding="utf-8"?>
<!-- Generator: Adobe Illustrator 21.1.0, SVG Export Plug-In . SVG Version: 6.00 Build 0)  -->
<svg version="1.1" id="레이어_1" xmlns="http://www.w3.org/2000/svg" xmlns:xlink="http://www.w3.org/1999/xlink" x="0px"
	 y="0px" viewBox="0 0 72 72" style="enable-background:new 0 0 72 72;" xml:space="preserve">
<g>
	<g>
		<path d="M36,0C16.1,0,0,16.1,0,36v6v1v13.4c0,3.3,2.7,6,6,6h4.8c3.3,0,6-2.7,6-6V42c0-3.3-2.7-6-6-6H6c-1.4,0-2.6,0.5-3.6,1.2V36
			C2.4,17.5,17.5,2.4,36,2.4S69.6,17.5,69.6,36v1.2c-1-0.8-2.2-1.2-3.6-1.2h-4.8c-3.3,0-6,2.7-6,6v14.4c0,3.3,2.7,6,6,6h4.2l-18,7.2
			h-5.6v-2.2c0-0.7-0.5-1.2-1.2-1.2h-9.2c-0.7,0-1.2,0.5-1.2,1.2v3.4c0,0.7,0.5,1.2,1.2,1.2h7.9h1.3h7c0.2,0,0.3,0,0.4-0.1l23.2-9.3
			c0.5-0.2,0.8-0.6,0.8-1.1v-5.1V43v-1v-3.7V36C72,16.1,55.9,0,36,0z M6,38.4h4.8c2,0,3.6,1.6,3.6,3.6v14.4c0,2-1.6,3.6-3.6,3.6H6
			c-2,0-3.6-1.6-3.6-3.6V43v-1C2.4,40,4,38.4,6,38.4z M57.6,56.4V42c0-2,1.6-3.6,3.6-3.6H66c2,0,3.6,1.6,3.6,3.6v1v13.4
			c0,2-1.6,3.6-3.6,3.6h-4.8C59.2,60,57.6,58.4,57.6,56.4z"/>
	</g>
</g>
</svg>
