<?xml version="1.0" encoding="utf-8"?>
<!-- Generator: Adobe Illustrator 21.1.0, SVG Export Plug-In . SVG Version: 6.00 Build 0)  -->
<svg version="1.1" id="레이어_1" xmlns="http://www.w3.org/2000/svg" xmlns:xlink="http://www.w3.org/1999/xlink" x="0px"
	 y="0px" viewBox="0 0 122 122" style="enable-background:new 0 0 122 122;" xml:space="preserve">
<style type="text/css">
	.st0{fill-rule:evenodd;clip-rule:evenodd;fill:#FFFFFF;}
</style>
<g>
	<g>
		<path class="st0" d="M60,0C26.9,0,0,26.9,0,60c0,33.1,26.9,60,60,60s60-26.9,60-60C120,26.9,93.1,0,60,0z M60,118
			C28,118,2,92,2,60C2,28,28,2,60,2c32,0,58,26,58,58C118,92,92,118,60,118z M39,84h43v-2H39V84z M82,54H72V38c0-1.1-0.9-2-2-2H50
			c-1.1,0-2,0.9-2,2v16H38c-1.1,0-1,0.9-1,2c0,0,0.4,0.4,1,1.1C41.8,61.4,56,76,56,76c1,1,2,2,4,2c2,0,3-1,4-2
			c0,0,15.2-14.7,19.1-19c0.6-0.7,0.9-1,0.9-1C84,54.9,83.1,54,82,54z M63.1,73.8c-0.8,0.8-1.6,1.8-3.1,1.8c-1.6,0-2.3-1-3.1-1.8
			L40,56l10,0h0V39c0-0.6,0.4-1,1-1h18c0.6,0,1,0.4,1,1c0,0,0,17.1,0,17l11,0L63.1,73.8z"/>
	</g>
</g>
</svg>
