<?xml version="1.0" encoding="utf-8"?>
<!-- Generator: Adobe Illustrator 21.1.0, SVG Export Plug-In . SVG Version: 6.00 Build 0)  -->
<svg version="1.1" id="레이어_1" xmlns="http://www.w3.org/2000/svg" xmlns:xlink="http://www.w3.org/1999/xlink" viewBox="-1 -1 98 98" style="enable-background:new 0 0 98 98;" xml:space="preserve">
<style type="text/css">
	.st0{fill-rule:evenodd;clip-rule:evenodd;}
</style>
<g>
	<g>
		<path class="st0" d="M48,0C21.5,0,0,21.5,0,48c0,26.5,21.5,48,48,48s48-21.5,48-48C96,21.5,74.5,0,48,0z M48,94.4
			C22.4,94.4,1.6,73.6,1.6,48C1.6,22.4,22.4,1.6,48,1.6S94.4,22.4,94.4,48C94.4,73.6,73.6,94.4,48,94.4z M42,78h11V68H42V78z M44,70
			h7v6h-7V70z M42,65h11l2-46H41L42,65z M53,21l-2,42h-7l-1-42H53z"/>
	</g>
</g>
</svg>
