<?xml version="1.0" encoding="UTF-8"?>
<svg xmlns="http://www.w3.org/2000/svg" xmlns:xlink="http://www.w3.org/1999/xlink" version="1.2" >
<font id="SamsungOneLatinCompact-400C">
<font-face  font-family="SamsungOneLatinCompact" units-per-em="1024" ascent="794" descent="-230" font-style="normal" font-weight="400" font-stretch="condensed" cap-height="724" x-height="534" underline-position="-119" underline-thickness="28" />
<missing-glyph  horiz-adv-x="646" d="M556 0 L489 0 L128 0 L90 0 L90 724 L157 724 L556 724 L556 0 Z M489 661 L186 661 L489 124 L489 661 Z M157 63 L460 63 L157 601 L157 63 Z " />
<glyph glyph-name="nonmarkingreturn" unicode="&#xd;" horiz-adv-x="4" d="" />
<glyph glyph-name="space" unicode="&#x20;" horiz-adv-x="204" d="" />
<glyph glyph-name="A" unicode="A" horiz-adv-x="632" d="M458 199 L173 199 L110 0 L32 0 L275 724 L357 724 L600 0 L521 0 L458 199 Z M437 263 L315 649 L193 263 L437 263 Z " />
<glyph glyph-name="Aacute" unicode="&#xc1;" horiz-adv-x="632" d="M320 781 L258 781 L258 793 L403 926 L494 926 L494 914 L320 781 Z M458 199 L173 199 L110 0 L32 0 L275 724 L357 724 L600 0 L521 0 L458 199 Z M437 263 L315 649 L193 263 L437 263 Z " />
<glyph glyph-name="Abreve" unicode="&#x102;" horiz-adv-x="632" d="M316 786 Q257 786 222 824 Q187 862 184 930 L232 930 Q244 845 317 845 Q391 845 403 930 L448 930 Q445 862 410 824 Q375 786 316 786 Z M458 199 L173 199 L110 0 L32 0 L275 724 L357 724 L600 0 L521 0 L458 199 Z M437 263 L315 649 L193 263 L437 263 Z " />
<glyph glyph-name="uni1EAE" unicode="&#x1eae;" horiz-adv-x="632" d="M335 894 L291 894 L291 904 L366 1031 L431 1031 L431 1021 L335 894 Z M316 776 Q258 776 224 809.5 Q190 843 186 902 L230 902 Q242 828 317 828 Q393 828 405 902 L446 902 Q442 843 408 809.5 Q374 776 316 776 Z M458 199 L173 199 L110 0 L32 0 L275 724 L357 724 L600 0 L521 0 L458 199 Z M437 263 L315 649 L193 263 L437 263 Z " />
<glyph glyph-name="uni1EB6" unicode="&#x1eb6;" horiz-adv-x="632" d="M316 786 Q257 786 222 824 Q187 862 184 930 L232 930 Q244 845 317 845 Q391 845 403 930 L448 930 Q445 862 410 824 Q375 786 316 786 Z M521 0 L458 199 L173 199 L110 0 L32 0 L275 724 L357 724 L600 0 L521 0 Z M437 263 L315 649 L193 263 L437 263 Z M317 -98 Q340 -98 353 -111.5 Q366 -125 366 -150 Q366 -175 353 -189 Q340 -203 317 -203 Q294 -203 281 -189.5 Q268 -176 268 -151 Q268 -126 281 -112 Q294 -98 317 -98 Z " />
<glyph glyph-name="uni1EB0" unicode="&#x1eb0;" horiz-adv-x="632" d="M297 894 L207 1021 L207 1031 L272 1031 L341 904 L341 894 L297 894 Z M316 776 Q258 776 224 809.5 Q190 843 186 902 L230 902 Q242 828 317 828 Q393 828 405 902 L446 902 Q442 843 408 809.5 Q374 776 316 776 Z M458 199 L173 199 L110 0 L32 0 L275 724 L357 724 L600 0 L521 0 L458 199 Z M437 263 L315 649 L193 263 L437 263 Z " />
<glyph glyph-name="uni1EB2" unicode="&#x1eb2;" horiz-adv-x="632" d="M315 1002 Q293 1002 262 984 L245 1020 Q281 1044 324 1044 Q359 1044 378.5 1027 Q398 1010 398 980 Q398 958 388.5 948.5 Q379 939 362 932 Q350 927 345 923 Q340 919 340 910 L342 892 L290 892 Q288 904 288 913 Q288 931 296 939 Q304 947 318 953 Q331 959 336 964 Q341 969 341 980 Q341 1002 315 1002 Z M316 776 Q258 776 224 809.5 Q190 843 186 902 L230 902 Q242 828 317 828 Q393 828 405 902 L446 902 Q442 843 408 809.5 Q374 776 316 776 Z M458 199 L173 199 L110 0 L32 0 L275 724 L357 724 L600 0 L521 0 L458 199 Z M437 263 L315 649 L193 263 L437 263 Z " />
<glyph glyph-name="uni1EB4" unicode="&#x1eb4;" horiz-adv-x="632" d="M258 995 Q224 995 219 938 L178 938 Q178 989 200 1017.5 Q222 1046 261 1046 Q284 1046 299.5 1037 Q315 1028 332 1011 Q344 999 353 993 Q362 987 374 987 Q408 987 413 1044 L454 1044 Q454 993 432 964.5 Q410 936 371 936 Q348 936 332.5 945 Q317 954 300 971 Q288 983 279 989 Q270 995 258 995 Z M317 828 Q393 828 405 902 L446 902 Q442 843 408 809.5 Q374 776 316 776 Q258 776 224 809.5 Q190 843 186 902 L230 902 Q242 828 317 828 Z M458 199 L173 199 L110 0 L32 0 L275 724 L357 724 L600 0 L521 0 L458 199 Z M437 263 L315 649 L193 263 L437 263 Z " />
<glyph glyph-name="uni01CD" unicode="&#x1cd;" horiz-adv-x="632" d="M277 781 L167 914 L167 926 L224 926 L318 830 L411 926 L465 926 L465 914 L355 781 L277 781 Z M458 199 L173 199 L110 0 L32 0 L275 724 L357 724 L600 0 L521 0 L458 199 Z M437 263 L315 649 L193 263 L437 263 Z " />
<glyph glyph-name="Acircumflex" unicode="&#xc2;" horiz-adv-x="632" d="M221 781 L167 781 L167 793 L277 926 L355 926 L465 793 L465 781 L408 781 L315 877 L221 781 Z M458 199 L173 199 L110 0 L32 0 L275 724 L357 724 L600 0 L521 0 L458 199 Z M437 263 L315 649 L193 263 L437 263 Z " />
<glyph glyph-name="uni1EA4" unicode="&#x1ea4;" horiz-adv-x="632" d="M465 884 L421 884 L421 894 L496 1021 L561 1021 L561 1011 L465 884 Z M230 785 L182 785 L182 795 L280 934 L352 934 L450 795 L450 785 L399 785 L315 885 L230 785 Z M458 199 L173 199 L110 0 L32 0 L275 724 L357 724 L600 0 L521 0 L458 199 Z M437 263 L315 649 L193 263 L437 263 Z " />
<glyph glyph-name="uni1EAC" unicode="&#x1eac;" horiz-adv-x="632" d="M221 781 L167 781 L167 793 L277 926 L355 926 L465 793 L465 781 L408 781 L315 877 L221 781 Z M521 0 L458 199 L173 199 L110 0 L32 0 L275 724 L357 724 L600 0 L521 0 Z M437 263 L315 649 L193 263 L437 263 Z M317 -98 Q340 -98 353 -111.5 Q366 -125 366 -150 Q366 -175 353 -189 Q340 -203 317 -203 Q294 -203 281 -189.5 Q268 -176 268 -151 Q268 -126 281 -112 Q294 -98 317 -98 Z " />
<glyph glyph-name="uni1EA6" unicode="&#x1ea6;" horiz-adv-x="632" d="M167 884 L77 1011 L77 1021 L142 1021 L211 894 L211 884 L167 884 Z M182 795 L280 934 L352 934 L450 795 L450 785 L399 785 L315 885 L230 785 L182 785 L182 795 Z M458 199 L173 199 L110 0 L32 0 L275 724 L357 724 L600 0 L521 0 L458 199 Z M437 263 L315 649 L193 263 L437 263 Z " />
<glyph glyph-name="uni1EA8" unicode="&#x1ea8;" horiz-adv-x="632" d="M445 992 Q423 992 392 974 L375 1010 Q411 1034 454 1034 Q489 1034 508.5 1017 Q528 1000 528 970 Q528 948 518.5 938.5 Q509 929 492 922 Q480 917 475 913 Q470 909 470 900 L472 882 L420 882 Q418 894 418 903 Q418 921 426 929 Q434 937 448 943 Q461 949 466 954 Q471 959 471 970 Q471 992 445 992 Z M230 785 L182 785 L182 795 L280 934 L352 934 L450 795 L450 785 L399 785 L315 885 L230 785 Z M458 199 L173 199 L110 0 L32 0 L275 724 L357 724 L600 0 L521 0 L458 199 Z M437 263 L315 649 L193 263 L437 263 Z " />
<glyph glyph-name="uni1EAA" unicode="&#x1eaa;" horiz-adv-x="632" d="M258 994 Q224 994 219 937 L178 937 Q178 988 200 1016.5 Q222 1045 261 1045 Q284 1045 299.5 1036 Q315 1027 332 1010 Q344 998 353 992 Q362 986 374 986 Q408 986 413 1043 L454 1043 Q454 992 432 963.5 Q410 935 371 935 Q348 935 332.5 944 Q317 953 300 970 Q288 982 279 988 Q270 994 258 994 Z M352 914 L450 785 L450 775 L399 775 L315 867 L230 775 L182 775 L182 785 L280 914 L352 914 Z M458 199 L173 199 L110 0 L32 0 L275 724 L357 724 L600 0 L521 0 L458 199 Z M437 263 L315 649 L193 263 L437 263 Z " />
<glyph glyph-name="Adieresis" unicode="&#xc4;" horiz-adv-x="632" d="M227 801 Q205 801 193 814 Q181 827 181 851 Q181 874 193 888 Q205 902 227 902 Q249 902 261.5 888.5 Q274 875 274 852 Q274 828 261.5 814.5 Q249 801 227 801 Z M404 801 Q382 801 370 814 Q358 827 358 851 Q358 874 370 888 Q382 902 404 902 Q426 902 438.5 888.5 Q451 875 451 852 Q451 828 438.5 814.5 Q426 801 404 801 Z M458 199 L173 199 L110 0 L32 0 L275 724 L357 724 L600 0 L521 0 L458 199 Z M437 263 L315 649 L193 263 L437 263 Z " />
<glyph glyph-name="uni1EA0" unicode="&#x1ea0;" horiz-adv-x="632" d="M458 199 L173 199 L110 0 L32 0 L275 724 L357 724 L600 0 L521 0 L458 199 Z M437 263 L315 649 L193 263 L437 263 Z M317 -203 Q294 -203 281 -189.5 Q268 -176 268 -151 Q268 -126 281 -112 Q294 -98 317 -98 Q340 -98 353 -111.5 Q366 -125 366 -150 Q366 -175 353 -189 Q340 -203 317 -203 Z " />
<glyph glyph-name="Agrave" unicode="&#xc0;" horiz-adv-x="632" d="M311 781 L146 914 L146 926 L237 926 L373 793 L373 781 L311 781 Z M458 199 L173 199 L110 0 L32 0 L275 724 L357 724 L600 0 L521 0 L458 199 Z M437 263 L315 649 L193 263 L437 263 Z " />
<glyph glyph-name="uni1EA2" unicode="&#x1ea2;" horiz-adv-x="632" d="M318 890 Q289 890 252 868 L232 909 Q273 939 327 939 Q366 939 388 922 Q410 905 410 874 Q410 851 399.5 840.5 Q389 830 369 822 Q356 817 349.5 812 Q343 807 343 798 L345 781 L287 781 Q285 793 285 803 Q285 820 294 828.5 Q303 837 320 844 Q332 850 338.5 855.5 Q345 861 345 870 Q345 890 318 890 Z M458 199 L173 199 L110 0 L32 0 L275 724 L357 724 L600 0 L521 0 L458 199 Z M437 263 L315 649 L193 263 L437 263 Z " />
<glyph glyph-name="Amacron" unicode="&#x100;" horiz-adv-x="632" d="M450 812 L182 812 L182 867 L450 867 L450 812 Z M458 199 L173 199 L110 0 L32 0 L275 724 L357 724 L600 0 L521 0 L458 199 Z M437 263 L315 649 L193 263 L437 263 Z " />
<glyph glyph-name="Aogonek" unicode="&#x104;" horiz-adv-x="632" d="M643 -187 Q625 -201 600 -208.5 Q575 -216 549 -216 Q504 -216 479 -192.5 Q454 -169 454 -128 Q454 -91 474.5 -57 Q495 -23 532 0 L521 0 L458 199 L173 199 L110 0 L32 0 L275 724 L357 724 L600 0 Q517 -50 517 -114 Q517 -161 564 -161 Q594 -161 625 -143 L643 -187 Z M437 263 L315 649 L193 263 L437 263 Z " />
<glyph glyph-name="Aring" unicode="&#xc5;" horiz-adv-x="632" d="M316 770 Q264 770 235.5 797.5 Q207 825 207 875 Q207 925 235.5 952.5 Q264 980 316 980 Q368 980 396.5 952.5 Q425 925 425 875 Q425 825 396.5 797.5 Q368 770 316 770 Z M316 938 Q260 938 260 875 Q260 812 316 812 Q372 812 372 875 Q372 938 316 938 Z M458 199 L173 199 L110 0 L32 0 L275 724 L357 724 L600 0 L521 0 L458 199 Z M437 263 L315 649 L193 263 L437 263 Z " />
<glyph glyph-name="Atilde" unicode="&#xc3;" horiz-adv-x="632" d="M248 859 Q214 859 208 792 L162 792 Q163 851 186 884 Q209 917 250 917 Q275 917 293.5 906.5 Q312 896 335 876 Q351 862 362 855 Q373 848 384 848 Q418 848 424 915 L470 915 Q469 856 446 823 Q423 790 382 790 Q357 790 338.5 800.5 Q320 811 297 831 Q281 845 270 852 Q259 859 248 859 Z M458 199 L173 199 L110 0 L32 0 L275 724 L357 724 L600 0 L521 0 L458 199 Z M437 263 L315 649 L193 263 L437 263 Z " />
<glyph glyph-name="AE" unicode="&#xc6;" horiz-adv-x="840" d="M800 64 L800 0 L408 0 L408 191 L169 191 L74 0 L-6 0 L361 724 L435 724 L788 724 L788 660 L478 660 L478 404 L706 404 L706 339 L478 339 L478 64 L800 64 Z M408 255 L408 670 L201 255 L408 255 Z " />
<glyph glyph-name="B" unicode="B" horiz-adv-x="602" d="M424 382 Q554 350 554 204 Q554 108 499.5 54 Q445 0 348 0 L136 0 L90 0 L90 724 L162 724 L314 724 Q409 724 462 672 Q515 620 515 527 Q515 406 424 382 Z M162 660 L162 404 L314 404 Q376 404 408 435 Q440 466 440 527 Q440 592 407.5 626 Q375 660 311 660 L162 660 Z M352 64 Q414 64 446 99.5 Q478 135 478 204 Q478 271 445 306 Q412 341 348 341 L162 341 L162 64 L352 64 Z " />
<glyph glyph-name="C" unicode="C" horiz-adv-x="559" d="M349 -11 Q255 -11 187.5 31.5 Q120 74 84 155 Q48 236 48 348 Q48 464 84.5 552 Q121 640 188 688 Q255 736 344 736 Q389 736 434.5 723.5 Q480 711 517 689 L492 631 Q415 670 343 670 Q240 670 182 587 Q124 504 124 355 Q124 208 182.5 132 Q241 56 355 56 Q433 56 497 91 L523 34 Q491 13 445 1 Q399 -11 349 -11 Z " />
<glyph glyph-name="Cacute" unicode="&#x106;" horiz-adv-x="559" d="M271 793 L416 926 L507 926 L507 914 L333 781 L271 781 L271 793 Z M349 -11 Q255 -11 187.5 31.5 Q120 74 84 155 Q48 236 48 348 Q48 464 84.5 552 Q121 640 188 688 Q255 736 344 736 Q389 736 434.5 723.5 Q480 711 517 689 L492 631 Q415 670 343 670 Q240 670 182 587 Q124 504 124 355 Q124 208 182.5 132 Q241 56 355 56 Q433 56 497 91 L523 34 Q491 13 445 1 Q399 -11 349 -11 Z " />
<glyph glyph-name="Ccaron" unicode="&#x10c;" horiz-adv-x="559" d="M290 781 L180 914 L180 926 L237 926 L331 830 L424 926 L478 926 L478 914 L368 781 L290 781 Z M523 34 Q491 13 445 1 Q399 -11 349 -11 Q255 -11 187.5 31.5 Q120 74 84 155 Q48 236 48 348 Q48 464 84.5 552 Q121 640 188 688 Q255 736 344 736 Q389 736 434.5 723.5 Q480 711 517 689 L492 631 Q415 670 343 670 Q240 670 182 587 Q124 504 124 355 Q124 208 182.5 132 Q241 56 355 56 Q433 56 497 91 L523 34 Z " />
<glyph glyph-name="Ccedilla" unicode="&#xc7;" horiz-adv-x="559" d="M336 -61 Q382 -61 407.5 -82 Q433 -103 433 -140 Q433 -181 404.5 -203.5 Q376 -226 325 -226 Q271 -226 232 -203 L246 -162 Q290 -181 325 -181 Q374 -181 374 -140 Q374 -99 328 -99 Q305 -99 285 -108 L267 -87 L299 -8 Q180 9 114 102 Q48 195 48 348 Q48 464 84.5 552 Q121 640 188 688 Q255 736 344 736 Q389 736 434.5 723.5 Q480 711 517 689 L492 631 Q415 670 343 670 Q240 670 182 587 Q124 504 124 355 Q124 208 182.5 132 Q241 56 355 56 Q433 56 497 91 L523 34 Q491 13 445 1 Q399 -11 349 -11 L316 -64 Q327 -61 336 -61 Z " />
<glyph glyph-name="Ccircumflex" unicode="&#x108;" horiz-adv-x="559" d="M234 781 L180 781 L180 793 L290 926 L368 926 L478 793 L478 781 L421 781 L328 877 L234 781 Z M523 34 Q491 13 445 1 Q399 -11 349 -11 Q255 -11 187.5 31.5 Q120 74 84 155 Q48 236 48 348 Q48 464 84.5 552 Q121 640 188 688 Q255 736 344 736 Q389 736 434.5 723.5 Q480 711 517 689 L492 631 Q415 670 343 670 Q240 670 182 587 Q124 504 124 355 Q124 208 182.5 132 Q241 56 355 56 Q433 56 497 91 L523 34 Z " />
<glyph glyph-name="Cdotaccent" unicode="&#x10a;" horiz-adv-x="559" d="M329 801 Q306 801 293 814.5 Q280 828 280 853 Q280 878 293 892 Q306 906 329 906 Q352 906 365 892.5 Q378 879 378 854 Q378 829 365 815 Q352 801 329 801 Z M349 -11 Q255 -11 187.5 31.5 Q120 74 84 155 Q48 236 48 348 Q48 464 84.5 552 Q121 640 188 688 Q255 736 344 736 Q389 736 434.5 723.5 Q480 711 517 689 L492 631 Q415 670 343 670 Q240 670 182 587 Q124 504 124 355 Q124 208 182.5 132 Q241 56 355 56 Q433 56 497 91 L523 34 Q491 13 445 1 Q399 -11 349 -11 Z " />
<glyph glyph-name="D" unicode="D" horiz-adv-x="645" d="M272 724 Q425 724 506 632 Q587 540 587 362 Q587 184 505 92 Q423 0 268 0 L90 0 L90 724 L272 724 Z M272 64 Q390 64 450.5 139.5 Q511 215 511 362 Q511 509 449.5 584.5 Q388 660 268 660 L162 660 L162 64 L272 64 Z " />
<glyph glyph-name="Eth" unicode="&#xd0;" horiz-adv-x="645" d="M272 724 Q425 724 506 632 Q587 540 587 362 Q587 184 505 92 Q423 0 268 0 L90 0 L90 336 L27 336 L27 398 L90 398 L90 724 L272 724 Z M272 64 Q390 64 450.5 139.5 Q511 215 511 362 Q511 509 449.5 584.5 Q388 660 268 660 L162 660 L162 398 L343 398 L343 336 L162 336 L162 64 L272 64 Z " />
<glyph glyph-name="Dcaron" unicode="&#x10e;" horiz-adv-x="645" d="M277 781 L167 914 L167 926 L224 926 L318 830 L411 926 L465 926 L465 914 L355 781 L277 781 Z M272 724 Q425 724 506 632 Q587 540 587 362 Q587 184 505 92 Q423 0 268 0 L90 0 L90 724 L272 724 Z M272 64 Q390 64 450.5 139.5 Q511 215 511 362 Q511 509 449.5 584.5 Q388 660 268 660 L162 660 L162 64 L272 64 Z " />
<glyph glyph-name="Dcroat" unicode="&#x110;" horiz-adv-x="645" d="M272 724 Q425 724 506 632 Q587 540 587 362 Q587 184 505 92 Q423 0 268 0 L90 0 L90 336 L27 336 L27 398 L90 398 L90 724 L272 724 Z M272 64 Q390 64 450.5 139.5 Q511 215 511 362 Q511 509 449.5 584.5 Q388 660 268 660 L162 660 L162 398 L343 398 L343 336 L162 336 L162 64 L272 64 Z " />
<glyph glyph-name="uni1E0C" unicode="&#x1e0c;" horiz-adv-x="645" d="M272 724 Q425 724 506 632 Q587 540 587 362 Q587 184 505 92 Q423 0 268 0 L90 0 L90 724 L272 724 Z M272 64 Q390 64 450.5 139.5 Q511 215 511 362 Q511 509 449.5 584.5 Q388 660 268 660 L162 660 L162 64 L272 64 Z M313 -203 Q290 -203 277 -189.5 Q264 -176 264 -151 Q264 -126 277 -112 Q290 -98 313 -98 Q336 -98 349 -111.5 Q362 -125 362 -150 Q362 -175 349 -189 Q336 -203 313 -203 Z " />
<glyph glyph-name="uni1E0E" unicode="&#x1e0e;" horiz-adv-x="645" d="M272 724 Q425 724 506 632 Q587 540 587 362 Q587 184 505 92 Q423 0 268 0 L90 0 L90 724 L272 724 Z M272 64 Q390 64 450.5 139.5 Q511 215 511 362 Q511 509 449.5 584.5 Q388 660 268 660 L162 660 L162 64 L272 64 Z M179 -109 L447 -109 L447 -164 L179 -164 L179 -109 Z " />
<glyph glyph-name="E" unicode="E" horiz-adv-x="536" d="M496 64 L496 0 L90 0 L90 724 L484 724 L484 660 L162 660 L162 403 L402 403 L402 338 L162 338 L162 64 L496 64 Z " />
<glyph glyph-name="Eacute" unicode="&#xc9;" horiz-adv-x="536" d="M298 781 L236 781 L236 793 L381 926 L472 926 L472 914 L298 781 Z M496 64 L496 0 L90 0 L90 724 L484 724 L484 660 L162 660 L162 403 L402 403 L402 338 L162 338 L162 64 L496 64 Z " />
<glyph glyph-name="Ebreve" unicode="&#x114;" horiz-adv-x="536" d="M294 786 Q235 786 200 824 Q165 862 162 930 L210 930 Q222 845 295 845 Q369 845 381 930 L426 930 Q423 862 388 824 Q353 786 294 786 Z M496 64 L496 0 L90 0 L90 724 L484 724 L484 660 L162 660 L162 403 L402 403 L402 338 L162 338 L162 64 L496 64 Z " />
<glyph glyph-name="Ecaron" unicode="&#x11a;" horiz-adv-x="536" d="M255 781 L145 914 L145 926 L202 926 L296 830 L389 926 L443 926 L443 914 L333 781 L255 781 Z M496 64 L496 0 L90 0 L90 724 L484 724 L484 660 L162 660 L162 403 L402 403 L402 338 L162 338 L162 64 L496 64 Z " />
<glyph glyph-name="Ecircumflex" unicode="&#xca;" horiz-adv-x="536" d="M199 781 L145 781 L145 793 L255 926 L333 926 L443 793 L443 781 L386 781 L293 877 L199 781 Z M496 64 L496 0 L90 0 L90 724 L484 724 L484 660 L162 660 L162 403 L402 403 L402 338 L162 338 L162 64 L496 64 Z " />
<glyph glyph-name="uni1EBE" unicode="&#x1ebe;" horiz-adv-x="536" d="M539 1021 L539 1011 L443 884 L399 884 L399 894 L474 1021 L539 1021 Z M208 785 L160 785 L160 795 L258 934 L330 934 L428 795 L428 785 L377 785 L293 885 L208 785 Z M162 64 L496 64 L496 0 L90 0 L90 724 L484 724 L484 660 L162 660 L162 403 L402 403 L402 338 L162 338 L162 64 Z " />
<glyph glyph-name="uni1EC6" unicode="&#x1ec6;" horiz-adv-x="536" d="M199 781 L145 781 L145 793 L255 926 L333 926 L443 793 L443 781 L386 781 L293 877 L199 781 Z M496 64 L496 0 L90 0 L90 724 L484 724 L484 660 L162 660 L162 403 L402 403 L402 338 L162 338 L162 64 L496 64 Z M295 -98 Q318 -98 331 -111.5 Q344 -125 344 -150 Q344 -175 331 -189 Q318 -203 295 -203 Q272 -203 259 -189.5 Q246 -176 246 -151 Q246 -126 259 -112 Q272 -98 295 -98 Z " />
<glyph glyph-name="uni1EC0" unicode="&#x1ec0;" horiz-adv-x="536" d="M145 884 L55 1011 L55 1021 L120 1021 L189 894 L189 884 L145 884 Z M160 795 L258 934 L330 934 L428 795 L428 785 L377 785 L293 885 L208 785 L160 785 L160 795 Z M496 64 L496 0 L90 0 L90 724 L484 724 L484 660 L162 660 L162 403 L402 403 L402 338 L162 338 L162 64 L496 64 Z " />
<glyph glyph-name="uni1EC2" unicode="&#x1ec2;" horiz-adv-x="536" d="M423 992 Q401 992 370 974 L353 1010 Q389 1034 432 1034 Q467 1034 486.5 1017 Q506 1000 506 970 Q506 948 496.5 938.5 Q487 929 470 922 Q458 917 453 913 Q448 909 448 900 L450 882 L398 882 Q396 894 396 903 Q396 921 404 929 Q412 937 426 943 Q439 949 444 954 Q449 959 449 970 Q449 992 423 992 Z M208 785 L160 785 L160 795 L258 934 L330 934 L428 795 L428 785 L377 785 L293 885 L208 785 Z M162 64 L496 64 L496 0 L90 0 L90 724 L484 724 L484 660 L162 660 L162 403 L402 403 L402 338 L162 338 L162 64 Z " />
<glyph glyph-name="uni1EC4" unicode="&#x1ec4;" horiz-adv-x="536" d="M236 994 Q202 994 197 937 L156 937 Q156 988 178 1016.5 Q200 1045 239 1045 Q262 1045 277.5 1036 Q293 1027 310 1010 Q322 998 331 992 Q340 986 352 986 Q386 986 391 1043 L432 1043 Q432 992 410 963.5 Q388 935 349 935 Q326 935 310.5 944 Q295 953 278 970 Q266 982 257 988 Q248 994 236 994 Z M330 914 L428 785 L428 775 L377 775 L293 867 L208 775 L160 775 L160 785 L258 914 L330 914 Z M496 64 L496 0 L90 0 L90 724 L484 724 L484 660 L162 660 L162 403 L402 403 L402 338 L162 338 L162 64 L496 64 Z " />
<glyph glyph-name="Edieresis" unicode="&#xcb;" horiz-adv-x="536" d="M205 801 Q183 801 171 814 Q159 827 159 851 Q159 874 171 888 Q183 902 205 902 Q227 902 239.5 888.5 Q252 875 252 852 Q252 828 239.5 814.5 Q227 801 205 801 Z M382 801 Q360 801 348 814 Q336 827 336 851 Q336 874 348 888 Q360 902 382 902 Q404 902 416.5 888.5 Q429 875 429 852 Q429 828 416.5 814.5 Q404 801 382 801 Z M496 64 L496 0 L90 0 L90 724 L484 724 L484 660 L162 660 L162 403 L402 403 L402 338 L162 338 L162 64 L496 64 Z " />
<glyph glyph-name="Edotaccent" unicode="&#x116;" horiz-adv-x="536" d="M294 801 Q271 801 258 814.5 Q245 828 245 853 Q245 878 258 892 Q271 906 294 906 Q317 906 330 892.5 Q343 879 343 854 Q343 829 330 815 Q317 801 294 801 Z M496 64 L496 0 L90 0 L90 724 L484 724 L484 660 L162 660 L162 403 L402 403 L402 338 L162 338 L162 64 L496 64 Z " />
<glyph glyph-name="uni1EB8" unicode="&#x1eb8;" horiz-adv-x="536" d="M496 64 L496 0 L90 0 L90 724 L484 724 L484 660 L162 660 L162 403 L402 403 L402 338 L162 338 L162 64 L496 64 Z M295 -203 Q272 -203 259 -189.5 Q246 -176 246 -151 Q246 -126 259 -112 Q272 -98 295 -98 Q318 -98 331 -111.5 Q344 -125 344 -150 Q344 -175 331 -189 Q318 -203 295 -203 Z " />
<glyph glyph-name="Egrave" unicode="&#xc8;" horiz-adv-x="536" d="M289 781 L124 914 L124 926 L215 926 L351 793 L351 781 L289 781 Z M496 64 L496 0 L90 0 L90 724 L484 724 L484 660 L162 660 L162 403 L402 403 L402 338 L162 338 L162 64 L496 64 Z " />
<glyph glyph-name="uni1EBA" unicode="&#x1eba;" horiz-adv-x="536" d="M296 890 Q267 890 230 868 L210 909 Q251 939 305 939 Q344 939 366 922 Q388 905 388 874 Q388 851 377.5 840.5 Q367 830 347 822 Q334 817 327.5 812 Q321 807 321 798 L323 781 L265 781 Q263 793 263 803 Q263 820 272 828.5 Q281 837 298 844 Q310 850 316.5 855.5 Q323 861 323 870 Q323 890 296 890 Z M496 64 L496 0 L90 0 L90 724 L484 724 L484 660 L162 660 L162 403 L402 403 L402 338 L162 338 L162 64 L496 64 Z " />
<glyph glyph-name="Emacron" unicode="&#x112;" horiz-adv-x="536" d="M428 812 L160 812 L160 867 L428 867 L428 812 Z M496 64 L496 0 L90 0 L90 724 L484 724 L484 660 L162 660 L162 403 L402 403 L402 338 L162 338 L162 64 L496 64 Z " />
<glyph glyph-name="Eogonek" unicode="&#x118;" horiz-adv-x="536" d="M539 -187 Q521 -201 496 -208.5 Q471 -216 445 -216 Q400 -216 375 -192.5 Q350 -169 350 -128 Q350 -91 370.5 -57 Q391 -23 428 0 L90 0 L90 724 L484 724 L484 660 L162 660 L162 403 L402 403 L402 338 L162 338 L162 64 L496 64 L496 0 Q413 -50 413 -114 Q413 -161 460 -161 Q490 -161 521 -143 L539 -187 Z " />
<glyph glyph-name="uni1EBC" unicode="&#x1ebc;" horiz-adv-x="536" d="M226 859 Q192 859 186 792 L140 792 Q141 851 164 884 Q187 917 228 917 Q253 917 271.5 906.5 Q290 896 313 876 Q329 862 340 855 Q351 848 362 848 Q396 848 402 915 L448 915 Q447 856 424 823 Q401 790 360 790 Q335 790 316.5 800.5 Q298 811 275 831 Q259 845 248 852 Q237 859 226 859 Z M496 64 L496 0 L90 0 L90 724 L484 724 L484 660 L162 660 L162 403 L402 403 L402 338 L162 338 L162 64 L496 64 Z " />
<glyph glyph-name="F" unicode="F" horiz-adv-x="498" d="M162 660 L162 391 L420 391 L420 326 L162 326 L162 0 L90 0 L90 724 L478 724 L478 660 L162 660 Z " />
<glyph glyph-name="G" unicode="G" horiz-adv-x="624" d="M554 377 L554 37 Q517 14 466.5 1 Q416 -12 363 -12 Q268 -12 199 32.5 Q130 77 94 161 Q58 245 58 362 Q58 479 94 563 Q130 647 199 691.5 Q268 736 363 736 Q414 736 460 724 Q506 712 538 691 L515 631 Q441 671 361 671 Q249 671 191.5 592.5 Q134 514 134 362 Q134 209 192 130.5 Q250 52 363 52 Q422 52 482 72 L482 313 L356 313 L356 377 L554 377 Z " />
<glyph glyph-name="Gbreve" unicode="&#x11e;" horiz-adv-x="624" d="M337 786 Q278 786 243 824 Q208 862 205 930 L253 930 Q265 845 338 845 Q412 845 424 930 L469 930 Q466 862 431 824 Q396 786 337 786 Z M554 377 L554 37 Q517 14 466.5 1 Q416 -12 363 -12 Q268 -12 199 32.5 Q130 77 94 161 Q58 245 58 362 Q58 479 94 563 Q130 647 199 691.5 Q268 736 363 736 Q414 736 460 724 Q506 712 538 691 L515 631 Q441 671 361 671 Q249 671 191.5 592.5 Q134 514 134 362 Q134 209 192 130.5 Q250 52 363 52 Q422 52 482 72 L482 313 L356 313 L356 377 L554 377 Z " />
<glyph glyph-name="Gcaron" unicode="&#x1e6;" horiz-adv-x="624" d="M298 781 L188 914 L188 926 L245 926 L339 830 L432 926 L486 926 L486 914 L376 781 L298 781 Z M554 377 L554 37 Q517 14 466.5 1 Q416 -12 363 -12 Q268 -12 199 32.5 Q130 77 94 161 Q58 245 58 362 Q58 479 94 563 Q130 647 199 691.5 Q268 736 363 736 Q414 736 460 724 Q506 712 538 691 L515 631 Q441 671 361 671 Q249 671 191.5 592.5 Q134 514 134 362 Q134 209 192 130.5 Q250 52 363 52 Q422 52 482 72 L482 313 L356 313 L356 377 L554 377 Z " />
<glyph glyph-name="Gcircumflex" unicode="&#x11c;" horiz-adv-x="624" d="M242 781 L188 781 L188 793 L298 926 L376 926 L486 793 L486 781 L429 781 L336 877 L242 781 Z M554 377 L554 37 Q517 14 466.5 1 Q416 -12 363 -12 Q268 -12 199 32.5 Q130 77 94 161 Q58 245 58 362 Q58 479 94 563 Q130 647 199 691.5 Q268 736 363 736 Q414 736 460 724 Q506 712 538 691 L515 631 Q441 671 361 671 Q249 671 191.5 592.5 Q134 514 134 362 Q134 209 192 130.5 Q250 52 363 52 Q422 52 482 72 L482 313 L356 313 L356 377 L554 377 Z " />
<glyph glyph-name="Gcommaaccent" unicode="&#x122;" horiz-adv-x="624" d="M554 377 L554 37 Q517 14 466.5 1 Q416 -12 363 -12 Q268 -12 199 32.5 Q130 77 94 161 Q58 245 58 362 Q58 479 94 563 Q130 647 199 691.5 Q268 736 363 736 Q414 736 460 724 Q506 712 538 691 L515 631 Q441 671 361 671 Q249 671 191.5 592.5 Q134 514 134 362 Q134 209 192 130.5 Q250 52 363 52 Q422 52 482 72 L482 313 L356 313 L356 377 L554 377 Z M260 -238 Q285 -211 294.5 -184.5 Q304 -158 304 -116 Q304 -101 302 -83 L372 -83 Q374 -101 374 -115 Q374 -161 354 -196.5 Q334 -232 288 -268 L260 -238 Z " />
<glyph glyph-name="Gdotaccent" unicode="&#x120;" horiz-adv-x="624" d="M337 801 Q314 801 301 814.5 Q288 828 288 853 Q288 878 301 892 Q314 906 337 906 Q360 906 373 892.5 Q386 879 386 854 Q386 829 373 815 Q360 801 337 801 Z M554 377 L554 37 Q517 14 466.5 1 Q416 -12 363 -12 Q268 -12 199 32.5 Q130 77 94 161 Q58 245 58 362 Q58 479 94 563 Q130 647 199 691.5 Q268 736 363 736 Q414 736 460 724 Q506 712 538 691 L515 631 Q441 671 361 671 Q249 671 191.5 592.5 Q134 514 134 362 Q134 209 192 130.5 Q250 52 363 52 Q422 52 482 72 L482 313 L356 313 L356 377 L554 377 Z " />
<glyph glyph-name="uni1E20" unicode="&#x1e20;" horiz-adv-x="624" d="M471 812 L203 812 L203 867 L471 867 L471 812 Z M554 377 L554 37 Q517 14 466.5 1 Q416 -12 363 -12 Q268 -12 199 32.5 Q130 77 94 161 Q58 245 58 362 Q58 479 94 563 Q130 647 199 691.5 Q268 736 363 736 Q414 736 460 724 Q506 712 538 691 L515 631 Q441 671 361 671 Q249 671 191.5 592.5 Q134 514 134 362 Q134 209 192 130.5 Q250 52 363 52 Q422 52 482 72 L482 313 L356 313 L356 377 L554 377 Z " />
<glyph glyph-name="H" unicode="H" horiz-adv-x="656" d="M566 724 L566 0 L494 0 L494 336 L162 336 L162 0 L90 0 L90 724 L162 724 L162 400 L494 400 L494 724 L566 724 Z " />
<glyph glyph-name="Hbar" unicode="&#x126;" horiz-adv-x="657" d="M631 532 L566 532 L566 0 L494 0 L494 336 L162 336 L162 0 L90 0 L90 532 L26 532 L26 591 L90 591 L90 724 L162 724 L162 591 L494 591 L494 724 L566 724 L566 591 L631 591 L631 532 Z M494 532 L162 532 L162 400 L494 400 L494 532 Z " />
<glyph glyph-name="uni1E2A" unicode="&#x1e2a;" horiz-adv-x="656" d="M566 724 L566 0 L494 0 L494 336 L162 336 L162 0 L90 0 L90 724 L162 724 L162 400 L494 400 L494 724 L566 724 Z M328 -221 Q269 -221 234 -183 Q199 -145 196 -77 L244 -77 Q256 -162 329 -162 Q403 -162 415 -77 L460 -77 Q457 -145 422 -183 Q387 -221 328 -221 Z " />
<glyph glyph-name="Hcircumflex" unicode="&#x124;" horiz-adv-x="656" d="M233 781 L179 781 L179 793 L289 926 L367 926 L477 793 L477 781 L420 781 L327 877 L233 781 Z M566 724 L566 0 L494 0 L494 336 L162 336 L162 0 L90 0 L90 724 L162 724 L162 400 L494 400 L494 724 L566 724 Z " />
<glyph glyph-name="uni1E24" unicode="&#x1e24;" horiz-adv-x="656" d="M566 724 L566 0 L494 0 L494 336 L162 336 L162 0 L90 0 L90 724 L162 724 L162 400 L494 400 L494 724 L566 724 Z M328 -203 Q305 -203 292 -189.5 Q279 -176 279 -151 Q279 -126 292 -112 Q305 -98 328 -98 Q351 -98 364 -111.5 Q377 -125 377 -150 Q377 -175 364 -189 Q351 -203 328 -203 Z " />
<glyph glyph-name="I" unicode="I" horiz-adv-x="256" d="M92 724 L164 724 L164 0 L92 0 L92 724 Z " />
<glyph glyph-name="IJ" unicode="&#x132;" horiz-adv-x="600" d="M90 724 L162 724 L162 0 L90 0 L90 724 Z M357 -12 Q325 -12 292 -4 Q259 4 233 18 L255 79 Q312 53 357 53 Q406 53 431 85.5 Q456 118 456 180 L456 724 L528 724 L528 180 Q528 89 482.5 38.5 Q437 -12 357 -12 Z " />
<glyph glyph-name="Iacute" unicode="&#xcd;" horiz-adv-x="256" d="M70 793 L215 926 L306 926 L306 914 L132 781 L70 781 L70 793 Z M92 724 L164 724 L164 0 L92 0 L92 724 Z " />
<glyph glyph-name="uni01CF" unicode="&#x1cf;" horiz-adv-x="256" d="M277 926 L277 914 L167 781 L89 781 L-21 914 L-21 926 L36 926 L130 830 L223 926 L277 926 Z M92 724 L164 724 L164 0 L92 0 L92 724 Z " />
<glyph glyph-name="Icircumflex" unicode="&#xce;" horiz-adv-x="256" d="M277 793 L277 781 L220 781 L127 877 L33 781 L-21 781 L-21 793 L89 926 L167 926 L277 793 Z M92 724 L164 724 L164 0 L92 0 L92 724 Z " />
<glyph glyph-name="Idieresis" unicode="&#xcf;" horiz-adv-x="256" d="M39 801 Q17 801 5 814 Q-7 827 -7 851 Q-7 874 5 888 Q17 902 39 902 Q61 902 73.5 888.5 Q86 875 86 852 Q86 828 73.5 814.5 Q61 801 39 801 Z M216 801 Q194 801 182 814 Q170 827 170 851 Q170 874 182 888 Q194 902 216 902 Q238 902 250.5 888.5 Q263 875 263 852 Q263 828 250.5 814.5 Q238 801 216 801 Z M92 724 L164 724 L164 0 L92 0 L92 724 Z " />
<glyph glyph-name="Idot" unicode="&#x130;" horiz-adv-x="256" d="M128 801 Q105 801 92 814.5 Q79 828 79 853 Q79 878 92 892 Q105 906 128 906 Q151 906 164 892.5 Q177 879 177 854 Q177 829 164 815 Q151 801 128 801 Z M92 724 L164 724 L164 0 L92 0 L92 724 Z " />
<glyph glyph-name="uni1ECA" unicode="&#x1eca;" horiz-adv-x="256" d="M92 724 L164 724 L164 0 L92 0 L92 724 Z M128 -203 Q105 -203 92 -189.5 Q79 -176 79 -151 Q79 -126 92 -112 Q105 -98 128 -98 Q151 -98 164 -111.5 Q177 -125 177 -150 Q177 -175 164 -189 Q151 -203 128 -203 Z " />
<glyph glyph-name="Igrave" unicode="&#xcc;" horiz-adv-x="256" d="M-42 914 L-42 926 L49 926 L185 793 L185 781 L123 781 L-42 914 Z M92 724 L164 724 L164 0 L92 0 L92 724 Z " />
<glyph glyph-name="uni1EC8" unicode="&#x1ec8;" horiz-adv-x="256" d="M99 781 Q97 793 97 803 Q97 820 106 828.5 Q115 837 132 844 Q144 850 150.5 855.5 Q157 861 157 870 Q157 890 130 890 Q101 890 64 868 L44 909 Q85 939 139 939 Q178 939 200 922 Q222 905 222 874 Q222 851 211.5 840.5 Q201 830 181 822 Q168 817 161.5 812 Q155 807 155 798 L157 781 L99 781 Z M92 724 L164 724 L164 0 L92 0 L92 724 Z " />
<glyph glyph-name="Imacron" unicode="&#x12a;" horiz-adv-x="256" d="M-6 867 L262 867 L262 812 L-6 812 L-6 867 Z M92 724 L164 724 L164 0 L92 0 L92 724 Z " />
<glyph glyph-name="Iogonek" unicode="&#x12e;" horiz-adv-x="256" d="M224 -187 Q206 -201 181 -208.5 Q156 -216 130 -216 Q85 -216 60 -192.5 Q35 -169 35 -128 Q35 -95 52.5 -61 Q70 -27 101 0 L92 0 L92 724 L164 724 L164 0 Q98 -58 98 -114 Q98 -161 145 -161 Q175 -161 206 -143 L224 -187 Z " />
<glyph glyph-name="Itilde" unicode="&#x128;" horiz-adv-x="256" d="M183 790 Q159 790 143.5 801 Q128 812 111 832 Q98 847 90 853.5 Q82 860 71 860 Q41 860 36 792 L-9 792 Q-9 851 12.5 884 Q34 917 73 917 Q97 917 112.5 906 Q128 895 145 875 Q158 860 166 853.5 Q174 847 185 847 Q215 847 220 915 L265 915 Q265 856 243.5 823 Q222 790 183 790 Z M92 724 L164 724 L164 0 L92 0 L92 724 Z " />
<glyph glyph-name="J" unicode="J" horiz-adv-x="420" d="M147 -12 Q104 -12 67.5 -0.5 Q31 11 6 32 L32 90 Q86 53 147 53 Q204 53 233.5 83 Q263 113 263 171 L263 724 L335 724 L335 171 Q335 84 285.5 36 Q236 -12 147 -12 Z " />
<glyph glyph-name="Jcircumflex" unicode="&#x134;" horiz-adv-x="420" d="M448 793 L448 781 L391 781 L298 877 L204 781 L150 781 L150 793 L260 926 L338 926 L448 793 Z M263 724 L335 724 L335 171 Q335 84 285.5 36 Q236 -12 147 -12 Q104 -12 67.5 -0.5 Q31 11 6 32 L32 90 Q86 53 147 53 Q204 53 233.5 83 Q263 113 263 171 L263 724 Z " />
<glyph glyph-name="K" unicode="K" horiz-adv-x="578" d="M251 334 L162 222 L162 0 L90 0 L90 724 L162 724 L162 318 L469 724 L559 724 L299 394 L574 0 L484 0 L251 334 Z " />
<glyph glyph-name="Kcommaaccent" unicode="&#x136;" horiz-adv-x="578" d="M251 334 L162 222 L162 0 L90 0 L90 724 L162 724 L162 318 L469 724 L559 724 L299 394 L574 0 L484 0 L251 334 Z M238 -238 Q263 -211 272.5 -184.5 Q282 -158 282 -116 Q282 -101 280 -83 L350 -83 Q352 -101 352 -115 Q352 -161 332 -196.5 Q312 -232 266 -268 L238 -238 Z " />
<glyph glyph-name="L" unicode="L" horiz-adv-x="489" d="M467 65 L467 0 L90 0 L90 724 L162 724 L162 65 L467 65 Z " />
<glyph glyph-name="Lacute" unicode="&#x139;" horiz-adv-x="489" d="M147 781 L85 781 L85 793 L230 926 L321 926 L321 914 L147 781 Z M467 65 L467 0 L90 0 L90 724 L162 724 L162 65 L467 65 Z " />
<glyph glyph-name="Lcaron" unicode="&#x13d;" horiz-adv-x="489" d="M326 560 L284 560 L284 770 L354 770 L354 760 L326 560 Z M467 65 L467 0 L90 0 L90 724 L162 724 L162 65 L467 65 Z " />
<glyph glyph-name="Lcommaaccent" unicode="&#x13b;" horiz-adv-x="489" d="M467 65 L467 0 L90 0 L90 724 L162 724 L162 65 L467 65 Z M203 -238 Q228 -211 237.5 -184.5 Q247 -158 247 -116 Q247 -101 245 -83 L315 -83 Q317 -101 317 -115 Q317 -161 297 -196.5 Q277 -232 231 -268 L203 -238 Z " />
<glyph glyph-name="Ldot" unicode="&#x13f;" horiz-adv-x="489" d="M467 65 L467 0 L90 0 L90 724 L162 724 L162 65 L467 65 Z M364 338 Q341 338 328 351.5 Q315 365 315 390 Q315 415 328 429 Q341 443 364 443 Q387 443 400 429.5 Q413 416 413 391 Q413 366 400 352 Q387 338 364 338 Z " />
<glyph glyph-name="uni1E36" unicode="&#x1e36;" horiz-adv-x="489" d="M467 65 L467 0 L90 0 L90 724 L162 724 L162 65 L467 65 Z M280 -203 Q257 -203 244 -189.5 Q231 -176 231 -151 Q231 -126 244 -112 Q257 -98 280 -98 Q303 -98 316 -111.5 Q329 -125 329 -150 Q329 -175 316 -189 Q303 -203 280 -203 Z " />
<glyph glyph-name="uni1E38" unicode="&#x1e38;" horiz-adv-x="489" d="M279 812 L11 812 L11 867 L279 867 L279 812 Z M467 65 L467 0 L90 0 L90 724 L162 724 L162 65 L467 65 Z M280 -98 Q303 -98 316 -111.5 Q329 -125 329 -150 Q329 -175 316 -189 Q303 -203 280 -203 Q257 -203 244 -189.5 Q231 -176 231 -151 Q231 -126 244 -112 Q257 -98 280 -98 Z " />
<glyph glyph-name="uni1E3A" unicode="&#x1e3a;" horiz-adv-x="489" d="M467 65 L467 0 L90 0 L90 724 L162 724 L162 65 L467 65 Z M146 -109 L414 -109 L414 -164 L146 -164 L146 -109 Z " />
<glyph glyph-name="Lslash" unicode="&#x141;" horiz-adv-x="493" d="M471 65 L471 0 L94 0 L94 267 L44 233 L34 233 L34 296 L94 333 L94 724 L166 724 L166 378 L373 514 L383 514 L383 451 L166 314 L166 65 L471 65 Z " />
<glyph glyph-name="M" unicode="M" horiz-adv-x="791" d="M701 724 L701 0 L631 0 L631 607 L433 151 L357 151 L159 607 L159 0 L90 0 L90 724 L177 724 L396 220 L614 724 L701 724 Z " />
<glyph glyph-name="uni1E42" unicode="&#x1e42;" horiz-adv-x="791" d="M701 724 L701 0 L631 0 L631 607 L433 151 L357 151 L159 607 L159 0 L90 0 L90 724 L177 724 L396 220 L614 724 L701 724 Z M396 -203 Q373 -203 360 -189.5 Q347 -176 347 -151 Q347 -126 360 -112 Q373 -98 396 -98 Q419 -98 432 -111.5 Q445 -125 445 -150 Q445 -175 432 -189 Q419 -203 396 -203 Z " />
<glyph glyph-name="N" unicode="N" horiz-adv-x="676" d="M586 724 L586 0 L519 0 L160 596 L160 0 L90 0 L90 724 L157 724 L516 128 L516 724 L586 724 Z " />
<glyph glyph-name="Nacute" unicode="&#x143;" horiz-adv-x="676" d="M343 781 L281 781 L281 793 L426 926 L517 926 L517 914 L343 781 Z M586 724 L586 0 L519 0 L160 596 L160 0 L90 0 L90 724 L157 724 L516 128 L516 724 L586 724 Z " />
<glyph glyph-name="Ncaron" unicode="&#x147;" horiz-adv-x="676" d="M300 781 L190 914 L190 926 L247 926 L341 830 L434 926 L488 926 L488 914 L378 781 L300 781 Z M586 724 L586 0 L519 0 L160 596 L160 0 L90 0 L90 724 L157 724 L516 128 L516 724 L586 724 Z " />
<glyph glyph-name="Ncommaaccent" unicode="&#x145;" horiz-adv-x="676" d="M586 724 L586 0 L519 0 L160 596 L160 0 L90 0 L90 724 L157 724 L516 128 L516 724 L586 724 Z M262 -238 Q287 -211 296.5 -184.5 Q306 -158 306 -116 Q306 -101 304 -83 L374 -83 Q376 -101 376 -115 Q376 -161 356 -196.5 Q336 -232 290 -268 L262 -238 Z " />
<glyph glyph-name="uni1E44" unicode="&#x1e44;" horiz-adv-x="676" d="M339 801 Q316 801 303 814.5 Q290 828 290 853 Q290 878 303 892 Q316 906 339 906 Q362 906 375 892.5 Q388 879 388 854 Q388 829 375 815 Q362 801 339 801 Z M586 724 L586 0 L519 0 L160 596 L160 0 L90 0 L90 724 L157 724 L516 128 L516 724 L586 724 Z " />
<glyph glyph-name="uni1E46" unicode="&#x1e46;" horiz-adv-x="676" d="M586 724 L586 0 L519 0 L160 596 L160 0 L90 0 L90 724 L157 724 L516 128 L516 724 L586 724 Z M339 -203 Q316 -203 303 -189.5 Q290 -176 290 -151 Q290 -126 303 -112 Q316 -98 339 -98 Q362 -98 375 -111.5 Q388 -125 388 -150 Q388 -175 375 -189 Q362 -203 339 -203 Z " />
<glyph glyph-name="uni1E48" unicode="&#x1e48;" horiz-adv-x="676" d="M586 724 L586 0 L519 0 L160 596 L160 0 L90 0 L90 724 L157 724 L516 128 L516 724 L586 724 Z M205 -109 L473 -109 L473 -164 L205 -164 L205 -109 Z " />
<glyph glyph-name="Ntilde" unicode="&#xd1;" horiz-adv-x="676" d="M271 859 Q237 859 231 792 L185 792 Q186 851 209 884 Q232 917 273 917 Q298 917 316.5 906.5 Q335 896 358 876 Q374 862 385 855 Q396 848 407 848 Q441 848 447 915 L493 915 Q492 856 469 823 Q446 790 405 790 Q380 790 361.5 800.5 Q343 811 320 831 Q304 845 293 852 Q282 859 271 859 Z M586 724 L586 0 L519 0 L160 596 L160 0 L90 0 L90 724 L157 724 L516 128 L516 724 L586 724 Z " />
<glyph glyph-name="O" unicode="O" horiz-adv-x="664" d="M332 -12 Q199 -12 128.5 83.5 Q58 179 58 362 Q58 545 128.5 640.5 Q199 736 332 736 Q465 736 535.5 640.5 Q606 545 606 362 Q606 179 535.5 83.5 Q465 -12 332 -12 Z M332 52 Q430 52 480 130.5 Q530 209 530 362 Q530 515 480 593.5 Q430 672 332 672 Q234 672 184 593.5 Q134 515 134 362 Q134 209 184 130.5 Q234 52 332 52 Z " />
<glyph glyph-name="Oacute" unicode="&#xd3;" horiz-adv-x="664" d="M275 793 L420 926 L511 926 L511 914 L337 781 L275 781 L275 793 Z M332 -12 Q199 -12 128.5 83.5 Q58 179 58 362 Q58 545 128.5 640.5 Q199 736 332 736 Q465 736 535.5 640.5 Q606 545 606 362 Q606 179 535.5 83.5 Q465 -12 332 -12 Z M332 52 Q430 52 480 130.5 Q530 209 530 362 Q530 515 480 593.5 Q430 672 332 672 Q234 672 184 593.5 Q134 515 134 362 Q134 209 184 130.5 Q234 52 332 52 Z " />
<glyph glyph-name="uni01D1" unicode="&#x1d1;" horiz-adv-x="664" d="M294 781 L184 914 L184 926 L241 926 L335 830 L428 926 L482 926 L482 914 L372 781 L294 781 Z M332 736 Q465 736 535.5 640.5 Q606 545 606 362 Q606 179 535.5 83.5 Q465 -12 332 -12 Q199 -12 128.5 83.5 Q58 179 58 362 Q58 545 128.5 640.5 Q199 736 332 736 Z M332 52 Q430 52 480 130.5 Q530 209 530 362 Q530 515 480 593.5 Q430 672 332 672 Q234 672 184 593.5 Q134 515 134 362 Q134 209 184 130.5 Q234 52 332 52 Z " />
<glyph glyph-name="Ocircumflex" unicode="&#xd4;" horiz-adv-x="664" d="M238 781 L184 781 L184 793 L294 926 L372 926 L482 793 L482 781 L425 781 L332 877 L238 781 Z M332 736 Q465 736 535.5 640.5 Q606 545 606 362 Q606 179 535.5 83.5 Q465 -12 332 -12 Q199 -12 128.5 83.5 Q58 179 58 362 Q58 545 128.5 640.5 Q199 736 332 736 Z M332 52 Q430 52 480 130.5 Q530 209 530 362 Q530 515 480 593.5 Q430 672 332 672 Q234 672 184 593.5 Q134 515 134 362 Q134 209 184 130.5 Q234 52 332 52 Z " />
<glyph glyph-name="uni1ED0" unicode="&#x1ed0;" horiz-adv-x="664" d="M482 884 L438 884 L438 894 L513 1021 L578 1021 L578 1011 L482 884 Z M247 785 L199 785 L199 795 L297 934 L369 934 L467 795 L467 785 L416 785 L332 885 L247 785 Z M332 736 Q465 736 535.5 640.5 Q606 545 606 362 Q606 179 535.5 83.5 Q465 -12 332 -12 Q199 -12 128.5 83.5 Q58 179 58 362 Q58 545 128.5 640.5 Q199 736 332 736 Z M332 52 Q430 52 480 130.5 Q530 209 530 362 Q530 515 480 593.5 Q430 672 332 672 Q234 672 184 593.5 Q134 515 134 362 Q134 209 184 130.5 Q234 52 332 52 Z " />
<glyph glyph-name="uni1ED8" unicode="&#x1ed8;" horiz-adv-x="664" d="M238 781 L184 781 L184 793 L294 926 L372 926 L482 793 L482 781 L425 781 L332 877 L238 781 Z M332 736 Q465 736 535.5 640.5 Q606 545 606 362 Q606 179 535.5 83.5 Q465 -12 332 -12 Q199 -12 128.5 83.5 Q58 179 58 362 Q58 545 128.5 640.5 Q199 736 332 736 Z M332 52 Q430 52 480 130.5 Q530 209 530 362 Q530 515 480 593.5 Q430 672 332 672 Q234 672 184 593.5 Q134 515 134 362 Q134 209 184 130.5 Q234 52 332 52 Z M333 -98 Q356 -98 369 -111.5 Q382 -125 382 -150 Q382 -175 369 -189 Q356 -203 333 -203 Q310 -203 297 -189.5 Q284 -176 284 -151 Q284 -126 297 -112 Q310 -98 333 -98 Z " />
<glyph glyph-name="uni1ED2" unicode="&#x1ed2;" horiz-adv-x="664" d="M184 884 L94 1011 L94 1021 L159 1021 L228 894 L228 884 L184 884 Z M199 795 L297 934 L369 934 L467 795 L467 785 L416 785 L332 885 L247 785 L199 785 L199 795 Z M332 736 Q465 736 535.5 640.5 Q606 545 606 362 Q606 179 535.5 83.5 Q465 -12 332 -12 Q199 -12 128.5 83.5 Q58 179 58 362 Q58 545 128.5 640.5 Q199 736 332 736 Z M332 52 Q430 52 480 130.5 Q530 209 530 362 Q530 515 480 593.5 Q430 672 332 672 Q234 672 184 593.5 Q134 515 134 362 Q134 209 184 130.5 Q234 52 332 52 Z " />
<glyph glyph-name="uni1ED4" unicode="&#x1ed4;" horiz-adv-x="664" d="M462 992 Q440 992 409 974 L392 1010 Q428 1034 471 1034 Q506 1034 525.5 1017 Q545 1000 545 970 Q545 948 535.5 938.5 Q526 929 509 922 Q497 917 492 913 Q487 909 487 900 L489 882 L437 882 Q435 894 435 903 Q435 921 443 929 Q451 937 465 943 Q478 949 483 954 Q488 959 488 970 Q488 992 462 992 Z M247 785 L199 785 L199 795 L297 934 L369 934 L467 795 L467 785 L416 785 L332 885 L247 785 Z M332 736 Q465 736 535.5 640.5 Q606 545 606 362 Q606 179 535.5 83.5 Q465 -12 332 -12 Q199 -12 128.5 83.5 Q58 179 58 362 Q58 545 128.5 640.5 Q199 736 332 736 Z M332 52 Q430 52 480 130.5 Q530 209 530 362 Q530 515 480 593.5 Q430 672 332 672 Q234 672 184 593.5 Q134 515 134 362 Q134 209 184 130.5 Q234 52 332 52 Z " />
<glyph glyph-name="uni1ED6" unicode="&#x1ed6;" horiz-adv-x="664" d="M275 994 Q241 994 236 937 L195 937 Q195 988 217 1016.5 Q239 1045 278 1045 Q301 1045 316.5 1036 Q332 1027 349 1010 Q361 998 370 992 Q379 986 391 986 Q425 986 430 1043 L471 1043 Q471 992 449 963.5 Q427 935 388 935 Q365 935 349.5 944 Q334 953 317 970 Q305 982 296 988 Q287 994 275 994 Z M369 914 L467 785 L467 775 L416 775 L332 867 L247 775 L199 775 L199 785 L297 914 L369 914 Z M332 736 Q465 736 535.5 640.5 Q606 545 606 362 Q606 179 535.5 83.5 Q465 -12 332 -12 Q199 -12 128.5 83.5 Q58 179 58 362 Q58 545 128.5 640.5 Q199 736 332 736 Z M332 52 Q430 52 480 130.5 Q530 209 530 362 Q530 515 480 593.5 Q430 672 332 672 Q234 672 184 593.5 Q134 515 134 362 Q134 209 184 130.5 Q234 52 332 52 Z " />
<glyph glyph-name="Odieresis" unicode="&#xd6;" horiz-adv-x="664" d="M244 801 Q222 801 210 814 Q198 827 198 851 Q198 874 210 888 Q222 902 244 902 Q266 902 278.5 888.5 Q291 875 291 852 Q291 828 278.5 814.5 Q266 801 244 801 Z M421 801 Q399 801 387 814 Q375 827 375 851 Q375 874 387 888 Q399 902 421 902 Q443 902 455.5 888.5 Q468 875 468 852 Q468 828 455.5 814.5 Q443 801 421 801 Z M332 -12 Q199 -12 128.5 83.5 Q58 179 58 362 Q58 545 128.5 640.5 Q199 736 332 736 Q465 736 535.5 640.5 Q606 545 606 362 Q606 179 535.5 83.5 Q465 -12 332 -12 Z M332 52 Q430 52 480 130.5 Q530 209 530 362 Q530 515 480 593.5 Q430 672 332 672 Q234 672 184 593.5 Q134 515 134 362 Q134 209 184 130.5 Q234 52 332 52 Z " />
<glyph glyph-name="uni1ECC" unicode="&#x1ecc;" horiz-adv-x="664" d="M332 -12 Q199 -12 128.5 83.5 Q58 179 58 362 Q58 545 128.5 640.5 Q199 736 332 736 Q465 736 535.5 640.5 Q606 545 606 362 Q606 179 535.5 83.5 Q465 -12 332 -12 Z M332 52 Q430 52 480 130.5 Q530 209 530 362 Q530 515 480 593.5 Q430 672 332 672 Q234 672 184 593.5 Q134 515 134 362 Q134 209 184 130.5 Q234 52 332 52 Z M333 -203 Q310 -203 297 -189.5 Q284 -176 284 -151 Q284 -126 297 -112 Q310 -98 333 -98 Q356 -98 369 -111.5 Q382 -125 382 -150 Q382 -175 369 -189 Q356 -203 333 -203 Z " />
<glyph glyph-name="Ograve" unicode="&#xd2;" horiz-adv-x="664" d="M163 914 L163 926 L254 926 L390 793 L390 781 L328 781 L163 914 Z M332 -12 Q199 -12 128.5 83.5 Q58 179 58 362 Q58 545 128.5 640.5 Q199 736 332 736 Q465 736 535.5 640.5 Q606 545 606 362 Q606 179 535.5 83.5 Q465 -12 332 -12 Z M332 52 Q430 52 480 130.5 Q530 209 530 362 Q530 515 480 593.5 Q430 672 332 672 Q234 672 184 593.5 Q134 515 134 362 Q134 209 184 130.5 Q234 52 332 52 Z " />
<glyph glyph-name="uni1ECE" unicode="&#x1ece;" horiz-adv-x="664" d="M304 781 Q302 793 302 803 Q302 820 311 828.5 Q320 837 337 844 Q349 850 355.5 855.5 Q362 861 362 870 Q362 890 335 890 Q306 890 269 868 L249 909 Q290 939 344 939 Q383 939 405 922 Q427 905 427 874 Q427 851 416.5 840.5 Q406 830 386 822 Q373 817 366.5 812 Q360 807 360 798 L362 781 L304 781 Z M332 -12 Q199 -12 128.5 83.5 Q58 179 58 362 Q58 545 128.5 640.5 Q199 736 332 736 Q465 736 535.5 640.5 Q606 545 606 362 Q606 179 535.5 83.5 Q465 -12 332 -12 Z M332 52 Q430 52 480 130.5 Q530 209 530 362 Q530 515 480 593.5 Q430 672 332 672 Q234 672 184 593.5 Q134 515 134 362 Q134 209 184 130.5 Q234 52 332 52 Z " />
<glyph glyph-name="Ohorn" unicode="&#x1a0;" horiz-adv-x="664" d="M648 804 Q648 737 615.5 706 Q583 675 509 671 Q606 577 606 362 Q606 179 535.5 83.5 Q465 -12 332 -12 Q199 -12 128.5 83.5 Q58 179 58 362 Q58 545 128.5 640.5 Q199 736 332 736 Q359 736 377 733 Q395 730 416 724 Q431 720 448 717 Q465 714 486 714 Q539 714 560 733.5 Q581 753 581 802 Q581 827 576 863 L643 863 Q648 833 648 804 Z M530 362 Q530 515 480 593.5 Q430 672 332 672 Q235 672 184.5 593 Q134 514 134 362 Q134 210 184.5 131 Q235 52 332 52 Q429 52 479.5 131 Q530 210 530 362 Z " />
<glyph glyph-name="uni1EDA" unicode="&#x1eda;" horiz-adv-x="664" d="M337 781 L275 781 L275 793 L420 926 L511 926 L511 914 L337 781 Z M648 804 Q648 737 615.5 706 Q583 675 509 671 Q606 577 606 362 Q606 179 535.5 83.5 Q465 -12 332 -12 Q199 -12 128.5 83.5 Q58 179 58 362 Q58 545 128.5 640.5 Q199 736 332 736 Q359 736 377 733 Q395 730 416 724 Q431 720 448 717 Q465 714 486 714 Q539 714 560 733.5 Q581 753 581 802 Q581 827 576 863 L643 863 Q648 833 648 804 Z M530 362 Q530 515 480 593.5 Q430 672 332 672 Q235 672 184.5 593 Q134 514 134 362 Q134 210 184.5 131 Q235 52 332 52 Q429 52 479.5 131 Q530 210 530 362 Z " />
<glyph glyph-name="uni1EE2" unicode="&#x1ee2;" horiz-adv-x="664" d="M648 804 Q648 737 615.5 706 Q583 675 509 671 Q606 577 606 362 Q606 179 535.5 83.5 Q465 -12 332 -12 Q199 -12 128.5 83.5 Q58 179 58 362 Q58 545 128.5 640.5 Q199 736 332 736 Q359 736 377 733 Q395 730 416 724 Q431 720 448 717 Q465 714 486 714 Q539 714 560 733.5 Q581 753 581 802 Q581 827 576 863 L643 863 Q648 833 648 804 Z M530 362 Q530 515 480 593.5 Q430 672 332 672 Q235 672 184.5 593 Q134 514 134 362 Q134 210 184.5 131 Q235 52 332 52 Q429 52 479.5 131 Q530 210 530 362 Z M333 -203 Q310 -203 297 -189.5 Q284 -176 284 -151 Q284 -126 297 -112 Q310 -98 333 -98 Q356 -98 369 -111.5 Q382 -125 382 -150 Q382 -175 369 -189 Q356 -203 333 -203 Z " />
<glyph glyph-name="uni1EDC" unicode="&#x1edc;" horiz-adv-x="664" d="M328 781 L163 914 L163 926 L254 926 L390 793 L390 781 L328 781 Z M648 804 Q648 737 615.5 706 Q583 675 509 671 Q606 577 606 362 Q606 179 535.5 83.5 Q465 -12 332 -12 Q199 -12 128.5 83.5 Q58 179 58 362 Q58 545 128.5 640.5 Q199 736 332 736 Q359 736 377 733 Q395 730 416 724 Q431 720 448 717 Q465 714 486 714 Q539 714 560 733.5 Q581 753 581 802 Q581 827 576 863 L643 863 Q648 833 648 804 Z M530 362 Q530 515 480 593.5 Q430 672 332 672 Q235 672 184.5 593 Q134 514 134 362 Q134 210 184.5 131 Q235 52 332 52 Q429 52 479.5 131 Q530 210 530 362 Z " />
<glyph glyph-name="uni1EDE" unicode="&#x1ede;" horiz-adv-x="664" d="M335 890 Q306 890 269 868 L249 909 Q290 939 344 939 Q383 939 405 922 Q427 905 427 874 Q427 851 416.5 840.5 Q406 830 386 822 Q373 817 366.5 812 Q360 807 360 798 L362 781 L304 781 Q302 793 302 803 Q302 820 311 828.5 Q320 837 337 844 Q349 850 355.5 855.5 Q362 861 362 870 Q362 890 335 890 Z M648 804 Q648 737 615.5 706 Q583 675 509 671 Q606 577 606 362 Q606 179 535.5 83.5 Q465 -12 332 -12 Q199 -12 128.5 83.5 Q58 179 58 362 Q58 545 128.5 640.5 Q199 736 332 736 Q359 736 377 733 Q395 730 416 724 Q431 720 448 717 Q465 714 486 714 Q539 714 560 733.5 Q581 753 581 802 Q581 827 576 863 L643 863 Q648 833 648 804 Z M530 362 Q530 515 480 593.5 Q430 672 332 672 Q235 672 184.5 593 Q134 514 134 362 Q134 210 184.5 131 Q235 52 332 52 Q429 52 479.5 131 Q530 210 530 362 Z " />
<glyph glyph-name="uni1EE0" unicode="&#x1ee0;" horiz-adv-x="664" d="M265 859 Q231 859 225 792 L179 792 Q180 851 203 884 Q226 917 267 917 Q292 917 310.5 906.5 Q329 896 352 876 Q368 862 379 855 Q390 848 401 848 Q435 848 441 915 L487 915 Q486 856 463 823 Q440 790 399 790 Q374 790 355.5 800.5 Q337 811 314 831 Q298 845 287 852 Q276 859 265 859 Z M648 804 Q648 737 615.5 706 Q583 675 509 671 Q606 577 606 362 Q606 179 535.5 83.5 Q465 -12 332 -12 Q199 -12 128.5 83.5 Q58 179 58 362 Q58 545 128.5 640.5 Q199 736 332 736 Q359 736 377 733 Q395 730 416 724 Q431 720 448 717 Q465 714 486 714 Q539 714 560 733.5 Q581 753 581 802 Q581 827 576 863 L643 863 Q648 833 648 804 Z M530 362 Q530 515 480 593.5 Q430 672 332 672 Q235 672 184.5 593 Q134 514 134 362 Q134 210 184.5 131 Q235 52 332 52 Q429 52 479.5 131 Q530 210 530 362 Z " />
<glyph glyph-name="Ohungarumlaut" unicode="&#x150;" horiz-adv-x="664" d="M217 793 L312 926 L391 926 L391 914 L267 781 L217 781 L217 793 Z M366 793 L461 926 L540 926 L540 914 L416 781 L366 781 L366 793 Z M332 -12 Q199 -12 128.5 83.5 Q58 179 58 362 Q58 545 128.5 640.5 Q199 736 332 736 Q465 736 535.5 640.5 Q606 545 606 362 Q606 179 535.5 83.5 Q465 -12 332 -12 Z M332 52 Q430 52 480 130.5 Q530 209 530 362 Q530 515 480 593.5 Q430 672 332 672 Q234 672 184 593.5 Q134 515 134 362 Q134 209 184 130.5 Q234 52 332 52 Z " />
<glyph glyph-name="Omacron" unicode="&#x14c;" horiz-adv-x="664" d="M199 867 L467 867 L467 812 L199 812 L199 867 Z M332 -12 Q199 -12 128.5 83.5 Q58 179 58 362 Q58 545 128.5 640.5 Q199 736 332 736 Q465 736 535.5 640.5 Q606 545 606 362 Q606 179 535.5 83.5 Q465 -12 332 -12 Z M332 52 Q430 52 480 130.5 Q530 209 530 362 Q530 515 480 593.5 Q430 672 332 672 Q234 672 184 593.5 Q134 515 134 362 Q134 209 184 130.5 Q234 52 332 52 Z " />
<glyph glyph-name="Oslash" unicode="&#xd8;" horiz-adv-x="665" d="M636 724 L554 614 Q607 520 607 362 Q607 178 536 83 Q465 -12 332 -12 Q215 -12 146 62 L93 -10 L29 -10 L29 0 L111 110 Q58 204 58 362 Q58 545 128.5 640.5 Q199 736 332 736 Q450 736 519 662 L572 734 L636 734 L636 724 Z M332 674 Q234 674 183 595 Q132 516 132 362 Q132 247 159 175 L477 604 Q426 674 332 674 Z M332 50 Q431 50 482 129 Q533 208 533 362 Q533 477 506 549 L188 120 Q237 50 332 50 Z " />
<glyph glyph-name="Otilde" unicode="&#xd5;" horiz-adv-x="664" d="M399 790 Q374 790 355.5 800.5 Q337 811 314 831 Q298 845 287 852 Q276 859 265 859 Q231 859 225 792 L179 792 Q180 851 203 884 Q226 917 267 917 Q292 917 310.5 906.5 Q329 896 352 876 Q368 862 379 855 Q390 848 401 848 Q435 848 441 915 L487 915 Q486 856 463 823 Q440 790 399 790 Z M332 -12 Q199 -12 128.5 83.5 Q58 179 58 362 Q58 545 128.5 640.5 Q199 736 332 736 Q465 736 535.5 640.5 Q606 545 606 362 Q606 179 535.5 83.5 Q465 -12 332 -12 Z M332 52 Q430 52 480 130.5 Q530 209 530 362 Q530 515 480 593.5 Q430 672 332 672 Q234 672 184 593.5 Q134 515 134 362 Q134 209 184 130.5 Q234 52 332 52 Z " />
<glyph glyph-name="OE" unicode="&#x152;" horiz-adv-x="900" d="M860 64 L860 0 L468 0 L334 0 Q199 0 128.5 90 Q58 180 58 362 Q58 544 128.5 634 Q199 724 334 724 L497 724 L848 724 L848 660 L538 660 L538 403 L766 403 L766 338 L538 338 L538 64 L860 64 Z M468 64 L468 660 L334 660 Q134 660 134 362 Q134 64 334 64 L468 64 Z " />
<glyph glyph-name="P" unicode="P" horiz-adv-x="555" d="M323 724 Q423 724 479 663.5 Q535 603 535 494 Q535 385 478 324.5 Q421 264 320 264 L162 264 L162 0 L90 0 L90 724 L162 724 L323 724 Z M323 328 Q390 328 424.5 370 Q459 412 459 494 Q459 576 423.5 618 Q388 660 320 660 L162 660 L162 328 L323 328 Z " />
<glyph glyph-name="Thorn" unicode="&#xde;" horiz-adv-x="573" d="M318 596 Q418 596 474 536.5 Q530 477 530 371 Q530 264 473 204 Q416 144 314 144 L162 144 L162 0 L90 0 L90 724 L162 724 L162 596 L318 596 Z M318 208 Q385 208 419.5 249 Q454 290 454 370 Q454 450 418.5 491 Q383 532 314 532 L162 532 L162 208 L318 208 Z " />
<glyph glyph-name="Q" unicode="Q" horiz-adv-x="664" d="M565 -149 L437 7 Q392 -12 332 -12 Q199 -12 128.5 83.5 Q58 179 58 362 Q58 545 128.5 640.5 Q199 736 332 736 Q465 736 535.5 640.5 Q606 545 606 362 Q606 131 496 41 L618 -99 L565 -149 Z M134 362 Q134 209 184 130.5 Q234 52 332 52 Q430 52 480 130.5 Q530 209 530 362 Q530 515 480 593.5 Q430 672 332 672 Q234 672 184 593.5 Q134 515 134 362 Z " />
<glyph glyph-name="R" unicode="R" horiz-adv-x="591" d="M296 283 L162 283 L162 0 L90 0 L90 724 L162 724 L314 724 Q413 724 468.5 665.5 Q524 607 524 503 Q524 417 485 362 Q446 307 374 290 L555 0 L466 0 L296 283 Z M162 347 L314 347 Q380 347 414 386.5 Q448 426 448 503 Q448 580 413.5 620 Q379 660 311 660 L162 660 L162 347 Z " />
<glyph glyph-name="Racute" unicode="&#x154;" horiz-adv-x="591" d="M294 781 L232 781 L232 793 L377 926 L468 926 L468 914 L294 781 Z M296 283 L162 283 L162 0 L90 0 L90 724 L162 724 L314 724 Q413 724 468.5 665.5 Q524 607 524 503 Q524 417 485 362 Q446 307 374 290 L555 0 L466 0 L296 283 Z M162 347 L314 347 Q380 347 414 386.5 Q448 426 448 503 Q448 580 413.5 620 Q379 660 311 660 L162 660 L162 347 Z " />
<glyph glyph-name="Rcaron" unicode="&#x158;" horiz-adv-x="591" d="M251 781 L141 914 L141 926 L198 926 L292 830 L385 926 L439 926 L439 914 L329 781 L251 781 Z M296 283 L162 283 L162 0 L90 0 L90 724 L162 724 L314 724 Q413 724 468.5 665.5 Q524 607 524 503 Q524 417 485 362 Q446 307 374 290 L555 0 L466 0 L296 283 Z M162 347 L314 347 Q380 347 414 386.5 Q448 426 448 503 Q448 580 413.5 620 Q379 660 311 660 L162 660 L162 347 Z " />
<glyph glyph-name="Rcommaaccent" unicode="&#x156;" horiz-adv-x="591" d="M296 283 L162 283 L162 0 L90 0 L90 724 L162 724 L314 724 Q413 724 468.5 665.5 Q524 607 524 503 Q524 417 485 362 Q446 307 374 290 L555 0 L466 0 L296 283 Z M162 347 L314 347 Q380 347 414 386.5 Q448 426 448 503 Q448 580 413.5 620 Q379 660 311 660 L162 660 L162 347 Z M231 -238 Q256 -211 265.5 -184.5 Q275 -158 275 -116 Q275 -101 273 -83 L343 -83 Q345 -101 345 -115 Q345 -161 325 -196.5 Q305 -232 259 -268 L231 -238 Z " />
<glyph glyph-name="uni1E5A" unicode="&#x1e5a;" horiz-adv-x="591" d="M296 283 L162 283 L162 0 L90 0 L90 724 L162 724 L314 724 Q413 724 468.5 665.5 Q524 607 524 503 Q524 417 485 362 Q446 307 374 290 L555 0 L466 0 L296 283 Z M162 347 L314 347 Q380 347 414 386.5 Q448 426 448 503 Q448 580 413.5 620 Q379 660 311 660 L162 660 L162 347 Z M308 -203 Q285 -203 272 -189.5 Q259 -176 259 -151 Q259 -126 272 -112 Q285 -98 308 -98 Q331 -98 344 -111.5 Q357 -125 357 -150 Q357 -175 344 -189 Q331 -203 308 -203 Z " />
<glyph glyph-name="uni1E5C" unicode="&#x1e5c;" horiz-adv-x="591" d="M424 812 L156 812 L156 867 L424 867 L424 812 Z M555 0 L466 0 L296 283 L162 283 L162 0 L90 0 L90 724 L162 724 L314 724 Q413 724 468.5 665.5 Q524 607 524 503 Q524 417 485 362 Q446 307 374 290 L555 0 Z M162 347 L314 347 Q380 347 414 386.5 Q448 426 448 503 Q448 580 413.5 620 Q379 660 311 660 L162 660 L162 347 Z M308 -98 Q331 -98 344 -111.5 Q357 -125 357 -150 Q357 -175 344 -189 Q331 -203 308 -203 Q285 -203 272 -189.5 Q259 -176 259 -151 Q259 -126 272 -112 Q285 -98 308 -98 Z " />
<glyph glyph-name="uni1E5E" unicode="&#x1e5e;" horiz-adv-x="591" d="M296 283 L162 283 L162 0 L90 0 L90 724 L162 724 L314 724 Q413 724 468.5 665.5 Q524 607 524 503 Q524 417 485 362 Q446 307 374 290 L555 0 L466 0 L296 283 Z M162 347 L314 347 Q380 347 414 386.5 Q448 426 448 503 Q448 580 413.5 620 Q379 660 311 660 L162 660 L162 347 Z M174 -109 L442 -109 L442 -164 L174 -164 L174 -109 Z " />
<glyph glyph-name="S" unicode="S" horiz-adv-x="524" d="M250 -11 Q197 -11 141.5 4 Q86 19 41 46 L66 108 Q160 54 250 54 Q322 54 361.5 88.5 Q401 123 401 185 Q401 238 376 270 Q351 302 296 317 L214 340 Q128 364 88 411.5 Q48 459 48 537 Q48 595 75 640 Q102 685 150.5 710 Q199 735 263 735 Q307 735 358 723.5 Q409 712 456 691 L431 629 Q328 670 261 670 Q196 670 159 637.5 Q122 605 122 547 Q122 494 147 462.5 Q172 431 227 416 L309 393 Q395 369 435 321 Q475 273 475 195 Q475 134 447 87 Q419 40 368 14.5 Q317 -11 250 -11 Z " />
<glyph glyph-name="Sacute" unicode="&#x15a;" horiz-adv-x="524" d="M194 793 L339 926 L430 926 L430 914 L256 781 L194 781 L194 793 Z M250 -11 Q197 -11 141.5 4 Q86 19 41 46 L66 108 Q160 54 250 54 Q322 54 361.5 88.5 Q401 123 401 185 Q401 238 376 270 Q351 302 296 317 L214 340 Q128 364 88 411.5 Q48 459 48 537 Q48 595 75 640 Q102 685 150.5 710 Q199 735 263 735 Q307 735 358 723.5 Q409 712 456 691 L431 629 Q328 670 261 670 Q196 670 159 637.5 Q122 605 122 547 Q122 494 147 462.5 Q172 431 227 416 L309 393 Q395 369 435 321 Q475 273 475 195 Q475 134 447 87 Q419 40 368 14.5 Q317 -11 250 -11 Z " />
<glyph glyph-name="Scaron" unicode="&#x160;" horiz-adv-x="524" d="M213 781 L103 914 L103 926 L160 926 L254 830 L347 926 L401 926 L401 914 L291 781 L213 781 Z M309 393 Q395 369 435 321 Q475 273 475 195 Q475 134 447 87 Q419 40 368 14.5 Q317 -11 250 -11 Q197 -11 141.5 4 Q86 19 41 46 L66 108 Q160 54 250 54 Q322 54 361.5 88.5 Q401 123 401 185 Q401 238 376 270 Q351 302 296 317 L214 340 Q128 364 88 411.5 Q48 459 48 537 Q48 595 75 640 Q102 685 150.5 710 Q199 735 263 735 Q307 735 358 723.5 Q409 712 456 691 L431 629 Q328 670 261 670 Q196 670 159 637.5 Q122 605 122 547 Q122 494 147 462.5 Q172 431 227 416 L309 393 Z " />
<glyph glyph-name="Scedilla" unicode="&#x15e;" horiz-adv-x="524" d="M475 195 Q475 109 422.5 54 Q370 -1 280 -10 L246 -64 Q257 -61 266 -61 Q312 -61 337.5 -82 Q363 -103 363 -140 Q363 -181 334.5 -203.5 Q306 -226 255 -226 Q201 -226 162 -203 L176 -162 Q220 -181 255 -181 Q304 -181 304 -140 Q304 -99 258 -99 Q234 -99 215 -108 L197 -87 L228 -10 Q180 -8 131 7 Q82 22 41 46 L66 108 Q160 54 250 54 Q322 54 361.5 88.5 Q401 123 401 185 Q401 238 376 270 Q351 302 296 317 L214 340 Q128 364 88 411.5 Q48 459 48 537 Q48 595 75 640 Q102 685 150.5 710 Q199 735 263 735 Q307 735 358 723.5 Q409 712 456 691 L431 629 Q328 670 261 670 Q196 670 159 637.5 Q122 605 122 547 Q122 494 147 462.5 Q172 431 227 416 L309 393 Q395 369 435 321 Q475 273 475 195 Z " />
<glyph glyph-name="Scircumflex" unicode="&#x15c;" horiz-adv-x="524" d="M157 781 L103 781 L103 793 L213 926 L291 926 L401 793 L401 781 L344 781 L251 877 L157 781 Z M309 393 Q395 369 435 321 Q475 273 475 195 Q475 134 447 87 Q419 40 368 14.5 Q317 -11 250 -11 Q197 -11 141.5 4 Q86 19 41 46 L66 108 Q160 54 250 54 Q322 54 361.5 88.5 Q401 123 401 185 Q401 238 376 270 Q351 302 296 317 L214 340 Q128 364 88 411.5 Q48 459 48 537 Q48 595 75 640 Q102 685 150.5 710 Q199 735 263 735 Q307 735 358 723.5 Q409 712 456 691 L431 629 Q328 670 261 670 Q196 670 159 637.5 Q122 605 122 547 Q122 494 147 462.5 Q172 431 227 416 L309 393 Z " />
<glyph glyph-name="Scommaaccent" unicode="&#x218;" horiz-adv-x="524" d="M250 -11 Q197 -11 141.5 4 Q86 19 41 46 L66 108 Q160 54 250 54 Q322 54 361.5 88.5 Q401 123 401 185 Q401 238 376 270 Q351 302 296 317 L214 340 Q128 364 88 411.5 Q48 459 48 537 Q48 595 75 640 Q102 685 150.5 710 Q199 735 263 735 Q307 735 358 723.5 Q409 712 456 691 L431 629 Q328 670 261 670 Q196 670 159 637.5 Q122 605 122 547 Q122 494 147 462.5 Q172 431 227 416 L309 393 Q395 369 435 321 Q475 273 475 195 Q475 134 447 87 Q419 40 368 14.5 Q317 -11 250 -11 Z M182 -238 Q207 -211 216.5 -184.5 Q226 -158 226 -116 Q226 -101 224 -83 L294 -83 Q296 -101 296 -115 Q296 -161 276 -196.5 Q256 -232 210 -268 L182 -238 Z " />
<glyph glyph-name="uni1E60" unicode="&#x1e60;" horiz-adv-x="524" d="M252 801 Q229 801 216 814.5 Q203 828 203 853 Q203 878 216 892 Q229 906 252 906 Q275 906 288 892.5 Q301 879 301 854 Q301 829 288 815 Q275 801 252 801 Z M250 -11 Q197 -11 141.5 4 Q86 19 41 46 L66 108 Q160 54 250 54 Q322 54 361.5 88.5 Q401 123 401 185 Q401 238 376 270 Q351 302 296 317 L214 340 Q128 364 88 411.5 Q48 459 48 537 Q48 595 75 640 Q102 685 150.5 710 Q199 735 263 735 Q307 735 358 723.5 Q409 712 456 691 L431 629 Q328 670 261 670 Q196 670 159 637.5 Q122 605 122 547 Q122 494 147 462.5 Q172 431 227 416 L309 393 Q395 369 435 321 Q475 273 475 195 Q475 134 447 87 Q419 40 368 14.5 Q317 -11 250 -11 Z " />
<glyph glyph-name="uni1E62" unicode="&#x1e62;" horiz-adv-x="524" d="M250 -11 Q197 -11 141.5 4 Q86 19 41 46 L66 108 Q160 54 250 54 Q322 54 361.5 88.5 Q401 123 401 185 Q401 238 376 270 Q351 302 296 317 L214 340 Q128 364 88 411.5 Q48 459 48 537 Q48 595 75 640 Q102 685 150.5 710 Q199 735 263 735 Q307 735 358 723.5 Q409 712 456 691 L431 629 Q328 670 261 670 Q196 670 159 637.5 Q122 605 122 547 Q122 494 147 462.5 Q172 431 227 416 L309 393 Q395 369 435 321 Q475 273 475 195 Q475 134 447 87 Q419 40 368 14.5 Q317 -11 250 -11 Z M259 -203 Q236 -203 223 -189.5 Q210 -176 210 -151 Q210 -126 223 -112 Q236 -98 259 -98 Q282 -98 295 -111.5 Q308 -125 308 -150 Q308 -175 295 -189 Q282 -203 259 -203 Z " />
<glyph glyph-name="uni1E9E" unicode="&#x1e9e;" horiz-adv-x="637" d="M360 394 Q469 382 529 326 Q589 270 589 181 Q589 93 530 43.5 Q471 -6 366 -6 Q290 -6 230 14 L246 78 Q317 58 371 58 Q442 58 478 88.5 Q514 119 514 178 Q514 254 454 296 Q394 338 278 344 L278 406 Q352 443 386.5 484 Q421 525 421 575 Q421 672 300 672 Q228 672 191 637 Q154 602 154 534 L154 0 L82 0 L82 534 Q82 629 140.5 682.5 Q199 736 303 736 Q393 736 443.5 695.5 Q494 655 494 582 Q494 524 460 476.5 Q426 429 360 394 Z " />
<glyph glyph-name="uni018F" unicode="&#x18f;" horiz-adv-x="641" d="M288 735 Q380 735 446.5 690.5 Q513 646 548 562 Q583 478 583 361 Q583 245 551 161 Q519 77 458.5 33 Q398 -11 314 -11 Q229 -11 168.5 30.5 Q108 72 75.5 151 Q43 230 43 339 Q43 364 47 388 L509 388 Q504 519 445.5 591.5 Q387 664 287 664 Q244 664 196.5 650 Q149 636 108 611 L80 672 Q120 702 175.5 718.5 Q231 735 288 735 Z M316 56 Q405 56 454 124 Q503 192 509 325 L117 325 Q118 197 170 126.5 Q222 56 316 56 Z " />
<glyph glyph-name="T" unicode="T" horiz-adv-x="488" d="M462 659 L280 659 L280 0 L208 0 L208 659 L26 659 L26 724 L280 724 L462 724 L462 659 Z " />
<glyph glyph-name="Tcaron" unicode="&#x164;" horiz-adv-x="488" d="M205 781 L95 914 L95 926 L152 926 L246 830 L339 926 L393 926 L393 914 L283 781 L205 781 Z M462 659 L280 659 L280 0 L208 0 L208 659 L26 659 L26 724 L280 724 L462 724 L462 659 Z " />
<glyph glyph-name="uni0162" unicode="&#x162;" horiz-adv-x="488" d="M271 0 L231 -64 Q242 -61 251 -61 Q297 -61 322.5 -82 Q348 -103 348 -140 Q348 -181 319.5 -203.5 Q291 -226 240 -226 Q186 -226 147 -203 L161 -162 Q205 -181 240 -181 Q289 -181 289 -140 Q289 -99 243 -99 Q220 -99 200 -108 L182 -87 L217 0 L208 0 L208 659 L26 659 L26 724 L280 724 L462 724 L462 659 L280 659 L280 0 L271 0 Z " />
<glyph glyph-name="uni021A" unicode="&#x21a;" horiz-adv-x="488" d="M462 659 L280 659 L280 0 L208 0 L208 659 L26 659 L26 724 L280 724 L462 724 L462 659 Z M167 -238 Q192 -211 201.5 -184.5 Q211 -158 211 -116 Q211 -101 209 -83 L279 -83 Q281 -101 281 -115 Q281 -161 261 -196.5 Q241 -232 195 -268 L167 -238 Z " />
<glyph glyph-name="uni1E6C" unicode="&#x1e6c;" horiz-adv-x="488" d="M462 659 L280 659 L280 0 L208 0 L208 659 L26 659 L26 724 L280 724 L462 724 L462 659 Z M244 -203 Q221 -203 208 -189.5 Q195 -176 195 -151 Q195 -126 208 -112 Q221 -98 244 -98 Q267 -98 280 -111.5 Q293 -125 293 -150 Q293 -175 280 -189 Q267 -203 244 -203 Z " />
<glyph glyph-name="uni1E6E" unicode="&#x1e6e;" horiz-adv-x="488" d="M462 659 L280 659 L280 0 L208 0 L208 659 L26 659 L26 724 L280 724 L462 724 L462 659 Z M110 -109 L378 -109 L378 -164 L110 -164 L110 -109 Z " />
<glyph glyph-name="U" unicode="U" horiz-adv-x="639" d="M321 -12 Q209 -12 147 56.5 Q85 125 85 248 L85 724 L157 724 L157 248 Q157 151 198.5 101.5 Q240 52 321 52 Q400 52 441 101.5 Q482 151 482 248 L482 724 L554 724 L554 248 Q554 125 492.5 56.5 Q431 -12 321 -12 Z " />
<glyph glyph-name="Uacute" unicode="&#xda;" horiz-adv-x="639" d="M262 793 L407 926 L498 926 L498 914 L324 781 L262 781 L262 793 Z M321 -12 Q209 -12 147 56.5 Q85 125 85 248 L85 724 L157 724 L157 248 Q157 151 198.5 101.5 Q240 52 321 52 Q400 52 441 101.5 Q482 151 482 248 L482 724 L554 724 L554 248 Q554 125 492.5 56.5 Q431 -12 321 -12 Z " />
<glyph glyph-name="Ubreve" unicode="&#x16c;" horiz-adv-x="639" d="M320 786 Q261 786 226 824 Q191 862 188 930 L236 930 Q248 845 321 845 Q395 845 407 930 L452 930 Q449 862 414 824 Q379 786 320 786 Z M321 -12 Q209 -12 147 56.5 Q85 125 85 248 L85 724 L157 724 L157 248 Q157 151 198.5 101.5 Q240 52 321 52 Q400 52 441 101.5 Q482 151 482 248 L482 724 L554 724 L554 248 Q554 125 492.5 56.5 Q431 -12 321 -12 Z " />
<glyph glyph-name="uni01D3" unicode="&#x1d3;" horiz-adv-x="639" d="M281 781 L171 914 L171 926 L228 926 L322 830 L415 926 L469 926 L469 914 L359 781 L281 781 Z M554 724 L554 248 Q554 125 492.5 56.5 Q431 -12 321 -12 Q209 -12 147 56.5 Q85 125 85 248 L85 724 L157 724 L157 248 Q157 151 198.5 101.5 Q240 52 321 52 Q400 52 441 101.5 Q482 151 482 248 L482 724 L554 724 Z " />
<glyph glyph-name="Ucircumflex" unicode="&#xdb;" horiz-adv-x="639" d="M225 781 L171 781 L171 793 L281 926 L359 926 L469 793 L469 781 L412 781 L319 877 L225 781 Z M554 724 L554 248 Q554 125 492.5 56.5 Q431 -12 321 -12 Q209 -12 147 56.5 Q85 125 85 248 L85 724 L157 724 L157 248 Q157 151 198.5 101.5 Q240 52 321 52 Q400 52 441 101.5 Q482 151 482 248 L482 724 L554 724 Z " />
<glyph glyph-name="Udieresis" unicode="&#xdc;" horiz-adv-x="639" d="M231 801 Q209 801 197 814 Q185 827 185 851 Q185 874 197 888 Q209 902 231 902 Q253 902 265.5 888.5 Q278 875 278 852 Q278 828 265.5 814.5 Q253 801 231 801 Z M408 801 Q386 801 374 814 Q362 827 362 851 Q362 874 374 888 Q386 902 408 902 Q430 902 442.5 888.5 Q455 875 455 852 Q455 828 442.5 814.5 Q430 801 408 801 Z M321 -12 Q209 -12 147 56.5 Q85 125 85 248 L85 724 L157 724 L157 248 Q157 151 198.5 101.5 Q240 52 321 52 Q400 52 441 101.5 Q482 151 482 248 L482 724 L554 724 L554 248 Q554 125 492.5 56.5 Q431 -12 321 -12 Z " />
<glyph glyph-name="uni01D7" unicode="&#x1d7;" horiz-adv-x="639" d="M296 912 L371 1039 L436 1039 L436 1029 L340 902 L296 902 L296 912 Z M235 780 Q213 780 201.5 792.5 Q190 805 190 828 Q190 851 201.5 864 Q213 877 235 877 Q257 877 268.5 864.5 Q280 852 280 829 Q280 806 268.5 793 Q257 780 235 780 Z M405 780 Q383 780 371.5 792.5 Q360 805 360 828 Q360 851 371.5 864 Q383 877 405 877 Q427 877 438.5 864.5 Q450 852 450 829 Q450 806 438.5 793 Q427 780 405 780 Z M321 -12 Q209 -12 147 56.5 Q85 125 85 248 L85 724 L157 724 L157 248 Q157 151 198.5 101.5 Q240 52 321 52 Q400 52 441 101.5 Q482 151 482 248 L482 724 L554 724 L554 248 Q554 125 492.5 56.5 Q431 -12 321 -12 Z " />
<glyph glyph-name="uni01D9" unicode="&#x1d9;" horiz-adv-x="639" d="M285 904 L187 1033 L187 1043 L238 1043 L323 951 L407 1043 L455 1043 L455 1033 L357 904 L285 904 Z M190 828 Q190 851 201.5 864 Q213 877 235 877 Q257 877 268.5 864.5 Q280 852 280 829 Q280 806 268.5 793 Q257 780 235 780 Q213 780 201.5 792.5 Q190 805 190 828 Z M360 828 Q360 851 371.5 864 Q383 877 405 877 Q427 877 438.5 864.5 Q450 852 450 829 Q450 806 438.5 793 Q427 780 405 780 Q383 780 371.5 792.5 Q360 805 360 828 Z M554 724 L554 248 Q554 125 492.5 56.5 Q431 -12 321 -12 Q209 -12 147 56.5 Q85 125 85 248 L85 724 L157 724 L157 248 Q157 151 198.5 101.5 Q240 52 321 52 Q400 52 441 101.5 Q482 151 482 248 L482 724 L554 724 Z " />
<glyph glyph-name="uni01DB" unicode="&#x1db;" horiz-adv-x="639" d="M212 1029 L212 1039 L277 1039 L346 912 L346 902 L302 902 L212 1029 Z M235 780 Q213 780 201.5 792.5 Q190 805 190 828 Q190 851 201.5 864 Q213 877 235 877 Q257 877 268.5 864.5 Q280 852 280 829 Q280 806 268.5 793 Q257 780 235 780 Z M405 780 Q383 780 371.5 792.5 Q360 805 360 828 Q360 851 371.5 864 Q383 877 405 877 Q427 877 438.5 864.5 Q450 852 450 829 Q450 806 438.5 793 Q427 780 405 780 Z M321 -12 Q209 -12 147 56.5 Q85 125 85 248 L85 724 L157 724 L157 248 Q157 151 198.5 101.5 Q240 52 321 52 Q400 52 441 101.5 Q482 151 482 248 L482 724 L554 724 L554 248 Q554 125 492.5 56.5 Q431 -12 321 -12 Z " />
<glyph glyph-name="uni01D5" unicode="&#x1d5;" horiz-adv-x="639" d="M187 979 L455 979 L455 931 L187 931 L187 979 Z M235 780 Q213 780 201.5 792.5 Q190 805 190 828 Q190 851 201.5 864 Q213 877 235 877 Q257 877 268.5 864.5 Q280 852 280 829 Q280 806 268.5 793 Q257 780 235 780 Z M405 780 Q383 780 371.5 792.5 Q360 805 360 828 Q360 851 371.5 864 Q383 877 405 877 Q427 877 438.5 864.5 Q450 852 450 829 Q450 806 438.5 793 Q427 780 405 780 Z M321 -12 Q209 -12 147 56.5 Q85 125 85 248 L85 724 L157 724 L157 248 Q157 151 198.5 101.5 Q240 52 321 52 Q400 52 441 101.5 Q482 151 482 248 L482 724 L554 724 L554 248 Q554 125 492.5 56.5 Q431 -12 321 -12 Z " />
<glyph glyph-name="uni1EE4" unicode="&#x1ee4;" horiz-adv-x="639" d="M321 -12 Q209 -12 147 56.5 Q85 125 85 248 L85 724 L157 724 L157 248 Q157 151 198.5 101.5 Q240 52 321 52 Q400 52 441 101.5 Q482 151 482 248 L482 724 L554 724 L554 248 Q554 125 492.5 56.5 Q431 -12 321 -12 Z M320 -203 Q297 -203 284 -189.5 Q271 -176 271 -151 Q271 -126 284 -112 Q297 -98 320 -98 Q343 -98 356 -111.5 Q369 -125 369 -150 Q369 -175 356 -189 Q343 -203 320 -203 Z " />
<glyph glyph-name="Ugrave" unicode="&#xd9;" horiz-adv-x="639" d="M150 914 L150 926 L241 926 L377 793 L377 781 L315 781 L150 914 Z M321 -12 Q209 -12 147 56.5 Q85 125 85 248 L85 724 L157 724 L157 248 Q157 151 198.5 101.5 Q240 52 321 52 Q400 52 441 101.5 Q482 151 482 248 L482 724 L554 724 L554 248 Q554 125 492.5 56.5 Q431 -12 321 -12 Z " />
<glyph glyph-name="uni1EE6" unicode="&#x1ee6;" horiz-adv-x="639" d="M291 781 Q289 793 289 803 Q289 820 298 828.5 Q307 837 324 844 Q336 850 342.5 855.5 Q349 861 349 870 Q349 890 322 890 Q293 890 256 868 L236 909 Q276 939 331 939 Q370 939 392 922 Q414 905 414 874 Q414 851 403.5 840.5 Q393 830 373 822 Q360 817 353.5 812 Q347 807 347 798 L349 781 L291 781 Z M321 -12 Q209 -12 147 56.5 Q85 125 85 248 L85 724 L157 724 L157 248 Q157 151 198.5 101.5 Q240 52 321 52 Q400 52 441 101.5 Q482 151 482 248 L482 724 L554 724 L554 248 Q554 125 492.5 56.5 Q431 -12 321 -12 Z " />
<glyph glyph-name="Uhorn" unicode="&#x1af;" horiz-adv-x="639" d="M665 804 Q665 747 638.5 717.5 Q612 688 554 681 L554 248 Q554 125 492.5 56.5 Q431 -12 321 -12 Q209 -12 147 56.5 Q85 125 85 248 L85 724 L157 724 L157 248 Q157 151 198.5 101.5 Q240 52 321 52 Q400 52 441 101.5 Q482 151 482 248 L482 724 L503 724 Q556 724 577 741 Q598 758 598 802 Q598 827 593 863 L660 863 Q665 833 665 804 Z " />
<glyph glyph-name="uni1EE8" unicode="&#x1ee8;" horiz-adv-x="639" d="M324 781 L262 781 L262 793 L407 926 L498 926 L498 914 L324 781 Z M665 804 Q665 747 638.5 717.5 Q612 688 554 681 L554 248 Q554 125 492.5 56.5 Q431 -12 321 -12 Q209 -12 147 56.5 Q85 125 85 248 L85 724 L157 724 L157 248 Q157 151 198.5 101.5 Q240 52 321 52 Q400 52 441 101.5 Q482 151 482 248 L482 724 L503 724 Q556 724 577 741 Q598 758 598 802 Q598 827 593 863 L660 863 Q665 833 665 804 Z " />
<glyph glyph-name="uni1EF0" unicode="&#x1ef0;" horiz-adv-x="639" d="M665 804 Q665 747 638.5 717.5 Q612 688 554 681 L554 248 Q554 125 492.5 56.5 Q431 -12 321 -12 Q209 -12 147 56.5 Q85 125 85 248 L85 724 L157 724 L157 248 Q157 151 198.5 101.5 Q240 52 321 52 Q400 52 441 101.5 Q482 151 482 248 L482 724 L503 724 Q556 724 577 741 Q598 758 598 802 Q598 827 593 863 L660 863 Q665 833 665 804 Z M320 -203 Q297 -203 284 -189.5 Q271 -176 271 -151 Q271 -126 284 -112 Q297 -98 320 -98 Q343 -98 356 -111.5 Q369 -125 369 -150 Q369 -175 356 -189 Q343 -203 320 -203 Z " />
<glyph glyph-name="uni1EEA" unicode="&#x1eea;" horiz-adv-x="639" d="M315 781 L150 914 L150 926 L241 926 L377 793 L377 781 L315 781 Z M665 804 Q665 747 638.5 717.5 Q612 688 554 681 L554 248 Q554 125 492.5 56.5 Q431 -12 321 -12 Q209 -12 147 56.5 Q85 125 85 248 L85 724 L157 724 L157 248 Q157 151 198.5 101.5 Q240 52 321 52 Q400 52 441 101.5 Q482 151 482 248 L482 724 L503 724 Q556 724 577 741 Q598 758 598 802 Q598 827 593 863 L660 863 Q665 833 665 804 Z " />
<glyph glyph-name="uni1EEC" unicode="&#x1eec;" horiz-adv-x="639" d="M322 890 Q293 890 256 868 L236 909 Q276 939 331 939 Q370 939 392 922 Q414 905 414 874 Q414 851 403.5 840.5 Q393 830 373 822 Q360 817 353.5 812 Q347 807 347 798 L349 781 L291 781 Q289 793 289 803 Q289 820 298 828.5 Q307 837 324 844 Q336 850 342.5 855.5 Q349 861 349 870 Q349 890 322 890 Z M665 804 Q665 747 638.5 717.5 Q612 688 554 681 L554 248 Q554 125 492.5 56.5 Q431 -12 321 -12 Q209 -12 147 56.5 Q85 125 85 248 L85 724 L157 724 L157 248 Q157 151 198.5 101.5 Q240 52 321 52 Q400 52 441 101.5 Q482 151 482 248 L482 724 L503 724 Q556 724 577 741 Q598 758 598 802 Q598 827 593 863 L660 863 Q665 833 665 804 Z " />
<glyph glyph-name="uni1EEE" unicode="&#x1eee;" horiz-adv-x="639" d="M252 859 Q218 859 212 792 L166 792 Q167 851 190 884 Q213 917 254 917 Q279 917 297.5 906.5 Q316 896 339 876 Q355 862 366 855 Q377 848 388 848 Q422 848 428 915 L474 915 Q473 856 450 823 Q427 790 386 790 Q361 790 342.5 800.5 Q324 811 301 831 Q285 845 274 852 Q263 859 252 859 Z M665 804 Q665 747 638.5 717.5 Q612 688 554 681 L554 248 Q554 125 492.5 56.5 Q431 -12 321 -12 Q209 -12 147 56.5 Q85 125 85 248 L85 724 L157 724 L157 248 Q157 151 198.5 101.5 Q240 52 321 52 Q400 52 441 101.5 Q482 151 482 248 L482 724 L503 724 Q556 724 577 741 Q598 758 598 802 Q598 827 593 863 L660 863 Q665 833 665 804 Z " />
<glyph glyph-name="Uhungarumlaut" unicode="&#x170;" horiz-adv-x="639" d="M204 793 L299 926 L378 926 L378 914 L254 781 L204 781 L204 793 Z M353 793 L448 926 L527 926 L527 914 L403 781 L353 781 L353 793 Z M321 -12 Q209 -12 147 56.5 Q85 125 85 248 L85 724 L157 724 L157 248 Q157 151 198.5 101.5 Q240 52 321 52 Q400 52 441 101.5 Q482 151 482 248 L482 724 L554 724 L554 248 Q554 125 492.5 56.5 Q431 -12 321 -12 Z " />
<glyph glyph-name="Umacron" unicode="&#x16a;" horiz-adv-x="639" d="M186 867 L454 867 L454 812 L186 812 L186 867 Z M321 -12 Q209 -12 147 56.5 Q85 125 85 248 L85 724 L157 724 L157 248 Q157 151 198.5 101.5 Q240 52 321 52 Q400 52 441 101.5 Q482 151 482 248 L482 724 L554 724 L554 248 Q554 125 492.5 56.5 Q431 -12 321 -12 Z " />
<glyph glyph-name="Uogonek" unicode="&#x172;" horiz-adv-x="639" d="M437 11 Q402 -18 383 -50.5 Q364 -83 364 -114 Q364 -161 411 -161 Q441 -161 472 -143 L490 -187 Q472 -201 447 -208.5 Q422 -216 396 -216 Q351 -216 326 -192.5 Q301 -169 301 -128 Q301 -97 314.5 -66.5 Q328 -36 353 -10 Q333 -12 321 -12 Q209 -12 147 56.5 Q85 125 85 248 L85 724 L157 724 L157 248 Q157 151 198.5 101.5 Q240 52 321 52 Q400 52 441 101.5 Q482 151 482 248 L482 724 L554 724 L554 248 Q554 175 532 122.5 Q510 70 463 32 L437 11 Z " />
<glyph glyph-name="Uring" unicode="&#x16e;" horiz-adv-x="639" d="M320 770 Q268 770 239.5 797.5 Q211 825 211 875 Q211 925 239.5 952.5 Q268 980 320 980 Q372 980 400.5 952.5 Q429 925 429 875 Q429 825 400.5 797.5 Q372 770 320 770 Z M320 812 Q376 812 376 875 Q376 938 320 938 Q264 938 264 875 Q264 812 320 812 Z M321 -12 Q209 -12 147 56.5 Q85 125 85 248 L85 724 L157 724 L157 248 Q157 151 198.5 101.5 Q240 52 321 52 Q400 52 441 101.5 Q482 151 482 248 L482 724 L554 724 L554 248 Q554 125 492.5 56.5 Q431 -12 321 -12 Z " />
<glyph glyph-name="Utilde" unicode="&#x168;" horiz-adv-x="639" d="M386 790 Q361 790 342.5 800.5 Q324 811 301 831 Q285 845 274 852 Q263 859 252 859 Q218 859 212 792 L166 792 Q167 851 190 884 Q213 917 254 917 Q279 917 297.5 906.5 Q316 896 339 876 Q355 862 366 855 Q377 848 388 848 Q422 848 428 915 L474 915 Q473 856 450 823 Q427 790 386 790 Z M321 -12 Q209 -12 147 56.5 Q85 125 85 248 L85 724 L157 724 L157 248 Q157 151 198.5 101.5 Q240 52 321 52 Q400 52 441 101.5 Q482 151 482 248 L482 724 L554 724 L554 248 Q554 125 492.5 56.5 Q431 -12 321 -12 Z " />
<glyph glyph-name="V" unicode="V" horiz-adv-x="600" d="M564 724 L341 0 L259 0 L36 724 L115 724 L301 85 L486 724 L564 724 Z " />
<glyph glyph-name="W" unicode="W" horiz-adv-x="848" d="M810 724 L636 0 L554 0 L423 602 L293 0 L211 0 L38 724 L115 724 L253 86 L384 723 L464 723 L597 88 L734 724 L810 724 Z " />
<glyph glyph-name="Wacute" unicode="&#x1e82;" horiz-adv-x="848" d="M428 781 L366 781 L366 793 L511 926 L602 926 L602 914 L428 781 Z M810 724 L636 0 L554 0 L423 602 L293 0 L211 0 L38 724 L115 724 L253 86 L384 723 L464 723 L597 88 L734 724 L810 724 Z " />
<glyph glyph-name="Wcircumflex" unicode="&#x174;" horiz-adv-x="848" d="M329 781 L275 781 L275 793 L385 926 L463 926 L573 793 L573 781 L516 781 L423 877 L329 781 Z M810 724 L636 0 L554 0 L423 602 L293 0 L211 0 L38 724 L115 724 L253 86 L384 723 L464 723 L597 88 L734 724 L810 724 Z " />
<glyph glyph-name="Wdieresis" unicode="&#x1e84;" horiz-adv-x="848" d="M335 801 Q313 801 301 814 Q289 827 289 851 Q289 874 301 888 Q313 902 335 902 Q357 902 369.5 888.5 Q382 875 382 852 Q382 828 369.5 814.5 Q357 801 335 801 Z M512 801 Q490 801 478 814 Q466 827 466 851 Q466 874 478 888 Q490 902 512 902 Q534 902 546.5 888.5 Q559 875 559 852 Q559 828 546.5 814.5 Q534 801 512 801 Z M810 724 L636 0 L554 0 L423 602 L293 0 L211 0 L38 724 L115 724 L253 86 L384 723 L464 723 L597 88 L734 724 L810 724 Z " />
<glyph glyph-name="Wgrave" unicode="&#x1e80;" horiz-adv-x="848" d="M419 781 L254 914 L254 926 L345 926 L481 793 L481 781 L419 781 Z M810 724 L636 0 L554 0 L423 602 L293 0 L211 0 L38 724 L115 724 L253 86 L384 723 L464 723 L597 88 L734 724 L810 724 Z " />
<glyph glyph-name="X" unicode="X" horiz-adv-x="564" d="M450 0 L280 308 L112 0 L27 0 L241 366 L34 724 L121 724 L283 426 L450 724 L535 724 L323 369 L537 0 L450 0 Z " />
<glyph glyph-name="Y" unicode="Y" horiz-adv-x="556" d="M528 724 L313 260 L313 0 L241 0 L241 260 L28 724 L109 724 L279 344 L448 724 L528 724 Z " />
<glyph glyph-name="Yacute" unicode="&#xdd;" horiz-adv-x="556" d="M281 781 L219 781 L219 793 L364 926 L455 926 L455 914 L281 781 Z M528 724 L313 260 L313 0 L241 0 L241 260 L28 724 L109 724 L279 344 L448 724 L528 724 Z " />
<glyph glyph-name="Ycircumflex" unicode="&#x176;" horiz-adv-x="556" d="M182 781 L128 781 L128 793 L238 926 L316 926 L426 793 L426 781 L369 781 L276 877 L182 781 Z M528 724 L313 260 L313 0 L241 0 L241 260 L28 724 L109 724 L279 344 L448 724 L528 724 Z " />
<glyph glyph-name="Ydieresis" unicode="&#x178;" horiz-adv-x="556" d="M188 801 Q166 801 154 814 Q142 827 142 851 Q142 874 154 888 Q166 902 188 902 Q210 902 222.5 888.5 Q235 875 235 852 Q235 828 222.5 814.5 Q210 801 188 801 Z M365 801 Q343 801 331 814 Q319 827 319 851 Q319 874 331 888 Q343 902 365 902 Q387 902 399.5 888.5 Q412 875 412 852 Q412 828 399.5 814.5 Q387 801 365 801 Z M528 724 L313 260 L313 0 L241 0 L241 260 L28 724 L109 724 L279 344 L448 724 L528 724 Z " />
<glyph glyph-name="uni1E8E" unicode="&#x1e8e;" horiz-adv-x="556" d="M277 801 Q254 801 241 814.5 Q228 828 228 853 Q228 878 241 892 Q254 906 277 906 Q300 906 313 892.5 Q326 879 326 854 Q326 829 313 815 Q300 801 277 801 Z M528 724 L313 260 L313 0 L241 0 L241 260 L28 724 L109 724 L279 344 L448 724 L528 724 Z " />
<glyph glyph-name="uni1EF4" unicode="&#x1ef4;" horiz-adv-x="556" d="M528 724 L313 260 L313 0 L241 0 L241 260 L28 724 L109 724 L279 344 L448 724 L528 724 Z M277 -203 Q254 -203 241 -189.5 Q228 -176 228 -151 Q228 -126 241 -112 Q254 -98 277 -98 Q300 -98 313 -111.5 Q326 -125 326 -150 Q326 -175 313 -189 Q300 -203 277 -203 Z " />
<glyph glyph-name="Ygrave" unicode="&#x1ef2;" horiz-adv-x="556" d="M272 781 L107 914 L107 926 L198 926 L334 793 L334 781 L272 781 Z M528 724 L313 260 L313 0 L241 0 L241 260 L28 724 L109 724 L279 344 L448 724 L528 724 Z " />
<glyph glyph-name="uni1EF6" unicode="&#x1ef6;" horiz-adv-x="556" d="M279 890 Q250 890 213 868 L193 909 Q233 939 288 939 Q327 939 349 922 Q371 905 371 874 Q371 851 360.5 840.5 Q350 830 330 822 Q317 817 310.5 812 Q304 807 304 798 L306 781 L248 781 Q246 793 246 803 Q246 820 255 828.5 Q264 837 281 844 Q293 850 299.5 855.5 Q306 861 306 870 Q306 890 279 890 Z M528 724 L313 260 L313 0 L241 0 L241 260 L28 724 L109 724 L279 344 L448 724 L528 724 Z " />
<glyph glyph-name="uni1EF8" unicode="&#x1ef8;" horiz-adv-x="556" d="M209 859 Q175 859 169 792 L123 792 Q124 851 147 884 Q170 917 211 917 Q236 917 254.5 906.5 Q273 896 296 876 Q312 862 323 855 Q334 848 345 848 Q379 848 385 915 L431 915 Q430 856 407 823 Q384 790 343 790 Q318 790 299.5 800.5 Q281 811 258 831 Q242 845 231 852 Q220 859 209 859 Z M528 724 L313 260 L313 0 L241 0 L241 260 L28 724 L109 724 L279 344 L448 724 L528 724 Z " />
<glyph glyph-name="Z" unicode="Z" horiz-adv-x="511" d="M470 63 L470 0 L39 0 L39 64 L385 661 L47 661 L47 724 L465 724 L465 661 L119 63 L470 63 Z " />
<glyph glyph-name="Zacute" unicode="&#x179;" horiz-adv-x="511" d="M259 781 L197 781 L197 793 L342 926 L433 926 L433 914 L259 781 Z M470 63 L470 0 L39 0 L39 64 L385 661 L47 661 L47 724 L465 724 L465 661 L119 63 L470 63 Z " />
<glyph glyph-name="Zcaron" unicode="&#x17d;" horiz-adv-x="511" d="M216 781 L106 914 L106 926 L163 926 L257 830 L350 926 L404 926 L404 914 L294 781 L216 781 Z M470 63 L470 0 L39 0 L39 64 L385 661 L47 661 L47 724 L465 724 L465 661 L119 63 L470 63 Z " />
<glyph glyph-name="Zdotaccent" unicode="&#x17b;" horiz-adv-x="511" d="M255 801 Q232 801 219 814.5 Q206 828 206 853 Q206 878 219 892 Q232 906 255 906 Q278 906 291 892.5 Q304 879 304 854 Q304 829 291 815 Q278 801 255 801 Z M470 63 L470 0 L39 0 L39 64 L385 661 L47 661 L47 724 L465 724 L465 661 L119 63 L470 63 Z " />
<glyph glyph-name="uni1E92" unicode="&#x1e92;" horiz-adv-x="511" d="M470 63 L470 0 L39 0 L39 64 L385 661 L47 661 L47 724 L465 724 L465 661 L119 63 L470 63 Z M259 -203 Q236 -203 223 -189.5 Q210 -176 210 -151 Q210 -126 223 -112 Q236 -98 259 -98 Q282 -98 295 -111.5 Q308 -125 308 -150 Q308 -175 295 -189 Q282 -203 259 -203 Z " />
<glyph glyph-name="a" unicode="a" horiz-adv-x="494" d="M236 546 Q320 546 367.5 503.5 Q415 461 415 387 L415 0 L352 0 L352 67 Q301 -10 200 -10 Q125 -10 83 32 Q41 74 41 148 Q41 243 114.5 288 Q188 333 345 334 L345 381 Q345 430 315 456 Q285 482 228 482 Q165 482 108 452 L90 510 Q120 527 159 536.5 Q198 546 236 546 Z M216 53 Q255 53 286.5 68.5 Q318 84 345 117 L345 277 Q225 276 168.5 246 Q112 216 112 153 Q112 104 138.5 78.5 Q165 53 216 53 Z " />
<glyph glyph-name="aacute" unicode="&#xe1;" horiz-adv-x="494" d="M236 546 Q320 546 367.5 503.5 Q415 461 415 387 L415 0 L352 0 L352 67 Q301 -10 200 -10 Q125 -10 83 32 Q41 74 41 148 Q41 243 114.5 288 Q188 333 345 334 L345 381 Q345 430 315 456 Q285 482 228 482 Q165 482 108 452 L90 510 Q120 527 159 536.5 Q198 546 236 546 Z M216 53 Q255 53 286.5 68.5 Q318 84 345 117 L345 277 Q225 276 168.5 246 Q112 216 112 153 Q112 104 138.5 78.5 Q165 53 216 53 Z M190 625 L285 784 L366 784 L366 774 L242 615 L190 615 L190 625 Z " />
<glyph glyph-name="abreve" unicode="&#x103;" horiz-adv-x="494" d="M236 546 Q320 546 367.5 503.5 Q415 461 415 387 L415 0 L352 0 L352 67 Q301 -10 200 -10 Q125 -10 83 32 Q41 74 41 148 Q41 243 114.5 288 Q188 333 345 334 L345 381 Q345 430 315 456 Q285 482 228 482 Q165 482 108 452 L90 510 Q120 527 159 536.5 Q198 546 236 546 Z M216 53 Q255 53 286.5 68.5 Q318 84 345 117 L345 277 Q225 276 168.5 246 Q112 216 112 153 Q112 104 138.5 78.5 Q165 53 216 53 Z M236 616 Q177 616 142 654 Q107 692 104 760 L152 760 Q164 675 237 675 Q311 675 323 760 L368 760 Q365 692 330 654 Q295 616 236 616 Z " />
<glyph glyph-name="uni1EAF" unicode="&#x1eaf;" horiz-adv-x="494" d="M255 742 L211 742 L211 752 L286 879 L351 879 L351 869 L255 742 Z M236 616 Q178 616 143.5 652 Q109 688 106 752 L150 752 Q156 711 178 689.5 Q200 668 237 668 Q313 668 325 752 L366 752 Q363 688 328.5 652 Q294 616 236 616 Z M236 546 Q320 546 367.5 503.5 Q415 461 415 387 L415 0 L352 0 L352 67 Q301 -10 200 -10 Q125 -10 83 32 Q41 74 41 148 Q41 243 114.5 288 Q188 333 345 334 L345 381 Q345 430 315 456 Q285 482 228 482 Q165 482 108 452 L90 510 Q120 527 159 536.5 Q198 546 236 546 Z M216 53 Q255 53 286.5 68.5 Q318 84 345 117 L345 277 Q225 276 168.5 246 Q112 216 112 153 Q112 104 138.5 78.5 Q165 53 216 53 Z " />
<glyph glyph-name="uni1EB7" unicode="&#x1eb7;" horiz-adv-x="494" d="M236 546 Q320 546 367.5 503.5 Q415 461 415 387 L415 0 L352 0 L352 67 Q301 -10 200 -10 Q125 -10 83 32 Q41 74 41 148 Q41 243 114.5 288 Q188 333 345 334 L345 381 Q345 430 315 456 Q285 482 228 482 Q165 482 108 452 L90 510 Q120 527 159 536.5 Q198 546 236 546 Z M216 53 Q255 53 286.5 68.5 Q318 84 345 117 L345 277 Q225 276 168.5 246 Q112 216 112 153 Q112 104 138.5 78.5 Q165 53 216 53 Z M227 -203 Q204 -203 191 -189.5 Q178 -176 178 -151 Q178 -126 191 -112 Q204 -98 227 -98 Q250 -98 263 -111.5 Q276 -125 276 -150 Q276 -175 263 -189 Q250 -203 227 -203 Z M236 616 Q177 616 142 654 Q107 692 104 760 L152 760 Q164 675 237 675 Q311 675 323 760 L368 760 Q365 692 330 654 Q295 616 236 616 Z " />
<glyph glyph-name="uni1EB1" unicode="&#x1eb1;" horiz-adv-x="494" d="M217 742 L127 869 L127 879 L192 879 L261 752 L261 742 L217 742 Z M236 616 Q178 616 143.5 652 Q109 688 106 752 L150 752 Q156 711 178 689.5 Q200 668 237 668 Q313 668 325 752 L366 752 Q363 688 328.5 652 Q294 616 236 616 Z M236 546 Q320 546 367.5 503.5 Q415 461 415 387 L415 0 L352 0 L352 67 Q301 -10 200 -10 Q125 -10 83 32 Q41 74 41 148 Q41 243 114.5 288 Q188 333 345 334 L345 381 Q345 430 315 456 Q285 482 228 482 Q165 482 108 452 L90 510 Q120 527 159 536.5 Q198 546 236 546 Z M216 53 Q255 53 286.5 68.5 Q318 84 345 117 L345 277 Q225 276 168.5 246 Q112 216 112 153 Q112 104 138.5 78.5 Q165 53 216 53 Z " />
<glyph glyph-name="uni1EB3" unicode="&#x1eb3;" horiz-adv-x="494" d="M235 860 Q211 860 180 842 L162 879 Q199 904 244 904 Q280 904 300.5 886.5 Q321 869 321 838 Q321 815 311 804.5 Q301 794 284 787 Q271 781 266 776.5 Q261 772 261 763 L263 744 L209 744 Q207 756 207 766 Q207 785 215 793.5 Q223 802 238 809 Q250 815 256 820.5 Q262 826 262 837 Q262 860 235 860 Z M236 616 Q178 616 143.5 652 Q109 688 106 752 L150 752 Q156 711 178 689.5 Q200 668 237 668 Q313 668 325 752 L366 752 Q363 688 328.5 652 Q294 616 236 616 Z M236 546 Q320 546 367.5 503.5 Q415 461 415 387 L415 0 L352 0 L352 67 Q301 -10 200 -10 Q125 -10 83 32 Q41 74 41 148 Q41 243 114.5 288 Q188 333 345 334 L345 381 Q345 430 315 456 Q285 482 228 482 Q165 482 108 452 L90 510 Q120 527 159 536.5 Q198 546 236 546 Z M216 53 Q255 53 286.5 68.5 Q318 84 345 117 L345 277 Q225 276 168.5 246 Q112 216 112 153 Q112 104 138.5 78.5 Q165 53 216 53 Z " />
<glyph glyph-name="uni1EB5" unicode="&#x1eb5;" horiz-adv-x="494" d="M178 854 Q144 854 139 793 L98 793 Q98 846 120 875.5 Q142 905 181 905 Q204 905 219 895.5 Q234 886 252 868 Q264 855 273.5 848.5 Q283 842 294 842 Q328 842 333 903 L374 903 Q374 850 352 820.5 Q330 791 291 791 Q268 791 253 800.5 Q238 810 220 828 Q208 841 198.5 847.5 Q189 854 178 854 Z M237 668 Q313 668 325 752 L366 752 Q363 688 328.5 652 Q294 616 236 616 Q178 616 143.5 652 Q109 688 106 752 L150 752 Q156 711 178 689.5 Q200 668 237 668 Z M236 546 Q320 546 367.5 503.5 Q415 461 415 387 L415 0 L352 0 L352 67 Q301 -10 200 -10 Q125 -10 83 32 Q41 74 41 148 Q41 243 114.5 288 Q188 333 345 334 L345 381 Q345 430 315 456 Q285 482 228 482 Q165 482 108 452 L90 510 Q120 527 159 536.5 Q198 546 236 546 Z M216 53 Q255 53 286.5 68.5 Q318 84 345 117 L345 277 Q225 276 168.5 246 Q112 216 112 153 Q112 104 138.5 78.5 Q165 53 216 53 Z " />
<glyph glyph-name="uni01CE" unicode="&#x1ce;" horiz-adv-x="494" d="M236 546 Q320 546 367.5 503.5 Q415 461 415 387 L415 0 L352 0 L352 67 Q301 -10 200 -10 Q125 -10 83 32 Q41 74 41 148 Q41 243 114.5 288 Q188 333 345 334 L345 381 Q345 430 315 456 Q285 482 228 482 Q165 482 108 452 L90 510 Q120 527 159 536.5 Q198 546 236 546 Z M216 53 Q255 53 286.5 68.5 Q318 84 345 117 L345 277 Q225 276 168.5 246 Q112 216 112 153 Q112 104 138.5 78.5 Q165 53 216 53 Z M368 784 L368 774 L272 615 L200 615 L104 774 L104 784 L155 784 L237 668 L320 784 L368 784 Z " />
<glyph glyph-name="acircumflex" unicode="&#xe2;" horiz-adv-x="494" d="M236 546 Q320 546 367.5 503.5 Q415 461 415 387 L415 0 L352 0 L352 67 Q301 -10 200 -10 Q125 -10 83 32 Q41 74 41 148 Q41 243 114.5 288 Q188 333 345 334 L345 381 Q345 430 315 456 Q285 482 228 482 Q165 482 108 452 L90 510 Q120 527 159 536.5 Q198 546 236 546 Z M216 53 Q255 53 286.5 68.5 Q318 84 345 117 L345 277 Q225 276 168.5 246 Q112 216 112 153 Q112 104 138.5 78.5 Q165 53 216 53 Z M368 625 L368 615 L317 615 L234 731 L152 615 L104 615 L104 625 L200 784 L272 784 L368 625 Z " />
<glyph glyph-name="uni1EA5" unicode="&#x1ea5;" horiz-adv-x="494" d="M481 851 L481 841 L385 714 L341 714 L341 724 L416 851 L481 851 Z M150 615 L102 615 L102 625 L200 764 L272 764 L370 625 L370 615 L319 615 L235 715 L150 615 Z M236 546 Q320 546 367.5 503.5 Q415 461 415 387 L415 0 L352 0 L352 67 Q301 -10 200 -10 Q125 -10 83 32 Q41 74 41 148 Q41 243 114.5 288 Q188 333 345 334 L345 381 Q345 430 315 456 Q285 482 228 482 Q165 482 108 452 L90 510 Q120 527 159 536.5 Q198 546 236 546 Z M216 53 Q255 53 286.5 68.5 Q318 84 345 117 L345 277 Q225 276 168.5 246 Q112 216 112 153 Q112 104 138.5 78.5 Q165 53 216 53 Z " />
<glyph glyph-name="uni1EAD" unicode="&#x1ead;" horiz-adv-x="494" d="M236 546 Q320 546 367.5 503.5 Q415 461 415 387 L415 0 L352 0 L352 67 Q301 -10 200 -10 Q125 -10 83 32 Q41 74 41 148 Q41 243 114.5 288 Q188 333 345 334 L345 381 Q345 430 315 456 Q285 482 228 482 Q165 482 108 452 L90 510 Q120 527 159 536.5 Q198 546 236 546 Z M216 53 Q255 53 286.5 68.5 Q318 84 345 117 L345 277 Q225 276 168.5 246 Q112 216 112 153 Q112 104 138.5 78.5 Q165 53 216 53 Z M227 -203 Q204 -203 191 -189.5 Q178 -176 178 -151 Q178 -126 191 -112 Q204 -98 227 -98 Q250 -98 263 -111.5 Q276 -125 276 -150 Q276 -175 263 -189 Q250 -203 227 -203 Z M368 625 L368 615 L317 615 L234 731 L152 615 L104 615 L104 625 L200 784 L272 784 L368 625 Z " />
<glyph glyph-name="uni1EA7" unicode="&#x1ea7;" horiz-adv-x="494" d="M87 714 L-3 841 L-3 851 L62 851 L131 724 L131 714 L87 714 Z M102 625 L200 764 L272 764 L370 625 L370 615 L319 615 L235 715 L150 615 L102 615 L102 625 Z M236 546 Q320 546 367.5 503.5 Q415 461 415 387 L415 0 L352 0 L352 67 Q301 -10 200 -10 Q125 -10 83 32 Q41 74 41 148 Q41 243 114.5 288 Q188 333 345 334 L345 381 Q345 430 315 456 Q285 482 228 482 Q165 482 108 452 L90 510 Q120 527 159 536.5 Q198 546 236 546 Z M216 53 Q255 53 286.5 68.5 Q318 84 345 117 L345 277 Q225 276 168.5 246 Q112 216 112 153 Q112 104 138.5 78.5 Q165 53 216 53 Z " />
<glyph glyph-name="uni1EA9" unicode="&#x1ea9;" horiz-adv-x="494" d="M374 876 Q410 876 430.5 858.5 Q451 841 451 810 Q451 787 441 776.5 Q431 766 414 759 Q401 753 396 748.5 Q391 744 391 735 L393 716 L339 716 Q337 728 337 738 Q337 757 345 765.5 Q353 774 368 781 Q380 787 386 792.5 Q392 798 392 809 Q392 832 365 832 Q341 832 310 814 L292 851 Q329 876 374 876 Z M150 615 L102 615 L102 625 L200 764 L272 764 L370 625 L370 615 L319 615 L235 715 L150 615 Z M236 546 Q320 546 367.5 503.5 Q415 461 415 387 L415 0 L352 0 L352 67 Q301 -10 200 -10 Q125 -10 83 32 Q41 74 41 148 Q41 243 114.5 288 Q188 333 345 334 L345 381 Q345 430 315 456 Q285 482 228 482 Q165 482 108 452 L90 510 Q120 527 159 536.5 Q198 546 236 546 Z M216 53 Q255 53 286.5 68.5 Q318 84 345 117 L345 277 Q225 276 168.5 246 Q112 216 112 153 Q112 104 138.5 78.5 Q165 53 216 53 Z " />
<glyph glyph-name="uni1EAB" unicode="&#x1eab;" horiz-adv-x="494" d="M178 856 Q144 856 139 795 L98 795 Q98 848 120 877.5 Q142 907 181 907 Q204 907 219 897.5 Q234 888 252 870 Q264 857 273.5 850.5 Q283 844 294 844 Q328 844 333 905 L374 905 Q374 852 352 822.5 Q330 793 291 793 Q268 793 253 802.5 Q238 812 220 830 Q208 843 198.5 849.5 Q189 856 178 856 Z M272 764 L370 625 L370 615 L319 615 L235 715 L150 615 L102 615 L102 625 L200 764 L272 764 Z M236 546 Q320 546 367.5 503.5 Q415 461 415 387 L415 0 L352 0 L352 67 Q301 -10 200 -10 Q125 -10 83 32 Q41 74 41 148 Q41 243 114.5 288 Q188 333 345 334 L345 381 Q345 430 315 456 Q285 482 228 482 Q165 482 108 452 L90 510 Q120 527 159 536.5 Q198 546 236 546 Z M216 53 Q255 53 286.5 68.5 Q318 84 345 117 L345 277 Q225 276 168.5 246 Q112 216 112 153 Q112 104 138.5 78.5 Q165 53 216 53 Z " />
<glyph glyph-name="adieresis" unicode="&#xe4;" horiz-adv-x="494" d="M236 546 Q320 546 367.5 503.5 Q415 461 415 387 L415 0 L352 0 L352 67 Q301 -10 200 -10 Q125 -10 83 32 Q41 74 41 148 Q41 243 114.5 288 Q188 333 345 334 L345 381 Q345 430 315 456 Q285 482 228 482 Q165 482 108 452 L90 510 Q120 527 159 536.5 Q198 546 236 546 Z M216 53 Q255 53 286.5 68.5 Q318 84 345 117 L345 277 Q225 276 168.5 246 Q112 216 112 153 Q112 104 138.5 78.5 Q165 53 216 53 Z M149 631 Q127 631 115 644 Q103 657 103 681 Q103 704 115 718 Q127 732 149 732 Q171 732 183.5 718.5 Q196 705 196 682 Q196 658 183.5 644.5 Q171 631 149 631 Z M322 631 Q300 631 288 644 Q276 657 276 681 Q276 704 288 718 Q300 732 322 732 Q344 732 356.5 718.5 Q369 705 369 682 Q369 658 356.5 644.5 Q344 631 322 631 Z " />
<glyph glyph-name="uni1EA1" unicode="&#x1ea1;" horiz-adv-x="494" d="M236 546 Q320 546 367.5 503.5 Q415 461 415 387 L415 0 L352 0 L352 67 Q301 -10 200 -10 Q125 -10 83 32 Q41 74 41 148 Q41 243 114.5 288 Q188 333 345 334 L345 381 Q345 430 315 456 Q285 482 228 482 Q165 482 108 452 L90 510 Q120 527 159 536.5 Q198 546 236 546 Z M216 53 Q255 53 286.5 68.5 Q318 84 345 117 L345 277 Q225 276 168.5 246 Q112 216 112 153 Q112 104 138.5 78.5 Q165 53 216 53 Z M227 -203 Q204 -203 191 -189.5 Q178 -176 178 -151 Q178 -126 191 -112 Q204 -98 227 -98 Q250 -98 263 -111.5 Q276 -125 276 -150 Q276 -175 263 -189 Q250 -203 227 -203 Z " />
<glyph glyph-name="agrave" unicode="&#xe0;" horiz-adv-x="494" d="M236 546 Q320 546 367.5 503.5 Q415 461 415 387 L415 0 L352 0 L352 67 Q301 -10 200 -10 Q125 -10 83 32 Q41 74 41 148 Q41 243 114.5 288 Q188 333 345 334 L345 381 Q345 430 315 456 Q285 482 228 482 Q165 482 108 452 L90 510 Q120 527 159 536.5 Q198 546 236 546 Z M216 53 Q255 53 286.5 68.5 Q318 84 345 117 L345 277 Q225 276 168.5 246 Q112 216 112 153 Q112 104 138.5 78.5 Q165 53 216 53 Z M118 774 L118 784 L199 784 L286 625 L286 615 L234 615 L118 774 Z " />
<glyph glyph-name="uni1EA3" unicode="&#x1ea3;" horiz-adv-x="494" d="M236 546 Q320 546 367.5 503.5 Q415 461 415 387 L415 0 L352 0 L352 67 Q301 -10 200 -10 Q125 -10 83 32 Q41 74 41 148 Q41 243 114.5 288 Q188 333 345 334 L345 381 Q345 430 315 456 Q285 482 228 482 Q165 482 108 452 L90 510 Q120 527 159 536.5 Q198 546 236 546 Z M216 53 Q255 53 286.5 68.5 Q318 84 345 117 L345 277 Q225 276 168.5 246 Q112 216 112 153 Q112 104 138.5 78.5 Q165 53 216 53 Z M208 615 Q206 627 206 638 Q206 661 214 672 Q222 683 238 693 Q250 701 255.5 707.5 Q261 714 261 725 Q261 750 234 750 Q209 750 176 730 L158 770 Q175 783 198 790 Q221 797 244 797 Q281 797 301.5 779 Q322 761 322 729 Q322 707 314 696 Q306 685 289 674 Q275 665 268.5 657.5 Q262 650 262 635 Q262 627 264 615 L208 615 Z " />
<glyph glyph-name="uni0251" unicode="&#x251;" horiz-adv-x="533" d="M447 534 L447 0 L382 0 L382 67 Q330 -12 239 -12 Q151 -12 101.5 62.5 Q52 137 52 270 Q52 400 104.5 473 Q157 546 251 546 Q288 546 321 530.5 Q354 515 377 486 L377 534 L447 534 Z M257 54 Q292 54 321.5 70 Q351 86 377 119 L377 422 Q351 451 318 467 Q285 483 251 483 Q189 483 157 429 Q125 375 125 270 Q125 163 158.5 108.5 Q192 54 257 54 Z " />
<glyph glyph-name="amacron" unicode="&#x101;" horiz-adv-x="494" d="M236 546 Q320 546 367.5 503.5 Q415 461 415 387 L415 0 L352 0 L352 67 Q301 -10 200 -10 Q125 -10 83 32 Q41 74 41 148 Q41 243 114.5 288 Q188 333 345 334 L345 381 Q345 430 315 456 Q285 482 228 482 Q165 482 108 452 L90 510 Q120 527 159 536.5 Q198 546 236 546 Z M216 53 Q255 53 286.5 68.5 Q318 84 345 117 L345 277 Q225 276 168.5 246 Q112 216 112 153 Q112 104 138.5 78.5 Q165 53 216 53 Z M102 697 L370 697 L370 642 L102 642 L102 697 Z " />
<glyph glyph-name="aogonek" unicode="&#x105;" horiz-adv-x="494" d="M458 -187 Q440 -201 415 -208.5 Q390 -216 364 -216 Q319 -216 294 -192.5 Q269 -169 269 -128 Q269 -89 291 -54.5 Q313 -20 353 3 L353 69 Q322 28 285 9 Q248 -10 200 -10 Q125 -10 83 32 Q41 74 41 148 Q41 243 114.5 288 Q188 333 345 334 L345 381 Q345 430 315 456 Q285 482 228 482 Q165 482 108 452 L90 510 Q120 527 159 536.5 Q198 546 236 546 Q320 546 367.5 503.5 Q415 461 415 387 L415 0 Q332 -50 332 -114 Q332 -161 379 -161 Q409 -161 440 -143 L458 -187 Z M216 53 Q255 53 286.5 68.5 Q318 84 345 117 L345 277 Q225 276 168.5 246 Q112 216 112 153 Q112 104 138.5 78.5 Q165 53 216 53 Z " />
<glyph glyph-name="aring" unicode="&#xe5;" horiz-adv-x="494" d="M236 546 Q320 546 367.5 503.5 Q415 461 415 387 L415 0 L352 0 L352 67 Q301 -10 200 -10 Q125 -10 83 32 Q41 74 41 148 Q41 243 114.5 288 Q188 333 345 334 L345 381 Q345 430 315 456 Q285 482 228 482 Q165 482 108 452 L90 510 Q120 527 159 536.5 Q198 546 236 546 Z M216 53 Q255 53 286.5 68.5 Q318 84 345 117 L345 277 Q225 276 168.5 246 Q112 216 112 153 Q112 104 138.5 78.5 Q165 53 216 53 Z M236 605 Q185 605 156.5 632.5 Q128 660 128 710 Q128 760 156.5 787.5 Q185 815 236 815 Q287 815 315.5 787.5 Q344 760 344 710 Q344 660 315.5 632.5 Q287 605 236 605 Z M236 646 Q292 646 292 710 Q292 774 236 774 Q180 774 180 710 Q180 646 236 646 Z " />
<glyph glyph-name="atilde" unicode="&#xe3;" horiz-adv-x="494" d="M236 546 Q320 546 367.5 503.5 Q415 461 415 387 L415 0 L352 0 L352 67 Q301 -10 200 -10 Q125 -10 83 32 Q41 74 41 148 Q41 243 114.5 288 Q188 333 345 334 L345 381 Q345 430 315 456 Q285 482 228 482 Q165 482 108 452 L90 510 Q120 527 159 536.5 Q198 546 236 546 Z M216 53 Q255 53 286.5 68.5 Q318 84 345 117 L345 277 Q225 276 168.5 246 Q112 216 112 153 Q112 104 138.5 78.5 Q165 53 216 53 Z M302 620 Q277 620 258.5 630.5 Q240 641 217 661 Q201 675 190 682 Q179 689 168 689 Q134 689 128 622 L82 622 Q83 681 106 714 Q129 747 170 747 Q195 747 213.5 736.5 Q232 726 255 706 Q271 692 282 685 Q293 678 304 678 Q338 678 344 745 L390 745 Q389 686 366 653 Q343 620 302 620 Z " />
<glyph glyph-name="ae" unicode="&#xe6;" horiz-adv-x="777" d="M731 290 Q731 269 728 249 L404 249 Q408 153 446.5 103.5 Q485 54 557 54 Q625 54 680 96 L707 41 Q678 16 637 2.5 Q596 -11 553 -11 Q492 -11 446.5 15 Q401 41 374 91 Q338 39 294.5 14.5 Q251 -10 196 -10 Q123 -10 82 32 Q41 74 41 148 Q41 239 113 282.5 Q185 326 337 327 L337 381 Q337 430 308 456 Q279 482 224 482 Q166 482 108 452 L90 510 Q122 527 159.5 536.5 Q197 546 232 546 Q289 546 328 523 Q367 500 384 457 Q404 500 443.5 523 Q483 546 536 546 Q628 546 679.5 478.5 Q731 411 731 290 Z M534 484 Q476 484 443.5 439.5 Q411 395 405 307 L660 307 Q660 390 626.5 437 Q593 484 534 484 Z M212 53 Q253 53 287.5 74 Q322 95 353 139 Q335 195 335 267 L336 271 Q221 270 166.5 241.5 Q112 213 112 153 Q112 53 212 53 Z " />
<glyph glyph-name="b" unicode="b" horiz-adv-x="534" d="M294 546 Q383 546 432.5 471 Q482 396 482 263 Q482 133 429 60.5 Q376 -12 282 -12 Q242 -12 207.5 5.5 Q173 23 150 55 L150 0 L86 0 L86 492 L86 770 L156 770 L156 475 Q208 546 294 546 Z M282 51 Q344 51 376.5 105 Q409 159 409 263 Q409 370 375 424.5 Q341 479 274 479 Q239 479 210 463.5 Q181 448 156 414 L156 111 Q182 83 214.5 67 Q247 51 282 51 Z " />
<glyph glyph-name="c" unicode="c" horiz-adv-x="445" d="M271 -11 Q166 -11 107 63 Q48 137 48 269 Q48 351 75 414 Q102 477 151.5 511.5 Q201 546 266 546 Q339 546 407 503 L378 448 Q316 482 264 482 Q197 482 159 427.5 Q121 373 121 275 Q121 166 160.5 110 Q200 54 277 54 Q337 54 388 87 L413 33 Q387 12 349.5 0.5 Q312 -11 271 -11 Z " />
<glyph glyph-name="cacute" unicode="&#x107;" horiz-adv-x="445" d="M271 -11 Q166 -11 107 63 Q48 137 48 269 Q48 351 75 414 Q102 477 151.5 511.5 Q201 546 266 546 Q339 546 407 503 L378 448 Q316 482 264 482 Q197 482 159 427.5 Q121 373 121 275 Q121 166 160.5 110 Q200 54 277 54 Q337 54 388 87 L413 33 Q387 12 349.5 0.5 Q312 -11 271 -11 Z M183 625 L278 784 L359 784 L359 774 L235 615 L183 615 L183 625 Z " />
<glyph glyph-name="ccaron" unicode="&#x10d;" horiz-adv-x="445" d="M271 -11 Q166 -11 107 63 Q48 137 48 269 Q48 351 75 414 Q102 477 151.5 511.5 Q201 546 266 546 Q339 546 407 503 L378 448 Q316 482 264 482 Q197 482 159 427.5 Q121 373 121 275 Q121 166 160.5 110 Q200 54 277 54 Q337 54 388 87 L413 33 Q387 12 349.5 0.5 Q312 -11 271 -11 Z M361 784 L361 774 L265 615 L193 615 L97 774 L97 784 L148 784 L230 668 L313 784 L361 784 Z " />
<glyph glyph-name="ccedilla" unicode="&#xe7;" horiz-adv-x="445" d="M254 -61 Q300 -61 325.5 -82 Q351 -103 351 -140 Q351 -181 322.5 -203.5 Q294 -226 243 -226 Q189 -226 150 -203 L164 -162 Q208 -181 243 -181 Q292 -181 292 -140 Q292 -99 246 -99 Q222 -99 203 -108 L185 -87 L218 -5 Q137 12 92.5 83.5 Q48 155 48 269 Q48 351 75 414 Q102 477 151.5 511.5 Q201 546 266 546 Q339 546 407 503 L378 448 Q316 482 264 482 Q197 482 159 427.5 Q121 373 121 275 Q121 166 160.5 110 Q200 54 277 54 Q337 54 388 87 L413 33 Q387 12 349.5 0.5 Q312 -11 271 -11 L267 -11 L234 -64 Q244 -61 254 -61 Z " />
<glyph glyph-name="ccircumflex" unicode="&#x109;" horiz-adv-x="445" d="M271 -11 Q166 -11 107 63 Q48 137 48 269 Q48 351 75 414 Q102 477 151.5 511.5 Q201 546 266 546 Q339 546 407 503 L378 448 Q316 482 264 482 Q197 482 159 427.5 Q121 373 121 275 Q121 166 160.5 110 Q200 54 277 54 Q337 54 388 87 L413 33 Q387 12 349.5 0.5 Q312 -11 271 -11 Z M361 625 L361 615 L310 615 L227 731 L145 615 L97 615 L97 625 L193 784 L265 784 L361 625 Z " />
<glyph glyph-name="cdotaccent" unicode="&#x10b;" horiz-adv-x="445" d="M271 -11 Q166 -11 107 63 Q48 137 48 269 Q48 351 75 414 Q102 477 151.5 511.5 Q201 546 266 546 Q339 546 407 503 L378 448 Q316 482 264 482 Q197 482 159 427.5 Q121 373 121 275 Q121 166 160.5 110 Q200 54 277 54 Q337 54 388 87 L413 33 Q387 12 349.5 0.5 Q312 -11 271 -11 Z M229 631 Q206 631 193 644.5 Q180 658 180 683 Q180 708 193 722 Q206 736 229 736 Q252 736 265 722.5 Q278 709 278 684 Q278 659 265 645 Q252 631 229 631 Z " />
<glyph glyph-name="d" unicode="d" horiz-adv-x="534" d="M448 770 L448 42 L448 0 L385 0 L385 69 Q332 -12 240 -12 Q151 -12 101.5 63 Q52 138 52 271 Q52 401 105 473.5 Q158 546 252 546 Q289 546 322 530.5 Q355 515 378 487 L378 770 L448 770 Z M260 55 Q295 55 324 70.5 Q353 86 378 120 L378 423 Q352 451 319.5 467 Q287 483 252 483 Q190 483 157.5 429 Q125 375 125 271 Q125 164 159 109.5 Q193 55 260 55 Z " />
<glyph glyph-name="eth" unicode="&#xf0;" horiz-adv-x="518" d="M312 679 Q391 612 428.5 515 Q466 418 466 286 Q466 140 412 64 Q358 -12 257 -12 Q156 -12 101.5 56.5 Q47 125 47 257 Q47 384 100 454.5 Q153 525 248 525 Q292 525 327 505 Q362 485 382 449 Q350 569 261 646 L148 572 L124 613 L223 675 Q181 702 142 718 L115 729 L133 779 L161 768 Q223 743 273 708 L370 772 L394 731 L312 679 Z M257 50 Q324 50 359 103 Q394 156 394 258 Q394 355 358 410 Q322 465 257 465 Q190 465 155 412 Q120 359 120 257 Q120 155 154.5 102.5 Q189 50 257 50 Z " />
<glyph glyph-name="dcaron" unicode="&#x10f;" horiz-adv-x="534" d="M378 770 L448 770 L448 42 L448 0 L385 0 L385 69 Q332 -12 240 -12 Q151 -12 101.5 63 Q52 138 52 271 Q52 401 105 473.5 Q158 546 252 546 Q289 546 322 530.5 Q355 515 378 487 L378 770 Z M595 770 L595 760 L567 560 L525 560 L525 770 L595 770 Z M260 55 Q295 55 324 70.5 Q353 86 378 120 L378 423 Q352 451 319.5 467 Q287 483 252 483 Q190 483 157.5 429 Q125 375 125 271 Q125 164 159 109.5 Q193 55 260 55 Z " />
<glyph glyph-name="dslash" unicode="&#x111;" horiz-adv-x="536" d="M514 624 L450 624 L450 0 L386 0 L386 67 Q334 -12 242 -12 Q153 -12 102.5 60.5 Q52 133 52 262 Q52 387 105.5 457.5 Q159 528 254 528 Q291 528 324 513 Q357 498 380 470 L380 624 L164 624 L164 674 L380 674 L380 770 L450 770 L450 674 L514 674 L514 624 Z M261 54 Q328 54 380 119 L380 405 Q354 433 321.5 449 Q289 465 254 465 Q190 465 157 413.5 Q124 362 124 262 Q124 159 158.5 106.5 Q193 54 261 54 Z " />
<glyph glyph-name="uni1E0D" unicode="&#x1e0d;" horiz-adv-x="534" d="M448 770 L448 42 L448 0 L385 0 L385 69 Q332 -12 240 -12 Q151 -12 101.5 63 Q52 138 52 271 Q52 401 105 473.5 Q158 546 252 546 Q289 546 322 530.5 Q355 515 378 487 L378 770 L448 770 Z M260 55 Q295 55 324 70.5 Q353 86 378 120 L378 423 Q352 451 319.5 467 Q287 483 252 483 Q190 483 157.5 429 Q125 375 125 271 Q125 164 159 109.5 Q193 55 260 55 Z M272 -203 Q249 -203 236 -189.5 Q223 -176 223 -151 Q223 -126 236 -112 Q249 -98 272 -98 Q295 -98 308 -111.5 Q321 -125 321 -150 Q321 -175 308 -189 Q295 -203 272 -203 Z " />
<glyph glyph-name="uni1E0F" unicode="&#x1e0f;" horiz-adv-x="534" d="M448 770 L448 42 L448 0 L385 0 L385 69 Q332 -12 240 -12 Q151 -12 101.5 63 Q52 138 52 271 Q52 401 105 473.5 Q158 546 252 546 Q289 546 322 530.5 Q355 515 378 487 L378 770 L448 770 Z M260 55 Q295 55 324 70.5 Q353 86 378 120 L378 423 Q352 451 319.5 467 Q287 483 252 483 Q190 483 157.5 429 Q125 375 125 271 Q125 164 159 109.5 Q193 55 260 55 Z M138 -109 L406 -109 L406 -164 L138 -164 L138 -109 Z " />
<glyph glyph-name="e" unicode="e" horiz-adv-x="502" d="M456 290 Q456 269 453 249 L121 249 Q125 153 164.5 103.5 Q204 54 278 54 Q348 54 405 96 L432 41 Q402 16 360.5 2.5 Q319 -11 274 -11 Q168 -11 109 62.5 Q50 136 50 267 Q50 398 105 472 Q160 546 257 546 Q351 546 403.5 478.5 Q456 411 456 290 Z M255 484 Q196 484 162 439.5 Q128 395 122 307 L385 307 Q385 390 350.5 437 Q316 484 255 484 Z " />
<glyph glyph-name="eacute" unicode="&#xe9;" horiz-adv-x="502" d="M456 290 Q456 269 453 249 L121 249 Q125 153 164.5 103.5 Q204 54 278 54 Q348 54 405 96 L432 41 Q402 16 360.5 2.5 Q319 -11 274 -11 Q168 -11 109 62.5 Q50 136 50 267 Q50 398 105 472 Q160 546 257 546 Q351 546 403.5 478.5 Q456 411 456 290 Z M255 484 Q196 484 162 439.5 Q128 395 122 307 L385 307 Q385 390 350.5 437 Q316 484 255 484 Z M211 625 L306 784 L387 784 L387 774 L263 615 L211 615 L211 625 Z " />
<glyph glyph-name="ebreve" unicode="&#x115;" horiz-adv-x="502" d="M456 290 Q456 269 453 249 L121 249 Q125 153 164.5 103.5 Q204 54 278 54 Q348 54 405 96 L432 41 Q402 16 360.5 2.5 Q319 -11 274 -11 Q168 -11 109 62.5 Q50 136 50 267 Q50 398 105 472 Q160 546 257 546 Q351 546 403.5 478.5 Q456 411 456 290 Z M255 484 Q196 484 162 439.5 Q128 395 122 307 L385 307 Q385 390 350.5 437 Q316 484 255 484 Z M257 616 Q198 616 163 654 Q128 692 125 760 L173 760 Q185 675 258 675 Q332 675 344 760 L389 760 Q386 692 351 654 Q316 616 257 616 Z " />
<glyph glyph-name="ecaron" unicode="&#x11b;" horiz-adv-x="502" d="M456 290 Q456 269 453 249 L121 249 Q125 153 164.5 103.5 Q204 54 278 54 Q348 54 405 96 L432 41 Q402 16 360.5 2.5 Q319 -11 274 -11 Q168 -11 109 62.5 Q50 136 50 267 Q50 398 105 472 Q160 546 257 546 Q351 546 403.5 478.5 Q456 411 456 290 Z M255 484 Q196 484 162 439.5 Q128 395 122 307 L385 307 Q385 390 350.5 437 Q316 484 255 484 Z M389 784 L389 774 L293 615 L221 615 L125 774 L125 784 L176 784 L258 668 L341 784 L389 784 Z " />
<glyph glyph-name="ecircumflex" unicode="&#xea;" horiz-adv-x="502" d="M456 290 Q456 269 453 249 L121 249 Q125 153 164.5 103.5 Q204 54 278 54 Q348 54 405 96 L432 41 Q402 16 360.5 2.5 Q319 -11 274 -11 Q168 -11 109 62.5 Q50 136 50 267 Q50 398 105 472 Q160 546 257 546 Q351 546 403.5 478.5 Q456 411 456 290 Z M255 484 Q196 484 162 439.5 Q128 395 122 307 L385 307 Q385 390 350.5 437 Q316 484 255 484 Z M389 625 L389 615 L338 615 L255 731 L173 615 L125 615 L125 625 L221 784 L293 784 L389 625 Z " />
<glyph glyph-name="uni1EBF" unicode="&#x1ebf;" horiz-adv-x="502" d="M502 851 L502 841 L406 714 L362 714 L362 724 L437 851 L502 851 Z M171 615 L123 615 L123 625 L221 764 L293 764 L391 625 L391 615 L340 615 L256 715 L171 615 Z M257 546 Q351 546 403.5 478.5 Q456 411 456 290 Q456 269 453 249 L121 249 Q125 153 164.5 103.5 Q204 54 278 54 Q348 54 405 96 L432 41 Q402 16 360.5 2.5 Q319 -11 274 -11 Q168 -11 109 62.5 Q50 136 50 267 Q50 398 105 472 Q160 546 257 546 Z M255 484 Q196 484 162 439.5 Q128 395 122 307 L385 307 Q385 390 350.5 437 Q316 484 255 484 Z " />
<glyph glyph-name="uni1EC7" unicode="&#x1ec7;" horiz-adv-x="502" d="M456 290 Q456 269 453 249 L121 249 Q125 153 164.5 103.5 Q204 54 278 54 Q348 54 405 96 L432 41 Q402 16 360.5 2.5 Q319 -11 274 -11 Q168 -11 109 62.5 Q50 136 50 267 Q50 398 105 472 Q160 546 257 546 Q351 546 403.5 478.5 Q456 411 456 290 Z M255 484 Q196 484 162 439.5 Q128 395 122 307 L385 307 Q385 390 350.5 437 Q316 484 255 484 Z M259 -203 Q236 -203 223 -189.5 Q210 -176 210 -151 Q210 -126 223 -112 Q236 -98 259 -98 Q282 -98 295 -111.5 Q308 -125 308 -150 Q308 -175 295 -189 Q282 -203 259 -203 Z M389 625 L389 615 L338 615 L255 731 L173 615 L125 615 L125 625 L221 784 L293 784 L389 625 Z " />
<glyph glyph-name="uni1EC1" unicode="&#x1ec1;" horiz-adv-x="502" d="M108 714 L18 841 L18 851 L83 851 L152 724 L152 714 L108 714 Z M123 625 L221 764 L293 764 L391 625 L391 615 L340 615 L256 715 L171 615 L123 615 L123 625 Z M456 290 Q456 269 453 249 L121 249 Q125 153 164.5 103.5 Q204 54 278 54 Q348 54 405 96 L432 41 Q402 16 360.5 2.5 Q319 -11 274 -11 Q168 -11 109 62.5 Q50 136 50 267 Q50 398 105 472 Q160 546 257 546 Q351 546 403.5 478.5 Q456 411 456 290 Z M255 484 Q196 484 162 439.5 Q128 395 122 307 L385 307 Q385 390 350.5 437 Q316 484 255 484 Z " />
<glyph glyph-name="uni1EC3" unicode="&#x1ec3;" horiz-adv-x="502" d="M395 876 Q431 876 451.5 858.5 Q472 841 472 810 Q472 787 462 776.5 Q452 766 435 759 Q422 753 417 748.5 Q412 744 412 735 L414 716 L360 716 Q358 728 358 738 Q358 757 366 765.5 Q374 774 389 781 Q401 787 407 792.5 Q413 798 413 809 Q413 832 386 832 Q362 832 331 814 L313 851 Q350 876 395 876 Z M171 615 L123 615 L123 625 L221 764 L293 764 L391 625 L391 615 L340 615 L256 715 L171 615 Z M257 546 Q351 546 403.5 478.5 Q456 411 456 290 Q456 269 453 249 L121 249 Q125 153 164.5 103.5 Q204 54 278 54 Q348 54 405 96 L432 41 Q402 16 360.5 2.5 Q319 -11 274 -11 Q168 -11 109 62.5 Q50 136 50 267 Q50 398 105 472 Q160 546 257 546 Z M255 484 Q196 484 162 439.5 Q128 395 122 307 L385 307 Q385 390 350.5 437 Q316 484 255 484 Z " />
<glyph glyph-name="uni1EC5" unicode="&#x1ec5;" horiz-adv-x="502" d="M199 856 Q165 856 160 795 L119 795 Q119 848 141 877.5 Q163 907 202 907 Q225 907 240 897.5 Q255 888 273 870 Q285 857 294.5 850.5 Q304 844 315 844 Q349 844 354 905 L395 905 Q395 852 373 822.5 Q351 793 312 793 Q289 793 274 802.5 Q259 812 241 830 Q229 843 219.5 849.5 Q210 856 199 856 Z M293 764 L391 625 L391 615 L340 615 L256 715 L171 615 L123 615 L123 625 L221 764 L293 764 Z M456 290 Q456 269 453 249 L121 249 Q125 153 164.5 103.5 Q204 54 278 54 Q348 54 405 96 L432 41 Q402 16 360.5 2.5 Q319 -11 274 -11 Q168 -11 109 62.5 Q50 136 50 267 Q50 398 105 472 Q160 546 257 546 Q351 546 403.5 478.5 Q456 411 456 290 Z M255 484 Q196 484 162 439.5 Q128 395 122 307 L385 307 Q385 390 350.5 437 Q316 484 255 484 Z " />
<glyph glyph-name="edieresis" unicode="&#xeb;" horiz-adv-x="502" d="M170 631 Q148 631 136 644 Q124 657 124 681 Q124 704 136 718 Q148 732 170 732 Q192 732 204.5 718.5 Q217 705 217 682 Q217 658 204.5 644.5 Q192 631 170 631 Z M343 631 Q321 631 309 644 Q297 657 297 681 Q297 704 309 718 Q321 732 343 732 Q365 732 377.5 718.5 Q390 705 390 682 Q390 658 377.5 644.5 Q365 631 343 631 Z M456 290 Q456 269 453 249 L121 249 Q125 153 164.5 103.5 Q204 54 278 54 Q348 54 405 96 L432 41 Q402 16 360.5 2.5 Q319 -11 274 -11 Q168 -11 109 62.5 Q50 136 50 267 Q50 398 105 472 Q160 546 257 546 Q351 546 403.5 478.5 Q456 411 456 290 Z M255 484 Q196 484 162 439.5 Q128 395 122 307 L385 307 Q385 390 350.5 437 Q316 484 255 484 Z " />
<glyph glyph-name="edotaccent" unicode="&#x117;" horiz-adv-x="502" d="M456 290 Q456 269 453 249 L121 249 Q125 153 164.5 103.5 Q204 54 278 54 Q348 54 405 96 L432 41 Q402 16 360.5 2.5 Q319 -11 274 -11 Q168 -11 109 62.5 Q50 136 50 267 Q50 398 105 472 Q160 546 257 546 Q351 546 403.5 478.5 Q456 411 456 290 Z M255 484 Q196 484 162 439.5 Q128 395 122 307 L385 307 Q385 390 350.5 437 Q316 484 255 484 Z M257 631 Q234 631 221 644.5 Q208 658 208 683 Q208 708 221 722 Q234 736 257 736 Q280 736 293 722.5 Q306 709 306 684 Q306 659 293 645 Q280 631 257 631 Z " />
<glyph glyph-name="uni1EB9" unicode="&#x1eb9;" horiz-adv-x="502" d="M456 290 Q456 269 453 249 L121 249 Q125 153 164.5 103.5 Q204 54 278 54 Q348 54 405 96 L432 41 Q402 16 360.5 2.5 Q319 -11 274 -11 Q168 -11 109 62.5 Q50 136 50 267 Q50 398 105 472 Q160 546 257 546 Q351 546 403.5 478.5 Q456 411 456 290 Z M255 484 Q196 484 162 439.5 Q128 395 122 307 L385 307 Q385 390 350.5 437 Q316 484 255 484 Z M259 -203 Q236 -203 223 -189.5 Q210 -176 210 -151 Q210 -126 223 -112 Q236 -98 259 -98 Q282 -98 295 -111.5 Q308 -125 308 -150 Q308 -175 295 -189 Q282 -203 259 -203 Z " />
<glyph glyph-name="egrave" unicode="&#xe8;" horiz-adv-x="502" d="M456 290 Q456 269 453 249 L121 249 Q125 153 164.5 103.5 Q204 54 278 54 Q348 54 405 96 L432 41 Q402 16 360.5 2.5 Q319 -11 274 -11 Q168 -11 109 62.5 Q50 136 50 267 Q50 398 105 472 Q160 546 257 546 Q351 546 403.5 478.5 Q456 411 456 290 Z M255 484 Q196 484 162 439.5 Q128 395 122 307 L385 307 Q385 390 350.5 437 Q316 484 255 484 Z M139 774 L139 784 L220 784 L307 625 L307 615 L255 615 L139 774 Z " />
<glyph glyph-name="uni1EBB" unicode="&#x1ebb;" horiz-adv-x="502" d="M456 290 Q456 269 453 249 L121 249 Q125 153 164.5 103.5 Q204 54 278 54 Q348 54 405 96 L432 41 Q402 16 360.5 2.5 Q319 -11 274 -11 Q168 -11 109 62.5 Q50 136 50 267 Q50 398 105 472 Q160 546 257 546 Q351 546 403.5 478.5 Q456 411 456 290 Z M255 484 Q196 484 162 439.5 Q128 395 122 307 L385 307 Q385 390 350.5 437 Q316 484 255 484 Z M229 615 Q227 627 227 638 Q227 661 235 672 Q243 683 259 693 Q271 701 276.5 707.5 Q282 714 282 725 Q282 750 255 750 Q230 750 197 730 L179 770 Q196 783 219 790 Q242 797 265 797 Q302 797 322.5 779 Q343 761 343 729 Q343 707 335 696 Q327 685 310 674 Q296 665 289.5 657.5 Q283 650 283 635 Q283 627 285 615 L229 615 Z " />
<glyph glyph-name="emacron" unicode="&#x113;" horiz-adv-x="502" d="M456 290 Q456 269 453 249 L121 249 Q125 153 164.5 103.5 Q204 54 278 54 Q348 54 405 96 L432 41 Q402 16 360.5 2.5 Q319 -11 274 -11 Q168 -11 109 62.5 Q50 136 50 267 Q50 398 105 472 Q160 546 257 546 Q351 546 403.5 478.5 Q456 411 456 290 Z M255 484 Q196 484 162 439.5 Q128 395 122 307 L385 307 Q385 390 350.5 437 Q316 484 255 484 Z M123 697 L391 697 L391 642 L123 642 L123 697 Z " />
<glyph glyph-name="eogonek" unicode="&#x119;" horiz-adv-x="502" d="M456 290 Q456 269 453 249 L121 249 Q125 153 164.5 103.5 Q204 54 278 54 Q348 54 405 96 L432 41 Q414 28 409 25.5 Q404 23 398 19 Q302 -42 302 -114 Q302 -161 349 -161 Q379 -161 410 -143 L428 -187 Q410 -201 385 -208.5 Q360 -216 334 -216 Q289 -216 264 -192.5 Q239 -169 239 -128 Q239 -62 300 -9 Q284 -11 274 -11 Q168 -11 109 62.5 Q50 136 50 267 Q50 398 105 472 Q160 546 257 546 Q351 546 403.5 478.5 Q456 411 456 290 Z M255 484 Q196 484 162 439.5 Q128 395 122 307 L385 307 Q385 390 350.5 437 Q316 484 255 484 Z " />
<glyph glyph-name="uni1EBD" unicode="&#x1ebd;" horiz-adv-x="502" d="M456 290 Q456 269 453 249 L121 249 Q125 153 164.5 103.5 Q204 54 278 54 Q348 54 405 96 L432 41 Q402 16 360.5 2.5 Q319 -11 274 -11 Q168 -11 109 62.5 Q50 136 50 267 Q50 398 105 472 Q160 546 257 546 Q351 546 403.5 478.5 Q456 411 456 290 Z M255 484 Q196 484 162 439.5 Q128 395 122 307 L385 307 Q385 390 350.5 437 Q316 484 255 484 Z M323 620 Q298 620 279.5 630.5 Q261 641 238 661 Q222 675 211 682 Q200 689 189 689 Q155 689 149 622 L103 622 Q104 681 127 714 Q150 747 191 747 Q216 747 234.5 736.5 Q253 726 276 706 Q292 692 303 685 Q314 678 325 678 Q359 678 365 745 L411 745 Q410 686 387 653 Q364 620 323 620 Z " />
<glyph glyph-name="f" unicode="f" horiz-adv-x="316" d="M94 476 L7 476 L7 534 L94 534 L94 611 Q94 688 140 731 Q186 774 270 774 Q296 774 313 770 L313 708 Q289 711 270 711 Q164 711 164 611 L164 534 L295 534 L295 476 L164 476 L164 0 L94 0 L94 476 Z " />
<glyph glyph-name="g" unicode="g" horiz-adv-x="537" d="M451 534 L451 -13 Q451 -110 395 -164.5 Q339 -219 239 -219 Q200 -219 163.5 -211 Q127 -203 102 -189 L124 -127 Q178 -155 239 -155 Q309 -155 345 -119 Q381 -83 381 -13 L381 90 Q328 19 241 19 Q152 19 102 89.5 Q52 160 52 286 Q52 409 105 477.5 Q158 546 253 546 Q293 546 328.5 528.5 Q364 511 387 479 L387 534 L451 534 Z M259 85 Q295 85 325 101 Q355 117 381 150 L381 422 Q355 451 322 467 Q289 483 253 483 Q190 483 157.5 433 Q125 383 125 286 Q125 187 159 136 Q193 85 259 85 Z " />
<glyph glyph-name="gbreve" unicode="&#x11f;" horiz-adv-x="537" d="M451 534 L451 -13 Q451 -110 395 -164.5 Q339 -219 239 -219 Q200 -219 163.5 -211 Q127 -203 102 -189 L124 -127 Q178 -155 239 -155 Q309 -155 345 -119 Q381 -83 381 -13 L381 90 Q328 19 241 19 Q152 19 102 89.5 Q52 160 52 286 Q52 409 105 477.5 Q158 546 253 546 Q293 546 328.5 528.5 Q364 511 387 479 L387 534 L451 534 Z M259 85 Q295 85 325 101 Q355 117 381 150 L381 422 Q355 451 322 467 Q289 483 253 483 Q190 483 157.5 433 Q125 383 125 286 Q125 187 159 136 Q193 85 259 85 Z M264 616 Q205 616 170 654 Q135 692 132 760 L180 760 Q192 675 265 675 Q339 675 351 760 L396 760 Q393 692 358 654 Q323 616 264 616 Z " />
<glyph glyph-name="gcaron" unicode="&#x1e7;" horiz-adv-x="537" d="M451 534 L451 -13 Q451 -110 395 -164.5 Q339 -219 239 -219 Q200 -219 163.5 -211 Q127 -203 102 -189 L124 -127 Q178 -155 239 -155 Q309 -155 345 -119 Q381 -83 381 -13 L381 90 Q328 19 241 19 Q152 19 102 89.5 Q52 160 52 286 Q52 409 105 477.5 Q158 546 253 546 Q293 546 328.5 528.5 Q364 511 387 479 L387 534 L451 534 Z M259 85 Q295 85 325 101 Q355 117 381 150 L381 422 Q355 451 322 467 Q289 483 253 483 Q190 483 157.5 433 Q125 383 125 286 Q125 187 159 136 Q193 85 259 85 Z M396 784 L396 774 L300 615 L228 615 L132 774 L132 784 L183 784 L265 668 L348 784 L396 784 Z " />
<glyph glyph-name="gcircumflex" unicode="&#x11d;" horiz-adv-x="537" d="M451 534 L451 -13 Q451 -110 395 -164.5 Q339 -219 239 -219 Q200 -219 163.5 -211 Q127 -203 102 -189 L124 -127 Q178 -155 239 -155 Q309 -155 345 -119 Q381 -83 381 -13 L381 90 Q328 19 241 19 Q152 19 102 89.5 Q52 160 52 286 Q52 409 105 477.5 Q158 546 253 546 Q293 546 328.5 528.5 Q364 511 387 479 L387 534 L451 534 Z M259 85 Q295 85 325 101 Q355 117 381 150 L381 422 Q355 451 322 467 Q289 483 253 483 Q190 483 157.5 433 Q125 383 125 286 Q125 187 159 136 Q193 85 259 85 Z M396 625 L396 615 L345 615 L262 731 L180 615 L132 615 L132 625 L228 784 L300 784 L396 625 Z " />
<glyph glyph-name="gcommaaccent" unicode="&#x123;" horiz-adv-x="537" d="M451 534 L451 -13 Q451 -110 395 -164.5 Q339 -219 239 -219 Q200 -219 163.5 -211 Q127 -203 102 -189 L124 -127 Q178 -155 239 -155 Q309 -155 345 -119 Q381 -83 381 -13 L381 90 Q328 19 241 19 Q152 19 102 89.5 Q52 160 52 286 Q52 409 105 477.5 Q158 546 253 546 Q293 546 328.5 528.5 Q364 511 387 479 L387 534 L451 534 Z M259 85 Q295 85 325 101 Q355 117 381 150 L381 422 Q355 451 322 467 Q289 483 253 483 Q190 483 157.5 433 Q125 383 125 286 Q125 187 159 136 Q193 85 259 85 Z M339 772 Q314 745 304.5 718.5 Q295 692 295 650 Q295 635 297 617 L227 617 Q225 635 225 649 Q225 695 245 730.5 Q265 766 311 802 L339 772 Z " />
<glyph glyph-name="gdotaccent" unicode="&#x121;" horiz-adv-x="537" d="M451 534 L451 -13 Q451 -110 395 -164.5 Q339 -219 239 -219 Q200 -219 163.5 -211 Q127 -203 102 -189 L124 -127 Q178 -155 239 -155 Q309 -155 345 -119 Q381 -83 381 -13 L381 90 Q328 19 241 19 Q152 19 102 89.5 Q52 160 52 286 Q52 409 105 477.5 Q158 546 253 546 Q293 546 328.5 528.5 Q364 511 387 479 L387 534 L451 534 Z M259 85 Q295 85 325 101 Q355 117 381 150 L381 422 Q355 451 322 467 Q289 483 253 483 Q190 483 157.5 433 Q125 383 125 286 Q125 187 159 136 Q193 85 259 85 Z M264 631 Q241 631 228 644.5 Q215 658 215 683 Q215 708 228 722 Q241 736 264 736 Q287 736 300 722.5 Q313 709 313 684 Q313 659 300 645 Q287 631 264 631 Z " />
<glyph glyph-name="uni1E21" unicode="&#x1e21;" horiz-adv-x="537" d="M451 534 L451 -13 Q451 -110 395 -164.5 Q339 -219 239 -219 Q200 -219 163.5 -211 Q127 -203 102 -189 L124 -127 Q178 -155 239 -155 Q309 -155 345 -119 Q381 -83 381 -13 L381 90 Q328 19 241 19 Q152 19 102 89.5 Q52 160 52 286 Q52 409 105 477.5 Q158 546 253 546 Q293 546 328.5 528.5 Q364 511 387 479 L387 534 L451 534 Z M259 85 Q295 85 325 101 Q355 117 381 150 L381 422 Q355 451 322 467 Q289 483 253 483 Q190 483 157.5 433 Q125 383 125 286 Q125 187 159 136 Q193 85 259 85 Z M130 697 L398 697 L398 642 L130 642 L130 697 Z " />
<glyph glyph-name="uni0261" unicode="&#x261;" horiz-adv-x="537" d="M451 534 L451 -13 Q451 -110 395 -164.5 Q339 -219 239 -219 Q200 -219 163.5 -211 Q127 -203 102 -189 L124 -127 Q178 -155 239 -155 Q309 -155 345 -119 Q381 -83 381 -13 L381 90 Q328 19 241 19 Q152 19 102 89.5 Q52 160 52 286 Q52 409 105 477.5 Q158 546 253 546 Q293 546 328.5 528.5 Q364 511 387 479 L387 534 L451 534 Z M259 85 Q295 85 325 101 Q355 117 381 150 L381 422 Q355 451 322 467 Q289 483 253 483 Q190 483 157.5 433 Q125 383 125 286 Q125 187 159 136 Q193 85 259 85 Z " />
<glyph glyph-name="h" unicode="h" horiz-adv-x="544" d="M305 546 Q379 546 421 503.5 Q463 461 463 387 L463 0 L393 0 L393 382 Q393 479 287 479 Q212 479 156 426 L156 0 L86 0 L86 770 L156 770 L156 485 Q217 546 305 546 Z " />
<glyph glyph-name="hbar" unicode="&#x127;" horiz-adv-x="542" d="M302 528 Q377 528 419 485.5 Q461 443 461 369 L461 0 L391 0 L391 364 Q391 412 364 437 Q337 462 284 462 Q208 462 152 409 L152 0 L82 0 L82 624 L18 624 L18 674 L82 674 L82 770 L152 770 L152 674 L368 674 L368 624 L152 624 L152 467 Q213 528 302 528 Z " />
<glyph glyph-name="uni1E2B" unicode="&#x1e2b;" horiz-adv-x="544" d="M305 546 Q379 546 421 503.5 Q463 461 463 387 L463 0 L393 0 L393 382 Q393 479 287 479 Q212 479 156 426 L156 0 L86 0 L86 770 L156 770 L156 485 Q217 546 305 546 Z M275 -221 Q216 -221 181 -183 Q146 -145 143 -77 L191 -77 Q203 -162 276 -162 Q350 -162 362 -77 L407 -77 Q404 -145 369 -183 Q334 -221 275 -221 Z " />
<glyph glyph-name="hcircumflex" unicode="&#x125;" horiz-adv-x="544" d="M120 923 L26 827 L-28 827 L-28 839 L82 972 L160 972 L270 839 L270 827 L213 827 L120 923 Z M305 546 Q379 546 421 503.5 Q463 461 463 387 L463 0 L393 0 L393 382 Q393 479 287 479 Q212 479 156 426 L156 0 L86 0 L86 770 L156 770 L156 485 Q217 546 305 546 Z " />
<glyph glyph-name="uni1E25" unicode="&#x1e25;" horiz-adv-x="544" d="M305 546 Q379 546 421 503.5 Q463 461 463 387 L463 0 L393 0 L393 382 Q393 479 287 479 Q212 479 156 426 L156 0 L86 0 L86 770 L156 770 L156 485 Q217 546 305 546 Z M275 -203 Q252 -203 239 -189.5 Q226 -176 226 -151 Q226 -126 239 -112 Q252 -98 275 -98 Q298 -98 311 -111.5 Q324 -125 324 -150 Q324 -175 311 -189 Q298 -203 275 -203 Z " />
<glyph glyph-name="i" unicode="i" horiz-adv-x="246" d="M88 534 L158 534 L158 0 L88 0 L88 534 Z M123 631 Q100 631 87 644.5 Q74 658 74 683 Q74 708 87 722 Q100 736 123 736 Q146 736 159 722.5 Q172 709 172 684 Q172 659 159 645 Q146 631 123 631 Z " />
<glyph glyph-name="dotlessi" unicode="&#x131;" horiz-adv-x="246" d="M88 534 L158 534 L158 0 L88 0 L88 534 Z " />
<glyph glyph-name="iacute" unicode="&#xed;" horiz-adv-x="246" d="M88 534 L158 534 L158 0 L88 0 L88 534 Z M77 625 L172 784 L253 784 L253 774 L129 615 L77 615 L77 625 Z " />
<glyph glyph-name="uni01D0" unicode="&#x1d0;" horiz-adv-x="246" d="M88 534 L158 534 L158 0 L88 0 L88 534 Z M255 784 L255 774 L159 615 L87 615 L-9 774 L-9 784 L42 784 L124 668 L207 784 L255 784 Z " />
<glyph glyph-name="icircumflex" unicode="&#xee;" horiz-adv-x="246" d="M88 534 L158 534 L158 0 L88 0 L88 534 Z M255 625 L255 615 L204 615 L121 731 L39 615 L-9 615 L-9 625 L87 784 L159 784 L255 625 Z " />
<glyph glyph-name="idieresis" unicode="&#xef;" horiz-adv-x="246" d="M48 631 Q26 631 14 644 Q2 657 2 681 Q2 704 14 718 Q26 732 48 732 Q70 732 82 718.5 Q94 705 94 682 Q94 658 82 644.5 Q70 631 48 631 Z M198 631 Q176 631 164 644 Q152 657 152 681 Q152 704 164 718 Q176 732 198 732 Q220 732 232 718.5 Q244 705 244 682 Q244 658 232 644.5 Q220 631 198 631 Z M88 534 L158 534 L158 0 L88 0 L88 534 Z " />
<glyph glyph-name="uni1ECB" unicode="&#x1ecb;" horiz-adv-x="246" d="M88 534 L158 534 L158 0 L88 0 L88 534 Z M123 631 Q100 631 87 644.5 Q74 658 74 683 Q74 708 87 722 Q100 736 123 736 Q146 736 159 722.5 Q172 709 172 684 Q172 659 159 645 Q146 631 123 631 Z M123 -203 Q100 -203 87 -189.5 Q74 -176 74 -151 Q74 -126 87 -112 Q100 -98 123 -98 Q146 -98 159 -111.5 Q172 -125 172 -150 Q172 -175 159 -189 Q146 -203 123 -203 Z " />
<glyph glyph-name="igrave" unicode="&#xec;" horiz-adv-x="246" d="M88 534 L158 534 L158 0 L88 0 L88 534 Z M5 774 L5 784 L86 784 L173 625 L173 615 L121 615 L5 774 Z " />
<glyph glyph-name="uni1EC9" unicode="&#x1ec9;" horiz-adv-x="246" d="M88 534 L158 534 L158 0 L88 0 L88 534 Z M95 615 Q93 627 93 638 Q93 661 101 672 Q109 683 125 693 Q137 701 142.5 707.5 Q148 714 148 725 Q148 750 121 750 Q96 750 63 730 L45 770 Q62 783 85 790 Q108 797 131 797 Q168 797 188.5 779 Q209 761 209 729 Q209 707 201 696 Q193 685 176 674 Q162 665 155.5 657.5 Q149 650 149 635 Q149 627 151 615 L95 615 Z " />
<glyph glyph-name="ij" unicode="&#x133;" horiz-adv-x="492" d="M88 534 L158 534 L158 0 L88 0 L88 534 Z M123 631 Q100 631 87 644.5 Q74 658 74 683 Q74 708 87 722 Q100 736 123 736 Q146 736 159 722.5 Q172 709 172 684 Q172 659 159 645 Q146 631 123 631 Z M207 -161 Q257 -143 284 -120.5 Q311 -98 322.5 -64 Q334 -30 334 25 L334 534 L404 534 L404 25 Q404 -46 388.5 -90 Q373 -134 336 -163.5 Q299 -193 231 -219 L207 -161 Z M369 631 Q346 631 333 644.5 Q320 658 320 683 Q320 708 333 722 Q346 736 369 736 Q392 736 405 722.5 Q418 709 418 684 Q418 659 405 645 Q392 631 369 631 Z " />
<glyph glyph-name="imacron" unicode="&#x12b;" horiz-adv-x="246" d="M17 697 L229 697 L229 642 L17 642 L17 697 Z M88 534 L158 534 L158 0 L88 0 L88 534 Z " />
<glyph glyph-name="iogonek" unicode="&#x12f;" horiz-adv-x="246" d="M123 631 Q100 631 87 644.5 Q74 658 74 683 Q74 708 87 722 Q100 736 123 736 Q146 736 159 722.5 Q172 709 172 684 Q172 659 159 645 Q146 631 123 631 Z M218 -187 Q200 -201 175 -208.5 Q150 -216 124 -216 Q79 -216 54 -192.5 Q29 -169 29 -128 Q29 -95 46.5 -61 Q64 -27 95 0 L88 0 L88 534 L158 534 L158 0 Q92 -58 92 -114 Q92 -161 139 -161 Q169 -161 200 -143 L218 -187 Z " />
<glyph glyph-name="itilde" unicode="&#x129;" horiz-adv-x="246" d="M178 620 Q154 620 138.5 631 Q123 642 106 662 Q93 677 85 683.5 Q77 690 66 690 Q36 690 31 622 L-14 622 Q-14 681 7.5 714 Q29 747 68 747 Q92 747 107.5 736 Q123 725 140 705 Q153 690 161 683.5 Q169 677 180 677 Q210 677 215 745 L260 745 Q260 686 238.5 653 Q217 620 178 620 Z M88 534 L158 534 L158 0 L88 0 L88 534 Z " />
<glyph glyph-name="j" unicode="j" horiz-adv-x="246" d="M-39 -161 Q11 -143 38 -120.5 Q65 -98 76.5 -64 Q88 -30 88 25 L88 534 L158 534 L158 25 Q158 -46 142.5 -90 Q127 -134 90 -163.5 Q53 -193 -15 -219 L-39 -161 Z M123 631 Q100 631 87 644.5 Q74 658 74 683 Q74 708 87 722 Q100 736 123 736 Q146 736 159 722.5 Q172 709 172 684 Q172 659 159 645 Q146 631 123 631 Z " />
<glyph glyph-name="uni0237" unicode="&#x237;" horiz-adv-x="246" d="M-39 -161 Q11 -143 38 -120.5 Q65 -98 76.5 -64 Q88 -30 88 25 L88 534 L158 534 L158 25 Q158 -46 142.5 -90 Q127 -134 90 -163.5 Q53 -193 -15 -219 L-39 -161 Z " />
<glyph glyph-name="jcircumflex" unicode="&#x135;" horiz-adv-x="246" d="M-39 -161 Q11 -143 38 -120.5 Q65 -98 76.5 -64 Q88 -30 88 25 L88 534 L158 534 L158 25 Q158 -46 142.5 -90 Q127 -134 90 -163.5 Q53 -193 -15 -219 L-39 -161 Z M255 625 L255 615 L204 615 L121 731 L39 615 L-9 615 L-9 625 L87 784 L159 784 L255 625 Z " />
<glyph glyph-name="k" unicode="k" horiz-adv-x="487" d="M227 253 L156 170 L156 0 L86 0 L86 770 L156 770 L156 256 L379 534 L466 534 L275 309 L475 0 L388 0 L227 253 Z " />
<glyph glyph-name="kcommaaccent" unicode="&#x137;" horiz-adv-x="487" d="M227 253 L156 170 L156 0 L86 0 L86 770 L156 770 L156 256 L379 534 L466 534 L275 309 L475 0 L388 0 L227 253 Z M191 -238 Q216 -211 225.5 -184.5 Q235 -158 235 -116 Q235 -101 233 -83 L303 -83 Q305 -101 305 -115 Q305 -161 285 -196.5 Q265 -232 219 -268 L191 -238 Z " />
<glyph glyph-name="kgreenlandic" unicode="&#x138;" horiz-adv-x="487" d="M227 253 L156 170 L156 0 L86 0 L86 534 L156 534 L156 256 L379 534 L466 534 L275 309 L475 0 L388 0 L227 253 Z " />
<glyph glyph-name="l" unicode="l" horiz-adv-x="280" d="M190 -5 Q140 -5 112 23 Q84 51 84 104 L84 770 L154 770 L154 107 Q154 80 166 68.5 Q178 57 204 57 Q222 57 241 61 L248 3 Q219 -5 190 -5 Z " />
<glyph glyph-name="lacute" unicode="&#x13a;" horiz-adv-x="280" d="M61 839 L206 972 L297 972 L297 960 L123 827 L61 827 L61 839 Z M190 -5 Q140 -5 112 23 Q84 51 84 104 L84 770 L154 770 L154 107 Q154 80 166 68.5 Q178 57 204 57 Q222 57 241 61 L248 3 Q219 -5 190 -5 Z " />
<glyph glyph-name="lcaron" unicode="&#x13e;" horiz-adv-x="282" d="M190 -5 Q140 -5 112 23 Q84 51 84 104 L84 770 L154 770 L154 107 Q154 80 166 68.5 Q178 57 204 57 Q222 57 241 61 L248 3 Q219 -5 190 -5 Z M240 770 L310 770 L310 760 L282 560 L240 560 L240 770 Z " />
<glyph glyph-name="lcommaaccent" unicode="&#x13c;" horiz-adv-x="280" d="M190 -5 Q140 -5 112 23 Q84 51 84 104 L84 770 L154 770 L154 107 Q154 80 166 68.5 Q178 57 204 57 Q222 57 241 61 L248 3 Q219 -5 190 -5 Z M80 -238 Q105 -211 114.5 -184.5 Q124 -158 124 -116 Q124 -101 122 -83 L192 -83 Q194 -101 194 -115 Q194 -161 174 -196.5 Q154 -232 108 -268 L80 -238 Z " />
<glyph glyph-name="ldot" unicode="&#x140;" horiz-adv-x="357" d="M190 -5 Q140 -5 112 23 Q84 51 84 104 L84 770 L154 770 L154 107 Q154 80 166 68.5 Q178 57 204 57 Q222 57 241 61 L248 3 Q219 -5 190 -5 Z M297 336 Q274 336 261 349.5 Q248 363 248 388 Q248 413 261 427 Q274 441 297 441 Q320 441 333 427.5 Q346 414 346 389 Q346 364 333 350 Q320 336 297 336 Z " />
<glyph glyph-name="uni1E37" unicode="&#x1e37;" horiz-adv-x="280" d="M190 -5 Q140 -5 112 23 Q84 51 84 104 L84 770 L154 770 L154 107 Q154 80 166 68.5 Q178 57 204 57 Q222 57 241 61 L248 3 Q219 -5 190 -5 Z M157 -203 Q134 -203 121 -189.5 Q108 -176 108 -151 Q108 -126 121 -112 Q134 -98 157 -98 Q180 -98 193 -111.5 Q206 -125 206 -150 Q206 -175 193 -189 Q180 -203 157 -203 Z " />
<glyph glyph-name="uni1E39" unicode="&#x1e39;" horiz-adv-x="280" d="M13 913 L225 913 L225 858 L13 858 L13 913 Z M190 -5 Q140 -5 112 23 Q84 51 84 104 L84 770 L154 770 L154 107 Q154 80 166 68.5 Q178 57 204 57 Q222 57 241 61 L248 3 Q219 -5 190 -5 Z M157 -203 Q134 -203 121 -189.5 Q108 -176 108 -151 Q108 -126 121 -112 Q134 -98 157 -98 Q180 -98 193 -111.5 Q206 -125 206 -150 Q206 -175 193 -189 Q180 -203 157 -203 Z " />
<glyph glyph-name="uni1E3B" unicode="&#x1e3b;" horiz-adv-x="280" d="M190 -5 Q140 -5 112 23 Q84 51 84 104 L84 770 L154 770 L154 107 Q154 80 166 68.5 Q178 57 204 57 Q222 57 241 61 L248 3 Q219 -5 190 -5 Z M51 -101 L263 -101 L263 -156 L51 -156 L51 -101 Z " />
<glyph glyph-name="lslash" unicode="&#x142;" horiz-adv-x="320" d="M178 399 L178 107 Q178 80 190 68.5 Q202 57 228 57 Q246 57 265 61 L272 3 Q243 -5 214 -5 Q164 -5 136 23 Q108 51 108 104 L108 347 L39 294 L29 294 L29 355 L108 412 L108 770 L178 770 L178 464 L269 534 L279 534 L279 473 L178 399 Z " />
<glyph glyph-name="m" unicode="m" horiz-adv-x="827" d="M595 546 Q666 546 706 504 Q746 462 746 387 L746 0 L676 0 L676 382 Q676 430 651 454.5 Q626 479 577 479 Q508 479 449 423 Q452 407 452 387 L452 0 L382 0 L382 382 Q382 479 282 479 Q212 479 156 426 L156 0 L86 0 L86 534 L149 534 L149 477 Q212 546 300 546 Q349 546 384 526 Q419 506 436 468 Q504 546 595 546 Z " />
<glyph glyph-name="uni1E43" unicode="&#x1e43;" horiz-adv-x="827" d="M595 546 Q666 546 706 504 Q746 462 746 387 L746 0 L676 0 L676 382 Q676 430 651 454.5 Q626 479 577 479 Q508 479 449 423 Q452 407 452 387 L452 0 L382 0 L382 382 Q382 479 282 479 Q212 479 156 426 L156 0 L86 0 L86 534 L149 534 L149 477 Q212 546 300 546 Q349 546 384 526 Q419 506 436 468 Q504 546 595 546 Z M416 -203 Q393 -203 380 -189.5 Q367 -176 367 -151 Q367 -126 380 -112 Q393 -98 416 -98 Q439 -98 452 -111.5 Q465 -125 465 -150 Q465 -175 452 -189 Q439 -203 416 -203 Z " />
<glyph glyph-name="n" unicode="n" horiz-adv-x="542" d="M304 546 Q377 546 419 503.5 Q461 461 461 387 L461 0 L391 0 L391 382 Q391 479 285 479 Q212 479 156 426 L156 0 L86 0 L86 534 L149 534 L149 477 Q212 546 304 546 Z " />
<glyph glyph-name="nacute" unicode="&#x144;" horiz-adv-x="542" d="M304 546 Q377 546 419 503.5 Q461 461 461 387 L461 0 L391 0 L391 382 Q391 479 285 479 Q212 479 156 426 L156 0 L86 0 L86 534 L149 534 L149 477 Q212 546 304 546 Z M227 625 L322 784 L403 784 L403 774 L279 615 L227 615 L227 625 Z " />
<glyph glyph-name="napostrophe" unicode="&#x149;" horiz-adv-x="542" d="M304 546 Q377 546 419 503.5 Q461 461 461 387 L461 0 L391 0 L391 382 Q391 479 285 479 Q212 479 156 426 L156 0 L86 0 L86 534 L149 534 L149 477 Q212 546 304 546 Z M-53 581 Q-21 615 -7 649.5 Q7 684 7 729 Q7 748 5 770 L71 770 Q73 748 73 730 Q73 679 49 635.5 Q25 592 -26 552 L-53 581 Z " />
<glyph glyph-name="ncaron" unicode="&#x148;" horiz-adv-x="542" d="M304 546 Q377 546 419 503.5 Q461 461 461 387 L461 0 L391 0 L391 382 Q391 479 285 479 Q212 479 156 426 L156 0 L86 0 L86 534 L149 534 L149 477 Q212 546 304 546 Z M405 784 L405 774 L309 615 L237 615 L141 774 L141 784 L192 784 L274 668 L357 784 L405 784 Z " />
<glyph glyph-name="ncommaaccent" unicode="&#x146;" horiz-adv-x="542" d="M304 546 Q377 546 419 503.5 Q461 461 461 387 L461 0 L391 0 L391 382 Q391 479 285 479 Q212 479 156 426 L156 0 L86 0 L86 534 L149 534 L149 477 Q212 546 304 546 Z M197 -238 Q222 -211 231.5 -184.5 Q241 -158 241 -116 Q241 -101 239 -83 L309 -83 Q311 -101 311 -115 Q311 -161 291 -196.5 Q271 -232 225 -268 L197 -238 Z " />
<glyph glyph-name="uni1E45" unicode="&#x1e45;" horiz-adv-x="542" d="M304 546 Q377 546 419 503.5 Q461 461 461 387 L461 0 L391 0 L391 382 Q391 479 285 479 Q212 479 156 426 L156 0 L86 0 L86 534 L149 534 L149 477 Q212 546 304 546 Z M273 631 Q250 631 237 644.5 Q224 658 224 683 Q224 708 237 722 Q250 736 273 736 Q296 736 309 722.5 Q322 709 322 684 Q322 659 309 645 Q296 631 273 631 Z " />
<glyph glyph-name="uni1E47" unicode="&#x1e47;" horiz-adv-x="542" d="M304 546 Q377 546 419 503.5 Q461 461 461 387 L461 0 L391 0 L391 382 Q391 479 285 479 Q212 479 156 426 L156 0 L86 0 L86 534 L149 534 L149 477 Q212 546 304 546 Z M274 -203 Q251 -203 238 -189.5 Q225 -176 225 -151 Q225 -126 238 -112 Q251 -98 274 -98 Q297 -98 310 -111.5 Q323 -125 323 -150 Q323 -175 310 -189 Q297 -203 274 -203 Z " />
<glyph glyph-name="uni1E49" unicode="&#x1e49;" horiz-adv-x="542" d="M304 546 Q377 546 419 503.5 Q461 461 461 387 L461 0 L391 0 L391 382 Q391 479 285 479 Q212 479 156 426 L156 0 L86 0 L86 534 L149 534 L149 477 Q212 546 304 546 Z M140 -109 L408 -109 L408 -164 L140 -164 L140 -109 Z " />
<glyph glyph-name="ntilde" unicode="&#xf1;" horiz-adv-x="542" d="M304 546 Q377 546 419 503.5 Q461 461 461 387 L461 0 L391 0 L391 382 Q391 479 285 479 Q212 479 156 426 L156 0 L86 0 L86 534 L149 534 L149 477 Q212 546 304 546 Z M339 620 Q314 620 295.5 630.5 Q277 641 254 661 Q238 675 227 682 Q216 689 205 689 Q171 689 165 622 L119 622 Q120 681 143 714 Q166 747 207 747 Q232 747 250.5 736.5 Q269 726 292 706 Q308 692 319 685 Q330 678 341 678 Q375 678 381 745 L427 745 Q426 686 403 653 Q380 620 339 620 Z " />
<glyph glyph-name="o" unicode="o" horiz-adv-x="518" d="M259 -12 Q159 -12 105.5 59.5 Q52 131 52 267 Q52 403 105.5 474.5 Q159 546 259 546 Q359 546 412.5 474.5 Q466 403 466 267 Q466 131 412.5 59.5 Q359 -12 259 -12 Z M259 50 Q325 50 359 105 Q393 160 393 267 Q393 374 359 429 Q325 484 259 484 Q193 484 159 429 Q125 374 125 267 Q125 160 159 105 Q193 50 259 50 Z " />
<glyph glyph-name="oacute" unicode="&#xf3;" horiz-adv-x="518" d="M259 -12 Q159 -12 105.5 59.5 Q52 131 52 267 Q52 403 105.5 474.5 Q159 546 259 546 Q359 546 412.5 474.5 Q466 403 466 267 Q466 131 412.5 59.5 Q359 -12 259 -12 Z M259 50 Q325 50 359 105 Q393 160 393 267 Q393 374 359 429 Q325 484 259 484 Q193 484 159 429 Q125 374 125 267 Q125 160 159 105 Q193 50 259 50 Z M213 625 L308 784 L389 784 L389 774 L265 615 L213 615 L213 625 Z " />
<glyph glyph-name="uni01D2" unicode="&#x1d2;" horiz-adv-x="518" d="M259 -12 Q159 -12 105.5 59.5 Q52 131 52 267 Q52 403 105.5 474.5 Q159 546 259 546 Q359 546 412.5 474.5 Q466 403 466 267 Q466 131 412.5 59.5 Q359 -12 259 -12 Z M259 50 Q325 50 359 105 Q393 160 393 267 Q393 374 359 429 Q325 484 259 484 Q193 484 159 429 Q125 374 125 267 Q125 160 159 105 Q193 50 259 50 Z M391 784 L391 774 L295 615 L223 615 L127 774 L127 784 L178 784 L260 668 L343 784 L391 784 Z " />
<glyph glyph-name="ocircumflex" unicode="&#xf4;" horiz-adv-x="518" d="M259 -12 Q159 -12 105.5 59.5 Q52 131 52 267 Q52 403 105.5 474.5 Q159 546 259 546 Q359 546 412.5 474.5 Q466 403 466 267 Q466 131 412.5 59.5 Q359 -12 259 -12 Z M259 50 Q325 50 359 105 Q393 160 393 267 Q393 374 359 429 Q325 484 259 484 Q193 484 159 429 Q125 374 125 267 Q125 160 159 105 Q193 50 259 50 Z M391 625 L391 615 L340 615 L257 731 L175 615 L127 615 L127 625 L223 784 L295 784 L391 625 Z " />
<glyph glyph-name="uni1ED1" unicode="&#x1ed1;" horiz-adv-x="518" d="M504 851 L504 841 L408 714 L364 714 L364 724 L439 851 L504 851 Z M173 615 L125 615 L125 625 L223 764 L295 764 L393 625 L393 615 L342 615 L258 715 L173 615 Z M259 546 Q359 546 412.5 474.5 Q466 403 466 267 Q466 131 412.5 59.5 Q359 -12 259 -12 Q159 -12 105.5 59.5 Q52 131 52 267 Q52 403 105.5 474.5 Q159 546 259 546 Z M259 50 Q325 50 359 105 Q393 160 393 267 Q393 374 359 429 Q325 484 259 484 Q193 484 159 429 Q125 374 125 267 Q125 160 159 105 Q193 50 259 50 Z " />
<glyph glyph-name="uni1ED9" unicode="&#x1ed9;" horiz-adv-x="518" d="M259 -12 Q159 -12 105.5 59.5 Q52 131 52 267 Q52 403 105.5 474.5 Q159 546 259 546 Q359 546 412.5 474.5 Q466 403 466 267 Q466 131 412.5 59.5 Q359 -12 259 -12 Z M259 50 Q325 50 359 105 Q393 160 393 267 Q393 374 359 429 Q325 484 259 484 Q193 484 159 429 Q125 374 125 267 Q125 160 159 105 Q193 50 259 50 Z M260 -203 Q237 -203 224 -189.5 Q211 -176 211 -151 Q211 -126 224 -112 Q237 -98 260 -98 Q283 -98 296 -111.5 Q309 -125 309 -150 Q309 -175 296 -189 Q283 -203 260 -203 Z M391 625 L391 615 L340 615 L257 731 L175 615 L127 615 L127 625 L223 784 L295 784 L391 625 Z " />
<glyph glyph-name="uni1ED3" unicode="&#x1ed3;" horiz-adv-x="518" d="M110 714 L20 841 L20 851 L85 851 L154 724 L154 714 L110 714 Z M125 625 L223 764 L295 764 L393 625 L393 615 L342 615 L258 715 L173 615 L125 615 L125 625 Z M259 546 Q359 546 412.5 474.5 Q466 403 466 267 Q466 131 412.5 59.5 Q359 -12 259 -12 Q159 -12 105.5 59.5 Q52 131 52 267 Q52 403 105.5 474.5 Q159 546 259 546 Z M259 50 Q325 50 359 105 Q393 160 393 267 Q393 374 359 429 Q325 484 259 484 Q193 484 159 429 Q125 374 125 267 Q125 160 159 105 Q193 50 259 50 Z " />
<glyph glyph-name="uni1ED5" unicode="&#x1ed5;" horiz-adv-x="518" d="M388 832 Q364 832 333 814 L315 851 Q352 876 397 876 Q433 876 453.5 858.5 Q474 841 474 810 Q474 787 464 776.5 Q454 766 437 759 Q424 753 419 748.5 Q414 744 414 735 L416 716 L362 716 Q360 728 360 738 Q360 757 368 765.5 Q376 774 391 781 Q403 787 409 792.5 Q415 798 415 809 Q415 832 388 832 Z M173 615 L125 615 L125 625 L223 764 L295 764 L393 625 L393 615 L342 615 L258 715 L173 615 Z M259 546 Q359 546 412.5 474.5 Q466 403 466 267 Q466 131 412.5 59.5 Q359 -12 259 -12 Q159 -12 105.5 59.5 Q52 131 52 267 Q52 403 105.5 474.5 Q159 546 259 546 Z M259 50 Q325 50 359 105 Q393 160 393 267 Q393 374 359 429 Q325 484 259 484 Q193 484 159 429 Q125 374 125 267 Q125 160 159 105 Q193 50 259 50 Z " />
<glyph glyph-name="uni1ED7" unicode="&#x1ed7;" horiz-adv-x="518" d="M201 856 Q167 856 162 795 L121 795 Q121 848 143 877.5 Q165 907 204 907 Q227 907 242 897.5 Q257 888 275 870 Q287 857 296.5 850.5 Q306 844 317 844 Q351 844 356 905 L397 905 Q397 852 375 822.5 Q353 793 314 793 Q291 793 276 802.5 Q261 812 243 830 Q231 843 221.5 849.5 Q212 856 201 856 Z M295 764 L393 625 L393 615 L342 615 L258 715 L173 615 L125 615 L125 625 L223 764 L295 764 Z M259 546 Q359 546 412.5 474.5 Q466 403 466 267 Q466 131 412.5 59.5 Q359 -12 259 -12 Q159 -12 105.5 59.5 Q52 131 52 267 Q52 403 105.5 474.5 Q159 546 259 546 Z M259 50 Q325 50 359 105 Q393 160 393 267 Q393 374 359 429 Q325 484 259 484 Q193 484 159 429 Q125 374 125 267 Q125 160 159 105 Q193 50 259 50 Z " />
<glyph glyph-name="odieresis" unicode="&#xf6;" horiz-adv-x="518" d="M172 631 Q150 631 138 644 Q126 657 126 681 Q126 704 138 718 Q150 732 172 732 Q194 732 206.5 718.5 Q219 705 219 682 Q219 658 206.5 644.5 Q194 631 172 631 Z M345 631 Q323 631 311 644 Q299 657 299 681 Q299 704 311 718 Q323 732 345 732 Q367 732 379.5 718.5 Q392 705 392 682 Q392 658 379.5 644.5 Q367 631 345 631 Z M259 -12 Q159 -12 105.5 59.5 Q52 131 52 267 Q52 403 105.5 474.5 Q159 546 259 546 Q359 546 412.5 474.5 Q466 403 466 267 Q466 131 412.5 59.5 Q359 -12 259 -12 Z M259 50 Q325 50 359 105 Q393 160 393 267 Q393 374 359 429 Q325 484 259 484 Q193 484 159 429 Q125 374 125 267 Q125 160 159 105 Q193 50 259 50 Z " />
<glyph glyph-name="uni1ECD" unicode="&#x1ecd;" horiz-adv-x="518" d="M259 -12 Q159 -12 105.5 59.5 Q52 131 52 267 Q52 403 105.5 474.5 Q159 546 259 546 Q359 546 412.5 474.5 Q466 403 466 267 Q466 131 412.5 59.5 Q359 -12 259 -12 Z M259 50 Q325 50 359 105 Q393 160 393 267 Q393 374 359 429 Q325 484 259 484 Q193 484 159 429 Q125 374 125 267 Q125 160 159 105 Q193 50 259 50 Z M260 -203 Q237 -203 224 -189.5 Q211 -176 211 -151 Q211 -126 224 -112 Q237 -98 260 -98 Q283 -98 296 -111.5 Q309 -125 309 -150 Q309 -175 296 -189 Q283 -203 260 -203 Z " />
<glyph glyph-name="ograve" unicode="&#xf2;" horiz-adv-x="518" d="M259 -12 Q159 -12 105.5 59.5 Q52 131 52 267 Q52 403 105.5 474.5 Q159 546 259 546 Q359 546 412.5 474.5 Q466 403 466 267 Q466 131 412.5 59.5 Q359 -12 259 -12 Z M259 50 Q325 50 359 105 Q393 160 393 267 Q393 374 359 429 Q325 484 259 484 Q193 484 159 429 Q125 374 125 267 Q125 160 159 105 Q193 50 259 50 Z M141 774 L141 784 L222 784 L309 625 L309 615 L257 615 L141 774 Z " />
<glyph glyph-name="uni1ECF" unicode="&#x1ecf;" horiz-adv-x="518" d="M259 -12 Q159 -12 105.5 59.5 Q52 131 52 267 Q52 403 105.5 474.5 Q159 546 259 546 Q359 546 412.5 474.5 Q466 403 466 267 Q466 131 412.5 59.5 Q359 -12 259 -12 Z M259 50 Q325 50 359 105 Q393 160 393 267 Q393 374 359 429 Q325 484 259 484 Q193 484 159 429 Q125 374 125 267 Q125 160 159 105 Q193 50 259 50 Z M231 615 Q229 627 229 638 Q229 661 237 672 Q245 683 261 693 Q273 701 278.5 707.5 Q284 714 284 725 Q284 750 257 750 Q232 750 199 730 L181 770 Q198 783 221 790 Q244 797 267 797 Q304 797 324.5 779 Q345 761 345 729 Q345 707 337 696 Q329 685 312 674 Q298 665 291.5 657.5 Q285 650 285 635 Q285 627 287 615 L231 615 Z " />
<glyph glyph-name="ohorn" unicode="&#x1a1;" horiz-adv-x="528" d="M527 614 Q527 553 497 523.5 Q467 494 398 490 Q466 420 466 267 Q466 131 412.5 59.5 Q359 -12 259 -12 Q159 -12 105.5 59.5 Q52 131 52 267 Q52 403 105.5 474.5 Q159 546 259 546 Q274 546 288 544 Q302 542 307 541 Q335 534 369 534 Q422 534 443 551 Q464 568 464 612 Q464 637 459 673 L522 673 Q527 643 527 614 Z M259 50 Q325 50 359 105 Q393 160 393 267 Q393 374 359 429 Q325 484 259 484 Q193 484 159 429 Q125 374 125 267 Q125 160 159 105 Q193 50 259 50 Z " />
<glyph glyph-name="uni1EDB" unicode="&#x1edb;" horiz-adv-x="528" d="M527 614 Q527 553 497 523.5 Q467 494 398 490 Q466 420 466 267 Q466 131 412.5 59.5 Q359 -12 259 -12 Q159 -12 105.5 59.5 Q52 131 52 267 Q52 403 105.5 474.5 Q159 546 259 546 Q274 546 288 544 Q302 542 307 541 Q335 534 369 534 Q422 534 443 551 Q464 568 464 612 Q464 637 459 673 L522 673 Q527 643 527 614 Z M259 50 Q325 50 359 105 Q393 160 393 267 Q393 374 359 429 Q325 484 259 484 Q193 484 159 429 Q125 374 125 267 Q125 160 159 105 Q193 50 259 50 Z M213 625 L308 784 L389 784 L389 774 L265 615 L213 615 L213 625 Z " />
<glyph glyph-name="uni1EE3" unicode="&#x1ee3;" horiz-adv-x="528" d="M527 614 Q527 553 497 523.5 Q467 494 398 490 Q466 420 466 267 Q466 131 412.5 59.5 Q359 -12 259 -12 Q159 -12 105.5 59.5 Q52 131 52 267 Q52 403 105.5 474.5 Q159 546 259 546 Q274 546 288 544 Q302 542 307 541 Q335 534 369 534 Q422 534 443 551 Q464 568 464 612 Q464 637 459 673 L522 673 Q527 643 527 614 Z M259 50 Q325 50 359 105 Q393 160 393 267 Q393 374 359 429 Q325 484 259 484 Q193 484 159 429 Q125 374 125 267 Q125 160 159 105 Q193 50 259 50 Z M260 -203 Q237 -203 224 -189.5 Q211 -176 211 -151 Q211 -126 224 -112 Q237 -98 260 -98 Q283 -98 296 -111.5 Q309 -125 309 -150 Q309 -175 296 -189 Q283 -203 260 -203 Z " />
<glyph glyph-name="uni1EDD" unicode="&#x1edd;" horiz-adv-x="528" d="M527 614 Q527 553 497 523.5 Q467 494 398 490 Q466 420 466 267 Q466 131 412.5 59.5 Q359 -12 259 -12 Q159 -12 105.5 59.5 Q52 131 52 267 Q52 403 105.5 474.5 Q159 546 259 546 Q274 546 288 544 Q302 542 307 541 Q335 534 369 534 Q422 534 443 551 Q464 568 464 612 Q464 637 459 673 L522 673 Q527 643 527 614 Z M259 50 Q325 50 359 105 Q393 160 393 267 Q393 374 359 429 Q325 484 259 484 Q193 484 159 429 Q125 374 125 267 Q125 160 159 105 Q193 50 259 50 Z M141 774 L141 784 L222 784 L309 625 L309 615 L257 615 L141 774 Z " />
<glyph glyph-name="uni1EDF" unicode="&#x1edf;" horiz-adv-x="528" d="M527 614 Q527 553 497 523.5 Q467 494 398 490 Q466 420 466 267 Q466 131 412.5 59.5 Q359 -12 259 -12 Q159 -12 105.5 59.5 Q52 131 52 267 Q52 403 105.5 474.5 Q159 546 259 546 Q274 546 288 544 Q302 542 307 541 Q335 534 369 534 Q422 534 443 551 Q464 568 464 612 Q464 637 459 673 L522 673 Q527 643 527 614 Z M259 50 Q325 50 359 105 Q393 160 393 267 Q393 374 359 429 Q325 484 259 484 Q193 484 159 429 Q125 374 125 267 Q125 160 159 105 Q193 50 259 50 Z M231 615 Q229 627 229 638 Q229 661 237 672 Q245 683 261 693 Q273 701 278.5 707.5 Q284 714 284 725 Q284 750 257 750 Q232 750 199 730 L181 770 Q198 783 221 790 Q244 797 267 797 Q304 797 324.5 779 Q345 761 345 729 Q345 707 337 696 Q329 685 312 674 Q298 665 291.5 657.5 Q285 650 285 635 Q285 627 287 615 L231 615 Z " />
<glyph glyph-name="uni1EE1" unicode="&#x1ee1;" horiz-adv-x="528" d="M527 614 Q527 553 497 523.5 Q467 494 398 490 Q466 420 466 267 Q466 131 412.5 59.5 Q359 -12 259 -12 Q159 -12 105.5 59.5 Q52 131 52 267 Q52 403 105.5 474.5 Q159 546 259 546 Q274 546 288 544 Q302 542 307 541 Q335 534 369 534 Q422 534 443 551 Q464 568 464 612 Q464 637 459 673 L522 673 Q527 643 527 614 Z M259 50 Q325 50 359 105 Q393 160 393 267 Q393 374 359 429 Q325 484 259 484 Q193 484 159 429 Q125 374 125 267 Q125 160 159 105 Q193 50 259 50 Z M325 620 Q300 620 281.5 630.5 Q263 641 240 661 Q224 675 213 682 Q202 689 191 689 Q157 689 151 622 L105 622 Q106 681 129 714 Q152 747 193 747 Q218 747 236.5 736.5 Q255 726 278 706 Q294 692 305 685 Q316 678 327 678 Q361 678 367 745 L413 745 Q412 686 389 653 Q366 620 325 620 Z " />
<glyph glyph-name="ohungarumlaut" unicode="&#x151;" horiz-adv-x="518" d="M259 -12 Q159 -12 105.5 59.5 Q52 131 52 267 Q52 403 105.5 474.5 Q159 546 259 546 Q359 546 412.5 474.5 Q466 403 466 267 Q466 131 412.5 59.5 Q359 -12 259 -12 Z M259 50 Q325 50 359 105 Q393 160 393 267 Q393 374 359 429 Q325 484 259 484 Q193 484 159 429 Q125 374 125 267 Q125 160 159 105 Q193 50 259 50 Z M157 625 L214 784 L287 784 L287 774 L201 615 L157 615 L157 625 Z M292 625 L349 784 L422 784 L422 774 L336 615 L292 615 L292 625 Z " />
<glyph glyph-name="omacron" unicode="&#x14d;" horiz-adv-x="518" d="M259 -12 Q159 -12 105.5 59.5 Q52 131 52 267 Q52 403 105.5 474.5 Q159 546 259 546 Q359 546 412.5 474.5 Q466 403 466 267 Q466 131 412.5 59.5 Q359 -12 259 -12 Z M259 50 Q325 50 359 105 Q393 160 393 267 Q393 374 359 429 Q325 484 259 484 Q193 484 159 429 Q125 374 125 267 Q125 160 159 105 Q193 50 259 50 Z M125 697 L393 697 L393 642 L125 642 L125 697 Z " />
<glyph glyph-name="oslash" unicode="&#xf8;" horiz-adv-x="518" d="M495 534 L430 448 Q466 378 466 267 Q466 131 412.5 59.5 Q359 -12 259 -12 Q174 -12 121 41 L84 -10 L23 -10 L23 0 L88 86 Q52 156 52 266 Q52 403 105.5 474.5 Q159 546 259 546 Q344 546 397 493 L434 544 L495 544 L495 534 Z M259 486 Q192 486 157.5 430.5 Q123 375 123 266 Q123 198 137 150 L356 439 Q321 486 259 486 Z M259 48 Q326 48 360.5 103.5 Q395 159 395 267 Q395 334 381 384 L162 95 Q197 48 259 48 Z " />
<glyph glyph-name="otilde" unicode="&#xf5;" horiz-adv-x="518" d="M259 -12 Q159 -12 105.5 59.5 Q52 131 52 267 Q52 403 105.5 474.5 Q159 546 259 546 Q359 546 412.5 474.5 Q466 403 466 267 Q466 131 412.5 59.5 Q359 -12 259 -12 Z M259 50 Q325 50 359 105 Q393 160 393 267 Q393 374 359 429 Q325 484 259 484 Q193 484 159 429 Q125 374 125 267 Q125 160 159 105 Q193 50 259 50 Z M325 620 Q300 620 281.5 630.5 Q263 641 240 661 Q224 675 213 682 Q202 689 191 689 Q157 689 151 622 L105 622 Q106 681 129 714 Q152 747 193 747 Q218 747 236.5 736.5 Q255 726 278 706 Q294 692 305 685 Q316 678 327 678 Q361 678 367 745 L413 745 Q412 686 389 653 Q366 620 325 620 Z " />
<glyph glyph-name="oe" unicode="&#x153;" horiz-adv-x="826" d="M780 290 Q780 269 777 249 L453 249 Q457 153 495.5 103.5 Q534 54 606 54 Q674 54 729 96 L756 41 Q727 16 686 2.5 Q645 -11 602 -11 Q540 -11 494 16.5 Q448 44 421 97 Q396 44 354 16 Q312 -12 255 -12 Q157 -12 104.5 59 Q52 130 52 266 Q52 403 104.5 474.5 Q157 546 255 546 Q312 546 355 517 Q398 488 423 433 Q440 486 482.5 516 Q525 546 585 546 Q677 546 728.5 478.5 Q780 411 780 290 Z M255 50 Q319 50 352 105.5 Q385 161 385 267 Q385 374 352 429 Q319 484 255 484 Q191 484 158 428.5 Q125 373 125 266 Q125 160 158 105 Q191 50 255 50 Z M583 484 Q525 484 492.5 439.5 Q460 395 454 307 L709 307 Q709 390 675.5 437 Q642 484 583 484 Z " />
<glyph glyph-name="p" unicode="p" horiz-adv-x="534" d="M294 546 Q383 546 432.5 471 Q482 396 482 263 Q482 133 429 60.5 Q376 -12 282 -12 Q245 -12 212 3.5 Q179 19 156 47 L156 -207 L86 -207 L86 492 L86 534 L149 534 L149 465 Q202 546 294 546 Z M282 51 Q344 51 376.5 105 Q409 159 409 263 Q409 370 375 424.5 Q341 479 274 479 Q239 479 210 463.5 Q181 448 156 414 L156 111 Q182 83 214.5 67 Q247 51 282 51 Z " />
<glyph glyph-name="thorn" unicode="&#xfe;" horiz-adv-x="534" d="M294 546 Q383 546 432.5 471 Q482 396 482 263 Q482 133 429 60.5 Q376 -12 282 -12 Q245 -12 212 3.5 Q179 19 156 47 L156 -207 L86 -207 L86 492 L86 770 L156 770 L156 475 Q208 546 294 546 Z M282 51 Q344 51 376.5 105 Q409 159 409 263 Q409 370 375 424.5 Q341 479 274 479 Q239 479 210 463.5 Q181 448 156 414 L156 111 Q182 83 214.5 67 Q247 51 282 51 Z " />
<glyph glyph-name="q" unicode="q" horiz-adv-x="534" d="M448 534 L448 42 L448 -207 L378 -207 L378 59 Q326 -12 240 -12 Q151 -12 101.5 63 Q52 138 52 271 Q52 401 105 473.5 Q158 546 252 546 Q291 546 325.5 529 Q360 512 383 480 L383 534 L448 534 Z M260 55 Q295 55 324 70.5 Q353 86 378 120 L378 423 Q352 451 319.5 467 Q287 483 252 483 Q190 483 157.5 429 Q125 375 125 271 Q125 164 159 109.5 Q193 55 260 55 Z " />
<glyph glyph-name="r" unicode="r" horiz-adv-x="364" d="M287 544 Q323 544 350 531 L335 463 Q296 474 266 474 Q198 474 156 406 L156 0 L86 0 L86 534 L149 534 L149 461 Q203 544 287 544 Z " />
<glyph glyph-name="racute" unicode="&#x155;" horiz-adv-x="364" d="M287 544 Q323 544 350 531 L335 463 Q296 474 266 474 Q198 474 156 406 L156 0 L86 0 L86 534 L149 534 L149 461 Q203 544 287 544 Z M170 625 L265 784 L346 784 L346 774 L222 615 L170 615 L170 625 Z " />
<glyph glyph-name="rcaron" unicode="&#x159;" horiz-adv-x="364" d="M287 544 Q323 544 350 531 L335 463 Q296 474 266 474 Q198 474 156 406 L156 0 L86 0 L86 534 L149 534 L149 461 Q203 544 287 544 Z M348 784 L348 774 L252 615 L180 615 L84 774 L84 784 L135 784 L217 668 L300 784 L348 784 Z " />
<glyph glyph-name="rcommaaccent" unicode="&#x157;" horiz-adv-x="364" d="M287 544 Q323 544 350 531 L335 463 Q296 474 266 474 Q198 474 156 406 L156 0 L86 0 L86 534 L149 534 L149 461 Q203 544 287 544 Z M44 -238 Q69 -211 78.5 -184.5 Q88 -158 88 -116 Q88 -101 86 -83 L156 -83 Q158 -101 158 -115 Q158 -161 138 -196.5 Q118 -232 72 -268 L44 -238 Z " />
<glyph glyph-name="uni1E5B" unicode="&#x1e5b;" horiz-adv-x="364" d="M287 544 Q323 544 350 531 L335 463 Q296 474 266 474 Q198 474 156 406 L156 0 L86 0 L86 534 L149 534 L149 461 Q203 544 287 544 Z M121 -203 Q98 -203 85 -189.5 Q72 -176 72 -151 Q72 -126 85 -112 Q98 -98 121 -98 Q144 -98 157 -111.5 Q170 -125 170 -150 Q170 -175 157 -189 Q144 -203 121 -203 Z " />
<glyph glyph-name="uni1E5D" unicode="&#x1e5d;" horiz-adv-x="364" d="M322 642 L110 642 L110 697 L322 697 L322 642 Z M287 544 Q323 544 350 531 L335 463 Q296 474 266 474 Q198 474 156 406 L156 0 L86 0 L86 534 L149 534 L149 461 Q203 544 287 544 Z M121 -98 Q144 -98 157 -111.5 Q170 -125 170 -150 Q170 -175 157 -189 Q144 -203 121 -203 Q98 -203 85 -189.5 Q72 -176 72 -151 Q72 -126 85 -112 Q98 -98 121 -98 Z " />
<glyph glyph-name="uni1E5F" unicode="&#x1e5f;" horiz-adv-x="364" d="M287 544 Q323 544 350 531 L335 463 Q296 474 266 474 Q198 474 156 406 L156 0 L86 0 L86 534 L149 534 L149 461 Q203 544 287 544 Z M15 -101 L227 -101 L227 -156 L15 -156 L15 -101 Z " />
<glyph glyph-name="s" unicode="s" horiz-adv-x="433" d="M205 -11 Q158 -11 114 1.5 Q70 14 37 36 L62 95 Q128 51 205 51 Q318 51 318 142 Q318 178 301 198.5 Q284 219 247 228 L176 245 Q107 261 75.5 296.5 Q44 332 44 391 Q44 463 90 504 Q136 545 218 545 Q258 545 298.5 534.5 Q339 524 372 506 L345 447 Q278 483 216 483 Q114 483 114 397 Q114 364 131 344 Q148 324 185 315 L256 298 Q325 282 356.5 245 Q388 208 388 147 Q388 73 339.5 31 Q291 -11 205 -11 Z " />
<glyph glyph-name="sacute" unicode="&#x15b;" horiz-adv-x="433" d="M205 -11 Q158 -11 114 1.5 Q70 14 37 36 L62 95 Q128 51 205 51 Q318 51 318 142 Q318 178 301 198.5 Q284 219 247 228 L176 245 Q107 261 75.5 296.5 Q44 332 44 391 Q44 463 90 504 Q136 545 218 545 Q258 545 298.5 534.5 Q339 524 372 506 L345 447 Q278 483 216 483 Q114 483 114 397 Q114 364 131 344 Q148 324 185 315 L256 298 Q325 282 356.5 245 Q388 208 388 147 Q388 73 339.5 31 Q291 -11 205 -11 Z M163 625 L258 784 L339 784 L339 774 L215 615 L163 615 L163 625 Z " />
<glyph glyph-name="scaron" unicode="&#x161;" horiz-adv-x="433" d="M205 -11 Q158 -11 114 1.5 Q70 14 37 36 L62 95 Q128 51 205 51 Q318 51 318 142 Q318 178 301 198.5 Q284 219 247 228 L176 245 Q107 261 75.5 296.5 Q44 332 44 391 Q44 463 90 504 Q136 545 218 545 Q258 545 298.5 534.5 Q339 524 372 506 L345 447 Q278 483 216 483 Q114 483 114 397 Q114 364 131 344 Q148 324 185 315 L256 298 Q325 282 356.5 245 Q388 208 388 147 Q388 73 339.5 31 Q291 -11 205 -11 Z M341 784 L341 774 L245 615 L173 615 L77 774 L77 784 L128 784 L210 668 L293 784 L341 784 Z " />
<glyph glyph-name="scedilla" unicode="&#x15f;" horiz-adv-x="433" d="M388 147 Q388 80 347.5 39 Q307 -2 234 -10 L200 -64 Q211 -61 220 -61 Q266 -61 291.5 -82 Q317 -103 317 -140 Q317 -181 288.5 -203.5 Q260 -226 209 -226 Q155 -226 116 -203 L130 -162 Q174 -181 209 -181 Q258 -181 258 -140 Q258 -99 212 -99 Q189 -99 169 -108 L151 -87 L182 -10 Q99 -5 37 36 L62 95 Q128 51 205 51 Q318 51 318 142 Q318 178 301 198.5 Q284 219 247 228 L176 245 Q107 261 75.5 296.5 Q44 332 44 391 Q44 463 90 504 Q136 545 218 545 Q258 545 298.5 534.5 Q339 524 372 506 L345 447 Q278 483 216 483 Q114 483 114 397 Q114 364 131 344 Q148 324 185 315 L256 298 Q325 282 356.5 245 Q388 208 388 147 Z " />
<glyph glyph-name="scircumflex" unicode="&#x15d;" horiz-adv-x="433" d="M205 -11 Q158 -11 114 1.5 Q70 14 37 36 L62 95 Q128 51 205 51 Q318 51 318 142 Q318 178 301 198.5 Q284 219 247 228 L176 245 Q107 261 75.5 296.5 Q44 332 44 391 Q44 463 90 504 Q136 545 218 545 Q258 545 298.5 534.5 Q339 524 372 506 L345 447 Q278 483 216 483 Q114 483 114 397 Q114 364 131 344 Q148 324 185 315 L256 298 Q325 282 356.5 245 Q388 208 388 147 Q388 73 339.5 31 Q291 -11 205 -11 Z M341 625 L341 615 L290 615 L207 731 L125 615 L77 615 L77 625 L173 784 L245 784 L341 625 Z " />
<glyph glyph-name="scommaaccent" unicode="&#x219;" horiz-adv-x="433" d="M205 -11 Q158 -11 114 1.5 Q70 14 37 36 L62 95 Q128 51 205 51 Q318 51 318 142 Q318 178 301 198.5 Q284 219 247 228 L176 245 Q107 261 75.5 296.5 Q44 332 44 391 Q44 463 90 504 Q136 545 218 545 Q258 545 298.5 534.5 Q339 524 372 506 L345 447 Q278 483 216 483 Q114 483 114 397 Q114 364 131 344 Q148 324 185 315 L256 298 Q325 282 356.5 245 Q388 208 388 147 Q388 73 339.5 31 Q291 -11 205 -11 Z M136 -238 Q161 -211 170.5 -184.5 Q180 -158 180 -116 Q180 -101 178 -83 L248 -83 Q250 -101 250 -115 Q250 -161 230 -196.5 Q210 -232 164 -268 L136 -238 Z " />
<glyph glyph-name="uni1E61" unicode="&#x1e61;" horiz-adv-x="433" d="M205 -11 Q158 -11 114 1.5 Q70 14 37 36 L62 95 Q128 51 205 51 Q318 51 318 142 Q318 178 301 198.5 Q284 219 247 228 L176 245 Q107 261 75.5 296.5 Q44 332 44 391 Q44 463 90 504 Q136 545 218 545 Q258 545 298.5 534.5 Q339 524 372 506 L345 447 Q278 483 216 483 Q114 483 114 397 Q114 364 131 344 Q148 324 185 315 L256 298 Q325 282 356.5 245 Q388 208 388 147 Q388 73 339.5 31 Q291 -11 205 -11 Z M209 631 Q186 631 173 644.5 Q160 658 160 683 Q160 708 173 722 Q186 736 209 736 Q232 736 245 722.5 Q258 709 258 684 Q258 659 245 645 Q232 631 209 631 Z " />
<glyph glyph-name="uni1E63" unicode="&#x1e63;" horiz-adv-x="433" d="M205 -11 Q158 -11 114 1.5 Q70 14 37 36 L62 95 Q128 51 205 51 Q318 51 318 142 Q318 178 301 198.5 Q284 219 247 228 L176 245 Q107 261 75.5 296.5 Q44 332 44 391 Q44 463 90 504 Q136 545 218 545 Q258 545 298.5 534.5 Q339 524 372 506 L345 447 Q278 483 216 483 Q114 483 114 397 Q114 364 131 344 Q148 324 185 315 L256 298 Q325 282 356.5 245 Q388 208 388 147 Q388 73 339.5 31 Q291 -11 205 -11 Z M213 -203 Q190 -203 177 -189.5 Q164 -176 164 -151 Q164 -126 177 -112 Q190 -98 213 -98 Q236 -98 249 -111.5 Q262 -125 262 -150 Q262 -175 249 -189 Q236 -203 213 -203 Z " />
<glyph glyph-name="germandbls" unicode="&#xdf;" horiz-adv-x="557" d="M324 416 Q415 400 465 341 Q515 282 515 190 Q515 98 464.5 46 Q414 -6 323 -6 Q272 -6 217 9 L234 71 Q282 56 323 56 Q383 56 414 89.5 Q445 123 445 188 Q445 270 395 316 Q345 362 248 368 L248 427 Q314 458 345 500.5 Q376 543 376 601 Q376 656 349.5 684 Q323 712 272 712 Q215 712 185.5 676.5 Q156 641 156 571 L156 0 L86 0 L86 571 Q86 667 135 720.5 Q184 774 272 774 Q353 774 398.5 728.5 Q444 683 444 601 Q444 536 413.5 489 Q383 442 324 416 Z " />
<glyph glyph-name="uni0259" unicode="&#x259;" horiz-adv-x="502" d="M228 545 Q334 545 393 471.5 Q452 398 452 267 Q452 136 397 62 Q342 -12 245 -12 Q151 -12 98.5 55.5 Q46 123 46 244 Q46 266 49 285 L381 285 Q377 381 337.5 430.5 Q298 480 224 480 Q154 480 97 438 L70 493 Q100 518 141.5 531.5 Q183 545 228 545 Z M247 50 Q306 50 340 94.5 Q374 139 380 227 L117 227 Q117 144 151.5 97 Q186 50 247 50 Z " />
<glyph glyph-name="t" unicode="t" horiz-adv-x="346" d="M254 -6 Q178 -6 139 36.5 Q100 79 100 161 L100 476 L13 476 L13 534 L100 534 L100 694 L170 694 L170 534 L321 534 L321 476 L170 476 L170 171 Q170 112 193 84 Q216 56 264 56 Q295 56 317 65 L328 6 Q301 -6 254 -6 Z " />
<glyph glyph-name="tcaron" unicode="&#x165;" horiz-adv-x="346" d="M245 770 L315 770 L315 760 L291 585 L245 585 L245 770 Z M254 -6 Q178 -6 139 36.5 Q100 79 100 161 L100 476 L13 476 L13 534 L100 534 L100 694 L170 694 L170 534 L321 534 L321 476 L170 476 L170 171 Q170 112 193 84 Q216 56 264 56 Q295 56 317 65 L328 6 Q301 -6 254 -6 Z " />
<glyph glyph-name="uni0163" unicode="&#x163;" horiz-adv-x="346" d="M210 -61 Q256 -61 281.5 -82 Q307 -103 307 -140 Q307 -181 278.5 -203.5 Q250 -226 199 -226 Q145 -226 106 -203 L120 -162 Q164 -181 199 -181 Q248 -181 248 -140 Q248 -99 202 -99 Q179 -99 159 -108 L141 -87 L179 8 Q100 43 100 161 L100 476 L13 476 L13 534 L100 534 L100 694 L170 694 L170 534 L321 534 L321 476 L170 476 L170 171 Q170 112 193 84 Q216 56 264 56 Q295 56 317 65 L328 6 Q301 -6 254 -6 Q236 -6 227 -5 L190 -64 Q200 -61 210 -61 Z " />
<glyph glyph-name="uni021B" unicode="&#x21b;" horiz-adv-x="346" d="M254 -6 Q178 -6 139 36.5 Q100 79 100 161 L100 476 L13 476 L13 534 L100 534 L100 694 L170 694 L170 534 L321 534 L321 476 L170 476 L170 171 Q170 112 193 84 Q216 56 264 56 Q295 56 317 65 L328 6 Q301 -6 254 -6 Z M126 -238 Q151 -211 160.5 -184.5 Q170 -158 170 -116 Q170 -101 168 -83 L238 -83 Q240 -101 240 -115 Q240 -161 220 -196.5 Q200 -232 154 -268 L126 -238 Z " />
<glyph glyph-name="uni1E97" unicode="&#x1e97;" horiz-adv-x="346" d="M68 751 Q46 751 34 764 Q22 777 22 801 Q22 824 34 838 Q46 852 68 852 Q90 852 102.5 838.5 Q115 825 115 802 Q115 778 102.5 764.5 Q90 751 68 751 Z M241 751 Q219 751 207 764 Q195 777 195 801 Q195 824 207 838 Q219 852 241 852 Q263 852 275.5 838.5 Q288 825 288 802 Q288 778 275.5 764.5 Q263 751 241 751 Z M254 -6 Q178 -6 139 36.5 Q100 79 100 161 L100 476 L13 476 L13 534 L100 534 L100 694 L170 694 L170 534 L321 534 L321 476 L170 476 L170 171 Q170 112 193 84 Q216 56 264 56 Q295 56 317 65 L328 6 Q301 -6 254 -6 Z " />
<glyph glyph-name="uni1E6D" unicode="&#x1e6d;" horiz-adv-x="346" d="M254 -6 Q178 -6 139 36.5 Q100 79 100 161 L100 476 L13 476 L13 534 L100 534 L100 694 L170 694 L170 534 L321 534 L321 476 L170 476 L170 171 Q170 112 193 84 Q216 56 264 56 Q295 56 317 65 L328 6 Q301 -6 254 -6 Z M203 -203 Q180 -203 167 -189.5 Q154 -176 154 -151 Q154 -126 167 -112 Q180 -98 203 -98 Q226 -98 239 -111.5 Q252 -125 252 -150 Q252 -175 239 -189 Q226 -203 203 -203 Z " />
<glyph glyph-name="uni1E6F" unicode="&#x1e6f;" horiz-adv-x="346" d="M254 -6 Q178 -6 139 36.5 Q100 79 100 161 L100 476 L13 476 L13 534 L100 534 L100 694 L170 694 L170 534 L321 534 L321 476 L170 476 L170 171 Q170 112 193 84 Q216 56 264 56 Q295 56 317 65 L328 6 Q301 -6 254 -6 Z M97 -101 L309 -101 L309 -156 L97 -156 L97 -101 Z " />
<glyph glyph-name="u" unicode="u" horiz-adv-x="534" d="M448 534 L448 0 L385 0 L385 64 Q333 -12 233 -12 Q160 -12 119.5 30 Q79 72 79 146 L79 534 L149 534 L149 152 Q149 104 175 79.5 Q201 55 251 55 Q289 55 320 70 Q351 85 378 117 L378 534 L448 534 Z " />
<glyph glyph-name="uacute" unicode="&#xfa;" horiz-adv-x="534" d="M448 534 L448 0 L385 0 L385 64 Q333 -12 233 -12 Q160 -12 119.5 30 Q79 72 79 146 L79 534 L149 534 L149 152 Q149 104 175 79.5 Q201 55 251 55 Q289 55 320 70 Q351 85 378 117 L378 534 L448 534 Z M218 625 L313 784 L394 784 L394 774 L270 615 L218 615 L218 625 Z " />
<glyph glyph-name="ubreve" unicode="&#x16d;" horiz-adv-x="534" d="M448 534 L448 0 L385 0 L385 64 Q333 -12 233 -12 Q160 -12 119.5 30 Q79 72 79 146 L79 534 L149 534 L149 152 Q149 104 175 79.5 Q201 55 251 55 Q289 55 320 70 Q351 85 378 117 L378 534 L448 534 Z M264 616 Q205 616 170 654 Q135 692 132 760 L180 760 Q192 675 265 675 Q339 675 351 760 L396 760 Q393 692 358 654 Q323 616 264 616 Z " />
<glyph glyph-name="uni01D4" unicode="&#x1d4;" horiz-adv-x="534" d="M448 534 L448 0 L385 0 L385 64 Q333 -12 233 -12 Q160 -12 119.5 30 Q79 72 79 146 L79 534 L149 534 L149 152 Q149 104 175 79.5 Q201 55 251 55 Q289 55 320 70 Q351 85 378 117 L378 534 L448 534 Z M396 784 L396 774 L300 615 L228 615 L132 774 L132 784 L183 784 L265 668 L348 784 L396 784 Z " />
<glyph glyph-name="ucircumflex" unicode="&#xfb;" horiz-adv-x="534" d="M448 534 L448 0 L385 0 L385 64 Q333 -12 233 -12 Q160 -12 119.5 30 Q79 72 79 146 L79 534 L149 534 L149 152 Q149 104 175 79.5 Q201 55 251 55 Q289 55 320 70 Q351 85 378 117 L378 534 L448 534 Z M396 625 L396 615 L345 615 L262 731 L180 615 L132 615 L132 625 L228 784 L300 784 L396 625 Z " />
<glyph glyph-name="udieresis" unicode="&#xfc;" horiz-adv-x="534" d="M177 631 Q155 631 143 644 Q131 657 131 681 Q131 704 143 718 Q155 732 177 732 Q199 732 211.5 718.5 Q224 705 224 682 Q224 658 211.5 644.5 Q199 631 177 631 Z M350 631 Q328 631 316 644 Q304 657 304 681 Q304 704 316 718 Q328 732 350 732 Q372 732 384.5 718.5 Q397 705 397 682 Q397 658 384.5 644.5 Q372 631 350 631 Z M448 534 L448 0 L385 0 L385 64 Q333 -12 233 -12 Q160 -12 119.5 30 Q79 72 79 146 L79 534 L149 534 L149 152 Q149 104 175 79.5 Q201 55 251 55 Q289 55 320 70 Q351 85 378 117 L378 534 L448 534 Z " />
<glyph glyph-name="uni01D8" unicode="&#x1d8;" horiz-adv-x="534" d="M284 732 L240 732 L240 742 L315 869 L380 869 L380 859 L284 732 Z M179 610 Q157 610 145.5 622.5 Q134 635 134 658 Q134 681 145.5 694 Q157 707 179 707 Q201 707 212.5 694.5 Q224 682 224 659 Q224 636 212.5 623 Q201 610 179 610 Z M304 658 Q304 681 315.5 694 Q327 707 349 707 Q371 707 382.5 694.5 Q394 682 394 659 Q394 636 382.5 623 Q371 610 349 610 Q327 610 315.5 622.5 Q304 635 304 658 Z M448 534 L448 0 L385 0 L385 64 Q333 -12 233 -12 Q160 -12 119.5 30 Q79 72 79 146 L79 534 L149 534 L149 152 Q149 104 175 79.5 Q201 55 251 55 Q289 55 320 70 Q351 85 378 117 L378 534 L448 534 Z " />
<glyph glyph-name="uni01DA" unicode="&#x1da;" horiz-adv-x="534" d="M229 727 L131 866 L131 876 L182 876 L267 776 L351 876 L399 876 L399 866 L301 727 L229 727 Z M134 658 Q134 681 145.5 694 Q157 707 179 707 Q201 707 212.5 694.5 Q224 682 224 659 Q224 636 212.5 623 Q201 610 179 610 Q157 610 145.5 622.5 Q134 635 134 658 Z M304 658 Q304 681 315.5 694 Q327 707 349 707 Q371 707 382.5 694.5 Q394 682 394 659 Q394 636 382.5 623 Q371 610 349 610 Q327 610 315.5 622.5 Q304 635 304 658 Z M448 534 L448 0 L385 0 L385 64 Q333 -12 233 -12 Q160 -12 119.5 30 Q79 72 79 146 L79 534 L149 534 L149 152 Q149 104 175 79.5 Q201 55 251 55 Q289 55 320 70 Q351 85 378 117 L378 534 L448 534 Z " />
<glyph glyph-name="uni01DC" unicode="&#x1dc;" horiz-adv-x="534" d="M246 732 L156 859 L156 869 L221 869 L290 742 L290 732 L246 732 Z M179 610 Q157 610 145.5 622.5 Q134 635 134 658 Q134 681 145.5 694 Q157 707 179 707 Q201 707 212.5 694.5 Q224 682 224 659 Q224 636 212.5 623 Q201 610 179 610 Z M349 610 Q327 610 315.5 622.5 Q304 635 304 658 Q304 681 315.5 694 Q327 707 349 707 Q371 707 382.5 694.5 Q394 682 394 659 Q394 636 382.5 623 Q371 610 349 610 Z M448 534 L448 0 L385 0 L385 64 Q333 -12 233 -12 Q160 -12 119.5 30 Q79 72 79 146 L79 534 L149 534 L149 152 Q149 104 175 79.5 Q201 55 251 55 Q289 55 320 70 Q351 85 378 117 L378 534 L448 534 Z " />
<glyph glyph-name="uni01D6" unicode="&#x1d6;" horiz-adv-x="534" d="M399 761 L131 761 L131 809 L399 809 L399 761 Z M134 658 Q134 681 145.5 694 Q157 707 179 707 Q201 707 212.5 694.5 Q224 682 224 659 Q224 636 212.5 623 Q201 610 179 610 Q157 610 145.5 622.5 Q134 635 134 658 Z M304 658 Q304 681 315.5 694 Q327 707 349 707 Q371 707 382.5 694.5 Q394 682 394 659 Q394 636 382.5 623 Q371 610 349 610 Q327 610 315.5 622.5 Q304 635 304 658 Z M448 534 L448 0 L385 0 L385 64 Q333 -12 233 -12 Q160 -12 119.5 30 Q79 72 79 146 L79 534 L149 534 L149 152 Q149 104 175 79.5 Q201 55 251 55 Q289 55 320 70 Q351 85 378 117 L378 534 L448 534 Z " />
<glyph glyph-name="uni1EE5" unicode="&#x1ee5;" horiz-adv-x="534" d="M448 534 L448 0 L385 0 L385 64 Q333 -12 233 -12 Q160 -12 119.5 30 Q79 72 79 146 L79 534 L149 534 L149 152 Q149 104 175 79.5 Q201 55 251 55 Q289 55 320 70 Q351 85 378 117 L378 534 L448 534 Z M266 -203 Q243 -203 230 -189.5 Q217 -176 217 -151 Q217 -126 230 -112 Q243 -98 266 -98 Q289 -98 302 -111.5 Q315 -125 315 -150 Q315 -175 302 -189 Q289 -203 266 -203 Z " />
<glyph glyph-name="ugrave" unicode="&#xf9;" horiz-adv-x="534" d="M448 534 L448 0 L385 0 L385 64 Q333 -12 233 -12 Q160 -12 119.5 30 Q79 72 79 146 L79 534 L149 534 L149 152 Q149 104 175 79.5 Q201 55 251 55 Q289 55 320 70 Q351 85 378 117 L378 534 L448 534 Z M146 774 L146 784 L227 784 L314 625 L314 615 L262 615 L146 774 Z " />
<glyph glyph-name="uni1EE7" unicode="&#x1ee7;" horiz-adv-x="534" d="M448 534 L448 0 L385 0 L385 64 Q333 -12 233 -12 Q160 -12 119.5 30 Q79 72 79 146 L79 534 L149 534 L149 152 Q149 104 175 79.5 Q201 55 251 55 Q289 55 320 70 Q351 85 378 117 L378 534 L448 534 Z M236 615 Q234 627 234 638 Q234 661 242 672 Q250 683 266 693 Q278 701 283.5 707.5 Q289 714 289 725 Q289 750 262 750 Q237 750 204 730 L186 770 Q203 783 226 790 Q249 797 272 797 Q309 797 329.5 779 Q350 761 350 729 Q350 707 342 696 Q334 685 317 674 Q303 665 296.5 657.5 Q290 650 290 635 Q290 627 292 615 L236 615 Z " />
<glyph glyph-name="uhorn" unicode="&#x1b0;" horiz-adv-x="535" d="M557 614 Q557 558 531.5 528.5 Q506 499 448 492 L448 0 L385 0 L385 64 Q333 -12 233 -12 Q160 -12 119.5 30 Q79 72 79 146 L79 534 L149 534 L149 152 Q149 104 175 79.5 Q201 55 251 55 Q289 55 320 70 Q351 85 378 117 L378 534 L400 534 Q452 534 473 551 Q494 568 494 612 Q494 637 489 673 L552 673 Q557 643 557 614 Z " />
<glyph glyph-name="uni1EE9" unicode="&#x1ee9;" horiz-adv-x="535" d="M557 614 Q557 558 531.5 528.5 Q506 499 448 492 L448 0 L385 0 L385 64 Q333 -12 233 -12 Q160 -12 119.5 30 Q79 72 79 146 L79 534 L149 534 L149 152 Q149 104 175 79.5 Q201 55 251 55 Q289 55 320 70 Q351 85 378 117 L378 534 L400 534 Q452 534 473 551 Q494 568 494 612 Q494 637 489 673 L552 673 Q557 643 557 614 Z M218 625 L313 784 L394 784 L394 774 L270 615 L218 615 L218 625 Z " />
<glyph glyph-name="uni1EF1" unicode="&#x1ef1;" horiz-adv-x="535" d="M557 614 Q557 558 531.5 528.5 Q506 499 448 492 L448 0 L385 0 L385 64 Q333 -12 233 -12 Q160 -12 119.5 30 Q79 72 79 146 L79 534 L149 534 L149 152 Q149 104 175 79.5 Q201 55 251 55 Q289 55 320 70 Q351 85 378 117 L378 534 L400 534 Q452 534 473 551 Q494 568 494 612 Q494 637 489 673 L552 673 Q557 643 557 614 Z M266 -203 Q243 -203 230 -189.5 Q217 -176 217 -151 Q217 -126 230 -112 Q243 -98 266 -98 Q289 -98 302 -111.5 Q315 -125 315 -150 Q315 -175 302 -189 Q289 -203 266 -203 Z " />
<glyph glyph-name="uni1EEB" unicode="&#x1eeb;" horiz-adv-x="535" d="M557 614 Q557 558 531.5 528.5 Q506 499 448 492 L448 0 L385 0 L385 64 Q333 -12 233 -12 Q160 -12 119.5 30 Q79 72 79 146 L79 534 L149 534 L149 152 Q149 104 175 79.5 Q201 55 251 55 Q289 55 320 70 Q351 85 378 117 L378 534 L400 534 Q452 534 473 551 Q494 568 494 612 Q494 637 489 673 L552 673 Q557 643 557 614 Z M146 774 L146 784 L227 784 L314 625 L314 615 L262 615 L146 774 Z " />
<glyph glyph-name="uni1EED" unicode="&#x1eed;" horiz-adv-x="535" d="M557 614 Q557 558 531.5 528.5 Q506 499 448 492 L448 0 L385 0 L385 64 Q333 -12 233 -12 Q160 -12 119.5 30 Q79 72 79 146 L79 534 L149 534 L149 152 Q149 104 175 79.5 Q201 55 251 55 Q289 55 320 70 Q351 85 378 117 L378 534 L400 534 Q452 534 473 551 Q494 568 494 612 Q494 637 489 673 L552 673 Q557 643 557 614 Z M236 615 Q234 627 234 638 Q234 661 242 672 Q250 683 266 693 Q278 701 283.5 707.5 Q289 714 289 725 Q289 750 262 750 Q237 750 204 730 L186 770 Q203 783 226 790 Q249 797 272 797 Q309 797 329.5 779 Q350 761 350 729 Q350 707 342 696 Q334 685 317 674 Q303 665 296.5 657.5 Q290 650 290 635 Q290 627 292 615 L236 615 Z " />
<glyph glyph-name="uni1EEF" unicode="&#x1eef;" horiz-adv-x="535" d="M557 614 Q557 558 531.5 528.5 Q506 499 448 492 L448 0 L385 0 L385 64 Q333 -12 233 -12 Q160 -12 119.5 30 Q79 72 79 146 L79 534 L149 534 L149 152 Q149 104 175 79.5 Q201 55 251 55 Q289 55 320 70 Q351 85 378 117 L378 534 L400 534 Q452 534 473 551 Q494 568 494 612 Q494 637 489 673 L552 673 Q557 643 557 614 Z M330 620 Q305 620 286.5 630.5 Q268 641 245 661 Q229 675 218 682 Q207 689 196 689 Q162 689 156 622 L110 622 Q111 681 134 714 Q157 747 198 747 Q223 747 241.5 736.5 Q260 726 283 706 Q299 692 310 685 Q321 678 332 678 Q366 678 372 745 L418 745 Q417 686 394 653 Q371 620 330 620 Z " />
<glyph glyph-name="uhungarumlaut" unicode="&#x171;" horiz-adv-x="534" d="M448 534 L448 0 L385 0 L385 64 Q333 -12 233 -12 Q160 -12 119.5 30 Q79 72 79 146 L79 534 L149 534 L149 152 Q149 104 175 79.5 Q201 55 251 55 Q289 55 320 70 Q351 85 378 117 L378 534 L448 534 Z M162 625 L219 784 L292 784 L292 774 L206 615 L162 615 L162 625 Z M297 625 L354 784 L427 784 L427 774 L341 615 L297 615 L297 625 Z " />
<glyph glyph-name="umacron" unicode="&#x16b;" horiz-adv-x="534" d="M448 534 L448 0 L385 0 L385 64 Q333 -12 233 -12 Q160 -12 119.5 30 Q79 72 79 146 L79 534 L149 534 L149 152 Q149 104 175 79.5 Q201 55 251 55 Q289 55 320 70 Q351 85 378 117 L378 534 L448 534 Z M130 697 L398 697 L398 642 L130 642 L130 697 Z " />
<glyph glyph-name="uogonek" unicode="&#x173;" horiz-adv-x="534" d="M491 -187 Q473 -201 448 -208.5 Q423 -216 397 -216 Q352 -216 327 -192.5 Q302 -169 302 -128 Q302 -89 324 -54.5 Q346 -20 386 3 L386 69 Q354 28 316.5 8 Q279 -12 232 -12 Q160 -12 119.5 30 Q79 72 79 146 L79 534 L149 534 L149 153 Q149 55 251 55 Q289 55 320 70 Q351 85 378 117 L378 534 L448 534 L448 0 Q365 -50 365 -114 Q365 -161 412 -161 Q442 -161 473 -143 L491 -187 Z " />
<glyph glyph-name="uring" unicode="&#x16f;" horiz-adv-x="534" d="M448 534 L448 0 L385 0 L385 64 Q333 -12 233 -12 Q160 -12 119.5 30 Q79 72 79 146 L79 534 L149 534 L149 152 Q149 104 175 79.5 Q201 55 251 55 Q289 55 320 70 Q351 85 378 117 L378 534 L448 534 Z M264 605 Q213 605 184.5 632.5 Q156 660 156 710 Q156 760 184.5 787.5 Q213 815 264 815 Q315 815 343.5 787.5 Q372 760 372 710 Q372 660 343.5 632.5 Q315 605 264 605 Z M264 646 Q320 646 320 710 Q320 774 264 774 Q208 774 208 710 Q208 646 264 646 Z " />
<glyph glyph-name="utilde" unicode="&#x169;" horiz-adv-x="534" d="M448 534 L448 0 L385 0 L385 64 Q333 -12 233 -12 Q160 -12 119.5 30 Q79 72 79 146 L79 534 L149 534 L149 152 Q149 104 175 79.5 Q201 55 251 55 Q289 55 320 70 Q351 85 378 117 L378 534 L448 534 Z M330 620 Q305 620 286.5 630.5 Q268 641 245 661 Q229 675 218 682 Q207 689 196 689 Q162 689 156 622 L110 622 Q111 681 134 714 Q157 747 198 747 Q223 747 241.5 736.5 Q260 726 283 706 Q299 692 310 685 Q321 678 332 678 Q366 678 372 745 L418 745 Q417 686 394 653 Q371 620 330 620 Z " />
<glyph glyph-name="v" unicode="v" horiz-adv-x="493" d="M461 534 L286 0 L208 0 L32 534 L109 534 L248 76 L385 534 L461 534 Z " />
<glyph glyph-name="w" unicode="w" horiz-adv-x="738" d="M704 534 L555 0 L478 0 L369 432 L260 0 L182 0 L34 534 L110 534 L222 76 L333 534 L407 534 L518 78 L628 534 L704 534 Z " />
<glyph glyph-name="wacute" unicode="&#x1e83;" horiz-adv-x="738" d="M704 534 L555 0 L478 0 L369 432 L260 0 L182 0 L34 534 L110 534 L222 76 L333 534 L407 534 L518 78 L628 534 L704 534 Z M324 625 L419 784 L500 784 L500 774 L376 615 L324 615 L324 625 Z " />
<glyph glyph-name="wcircumflex" unicode="&#x175;" horiz-adv-x="738" d="M704 534 L555 0 L478 0 L369 432 L260 0 L182 0 L34 534 L110 534 L222 76 L333 534 L407 534 L518 78 L628 534 L704 534 Z M502 625 L502 615 L451 615 L368 731 L286 615 L238 615 L238 625 L334 784 L406 784 L502 625 Z " />
<glyph glyph-name="wdieresis" unicode="&#x1e85;" horiz-adv-x="738" d="M283 631 Q261 631 249 644 Q237 657 237 681 Q237 704 249 718 Q261 732 283 732 Q305 732 317.5 718.5 Q330 705 330 682 Q330 658 317.5 644.5 Q305 631 283 631 Z M456 631 Q434 631 422 644 Q410 657 410 681 Q410 704 422 718 Q434 732 456 732 Q478 732 490.5 718.5 Q503 705 503 682 Q503 658 490.5 644.5 Q478 631 456 631 Z M704 534 L555 0 L478 0 L369 432 L260 0 L182 0 L34 534 L110 534 L222 76 L333 534 L407 534 L518 78 L628 534 L704 534 Z " />
<glyph glyph-name="wgrave" unicode="&#x1e81;" horiz-adv-x="738" d="M704 534 L555 0 L478 0 L369 432 L260 0 L182 0 L34 534 L110 534 L222 76 L333 534 L407 534 L518 78 L628 534 L704 534 Z M252 774 L252 784 L333 784 L420 625 L420 615 L368 615 L252 774 Z " />
<glyph glyph-name="x" unicode="x" horiz-adv-x="466" d="M352 0 L231 215 L112 0 L29 0 L193 271 L36 534 L121 534 L234 329 L352 534 L435 534 L273 274 L437 0 L352 0 Z " />
<glyph glyph-name="y" unicode="y" horiz-adv-x="489" d="M457 534 L278 -8 Q255 -79 199.5 -132.5 Q144 -186 59 -218 L34 -157 Q101 -132 144 -95 Q187 -58 210 -7 L32 534 L109 534 L246 84 L381 534 L457 534 Z " />
<glyph glyph-name="yacute" unicode="&#xfd;" horiz-adv-x="489" d="M457 534 L278 -8 Q255 -79 199.5 -132.5 Q144 -186 59 -218 L34 -157 Q101 -132 144 -95 Q187 -58 210 -7 L32 534 L109 534 L246 84 L381 534 L457 534 Z M199 625 L294 784 L375 784 L375 774 L251 615 L199 615 L199 625 Z " />
<glyph glyph-name="ycircumflex" unicode="&#x177;" horiz-adv-x="489" d="M457 534 L278 -8 Q255 -79 199.5 -132.5 Q144 -186 59 -218 L34 -157 Q101 -132 144 -95 Q187 -58 210 -7 L32 534 L109 534 L246 84 L381 534 L457 534 Z M377 625 L377 615 L326 615 L243 731 L161 615 L113 615 L113 625 L209 784 L281 784 L377 625 Z " />
<glyph glyph-name="ydieresis" unicode="&#xff;" horiz-adv-x="489" d="M158 631 Q136 631 124 644 Q112 657 112 681 Q112 704 124 718 Q136 732 158 732 Q180 732 192.5 718.5 Q205 705 205 682 Q205 658 192.5 644.5 Q180 631 158 631 Z M331 631 Q309 631 297 644 Q285 657 285 681 Q285 704 297 718 Q309 732 331 732 Q353 732 365.5 718.5 Q378 705 378 682 Q378 658 365.5 644.5 Q353 631 331 631 Z M457 534 L278 -8 Q255 -79 199.5 -132.5 Q144 -186 59 -218 L34 -157 Q101 -132 144 -95 Q187 -58 210 -7 L32 534 L109 534 L246 84 L381 534 L457 534 Z " />
<glyph glyph-name="uni1E8F" unicode="&#x1e8f;" horiz-adv-x="489" d="M457 534 L278 -8 Q255 -79 199.5 -132.5 Q144 -186 59 -218 L34 -157 Q101 -132 144 -95 Q187 -58 210 -7 L32 534 L109 534 L246 84 L381 534 L457 534 Z M245 631 Q222 631 209 644.5 Q196 658 196 683 Q196 708 209 722 Q222 736 245 736 Q268 736 281 722.5 Q294 709 294 684 Q294 659 281 645 Q268 631 245 631 Z " />
<glyph glyph-name="uni1EF5" unicode="&#x1ef5;" horiz-adv-x="489" d="M457 534 L278 -8 Q255 -79 199.5 -132.5 Q144 -186 59 -218 L34 -157 Q101 -132 144 -95 Q187 -58 210 -7 L32 534 L109 534 L246 84 L381 534 L457 534 Z M341 -203 Q318 -203 305 -189.5 Q292 -176 292 -151 Q292 -126 305 -112 Q318 -98 341 -98 Q364 -98 377 -111.5 Q390 -125 390 -150 Q390 -175 377 -189 Q364 -203 341 -203 Z " />
<glyph glyph-name="ygrave" unicode="&#x1ef3;" horiz-adv-x="489" d="M457 534 L278 -8 Q255 -79 199.5 -132.5 Q144 -186 59 -218 L34 -157 Q101 -132 144 -95 Q187 -58 210 -7 L32 534 L109 534 L246 84 L381 534 L457 534 Z M127 774 L127 784 L208 784 L295 625 L295 615 L243 615 L127 774 Z " />
<glyph glyph-name="uni1EF7" unicode="&#x1ef7;" horiz-adv-x="489" d="M457 534 L278 -8 Q255 -79 199.5 -132.5 Q144 -186 59 -218 L34 -157 Q101 -132 144 -95 Q187 -58 210 -7 L32 534 L109 534 L246 84 L381 534 L457 534 Z M217 615 Q215 627 215 638 Q215 661 223 672 Q231 683 247 693 Q259 701 264.5 707.5 Q270 714 270 725 Q270 750 243 750 Q218 750 185 730 L167 770 Q184 783 207 790 Q230 797 253 797 Q290 797 310.5 779 Q331 761 331 729 Q331 707 323 696 Q315 685 298 674 Q284 665 277.5 657.5 Q271 650 271 635 Q271 627 273 615 L217 615 Z " />
<glyph glyph-name="uni1EF9" unicode="&#x1ef9;" horiz-adv-x="489" d="M457 534 L278 -8 Q255 -79 199.5 -132.5 Q144 -186 59 -218 L34 -157 Q101 -132 144 -95 Q187 -58 210 -7 L32 534 L109 534 L246 84 L381 534 L457 534 Z M311 620 Q286 620 267.5 630.5 Q249 641 226 661 Q210 675 199 682 Q188 689 177 689 Q143 689 137 622 L91 622 Q92 681 115 714 Q138 747 179 747 Q204 747 222.5 736.5 Q241 726 264 706 Q280 692 291 685 Q302 678 313 678 Q347 678 353 745 L399 745 Q398 686 375 653 Q352 620 311 620 Z " />
<glyph glyph-name="z" unicode="z" horiz-adv-x="426" d="M387 58 L387 0 L37 0 L37 58 L303 476 L45 476 L45 534 L383 534 L383 476 L117 58 L387 58 Z " />
<glyph glyph-name="zacute" unicode="&#x17a;" horiz-adv-x="426" d="M387 58 L387 0 L37 0 L37 58 L303 476 L45 476 L45 534 L383 534 L383 476 L117 58 L387 58 Z M164 625 L259 784 L340 784 L340 774 L216 615 L164 615 L164 625 Z " />
<glyph glyph-name="zcaron" unicode="&#x17e;" horiz-adv-x="426" d="M387 58 L387 0 L37 0 L37 58 L303 476 L45 476 L45 534 L383 534 L383 476 L117 58 L387 58 Z M342 784 L342 774 L246 615 L174 615 L78 774 L78 784 L129 784 L211 668 L294 784 L342 784 Z " />
<glyph glyph-name="zdotaccent" unicode="&#x17c;" horiz-adv-x="426" d="M387 58 L387 0 L37 0 L37 58 L303 476 L45 476 L45 534 L383 534 L383 476 L117 58 L387 58 Z M210 631 Q187 631 174 644.5 Q161 658 161 683 Q161 708 174 722 Q187 736 210 736 Q233 736 246 722.5 Q259 709 259 684 Q259 659 246 645 Q233 631 210 631 Z " />
<glyph glyph-name="uni1E93" unicode="&#x1e93;" horiz-adv-x="426" d="M387 58 L387 0 L37 0 L37 58 L303 476 L45 476 L45 534 L383 534 L383 476 L117 58 L387 58 Z M212 -203 Q189 -203 176 -189.5 Q163 -176 163 -151 Q163 -126 176 -112 Q189 -98 212 -98 Q235 -98 248 -111.5 Q261 -125 261 -150 Q261 -175 248 -189 Q235 -203 212 -203 Z " />
<glyph glyph-name="fi" unicode="&#xfb01;" horiz-adv-x="562" d="M94 476 L7 476 L7 534 L94 534 L94 611 Q94 688 140 731 Q186 774 270 774 Q296 774 313 770 L313 708 Q289 711 270 711 Q164 711 164 611 L164 534 L295 534 L295 476 L164 476 L164 0 L94 0 L94 476 Z M404 534 L474 534 L474 0 L404 0 L404 534 Z M439 631 Q416 631 403 644.5 Q390 658 390 683 Q390 708 403 722 Q416 736 439 736 Q462 736 475 722.5 Q488 709 488 684 Q488 659 475 645 Q462 631 439 631 Z " />
<glyph glyph-name="fl" unicode="&#xfb02;" horiz-adv-x="596" d="M94 476 L7 476 L7 534 L94 534 L94 611 Q94 688 140 731 Q186 774 270 774 Q296 774 313 770 L313 708 Q289 711 270 711 Q164 711 164 611 L164 534 L295 534 L295 476 L164 476 L164 0 L94 0 L94 476 Z M506 -5 Q456 -5 428 23 Q400 51 400 104 L400 770 L470 770 L470 107 Q470 80 482 68.5 Q494 57 520 57 Q538 57 557 61 L564 3 Q535 -5 506 -5 Z " />
<glyph glyph-name="ordfeminine" unicode="&#xaa;" horiz-adv-x="487" d="M236 729 Q308 729 348 695 Q388 661 388 600 L388 331 Q354 313 313 303.5 Q272 294 233 294 Q156 294 113.5 327.5 Q71 361 71 422 Q71 496 130 530 Q189 564 322 564 L322 592 Q322 630 298.5 649.5 Q275 669 229 669 Q184 669 128 644 L110 697 Q137 712 170.5 720.5 Q204 729 236 729 Z M137 424 Q137 389 161.5 371 Q186 353 233 353 Q283 353 322 369 L322 511 Q223 511 180 491 Q137 471 137 424 Z M91 186 L388 186 L388 129 L91 129 L91 186 Z " />
<glyph glyph-name="ordmasculine" unicode="&#xba;" horiz-adv-x="492" d="M246 293 Q163 293 117.5 349 Q72 405 72 512 Q72 618 117.5 674 Q163 730 246 730 Q329 730 374.5 674 Q420 618 420 512 Q420 405 374.5 349 Q329 293 246 293 Z M246 352 Q298 352 325 392.5 Q352 433 352 512 Q352 590 325 630.5 Q298 671 246 671 Q194 671 167 630.5 Q140 590 140 512 Q140 433 167 392.5 Q194 352 246 352 Z M98 186 L396 186 L396 129 L98 129 L98 186 Z " />
<glyph glyph-name="uni207F" unicode="&#x207f;" horiz-adv-x="489" d="M277 733 Q334 733 366 702 Q398 671 398 615 L398 334 L331 334 L331 606 Q331 671 256 671 Q206 671 163 635 L163 334 L96 334 L96 724 L155 724 L155 677 Q203 733 277 733 Z " />
<glyph glyph-name="pi" unicode="&#x3c0;" horiz-adv-x="580" d="M439 475 L439 112 Q439 56 495 56 Q516 56 529 60 L537 2 Q510 -6 479 -6 Q425 -6 397 23 Q369 52 369 109 L369 475 L212 475 Q211 305 195.5 199.5 Q180 94 142 0 L69 0 Q110 101 125 201.5 Q140 302 141 475 L11 475 L11 534 L569 534 L569 475 L439 475 Z " />
<glyph glyph-name="zero" unicode="0" horiz-adv-x="578" d="M289 -12 Q176 -12 120.5 79.5 Q65 171 65 362 Q65 553 120.5 644.5 Q176 736 289 736 Q402 736 457.5 644.5 Q513 553 513 362 Q513 171 457.5 79.5 Q402 -12 289 -12 Z M289 51 Q366 51 402.5 126.5 Q439 202 439 362 Q439 522 402.5 597.5 Q366 673 289 673 Q212 673 175.5 597.5 Q139 522 139 362 Q139 202 175.5 126.5 Q212 51 289 51 Z " />
<glyph glyph-name="one" unicode="1" horiz-adv-x="406" d="M280 724 L280 0 L209 0 L209 644 L49 586 L30 646 L219 724 L280 724 Z " />
<glyph glyph-name="two" unicode="2" horiz-adv-x="489" d="M432 61 L432 0 L36 0 L36 62 L275 378 Q318 434 335 471.5 Q352 509 352 547 Q352 604 318.5 637 Q285 670 226 670 Q186 670 144.5 655 Q103 640 69 614 L35 670 Q71 700 124.5 718 Q178 736 231 736 Q318 736 371 686.5 Q424 637 424 555 Q424 506 402 455.5 Q380 405 330 339 L118 61 L432 61 Z " />
<glyph glyph-name="three" unicode="3" horiz-adv-x="518" d="M249 433 Q309 433 354.5 406.5 Q400 380 425 331 Q450 282 450 218 Q450 150 422 97.5 Q394 45 343.5 16.5 Q293 -12 227 -12 Q178 -12 125.5 3 Q73 18 35 43 L65 105 Q103 81 145.5 67.5 Q188 54 227 54 Q296 54 335.5 98 Q375 142 375 218 Q375 291 337 332.5 Q299 374 232 374 Q194 374 168 365 L141 398 L350 663 L46 663 L46 724 L430 724 L430 663 L249 433 Z " />
<glyph glyph-name="four" unicode="4" horiz-adv-x="533" d="M486 224 L486 162 L398 162 L398 0 L329 0 L329 162 L27 162 L27 224 L296 724 L398 724 L398 224 L486 224 Z M329 224 L329 659 L102 224 L329 224 Z " />
<glyph glyph-name="five" unicode="5" horiz-adv-x="510" d="M247 452 Q307 452 352 424 Q397 396 422 344.5 Q447 293 447 226 Q447 155 419 101 Q391 47 340 17.5 Q289 -12 222 -12 Q174 -12 125 2 Q76 16 43 39 L72 101 Q106 79 145 66.5 Q184 54 222 54 Q292 54 332.5 99.5 Q373 145 373 225 Q373 301 335 344.5 Q297 388 230 388 Q197 388 166.5 378 Q136 368 113 350 L71 373 L91 724 L419 724 L419 663 L153 663 L138 428 Q188 452 247 452 Z " />
<glyph glyph-name="six" unicode="6" horiz-adv-x="525" d="M280 447 Q341 447 387 419 Q433 391 458.5 339.5 Q484 288 484 221 Q484 152 457 99 Q430 46 381 17 Q332 -12 268 -12 Q203 -12 153 18 Q103 48 76 103 Q49 158 49 230 Q49 300 76.5 368.5 Q104 437 168 527 L317 736 L375 694 L225 490 Q193 446 179 423 Q219 447 280 447 Z M269 50 Q335 50 372.5 95 Q410 140 410 218 Q410 298 370.5 344 Q331 390 262 390 Q232 390 202.5 381.5 Q173 373 149 358 Q123 308 123 233 Q123 147 162 98.5 Q201 50 269 50 Z " />
<glyph glyph-name="seven" unicode="7" horiz-adv-x="451" d="M420 724 L420 663 L148 -9 L83 18 L349 663 L15 663 L15 724 L420 724 Z " />
<glyph glyph-name="eight" unicode="8" horiz-adv-x="545" d="M272 -12 Q206 -12 155.5 11.5 Q105 35 77 78.5 Q49 122 49 178 Q49 241 89.5 296 Q130 351 197 377 Q144 397 112 446.5 Q80 496 80 558 Q80 638 132.5 687 Q185 736 272 736 Q359 736 412 687 Q465 638 465 558 Q465 497 433 448 Q401 399 348 380 Q415 359 455.5 305.5 Q496 252 496 186 Q496 127 468 82 Q440 37 389.5 12.5 Q339 -12 272 -12 Z M278 403 Q331 423 361.5 462.5 Q392 502 392 551 Q392 609 360 642 Q328 675 272 675 Q217 675 185 642 Q153 609 153 553 Q153 501 186 461.5 Q219 422 278 403 Z M272 50 Q342 50 382 86 Q422 122 422 185 Q422 237 381 282 Q340 327 268 354 Q200 328 161.5 284 Q123 240 123 187 Q123 123 162.5 86.5 Q202 50 272 50 Z " />
<glyph glyph-name="nine" unicode="9" horiz-adv-x="525" d="M257 736 Q322 736 372 706 Q422 676 449 621 Q476 566 476 494 Q476 424 448.5 355.5 Q421 287 357 197 L208 -12 L150 30 L300 234 Q332 278 346 301 Q306 277 245 277 Q184 277 138 305 Q92 333 66.5 384.5 Q41 436 41 503 Q41 572 68 625 Q95 678 144 707 Q193 736 257 736 Z M115 506 Q115 426 154.5 380 Q194 334 263 334 Q293 334 322.5 342.5 Q352 351 376 366 Q402 416 402 491 Q402 577 363 625.5 Q324 674 256 674 Q190 674 152.5 629 Q115 584 115 506 Z " />
<glyph glyph-name="fraction" unicode="&#x2044;" horiz-adv-x="233" d="M-112 20 L292 733 L345 704 L-59 -9 L-112 20 Z " />
<glyph glyph-name="onehalf" unicode="&#xbd;" horiz-adv-x="838" d="M609 704 L205 -9 L152 20 L556 733 L609 704 Z M126 285 L126 657 L37 625 L20 674 L141 724 L188 724 L188 285 L126 285 Z M793 53 L793 0 L523 0 L523 53 L677 230 Q701 258 710 277 Q719 296 719 320 Q719 352 703.5 369.5 Q688 387 656 387 Q631 387 603 377 Q575 367 549 348 L522 395 Q552 418 588.5 431.5 Q625 445 661 445 Q719 445 751.5 414 Q784 383 784 326 Q784 293 769.5 263.5 Q755 234 719 193 L595 53 L793 53 Z " />
<glyph glyph-name="uni2153" unicode="&#x2153;" horiz-adv-x="862" d="M609 704 L205 -9 L152 20 L556 733 L609 704 Z M126 285 L126 657 L37 625 L20 674 L141 724 L188 724 L188 285 L126 285 Z M676 265 Q737 265 771.5 231 Q806 197 806 136 Q806 69 765 31.5 Q724 -6 650 -6 Q614 -6 580.5 4 Q547 14 522 33 L546 85 Q591 52 650 52 Q695 52 717.5 73.5 Q740 95 740 135 Q740 215 656 215 Q630 215 610 209 L589 237 L716 386 L531 386 L531 439 L786 439 L786 386 L675 265 L676 265 Z " />
<glyph glyph-name="uni2154" unicode="&#x2154;" horiz-adv-x="939" d="M686 704 L282 -9 L229 20 L633 733 L686 704 Z M180 515 Q204 543 213 562 Q222 581 222 605 Q222 637 206.5 654.5 Q191 672 159 672 Q134 672 106 662 Q78 652 52 633 L25 680 Q55 703 91.5 716.5 Q128 730 164 730 Q222 730 254.5 699 Q287 668 287 611 Q287 578 272.5 548.5 Q258 519 222 478 L98 338 L296 338 L296 285 L26 285 L26 338 L180 515 Z M753 265 Q814 265 848.5 231 Q883 197 883 136 Q883 69 842 31.5 Q801 -6 727 -6 Q691 -6 657.5 4 Q624 14 599 33 L623 85 Q668 52 727 52 Q772 52 794.5 73.5 Q817 95 817 135 Q817 215 733 215 Q707 215 687 209 L666 237 L793 386 L608 386 L608 439 L863 439 L863 386 L752 265 L753 265 Z " />
<glyph glyph-name="onequarter" unicode="&#xbc;" horiz-adv-x="801" d="M609 704 L205 -9 L152 20 L556 733 L609 704 Z M126 285 L126 657 L37 625 L20 674 L141 724 L188 724 L188 285 L126 285 Z M772 141 L772 89 L718 89 L718 0 L658 0 L658 89 L464 89 L464 141 L628 439 L718 439 L718 141 L772 141 Z M658 141 L658 386 L527 141 L658 141 Z " />
<glyph glyph-name="threequarters" unicode="&#xbe;" horiz-adv-x="882" d="M690 704 L286 -9 L233 20 L637 733 L690 704 Z M309 421 Q309 354 268 316.5 Q227 279 153 279 Q117 279 83.5 289 Q50 299 25 318 L49 370 Q94 337 153 337 Q198 337 220.5 358.5 Q243 380 243 420 Q243 500 159 500 Q133 500 113 494 L92 522 L219 671 L34 671 L34 724 L289 724 L289 671 L178 550 L179 550 Q240 550 274.5 516 Q309 482 309 421 Z M853 141 L853 89 L799 89 L799 0 L739 0 L739 89 L545 89 L545 141 L709 439 L799 439 L799 141 L853 141 Z M739 141 L739 386 L608 141 L739 141 Z " />
<glyph glyph-name="oneeighth" unicode="&#x215b;" horiz-adv-x="853" d="M609 704 L205 -9 L152 20 L556 733 L609 704 Z M126 285 L126 657 L37 625 L20 674 L141 724 L188 724 L188 285 L126 285 Z M723 230 Q767 217 791.5 188 Q816 159 816 119 Q816 60 776.5 27 Q737 -6 666 -6 Q595 -6 555.5 25.5 Q516 57 516 115 Q516 153 541 183 Q566 213 609 229 Q575 239 555.5 266 Q536 293 536 331 Q536 385 570.5 415.5 Q605 446 666 446 Q727 446 761.5 415.5 Q796 385 796 331 Q796 295 776.5 268 Q757 241 723 230 Z M599 328 Q599 267 669 247 Q733 266 733 327 Q733 358 716 375 Q699 392 666 392 Q633 392 616 375 Q599 358 599 328 Z M666 48 Q708 48 729.5 66.5 Q751 85 751 119 Q751 149 729 172.5 Q707 196 663 210 Q622 197 601.5 174 Q581 151 581 120 Q581 85 602.5 66.5 Q624 48 666 48 Z " />
<glyph glyph-name="threeeighths" unicode="&#x215c;" horiz-adv-x="934" d="M690 704 L286 -9 L233 20 L637 733 L690 704 Z M309 421 Q309 354 268 316.5 Q227 279 153 279 Q117 279 83.5 289 Q50 299 25 318 L49 370 Q94 337 153 337 Q198 337 220.5 358.5 Q243 380 243 420 Q243 500 159 500 Q133 500 113 494 L92 522 L219 671 L34 671 L34 724 L289 724 L289 671 L178 550 L179 550 Q240 550 274.5 516 Q309 482 309 421 Z M804 230 Q848 217 872.5 188 Q897 159 897 119 Q897 60 857.5 27 Q818 -6 747 -6 Q676 -6 636.5 25.5 Q597 57 597 115 Q597 153 622 183 Q647 213 690 229 Q656 239 636.5 266 Q617 293 617 331 Q617 385 651.5 415.5 Q686 446 747 446 Q808 446 842.5 415.5 Q877 385 877 331 Q877 295 857.5 268 Q838 241 804 230 Z M680 328 Q680 267 750 247 Q814 266 814 327 Q814 358 797 375 Q780 392 747 392 Q714 392 697 375 Q680 358 680 328 Z M747 48 Q789 48 810.5 66.5 Q832 85 832 119 Q832 149 810 172.5 Q788 196 744 210 Q703 197 682.5 174 Q662 151 662 120 Q662 85 683.5 66.5 Q705 48 747 48 Z " />
<glyph glyph-name="fiveeighths" unicode="&#x215d;" horiz-adv-x="933" d="M689 704 L285 -9 L232 20 L636 733 L689 704 Z M313 425 Q313 356 272 317.5 Q231 279 158 279 Q122 279 89 288.5 Q56 298 33 316 L57 368 Q99 337 158 337 Q247 337 247 425 Q247 505 165 505 Q124 505 84 484 L50 501 L64 724 L285 724 L285 671 L117 671 L106 546 Q138 561 175 561 Q240 561 276.5 525 Q313 489 313 425 Z M803 230 Q847 217 871.5 188 Q896 159 896 119 Q896 60 856.5 27 Q817 -6 746 -6 Q675 -6 635.5 25.5 Q596 57 596 115 Q596 153 621 183 Q646 213 689 229 Q655 239 635.5 266 Q616 293 616 331 Q616 385 650.5 415.5 Q685 446 746 446 Q807 446 841.5 415.5 Q876 385 876 331 Q876 295 856.5 268 Q837 241 803 230 Z M679 328 Q679 267 749 247 Q813 266 813 327 Q813 358 796 375 Q779 392 746 392 Q713 392 696 375 Q679 358 679 328 Z M746 48 Q788 48 809.5 66.5 Q831 85 831 119 Q831 149 809 172.5 Q787 196 743 210 Q702 197 681.5 174 Q661 151 661 120 Q661 85 682.5 66.5 Q704 48 746 48 Z " />
<glyph glyph-name="seveneighths" unicode="&#x215e;" horiz-adv-x="817" d="M573 704 L169 -9 L116 20 L520 733 L573 704 Z M279 671 L103 279 L49 305 L217 671 L5 671 L5 724 L279 724 L279 671 Z M687 230 Q731 217 755.5 188 Q780 159 780 119 Q780 60 740.5 27 Q701 -6 630 -6 Q559 -6 519.5 25.5 Q480 57 480 115 Q480 153 505 183 Q530 213 573 229 Q539 239 519.5 266 Q500 293 500 331 Q500 385 534.5 415.5 Q569 446 630 446 Q691 446 725.5 415.5 Q760 385 760 331 Q760 295 740.5 268 Q721 241 687 230 Z M563 328 Q563 267 633 247 Q697 266 697 327 Q697 358 680 375 Q663 392 630 392 Q597 392 580 375 Q563 358 563 328 Z M630 48 Q672 48 693.5 66.5 Q715 85 715 119 Q715 149 693 172.5 Q671 196 627 210 Q586 197 565.5 174 Q545 151 545 120 Q545 85 566.5 66.5 Q588 48 630 48 Z " />
<glyph glyph-name="uni2080" unicode="&#x2080;" horiz-adv-x="412" d="M206 -79 Q133 -79 94 -23 Q55 33 55 146 Q55 260 94 316 Q133 372 206 372 Q279 372 318 316 Q357 260 357 146 Q357 33 318 -23 Q279 -79 206 -79 Z M206 -25 Q250 -25 270.5 16.5 Q291 58 291 146 Q291 234 270.5 276 Q250 318 206 318 Q162 318 141.5 276 Q121 234 121 146 Q121 58 141.5 16.5 Q162 -25 206 -25 Z " />
<glyph glyph-name="uni2081" unicode="&#x2081;" horiz-adv-x="304" d="M188 366 L188 -73 L126 -73 L126 299 L37 267 L20 316 L141 366 L188 366 Z " />
<glyph glyph-name="uni2082" unicode="&#x2082;" horiz-adv-x="343" d="M296 -20 L296 -73 L26 -73 L26 -20 L180 157 Q204 185 213 204 Q222 223 222 247 Q222 279 206.5 296.5 Q191 314 159 314 Q134 314 106 304 Q78 294 52 275 L25 322 Q55 345 91.5 358.5 Q128 372 164 372 Q222 372 254.5 341 Q287 310 287 253 Q287 220 272.5 190.5 Q258 161 222 120 L98 -20 L296 -20 Z " />
<glyph glyph-name="uni2083" unicode="&#x2083;" horiz-adv-x="367" d="M179 192 Q240 192 274.5 158 Q309 124 309 63 Q309 -4 268 -41.5 Q227 -79 153 -79 Q117 -79 83.5 -69 Q50 -59 25 -40 L49 12 Q94 -21 153 -21 Q198 -21 220.5 0.5 Q243 22 243 62 Q243 142 159 142 Q133 142 113 136 L92 164 L219 313 L34 313 L34 366 L289 366 L289 313 L178 192 L179 192 Z " />
<glyph glyph-name="uni2084" unicode="&#x2084;" horiz-adv-x="362" d="M325 68 L325 16 L271 16 L271 -73 L211 -73 L211 16 L17 16 L17 68 L181 366 L271 366 L271 68 L325 68 Z M211 68 L211 313 L80 68 L211 68 Z " />
<glyph glyph-name="uni2085" unicode="&#x2085;" horiz-adv-x="366" d="M175 203 Q240 203 276.5 167 Q313 131 313 67 Q313 -2 272 -40.5 Q231 -79 158 -79 Q122 -79 89 -69.5 Q56 -60 33 -42 L57 10 Q99 -21 158 -21 Q247 -21 247 67 Q247 147 165 147 Q124 147 84 126 L50 143 L64 366 L285 366 L285 313 L117 313 L106 188 Q138 203 175 203 Z " />
<glyph glyph-name="uni2086" unicode="&#x2086;" horiz-adv-x="361" d="M193 198 Q258 198 294 161.5 Q330 125 330 60 Q330 -6 292 -42.5 Q254 -79 186 -79 Q116 -79 77.5 -40 Q39 -1 39 70 Q39 119 53 158 Q67 197 101 238 L213 372 L259 333 L151 207 Q142 196 132 183 Q159 198 193 198 Z M186 -25 Q225 -25 245 -3 Q265 19 265 60 Q265 150 181 150 Q144 150 114 135 Q103 104 103 70 Q103 24 123.5 -0.5 Q144 -25 186 -25 Z " />
<glyph glyph-name="uni2087" unicode="&#x2087;" horiz-adv-x="300" d="M279 366 L279 313 L103 -79 L49 -53 L217 313 L5 313 L5 366 L279 366 Z " />
<glyph glyph-name="uni2088" unicode="&#x2088;" horiz-adv-x="378" d="M189 -79 Q118 -79 78.5 -47.5 Q39 -16 39 42 Q39 80 64 110 Q89 140 132 156 Q98 166 78.5 193 Q59 220 59 258 Q59 312 93.5 342.5 Q128 373 189 373 Q250 373 284.5 342.5 Q319 312 319 258 Q319 222 299.5 195 Q280 168 246 157 Q290 144 314.5 115 Q339 86 339 46 Q339 -13 299.5 -46 Q260 -79 189 -79 Z M192 174 Q256 193 256 254 Q256 285 239 302 Q222 319 189 319 Q156 319 139 302 Q122 285 122 255 Q122 194 192 174 Z M189 -25 Q231 -25 252.5 -6.5 Q274 12 274 46 Q274 76 252 99.5 Q230 123 186 137 Q145 124 124.5 101 Q104 78 104 47 Q104 12 125.5 -6.5 Q147 -25 189 -25 Z " />
<glyph glyph-name="uni2089" unicode="&#x2089;" horiz-adv-x="361" d="M175 372 Q245 372 283.5 333 Q322 294 322 223 Q322 174 308 135 Q294 96 260 55 L148 -79 L102 -40 L210 86 Q219 97 229 110 Q202 95 168 95 Q103 95 67 131.5 Q31 168 31 233 Q31 299 69 335.5 Q107 372 175 372 Z M96 233 Q96 143 180 143 Q217 143 247 158 Q258 189 258 223 Q258 269 237.5 293.5 Q217 318 175 318 Q136 318 116 296 Q96 274 96 233 Z " />
<glyph glyph-name="uni2070" unicode="&#x2070;" horiz-adv-x="412" d="M206 325 Q133 325 94 381 Q55 437 55 550 Q55 664 94 720 Q133 776 206 776 Q279 776 318 720 Q357 664 357 550 Q357 437 318 381 Q279 325 206 325 Z M206 379 Q250 379 270.5 420.5 Q291 462 291 550 Q291 638 270.5 680 Q250 722 206 722 Q162 722 141.5 680 Q121 638 121 550 Q121 462 141.5 420.5 Q162 379 206 379 Z " />
<glyph glyph-name="uni00B9" unicode="&#xb9;" horiz-adv-x="304" d="M188 770 L188 331 L126 331 L126 703 L37 671 L20 720 L141 770 L188 770 Z " />
<glyph glyph-name="uni00B2" unicode="&#xb2;" horiz-adv-x="343" d="M296 384 L296 331 L26 331 L26 384 L180 561 Q204 589 213 608 Q222 627 222 651 Q222 683 206.5 700.5 Q191 718 159 718 Q134 718 106 708 Q78 698 52 679 L25 726 Q55 749 91.5 762.5 Q128 776 164 776 Q222 776 254.5 745 Q287 714 287 657 Q287 624 272.5 594.5 Q258 565 222 524 L98 384 L296 384 Z " />
<glyph glyph-name="uni00B3" unicode="&#xb3;" horiz-adv-x="367" d="M179 596 Q240 596 274.5 562 Q309 528 309 467 Q309 400 268 362.5 Q227 325 153 325 Q117 325 83.5 335 Q50 345 25 364 L49 416 Q94 383 153 383 Q198 383 220.5 404.5 Q243 426 243 466 Q243 546 159 546 Q133 546 113 540 L92 568 L219 717 L34 717 L34 770 L289 770 L289 717 L178 596 L179 596 Z " />
<glyph glyph-name="uni2074" unicode="&#x2074;" horiz-adv-x="356" d="M325 472 L325 420 L271 420 L271 331 L211 331 L211 420 L17 420 L17 472 L181 770 L271 770 L271 472 L325 472 Z M211 472 L211 717 L80 472 L211 472 Z " />
<glyph glyph-name="uni2075" unicode="&#x2075;" horiz-adv-x="366" d="M175 607 Q240 607 276.5 571 Q313 535 313 471 Q313 402 272 363.5 Q231 325 158 325 Q122 325 89 334.5 Q56 344 33 362 L57 414 Q99 383 158 383 Q247 383 247 471 Q247 551 165 551 Q124 551 84 530 L50 547 L64 770 L285 770 L285 717 L117 717 L106 592 Q138 607 175 607 Z " />
<glyph glyph-name="uni2076" unicode="&#x2076;" horiz-adv-x="361" d="M193 602 Q258 602 294 565.5 Q330 529 330 464 Q330 398 292 361.5 Q254 325 186 325 Q116 325 77.5 364 Q39 403 39 474 Q39 523 53 562 Q67 601 101 642 L213 776 L259 737 L151 611 Q142 600 132 587 Q159 602 193 602 Z M186 379 Q225 379 245 401 Q265 423 265 464 Q265 554 181 554 Q144 554 114 539 Q103 508 103 474 Q103 428 123.5 403.5 Q144 379 186 379 Z " />
<glyph glyph-name="uni2077" unicode="&#x2077;" horiz-adv-x="300" d="M279 770 L279 717 L103 325 L49 351 L217 717 L5 717 L5 770 L279 770 Z " />
<glyph glyph-name="uni2078" unicode="&#x2078;" horiz-adv-x="378" d="M189 325 Q118 325 78.5 356.5 Q39 388 39 446 Q39 484 64 514 Q89 544 132 560 Q98 570 78.5 597 Q59 624 59 662 Q59 716 93.5 746.5 Q128 777 189 777 Q250 777 284.5 746.5 Q319 716 319 662 Q319 626 299.5 599 Q280 572 246 561 Q290 548 314.5 519 Q339 490 339 450 Q339 391 299.5 358 Q260 325 189 325 Z M192 578 Q256 597 256 658 Q256 689 239 706 Q222 723 189 723 Q156 723 139 706 Q122 689 122 659 Q122 598 192 578 Z M189 379 Q231 379 252.5 397.5 Q274 416 274 450 Q274 480 252 503.5 Q230 527 186 541 Q145 528 124.5 505 Q104 482 104 451 Q104 416 125.5 397.5 Q147 379 189 379 Z " />
<glyph glyph-name="uni2079" unicode="&#x2079;" horiz-adv-x="361" d="M175 776 Q245 776 283.5 737 Q322 698 322 627 Q322 578 308 539 Q294 500 260 459 L148 325 L102 364 L210 490 Q219 501 229 514 Q202 499 168 499 Q103 499 67 535.5 Q31 572 31 637 Q31 703 69 739.5 Q107 776 175 776 Z M96 637 Q96 547 180 547 Q217 547 247 562 Q258 593 258 627 Q258 673 237.5 697.5 Q217 722 175 722 Q136 722 116 700 Q96 678 96 637 Z " />
<glyph glyph-name="asterisk" unicode="&#x2a;" horiz-adv-x="496" d="M286 507 L389 376 L339 337 L248 476 L157 337 L107 376 L210 507 L60 548 L80 611 L224 556 L216 724 L280 724 L272 556 L415 611 L436 548 L286 507 Z " />
<glyph glyph-name="backslash" unicode="&#x5c;" horiz-adv-x="399" d="M318 -86 L18 737 L80 737 L380 -86 L318 -86 Z " />
<glyph glyph-name="middot" unicode="&#xb7;" horiz-adv-x="232" d="M116 278 Q91 278 77 292.5 Q63 307 63 333 Q63 359 77 373.5 Q91 388 116 388 Q141 388 155 373.5 Q169 359 169 334 Q169 307 155 292.5 Q141 278 116 278 Z " />
<glyph glyph-name="bullet" unicode="&#x2022;" horiz-adv-x="439" d="M219 182 Q145 182 104 225.5 Q63 269 63 347 Q63 425 104 468.5 Q145 512 219 512 Q293 512 334.5 468.5 Q376 425 376 347 Q376 269 334.5 225.5 Q293 182 219 182 Z " />
<glyph glyph-name="colon" unicode="&#x3a;" horiz-adv-x="272" d="M136 336 Q111 336 97 350.5 Q83 365 83 391 Q83 417 97 431.5 Q111 446 136 446 Q161 446 175 431.5 Q189 417 189 392 Q189 365 175 350.5 Q161 336 136 336 Z M136 -12 Q111 -12 97 2.5 Q83 17 83 43 Q83 69 97 83.5 Q111 98 136 98 Q161 98 175 83.5 Q189 69 189 44 Q189 17 175 2.5 Q161 -12 136 -12 Z " />
<glyph glyph-name="comma" unicode="&#x2c;" horiz-adv-x="216" d="M6 -140 Q44 -99 60.5 -58.5 Q77 -18 77 34 Q77 61 73 93 L149 93 Q153 61 153 35 Q153 -29 126 -80.5 Q99 -132 41 -177 L6 -140 Z " />
<glyph glyph-name="ellipsis" unicode="&#x2026;" horiz-adv-x="670" d="M554 -12 Q529 -12 515 2.5 Q501 17 501 43 Q501 69 515 83.5 Q529 98 554 98 Q579 98 593 83.5 Q607 69 607 44 Q607 17 593 2.5 Q579 -12 554 -12 Z M116 -12 Q91 -12 77 2.5 Q63 17 63 43 Q63 69 77 83.5 Q91 98 116 98 Q141 98 155 83.5 Q169 69 169 44 Q169 17 155 2.5 Q141 -12 116 -12 Z M335 -12 Q310 -12 296 2.5 Q282 17 282 43 Q282 69 296 83.5 Q310 98 335 98 Q360 98 374 83.5 Q388 69 388 44 Q388 17 374 2.5 Q360 -12 335 -12 Z " />
<glyph glyph-name="exclam" unicode="&#x21;" horiz-adv-x="326" d="M118 724 L202 724 L189 195 L133 195 L118 724 Z M163 -12 Q138 -12 124 2.5 Q110 17 110 43 Q110 69 124 83.5 Q138 98 163 98 Q188 98 202 83.5 Q216 69 216 44 Q216 17 202 2.5 Q188 -12 163 -12 Z " />
<glyph glyph-name="exclamdown" unicode="&#xa1;" horiz-adv-x="326" d="M163 546 Q188 546 202 531.5 Q216 517 216 491 Q216 465 202 450.5 Q188 436 163 436 Q138 436 124 450.5 Q110 465 110 490 Q110 517 124 531.5 Q138 546 163 546 Z M208 -190 L124 -190 L137 339 L193 339 L208 -190 Z " />
<glyph glyph-name="numbersign" unicode="&#x23;" horiz-adv-x="603" d="M440 460 L411 264 L529 264 L529 210 L403 210 L372 0 L315 0 L346 210 L212 210 L181 0 L125 0 L156 210 L33 210 L33 264 L164 264 L193 460 L72 460 L72 514 L201 514 L232 724 L289 724 L258 514 L392 514 L423 724 L479 724 L448 514 L570 514 L570 460 L440 460 Z M384 460 L250 460 L220 264 L354 264 L384 460 Z " />
<glyph glyph-name="period" unicode="&#x2e;" horiz-adv-x="232" d="M116 -12 Q91 -12 77 2.5 Q63 17 63 43 Q63 69 77 83.5 Q91 98 116 98 Q141 98 155 83.5 Q169 69 169 44 Q169 17 155 2.5 Q141 -12 116 -12 Z " />
<glyph glyph-name="question" unicode="&#x3f;" horiz-adv-x="476" d="M174 195 Q171 233 171 256 Q171 302 186 334 Q201 366 217.5 383 Q234 400 277 439 Q313 471 327 497 Q341 523 341 558 Q341 612 312.5 640 Q284 668 229 668 Q149 668 78 615 L49 676 Q82 704 129.5 720 Q177 736 229 736 Q318 736 367.5 689.5 Q417 643 417 561 Q417 513 396.5 475.5 Q376 438 324 393 Q317 387 292.5 366.5 Q268 346 255 318.5 Q242 291 242 253 Q242 230 245 195 L174 195 Z M213 -12 Q188 -12 174 2.5 Q160 17 160 43 Q160 69 174 83.5 Q188 98 213 98 Q238 98 252 83.5 Q266 69 266 44 Q266 17 252 2.5 Q238 -12 213 -12 Z " />
<glyph glyph-name="questiondown" unicode="&#xbf;" horiz-adv-x="426" d="M263 546 Q288 546 302 531.5 Q316 517 316 491 Q316 465 302 450.5 Q288 436 263 436 Q238 436 224 450.5 Q210 465 210 490 Q210 517 224 531.5 Q238 546 263 546 Z M302 339 Q305 302 305 278 Q305 232 290 200 Q275 168 258.5 151 Q242 134 199 95 Q163 63 149 37 Q135 11 135 -24 Q135 -78 163.5 -106 Q192 -134 247 -134 Q327 -134 398 -81 L427 -142 Q394 -170 346.5 -186 Q299 -202 247 -202 Q158 -202 108.5 -155.5 Q59 -109 59 -27 Q59 21 79.5 58.5 Q100 96 152 141 Q159 147 183.5 167.5 Q208 188 221 215.5 Q234 243 234 281 Q234 305 231 339 L302 339 Z " />
<glyph glyph-name="quotedbl" unicode="&#x22;" horiz-adv-x="334" d="M199 724 L274 724 L257 493 L216 493 L199 724 Z M60 724 L135 724 L118 493 L77 493 L60 724 Z " />
<glyph glyph-name="quotesingle" unicode="&#x27;" horiz-adv-x="195" d="M60 724 L135 724 L118 493 L77 493 L60 724 Z " />
<glyph glyph-name="semicolon" unicode="&#x3b;" horiz-adv-x="272" d="M136 336 Q111 336 97 350.5 Q83 365 83 391 Q83 417 97 431.5 Q111 446 136 446 Q161 446 175 431.5 Q189 417 189 392 Q189 365 175 350.5 Q161 336 136 336 Z M31 -140 Q69 -99 85.5 -58.5 Q102 -18 102 34 Q102 61 98 93 L174 93 Q178 61 178 35 Q178 -29 151 -80.5 Q124 -132 66 -177 L31 -140 Z " />
<glyph glyph-name="slash" unicode="&#x2f;" horiz-adv-x="399" d="M319 737 L381 737 L81 -86 L19 -86 L319 737 Z " />
<glyph glyph-name="underscore" unicode="&#x5f;" horiz-adv-x="557" d="M90 -77 L467 -77 L467 -144 L90 -144 L90 -77 Z " />
<glyph glyph-name="uni208D" unicode="&#x208d;" horiz-adv-x="230" d="M141 -131 Q97 -73 72.5 0 Q48 73 48 145 Q48 219 72.5 292.5 Q97 366 141 424 L184 393 Q110 293 110 146 Q110 0 184 -100 L141 -131 Z " />
<glyph glyph-name="uni208E" unicode="&#x208e;" horiz-adv-x="230" d="M89 424 Q133 366 157.5 293 Q182 220 182 148 Q182 74 157.5 0.5 Q133 -73 89 -131 L46 -100 Q120 0 120 147 Q120 293 46 393 L89 424 Z " />
<glyph glyph-name="braceleft" unicode="&#x7b;" horiz-adv-x="325" d="M288 -105 Q227 -91 192 -66.5 Q157 -42 141.5 0 Q126 42 126 108 L126 233 Q126 274 100.5 293 Q75 312 20 313 L20 373 Q75 374 100.5 392.5 Q126 411 126 451 L126 577 Q126 643 141.5 684.5 Q157 726 192 751 Q227 776 288 790 L304 730 Q259 719 234.5 701.5 Q210 684 200 655 Q190 626 190 577 L190 451 Q190 406 172.5 379.5 Q155 353 118 343 Q155 333 172.5 306 Q190 279 190 233 L190 108 Q190 58 200 29 Q210 0 234.5 -17.5 Q259 -35 304 -46 L288 -105 Z " />
</font>
</svg>
